G04*
G04 #@! TF.GenerationSoftware,Altium Limited,Altium Designer,20.1.8 (145)*
G04*
G04 Layer_Color=32896*
%FSLAX25Y25*%
%MOIN*%
G70*
G04*
G04 #@! TF.SameCoordinates,8A5546FC-2E64-4ACD-A3F0-66F597033F2E*
G04*
G04*
G04 #@! TF.FilePolarity,Positive*
G04*
G01*
G75*
%ADD11C,0.00787*%
%ADD13C,0.02362*%
%ADD93C,0.01181*%
G36*
X218105Y128796D02*
X219331D01*
Y128659D01*
X220285D01*
Y128523D01*
X220966D01*
Y128387D01*
X221511D01*
Y128251D01*
X222056D01*
Y128114D01*
X222465D01*
Y127978D01*
X222874D01*
Y127842D01*
X223283D01*
Y127706D01*
X223691D01*
Y127569D01*
X223964D01*
Y127433D01*
X224373D01*
Y127297D01*
X224645D01*
Y127161D01*
X224918D01*
Y127024D01*
X225326D01*
Y126888D01*
X225599D01*
Y126752D01*
X225871D01*
Y126616D01*
X226144D01*
Y126479D01*
X226416D01*
Y126343D01*
X226553D01*
Y126207D01*
X226825D01*
Y126071D01*
X227098D01*
Y125934D01*
X227234D01*
Y125798D01*
X227507D01*
Y125662D01*
X227779D01*
Y125526D01*
X227915D01*
Y125389D01*
X228188D01*
Y125253D01*
X228324D01*
Y125117D01*
X228460D01*
Y124981D01*
X228733D01*
Y124844D01*
X228869D01*
Y124708D01*
X229142D01*
Y124572D01*
X229278D01*
Y124436D01*
X229414D01*
Y124299D01*
X229550D01*
Y124163D01*
X229823D01*
Y124027D01*
X229959D01*
Y123891D01*
X230095D01*
Y123754D01*
X230232D01*
Y123618D01*
X230368D01*
Y123482D01*
X230504D01*
Y123346D01*
X230641D01*
Y123209D01*
X230777D01*
Y123073D01*
X230913D01*
Y122937D01*
X231049D01*
Y122801D01*
X231186D01*
Y122664D01*
X231322D01*
Y122528D01*
X231458D01*
Y122392D01*
X231594D01*
Y122256D01*
X231731D01*
Y122119D01*
X231867D01*
Y121983D01*
X232003D01*
Y121847D01*
X232139D01*
Y121711D01*
X232276D01*
Y121574D01*
X232412D01*
Y121438D01*
X232548D01*
Y121302D01*
Y121166D01*
X232684D01*
Y121029D01*
X232821D01*
Y120893D01*
X232957D01*
Y120757D01*
X233093D01*
Y120621D01*
Y120484D01*
X233229D01*
Y120348D01*
X233366D01*
Y120212D01*
X233502D01*
Y120075D01*
Y119939D01*
X233638D01*
Y119803D01*
X233774D01*
Y119667D01*
Y119530D01*
X233911D01*
Y119394D01*
X234047D01*
Y119258D01*
Y119122D01*
X234183D01*
Y118985D01*
X234319D01*
Y118849D01*
Y118713D01*
X234456D01*
Y118577D01*
Y118440D01*
X234592D01*
Y118304D01*
Y118168D01*
X234728D01*
Y118032D01*
X234864D01*
Y117895D01*
Y117759D01*
X235001D01*
Y117623D01*
Y117487D01*
X235137D01*
Y117350D01*
Y117214D01*
X235273D01*
Y117078D01*
Y116942D01*
X235409D01*
Y116805D01*
Y116669D01*
X235546D01*
Y116533D01*
Y116396D01*
Y116260D01*
X235682D01*
Y116124D01*
Y115988D01*
X235818D01*
Y115851D01*
Y115715D01*
X235954D01*
Y115579D01*
Y115443D01*
Y115306D01*
X236091D01*
Y115170D01*
Y115034D01*
Y114898D01*
X236227D01*
Y114761D01*
Y114625D01*
Y114489D01*
X236363D01*
Y114353D01*
Y114216D01*
Y114080D01*
X236499D01*
Y113944D01*
Y113808D01*
Y113671D01*
X236636D01*
Y113535D01*
Y113399D01*
Y113263D01*
Y113126D01*
X236772D01*
Y112990D01*
Y112854D01*
Y112718D01*
Y112581D01*
X236908D01*
Y112445D01*
Y112309D01*
Y112173D01*
Y112036D01*
Y111900D01*
X237045D01*
Y111764D01*
Y111628D01*
Y111491D01*
Y111355D01*
Y111219D01*
Y111083D01*
X237181D01*
Y110946D01*
Y110810D01*
Y110674D01*
Y110538D01*
Y110401D01*
Y110265D01*
Y110129D01*
Y109993D01*
X237317D01*
Y109856D01*
Y109720D01*
Y109584D01*
Y109448D01*
Y109311D01*
Y109175D01*
Y109039D01*
Y108903D01*
Y108766D01*
Y108630D01*
Y108494D01*
Y108357D01*
Y108221D01*
Y108085D01*
Y107949D01*
Y107812D01*
Y107676D01*
Y107540D01*
Y107404D01*
Y107267D01*
Y107131D01*
Y106995D01*
Y106859D01*
Y106722D01*
Y106586D01*
Y106450D01*
Y106314D01*
Y106177D01*
Y106041D01*
Y105905D01*
Y105769D01*
Y105632D01*
X237181D01*
Y105496D01*
Y105360D01*
Y105224D01*
Y105087D01*
Y104951D01*
Y104815D01*
Y104678D01*
X237045D01*
Y104542D01*
Y104406D01*
Y104270D01*
Y104133D01*
Y103997D01*
Y103861D01*
X236908D01*
Y103725D01*
Y103588D01*
Y103452D01*
Y103316D01*
Y103180D01*
X236772D01*
Y103043D01*
Y102907D01*
Y102771D01*
Y102635D01*
X236636D01*
Y102498D01*
Y102362D01*
Y102226D01*
Y102090D01*
X236499D01*
Y101953D01*
Y101817D01*
Y101681D01*
X236363D01*
Y101545D01*
Y101408D01*
Y101272D01*
X236227D01*
Y101136D01*
Y101000D01*
Y100863D01*
X236091D01*
Y100727D01*
Y100591D01*
Y100455D01*
X235954D01*
Y100318D01*
Y100182D01*
Y100046D01*
X235818D01*
Y99910D01*
Y99773D01*
X235682D01*
Y99637D01*
Y99501D01*
X235546D01*
Y99365D01*
Y99228D01*
Y99092D01*
X235409D01*
Y98956D01*
Y98820D01*
X235273D01*
Y98683D01*
Y98547D01*
X235137D01*
Y98411D01*
Y98274D01*
X235001D01*
Y98138D01*
Y98002D01*
X234864D01*
Y97866D01*
Y97729D01*
X234728D01*
Y97593D01*
X234592D01*
Y97457D01*
Y97321D01*
X234456D01*
Y97184D01*
Y97048D01*
X234319D01*
Y96912D01*
X234183D01*
Y96776D01*
Y96640D01*
X234047D01*
Y96503D01*
Y96367D01*
X233911D01*
Y96231D01*
X233774D01*
Y96095D01*
Y95958D01*
X233638D01*
Y95822D01*
X233502D01*
Y95686D01*
X233366D01*
Y95549D01*
Y95413D01*
X233229D01*
Y95277D01*
X233093D01*
Y95141D01*
Y95004D01*
X232957D01*
Y94868D01*
X232821D01*
Y94732D01*
X232684D01*
Y94596D01*
X232548D01*
Y94459D01*
X232412D01*
Y94323D01*
Y94187D01*
X232276D01*
Y94051D01*
X232139D01*
Y93914D01*
X232003D01*
Y93778D01*
X231867D01*
Y93642D01*
X231731D01*
Y93506D01*
X231594D01*
Y93369D01*
X231458D01*
Y93233D01*
X231322D01*
Y93097D01*
X231186D01*
Y92961D01*
X231049D01*
Y92824D01*
X230913D01*
Y92688D01*
X230777D01*
Y92552D01*
X230641D01*
Y92415D01*
X230504D01*
Y92279D01*
X230368D01*
Y92143D01*
X230232D01*
Y92007D01*
X230095D01*
Y91870D01*
X229823D01*
Y91734D01*
X229687D01*
Y91598D01*
X229550D01*
Y91462D01*
X229414D01*
Y91325D01*
X229142D01*
Y91189D01*
X229005D01*
Y91053D01*
X228869D01*
Y90917D01*
X228597D01*
Y90781D01*
X228460D01*
Y90644D01*
X228188D01*
Y90508D01*
X228052D01*
Y90372D01*
X227779D01*
Y90235D01*
X227507D01*
Y90099D01*
X227370D01*
Y89963D01*
X227098D01*
Y89827D01*
X226825D01*
Y89690D01*
X226553D01*
Y89554D01*
X226416D01*
Y89418D01*
X226144D01*
Y89282D01*
X225735D01*
Y89145D01*
X225463D01*
Y89009D01*
X225190D01*
Y88873D01*
X224918D01*
Y88737D01*
X224509D01*
Y88600D01*
X224236D01*
Y88464D01*
X223828D01*
Y88328D01*
X223419D01*
Y88192D01*
X223010D01*
Y88055D01*
X222465D01*
Y87919D01*
X222056D01*
Y87783D01*
X221375D01*
Y87647D01*
X220830D01*
Y87510D01*
X220012D01*
Y87374D01*
X218922D01*
Y87238D01*
X214017D01*
Y87374D01*
X212927D01*
Y87510D01*
X212110D01*
Y87647D01*
X211428D01*
Y87783D01*
X210883D01*
Y87919D01*
X210338D01*
Y88055D01*
X209793D01*
Y88192D01*
X209385D01*
Y88328D01*
X208976D01*
Y88464D01*
X208567D01*
Y88600D01*
X208158D01*
Y88737D01*
X207750D01*
Y88873D01*
X207477D01*
Y89009D01*
X207068D01*
Y89145D01*
X206796D01*
Y89282D01*
X206387D01*
Y89418D01*
X206114D01*
Y89554D01*
X205842D01*
Y89690D01*
X205569D01*
Y89827D01*
X205297D01*
Y89963D01*
X205024D01*
Y90099D01*
X204752D01*
Y90235D01*
X204479D01*
Y90372D01*
X204207D01*
Y90508D01*
X203934D01*
Y90644D01*
X203662D01*
Y90781D01*
X203526D01*
Y90917D01*
X203253D01*
Y91053D01*
X203117D01*
Y91189D01*
X202980D01*
Y91325D01*
Y91462D01*
X202844D01*
Y91598D01*
X202708D01*
Y91734D01*
Y91870D01*
X202572D01*
Y92007D01*
Y92143D01*
Y92279D01*
X202435D01*
Y92415D01*
Y92552D01*
Y92688D01*
Y92824D01*
Y92961D01*
X202299D01*
Y93097D01*
Y93233D01*
Y93369D01*
Y93506D01*
Y93642D01*
Y93778D01*
Y93914D01*
Y94051D01*
Y94187D01*
Y94323D01*
Y94459D01*
Y94596D01*
Y94732D01*
Y94868D01*
Y95004D01*
Y95141D01*
Y95277D01*
Y95413D01*
Y95549D01*
Y95686D01*
Y95822D01*
Y95958D01*
Y96095D01*
Y96231D01*
Y96367D01*
Y96503D01*
Y96640D01*
Y96776D01*
Y96912D01*
Y97048D01*
Y97184D01*
Y97321D01*
Y97457D01*
Y97593D01*
Y97729D01*
Y97866D01*
Y98002D01*
Y98138D01*
Y98274D01*
Y98411D01*
Y98547D01*
Y98683D01*
Y98820D01*
Y98956D01*
Y99092D01*
Y99228D01*
Y99365D01*
Y99501D01*
Y99637D01*
Y99773D01*
Y99910D01*
Y100046D01*
Y100182D01*
Y100318D01*
Y100455D01*
Y100591D01*
Y100727D01*
Y100863D01*
Y101000D01*
Y101136D01*
Y101272D01*
Y101408D01*
Y101545D01*
Y101681D01*
Y101817D01*
Y101953D01*
Y102090D01*
Y102226D01*
Y102362D01*
Y102498D01*
Y102635D01*
Y102771D01*
Y102907D01*
Y103043D01*
Y103180D01*
Y103316D01*
Y103452D01*
Y103588D01*
Y103725D01*
Y103861D01*
Y103997D01*
Y104133D01*
Y104270D01*
Y104406D01*
Y104542D01*
Y104678D01*
Y104815D01*
Y104951D01*
Y105087D01*
Y105224D01*
Y105360D01*
Y105496D01*
Y105632D01*
Y105769D01*
Y105905D01*
Y106041D01*
Y106177D01*
Y106314D01*
Y106450D01*
X202435D01*
Y106586D01*
Y106722D01*
Y106859D01*
Y106995D01*
Y107131D01*
X202572D01*
Y107267D01*
Y107404D01*
Y107540D01*
X202708D01*
Y107676D01*
Y107812D01*
X202844D01*
Y107949D01*
X202980D01*
Y108085D01*
X203117D01*
Y108221D01*
Y108357D01*
X203389D01*
Y108494D01*
X203526D01*
Y108630D01*
X203662D01*
Y108766D01*
X203934D01*
Y108903D01*
X204343D01*
Y109039D01*
X204888D01*
Y109175D01*
X215380D01*
Y109039D01*
X216061D01*
Y108903D01*
X216334D01*
Y108766D01*
X216606D01*
Y108630D01*
X216742D01*
Y108494D01*
X217015D01*
Y108357D01*
X217151D01*
Y108221D01*
X217287D01*
Y108085D01*
X217424D01*
Y107949D01*
Y107812D01*
X217560D01*
Y107676D01*
Y107540D01*
X217696D01*
Y107404D01*
Y107267D01*
X217832D01*
Y107131D01*
Y106995D01*
Y106859D01*
Y106722D01*
X217969D01*
Y106586D01*
Y106450D01*
Y106314D01*
Y106177D01*
Y106041D01*
Y105905D01*
X217832D01*
Y105769D01*
Y105632D01*
Y105496D01*
Y105360D01*
X217696D01*
Y105224D01*
Y105087D01*
X217560D01*
Y104951D01*
Y104815D01*
X217424D01*
Y104678D01*
X217287D01*
Y104542D01*
X217151D01*
Y104406D01*
X217015D01*
Y104270D01*
X216879D01*
Y104133D01*
X216742D01*
Y103997D01*
X216470D01*
Y103861D01*
X216197D01*
Y103725D01*
X215925D01*
Y103588D01*
X208022D01*
Y103452D01*
X207886D01*
Y103316D01*
Y103180D01*
Y103043D01*
Y102907D01*
Y102771D01*
Y102635D01*
Y102498D01*
Y102362D01*
Y102226D01*
Y102090D01*
Y101953D01*
Y101817D01*
Y101681D01*
Y101545D01*
Y101408D01*
Y101272D01*
Y101136D01*
Y101000D01*
Y100863D01*
Y100727D01*
Y100591D01*
Y100455D01*
Y100318D01*
Y100182D01*
Y100046D01*
Y99910D01*
Y99773D01*
Y99637D01*
Y99501D01*
Y99365D01*
Y99228D01*
Y99092D01*
Y98956D01*
Y98820D01*
Y98683D01*
Y98547D01*
Y98411D01*
Y98274D01*
Y98138D01*
Y98002D01*
Y97866D01*
Y97729D01*
Y97593D01*
Y97457D01*
Y97321D01*
Y97184D01*
Y97048D01*
Y96912D01*
Y96776D01*
Y96640D01*
Y96503D01*
Y96367D01*
Y96231D01*
Y96095D01*
Y95958D01*
Y95822D01*
Y95686D01*
Y95549D01*
Y95413D01*
Y95277D01*
Y95141D01*
Y95004D01*
Y94868D01*
Y94732D01*
X208158D01*
Y94596D01*
X208431D01*
Y94459D01*
X208703D01*
Y94323D01*
X209112D01*
Y94187D01*
X209385D01*
Y94051D01*
X209793D01*
Y93914D01*
X210066D01*
Y93778D01*
X210475D01*
Y93642D01*
X210883D01*
Y93506D01*
X211428D01*
Y93369D01*
X211974D01*
Y93233D01*
X212519D01*
Y93097D01*
X213200D01*
Y92961D01*
X214154D01*
Y92824D01*
X215925D01*
Y92688D01*
X217015D01*
Y92824D01*
X218786D01*
Y92961D01*
X219740D01*
Y93097D01*
X220421D01*
Y93233D01*
X220966D01*
Y93369D01*
X221375D01*
Y93506D01*
X221784D01*
Y93642D01*
X222193D01*
Y93778D01*
X222601D01*
Y93914D01*
X222874D01*
Y94051D01*
X223146D01*
Y94187D01*
X223419D01*
Y94323D01*
X223691D01*
Y94459D01*
X223964D01*
Y94596D01*
X224236D01*
Y94732D01*
X224509D01*
Y94868D01*
X224781D01*
Y95004D01*
X224918D01*
Y95141D01*
X225190D01*
Y95277D01*
X225326D01*
Y95413D01*
X225599D01*
Y95549D01*
X225735D01*
Y95686D01*
X225871D01*
Y95822D01*
X226144D01*
Y95958D01*
X226280D01*
Y96095D01*
X226416D01*
Y96231D01*
X226553D01*
Y96367D01*
X226689D01*
Y96503D01*
X226825D01*
Y96640D01*
X227098D01*
Y96776D01*
X227234D01*
Y96912D01*
X227370D01*
Y97048D01*
X227507D01*
Y97184D01*
X227643D01*
Y97321D01*
X227779D01*
Y97457D01*
X227915D01*
Y97593D01*
Y97729D01*
X228052D01*
Y97866D01*
X228188D01*
Y98002D01*
X228324D01*
Y98138D01*
X228460D01*
Y98274D01*
X228597D01*
Y98411D01*
Y98547D01*
X228733D01*
Y98683D01*
X228869D01*
Y98820D01*
X229005D01*
Y98956D01*
Y99092D01*
X229142D01*
Y99228D01*
X229278D01*
Y99365D01*
Y99501D01*
X229414D01*
Y99637D01*
X229550D01*
Y99773D01*
Y99910D01*
X229687D01*
Y100046D01*
Y100182D01*
X229823D01*
Y100318D01*
X229959D01*
Y100455D01*
Y100591D01*
X230095D01*
Y100727D01*
Y100863D01*
X230232D01*
Y101000D01*
Y101136D01*
X230368D01*
Y101272D01*
Y101408D01*
X230504D01*
Y101545D01*
Y101681D01*
Y101817D01*
X230641D01*
Y101953D01*
Y102090D01*
X230777D01*
Y102226D01*
Y102362D01*
X230913D01*
Y102498D01*
Y102635D01*
Y102771D01*
X231049D01*
Y102907D01*
Y103043D01*
Y103180D01*
X231186D01*
Y103316D01*
Y103452D01*
Y103588D01*
Y103725D01*
X231322D01*
Y103861D01*
Y103997D01*
Y104133D01*
Y104270D01*
X231458D01*
Y104406D01*
Y104542D01*
Y104678D01*
Y104815D01*
X231594D01*
Y104951D01*
Y105087D01*
Y105224D01*
Y105360D01*
Y105496D01*
Y105632D01*
Y105769D01*
X231731D01*
Y105905D01*
Y106041D01*
Y106177D01*
Y106314D01*
Y106450D01*
Y106586D01*
Y106722D01*
Y106859D01*
Y106995D01*
Y107131D01*
Y107267D01*
Y107404D01*
Y107540D01*
Y107676D01*
X231867D01*
Y107812D01*
Y107949D01*
Y108085D01*
X231731D01*
Y108221D01*
Y108357D01*
Y108494D01*
Y108630D01*
Y108766D01*
Y108903D01*
Y109039D01*
Y109175D01*
Y109311D01*
Y109448D01*
Y109584D01*
Y109720D01*
Y109856D01*
Y109993D01*
X231594D01*
Y110129D01*
Y110265D01*
Y110401D01*
Y110538D01*
Y110674D01*
Y110810D01*
X231458D01*
Y110946D01*
Y111083D01*
Y111219D01*
Y111355D01*
Y111491D01*
X231322D01*
Y111628D01*
Y111764D01*
Y111900D01*
Y112036D01*
X231186D01*
Y112173D01*
Y112309D01*
Y112445D01*
Y112581D01*
X231049D01*
Y112718D01*
Y112854D01*
Y112990D01*
X230913D01*
Y113126D01*
Y113263D01*
X230777D01*
Y113399D01*
Y113535D01*
Y113671D01*
X230641D01*
Y113808D01*
Y113944D01*
X230504D01*
Y114080D01*
Y114216D01*
Y114353D01*
X230368D01*
Y114489D01*
Y114625D01*
X230232D01*
Y114761D01*
Y114898D01*
X230095D01*
Y115034D01*
Y115170D01*
X229959D01*
Y115306D01*
Y115443D01*
X229823D01*
Y115579D01*
X229687D01*
Y115715D01*
Y115851D01*
X229550D01*
Y115988D01*
Y116124D01*
X229414D01*
Y116260D01*
X229278D01*
Y116396D01*
Y116533D01*
X229142D01*
Y116669D01*
X229005D01*
Y116805D01*
Y116942D01*
X228869D01*
Y117078D01*
X228733D01*
Y117214D01*
X228597D01*
Y117350D01*
Y117487D01*
X228460D01*
Y117623D01*
X228324D01*
Y117759D01*
X228188D01*
Y117895D01*
X228052D01*
Y118032D01*
Y118168D01*
X227915D01*
Y118304D01*
X227779D01*
Y118440D01*
X227643D01*
Y118577D01*
X227507D01*
Y118713D01*
X227370D01*
Y118849D01*
X227234D01*
Y118985D01*
X227098D01*
Y119122D01*
X226961D01*
Y119258D01*
X226825D01*
Y119394D01*
X226689D01*
Y119530D01*
X226553D01*
Y119667D01*
X226280D01*
Y119803D01*
X226144D01*
Y119939D01*
X226008D01*
Y120075D01*
X225871D01*
Y120212D01*
X225599D01*
Y120348D01*
X225463D01*
Y120484D01*
X225326D01*
Y120621D01*
X225054D01*
Y120757D01*
X224918D01*
Y120893D01*
X224645D01*
Y121029D01*
X224509D01*
Y121166D01*
X224236D01*
Y121302D01*
X223964D01*
Y121438D01*
X223691D01*
Y121574D01*
X223555D01*
Y121711D01*
X223283D01*
Y121847D01*
X223010D01*
Y121983D01*
X222738D01*
Y122119D01*
X222329D01*
Y122256D01*
X222056D01*
Y122392D01*
X221648D01*
Y122528D01*
X221375D01*
Y122664D01*
X220966D01*
Y122801D01*
X220421D01*
Y122937D01*
X219876D01*
Y123073D01*
X219195D01*
Y123209D01*
X217969D01*
Y123346D01*
X215652D01*
Y123209D01*
X214562D01*
Y123073D01*
X213745D01*
Y122937D01*
X213064D01*
Y122801D01*
X212519D01*
Y122664D01*
X212110D01*
Y122528D01*
X211701D01*
Y122392D01*
X211292D01*
Y122256D01*
X210883D01*
Y122119D01*
X210475D01*
Y121983D01*
X210202D01*
Y121847D01*
X209793D01*
Y121711D01*
X209521D01*
Y121574D01*
X209248D01*
Y121438D01*
X208976D01*
Y121302D01*
X208703D01*
Y121166D01*
X208431D01*
Y121029D01*
X208158D01*
Y120893D01*
X207886D01*
Y120757D01*
X207613D01*
Y120621D01*
X207341D01*
Y120484D01*
X207068D01*
Y120348D01*
X206796D01*
Y120212D01*
X206660D01*
Y120075D01*
X206387D01*
Y119939D01*
X206114D01*
Y119803D01*
X205978D01*
Y119667D01*
X205706D01*
Y119530D01*
X205433D01*
Y119394D01*
X205161D01*
Y119258D01*
X204888D01*
Y119122D01*
X204071D01*
Y118985D01*
X203934D01*
Y119122D01*
X203253D01*
Y119258D01*
X202844D01*
Y119394D01*
X202572D01*
Y119530D01*
X202435D01*
Y119667D01*
X202163D01*
Y119803D01*
X202027D01*
Y119939D01*
X201890D01*
Y120075D01*
Y120212D01*
X201754D01*
Y120348D01*
X201618D01*
Y120484D01*
Y120621D01*
X201482D01*
Y120757D01*
Y120893D01*
X201345D01*
Y121029D01*
Y121166D01*
Y121302D01*
Y121438D01*
X201209D01*
Y121574D01*
Y121711D01*
Y121847D01*
Y121983D01*
Y122119D01*
X201345D01*
Y122256D01*
Y122392D01*
Y122528D01*
Y122664D01*
X201482D01*
Y122801D01*
Y122937D01*
Y123073D01*
X201618D01*
Y123209D01*
Y123346D01*
X201754D01*
Y123482D01*
X201890D01*
Y123618D01*
X202027D01*
Y123754D01*
X202163D01*
Y123891D01*
X202299D01*
Y124027D01*
X202435D01*
Y124163D01*
X202572D01*
Y124299D01*
X202844D01*
Y124436D01*
X203117D01*
Y124572D01*
X203253D01*
Y124708D01*
X203526D01*
Y124844D01*
X203798D01*
Y124981D01*
X203934D01*
Y125117D01*
X204207D01*
Y125253D01*
X204479D01*
Y125389D01*
X204752D01*
Y125526D01*
X205024D01*
Y125662D01*
X205297D01*
Y125798D01*
X205569D01*
Y125934D01*
X205842D01*
Y126071D01*
X206114D01*
Y126207D01*
X206387D01*
Y126343D01*
X206660D01*
Y126479D01*
X206932D01*
Y126616D01*
X207205D01*
Y126752D01*
X207477D01*
Y126888D01*
X207886D01*
Y127024D01*
X208158D01*
Y127161D01*
X208567D01*
Y127297D01*
X208840D01*
Y127433D01*
X209248D01*
Y127569D01*
X209657D01*
Y127706D01*
X210066D01*
Y127842D01*
X210475D01*
Y127978D01*
X211020D01*
Y128114D01*
X211428D01*
Y128251D01*
X211974D01*
Y128387D01*
X212655D01*
Y128523D01*
X213336D01*
Y128659D01*
X214154D01*
Y128796D01*
X215516D01*
Y128932D01*
X218105D01*
Y128796D01*
D02*
G37*
G36*
X161150Y128932D02*
X162513D01*
Y128796D01*
X163466D01*
Y128659D01*
X164148D01*
Y128523D01*
X164829D01*
Y128387D01*
X165374D01*
Y128251D01*
X165919D01*
Y128114D01*
X166328D01*
Y127978D01*
X166737D01*
Y127842D01*
X167145D01*
Y127706D01*
X167554D01*
Y127569D01*
X167963D01*
Y127433D01*
X168372D01*
Y127297D01*
X168644D01*
Y127161D01*
X169053D01*
Y127024D01*
X169325D01*
Y126888D01*
X169734D01*
Y126752D01*
X170007D01*
Y126616D01*
X170279D01*
Y126479D01*
X170552D01*
Y126343D01*
X170824D01*
Y126207D01*
X171097D01*
Y126071D01*
X171369D01*
Y125934D01*
X171642D01*
Y125798D01*
X171914D01*
Y125662D01*
X172187D01*
Y125526D01*
X172459D01*
Y125389D01*
X172596D01*
Y125253D01*
X172868D01*
Y125117D01*
X173141D01*
Y124981D01*
X173277D01*
Y124844D01*
X173549D01*
Y124708D01*
X173822D01*
Y124572D01*
X173958D01*
Y124436D01*
X174231D01*
Y124299D01*
X174367D01*
Y124163D01*
X174639D01*
Y124027D01*
X174776D01*
Y123891D01*
X175048D01*
Y123754D01*
X175184D01*
Y123618D01*
X175457D01*
Y123482D01*
X175593D01*
Y123346D01*
X175866D01*
Y123209D01*
X176002D01*
Y123073D01*
X176138D01*
Y122937D01*
X176411D01*
Y122801D01*
X176547D01*
Y122664D01*
X176683D01*
Y122528D01*
X176956D01*
Y122392D01*
X177092D01*
Y122256D01*
X177228D01*
Y122119D01*
X177501D01*
Y121983D01*
X177637D01*
Y121847D01*
X177773D01*
Y121711D01*
X177910D01*
Y121574D01*
X178182D01*
Y121438D01*
X178318D01*
Y121302D01*
X178454D01*
Y121166D01*
X178591D01*
Y121029D01*
X178863D01*
Y120893D01*
X179000D01*
Y120757D01*
X179136D01*
Y120621D01*
X179272D01*
Y120484D01*
X179408D01*
Y120348D01*
X179545D01*
Y120212D01*
X179817D01*
Y120075D01*
X179953D01*
Y119939D01*
X180090D01*
Y119803D01*
X180226D01*
Y119667D01*
X180362D01*
Y119530D01*
X180498D01*
Y119394D01*
X180635D01*
Y119258D01*
X180907D01*
Y119122D01*
X181043D01*
Y118985D01*
X181180D01*
Y118849D01*
X181316D01*
Y118713D01*
X181452D01*
Y118577D01*
X181588D01*
Y118440D01*
X181725D01*
Y118304D01*
X181861D01*
Y118168D01*
X181997D01*
Y118032D01*
X182133D01*
Y117895D01*
X182270D01*
Y117759D01*
X182542D01*
Y117623D01*
X182678D01*
Y117487D01*
X182815D01*
Y117350D01*
X182951D01*
Y117214D01*
X183087D01*
Y117078D01*
X183223D01*
Y116942D01*
X183360D01*
Y116805D01*
X183496D01*
Y116669D01*
X183632D01*
Y116533D01*
X183768D01*
Y116396D01*
X183905D01*
Y116260D01*
X184041D01*
Y116124D01*
X184177D01*
Y115988D01*
X184313D01*
Y115851D01*
X184450D01*
Y115715D01*
X184586D01*
Y115579D01*
X184722D01*
Y115443D01*
X184859D01*
Y115306D01*
X184995D01*
Y115170D01*
X185131D01*
Y115034D01*
X185267D01*
Y114898D01*
X185404D01*
Y114761D01*
X185540D01*
Y114625D01*
X185676D01*
Y114489D01*
X185812D01*
Y114353D01*
X185949D01*
Y114216D01*
X186085D01*
Y114080D01*
X186221D01*
Y113944D01*
X186357D01*
Y113808D01*
X186494D01*
Y113671D01*
X186630D01*
Y113535D01*
X186766D01*
Y113399D01*
X186902D01*
Y113263D01*
X187039D01*
Y113126D01*
X187175D01*
Y112990D01*
X187311D01*
Y112854D01*
X187447D01*
Y112718D01*
X187584D01*
Y112581D01*
X187720D01*
Y112445D01*
X187856D01*
Y112309D01*
X187993D01*
Y112173D01*
X188265D01*
Y112309D01*
X188401D01*
Y112445D01*
X188538D01*
Y112581D01*
X188674D01*
Y112718D01*
X188810D01*
Y112854D01*
X188946D01*
Y112990D01*
X189083D01*
Y113126D01*
X189219D01*
Y113263D01*
X189355D01*
Y113399D01*
X189491D01*
Y113535D01*
X189628D01*
Y113671D01*
X189764D01*
Y113808D01*
X189900D01*
Y113944D01*
X190036D01*
Y114080D01*
X190173D01*
Y114216D01*
X190445D01*
Y114353D01*
X190581D01*
Y114489D01*
X190718D01*
Y114625D01*
X190854D01*
Y114761D01*
X190990D01*
Y114898D01*
X191126D01*
Y115034D01*
X191263D01*
Y115170D01*
X191399D01*
Y115306D01*
X191535D01*
Y115443D01*
X191671D01*
Y115579D01*
X191808D01*
Y115715D01*
X191944D01*
Y115851D01*
X192216D01*
Y115988D01*
X192353D01*
Y116124D01*
X192489D01*
Y116260D01*
X192625D01*
Y116396D01*
X192761D01*
Y116533D01*
X192898D01*
Y116669D01*
X193034D01*
Y116805D01*
X193170D01*
Y116942D01*
X193306D01*
Y117078D01*
X193443D01*
Y117214D01*
X193715D01*
Y117350D01*
X193851D01*
Y117487D01*
X193988D01*
Y117623D01*
X194124D01*
Y117759D01*
X194260D01*
Y117895D01*
X194396D01*
Y118032D01*
X194533D01*
Y118168D01*
X194669D01*
Y118304D01*
X194941D01*
Y118440D01*
X195078D01*
Y118577D01*
X195214D01*
Y118713D01*
X195350D01*
Y118849D01*
X195486D01*
Y118985D01*
X195623D01*
Y119122D01*
X195759D01*
Y119258D01*
X196031D01*
Y119394D01*
X196168D01*
Y119530D01*
X196304D01*
Y119667D01*
X196440D01*
Y119803D01*
X196576D01*
Y119939D01*
X196713D01*
Y120075D01*
X196985D01*
Y120212D01*
X197122D01*
Y120348D01*
X197258D01*
Y120484D01*
X197394D01*
Y120621D01*
X197530D01*
Y120757D01*
X197803D01*
Y120893D01*
X197939D01*
Y121029D01*
X198075D01*
Y121166D01*
X198212D01*
Y121302D01*
X198484D01*
Y121438D01*
X198620D01*
Y121574D01*
X198757D01*
Y121711D01*
X198893D01*
Y121847D01*
X199165D01*
Y121983D01*
X199302D01*
Y122119D01*
X199438D01*
Y122256D01*
X199710D01*
Y122392D01*
X199847D01*
Y122528D01*
X199983D01*
Y122664D01*
X200255D01*
Y122801D01*
X200392D01*
Y122937D01*
X200528D01*
Y123073D01*
X200800D01*
Y123209D01*
X200937D01*
Y123346D01*
X201073D01*
Y123209D01*
Y123073D01*
X200937D01*
Y122937D01*
Y122801D01*
Y122664D01*
X200800D01*
Y122528D01*
Y122392D01*
Y122256D01*
Y122119D01*
Y121983D01*
Y121847D01*
Y121711D01*
Y121574D01*
Y121438D01*
Y121302D01*
Y121166D01*
Y121029D01*
X200937D01*
Y120893D01*
Y120757D01*
Y120621D01*
X201073D01*
Y120484D01*
Y120348D01*
X201209D01*
Y120212D01*
Y120075D01*
X201345D01*
Y119939D01*
Y119803D01*
X201482D01*
Y119667D01*
X201618D01*
Y119530D01*
X201754D01*
Y119394D01*
X201890D01*
Y119258D01*
X202027D01*
Y119122D01*
X202299D01*
Y118985D01*
X202572D01*
Y118849D01*
X202844D01*
Y118713D01*
X203253D01*
Y118577D01*
X203934D01*
Y118440D01*
X203798D01*
Y118304D01*
X203526D01*
Y118168D01*
X203389D01*
Y118032D01*
X203253D01*
Y117895D01*
X202980D01*
Y117759D01*
X202844D01*
Y117623D01*
X202708D01*
Y117487D01*
X202435D01*
Y117350D01*
X202299D01*
Y117214D01*
X202163D01*
Y117078D01*
X202027D01*
Y116942D01*
X201754D01*
Y116805D01*
X201618D01*
Y116669D01*
X201482D01*
Y116533D01*
X201345D01*
Y116396D01*
X201073D01*
Y116260D01*
X200937D01*
Y116124D01*
X200800D01*
Y115988D01*
X200664D01*
Y115851D01*
X200528D01*
Y115715D01*
X200392D01*
Y115579D01*
X200119D01*
Y115443D01*
X199983D01*
Y115306D01*
X199847D01*
Y115170D01*
X199710D01*
Y115034D01*
X199574D01*
Y114898D01*
X199438D01*
Y114761D01*
X199165D01*
Y114625D01*
X199029D01*
Y114489D01*
X198893D01*
Y114353D01*
X198757D01*
Y114216D01*
X198620D01*
Y114080D01*
X198484D01*
Y113944D01*
X198348D01*
Y113808D01*
X198075D01*
Y113671D01*
X197939D01*
Y113535D01*
X197803D01*
Y113399D01*
X197667D01*
Y113263D01*
X197530D01*
Y113126D01*
X197394D01*
Y112990D01*
X197258D01*
Y112854D01*
X197122D01*
Y112718D01*
X196849D01*
Y112581D01*
X196713D01*
Y112445D01*
X196576D01*
Y112309D01*
X196440D01*
Y112173D01*
X196304D01*
Y112036D01*
X196168D01*
Y111900D01*
X196031D01*
Y111764D01*
X195895D01*
Y111628D01*
X195759D01*
Y111491D01*
X195623D01*
Y111355D01*
X195486D01*
Y111219D01*
X195214D01*
Y111083D01*
X195078D01*
Y110946D01*
X194941D01*
Y110810D01*
X194805D01*
Y110674D01*
X194669D01*
Y110538D01*
X194533D01*
Y110401D01*
X194396D01*
Y110265D01*
X194260D01*
Y110129D01*
X194124D01*
Y109993D01*
X193988D01*
Y109856D01*
X193851D01*
Y109720D01*
X193715D01*
Y109584D01*
X193579D01*
Y109448D01*
X193306D01*
Y109311D01*
X193170D01*
Y109175D01*
X193034D01*
Y109039D01*
X192898D01*
Y108903D01*
X192761D01*
Y108766D01*
X192625D01*
Y108630D01*
X192489D01*
Y108494D01*
X192353D01*
Y108357D01*
X192216D01*
Y108221D01*
X192080D01*
Y108085D01*
Y107949D01*
Y107812D01*
X192216D01*
Y107676D01*
X192353D01*
Y107540D01*
X192489D01*
Y107404D01*
X192625D01*
Y107267D01*
X192761D01*
Y107131D01*
X192898D01*
Y106995D01*
X193034D01*
Y106859D01*
X193170D01*
Y106722D01*
X193306D01*
Y106586D01*
X193443D01*
Y106450D01*
X193579D01*
Y106314D01*
X193715D01*
Y106177D01*
X193851D01*
Y106041D01*
X193988D01*
Y105905D01*
X194124D01*
Y105769D01*
X194260D01*
Y105632D01*
X194396D01*
Y105496D01*
X194533D01*
Y105360D01*
X194669D01*
Y105224D01*
X194805D01*
Y105087D01*
X194941D01*
Y104951D01*
X195078D01*
Y104815D01*
X195214D01*
Y104678D01*
X195350D01*
Y104542D01*
X195486D01*
Y104406D01*
X195623D01*
Y104270D01*
X195759D01*
Y104133D01*
X195895D01*
Y103997D01*
X196031D01*
Y103861D01*
X196168D01*
Y103725D01*
X196304D01*
Y103588D01*
X196440D01*
Y103452D01*
X196576D01*
Y103316D01*
X196713D01*
Y103180D01*
X196849D01*
Y103043D01*
X196985D01*
Y102907D01*
X197122D01*
Y102771D01*
X197258D01*
Y102635D01*
X197394D01*
Y102498D01*
X197530D01*
Y102362D01*
X197667D01*
Y102226D01*
X197803D01*
Y102090D01*
X197939D01*
Y101953D01*
X198075D01*
Y101817D01*
X198212D01*
Y101681D01*
X198348D01*
Y101545D01*
X198484D01*
Y101408D01*
X198620D01*
Y101272D01*
X198893D01*
Y101136D01*
X199029D01*
Y101000D01*
X199165D01*
Y100863D01*
X199302D01*
Y100727D01*
X199438D01*
Y100591D01*
X199574D01*
Y100455D01*
X199710D01*
Y100318D01*
X199847D01*
Y100182D01*
X199983D01*
Y100046D01*
X200255D01*
Y99910D01*
X200392D01*
Y99773D01*
X200528D01*
Y99637D01*
X200664D01*
Y99501D01*
X200800D01*
Y99365D01*
X200937D01*
Y99228D01*
X201209D01*
Y99092D01*
X201345D01*
Y98956D01*
X201482D01*
Y98820D01*
X201618D01*
Y98683D01*
X201890D01*
Y98547D01*
Y98411D01*
Y98274D01*
Y98138D01*
Y98002D01*
Y97866D01*
Y97729D01*
Y97593D01*
Y97457D01*
Y97321D01*
Y97184D01*
Y97048D01*
Y96912D01*
Y96776D01*
Y96640D01*
Y96503D01*
Y96367D01*
Y96231D01*
Y96095D01*
Y95958D01*
Y95822D01*
Y95686D01*
Y95549D01*
Y95413D01*
Y95277D01*
Y95141D01*
Y95004D01*
Y94868D01*
Y94732D01*
Y94596D01*
Y94459D01*
Y94323D01*
Y94187D01*
Y94051D01*
Y93914D01*
Y93778D01*
Y93642D01*
Y93506D01*
Y93369D01*
Y93233D01*
Y93097D01*
Y92961D01*
Y92824D01*
Y92688D01*
Y92552D01*
Y92415D01*
Y92279D01*
X202027D01*
Y92143D01*
Y92007D01*
Y91870D01*
X202163D01*
Y91734D01*
Y91598D01*
X202027D01*
Y91734D01*
X201754D01*
Y91870D01*
X201482D01*
Y92007D01*
X201345D01*
Y92143D01*
X201073D01*
Y92279D01*
X200937D01*
Y92415D01*
X200664D01*
Y92552D01*
X200528D01*
Y92688D01*
X200255D01*
Y92824D01*
X200119D01*
Y92961D01*
X199847D01*
Y93097D01*
X199710D01*
Y93233D01*
X199574D01*
Y93369D01*
X199302D01*
Y93506D01*
X199165D01*
Y93642D01*
X199029D01*
Y93778D01*
X198757D01*
Y93914D01*
X198620D01*
Y94051D01*
X198484D01*
Y94187D01*
X198348D01*
Y94323D01*
X198075D01*
Y94459D01*
X197939D01*
Y94596D01*
X197803D01*
Y94732D01*
X197667D01*
Y94868D01*
X197394D01*
Y95004D01*
X197258D01*
Y95141D01*
X197122D01*
Y95277D01*
X196985D01*
Y95413D01*
X196849D01*
Y95549D01*
X196713D01*
Y95686D01*
X196440D01*
Y95822D01*
X196304D01*
Y95958D01*
X196168D01*
Y96095D01*
X196031D01*
Y96231D01*
X195895D01*
Y96367D01*
X195759D01*
Y96503D01*
X195623D01*
Y96640D01*
X195486D01*
Y96776D01*
X195214D01*
Y96912D01*
X195078D01*
Y97048D01*
X194941D01*
Y97184D01*
X194805D01*
Y97321D01*
X194669D01*
Y97457D01*
X194533D01*
Y97593D01*
X194396D01*
Y97729D01*
X194260D01*
Y97866D01*
X194124D01*
Y98002D01*
X193988D01*
Y98138D01*
X193851D01*
Y98274D01*
X193715D01*
Y98411D01*
X193579D01*
Y98547D01*
X193443D01*
Y98683D01*
X193170D01*
Y98820D01*
X193034D01*
Y98956D01*
X192898D01*
Y99092D01*
X192761D01*
Y99228D01*
X192625D01*
Y99365D01*
X192489D01*
Y99501D01*
X192353D01*
Y99637D01*
X192216D01*
Y99773D01*
X192080D01*
Y99910D01*
X191944D01*
Y100046D01*
X191808D01*
Y100182D01*
X191671D01*
Y100318D01*
X191535D01*
Y100455D01*
X191399D01*
Y100591D01*
X191263D01*
Y100727D01*
X191126D01*
Y100863D01*
X190990D01*
Y101000D01*
X190854D01*
Y101136D01*
X190718D01*
Y101272D01*
X190581D01*
Y101408D01*
X190445D01*
Y101545D01*
X190309D01*
Y101681D01*
X190173D01*
Y101817D01*
X190036D01*
Y101953D01*
X189900D01*
Y102090D01*
X189764D01*
Y102226D01*
Y102362D01*
X189628D01*
Y102498D01*
X189491D01*
Y102635D01*
X189355D01*
Y102771D01*
X189219D01*
Y102907D01*
X189083D01*
Y103043D01*
X188946D01*
Y103180D01*
X188810D01*
Y103316D01*
X188674D01*
Y103452D01*
X188538D01*
Y103588D01*
X188401D01*
Y103725D01*
X188265D01*
Y103861D01*
X188129D01*
Y103997D01*
X187993D01*
Y104133D01*
X187856D01*
Y103997D01*
X187720D01*
Y103861D01*
X187584D01*
Y103725D01*
X187311D01*
Y103588D01*
X187175D01*
Y103452D01*
X187039D01*
Y103316D01*
X186902D01*
Y103180D01*
X186766D01*
Y103043D01*
X186630D01*
Y102907D01*
X186494D01*
Y102771D01*
X186357D01*
Y102635D01*
X186221D01*
Y102498D01*
X186085D01*
Y102362D01*
X185949D01*
Y102226D01*
X185812D01*
Y102090D01*
X185676D01*
Y101953D01*
X185540D01*
Y101817D01*
X185404D01*
Y101681D01*
X185267D01*
Y101545D01*
X185131D01*
Y101408D01*
X184995D01*
Y101272D01*
X184859D01*
Y101136D01*
X184722D01*
Y101000D01*
X184586D01*
Y100863D01*
X184450D01*
Y100727D01*
X184313D01*
Y100591D01*
X184177D01*
Y100455D01*
X184041D01*
Y100318D01*
X183905D01*
Y100182D01*
X183768D01*
Y100046D01*
X183496D01*
Y99910D01*
X183360D01*
Y99773D01*
X183223D01*
Y99637D01*
X183087D01*
Y99501D01*
X182951D01*
Y99365D01*
X182815D01*
Y99228D01*
X182678D01*
Y99092D01*
X182542D01*
Y98956D01*
X182406D01*
Y98820D01*
X182270D01*
Y98683D01*
X182133D01*
Y98547D01*
X181997D01*
Y98411D01*
X181861D01*
Y98274D01*
X181725D01*
Y98138D01*
X181452D01*
Y98002D01*
X181316D01*
Y97866D01*
X181180D01*
Y97729D01*
X181043D01*
Y97593D01*
X180907D01*
Y97457D01*
X180635D01*
Y97321D01*
X180498D01*
Y97184D01*
X180362D01*
Y97048D01*
X180226D01*
Y96912D01*
X180090D01*
Y96776D01*
X179817D01*
Y96640D01*
X179681D01*
Y96503D01*
X179545D01*
Y96367D01*
X179408D01*
Y96231D01*
X179136D01*
Y96095D01*
X179000D01*
Y95958D01*
X178863D01*
Y95822D01*
X178727D01*
Y95686D01*
X178454D01*
Y95549D01*
X178318D01*
Y95413D01*
X178182D01*
Y95277D01*
X177910D01*
Y95141D01*
X177773D01*
Y95004D01*
X177637D01*
Y94868D01*
X177501D01*
Y94732D01*
X177228D01*
Y94596D01*
X177092D01*
Y94459D01*
X176956D01*
Y94323D01*
X176683D01*
Y94187D01*
X176547D01*
Y94051D01*
X176275D01*
Y93914D01*
X176138D01*
Y93778D01*
X176002D01*
Y93642D01*
X175729D01*
Y93506D01*
X175593D01*
Y93369D01*
X175321D01*
Y93233D01*
X175184D01*
Y93097D01*
X174912D01*
Y92961D01*
X174776D01*
Y92824D01*
X174503D01*
Y92688D01*
X174367D01*
Y92552D01*
X174094D01*
Y92415D01*
X173958D01*
Y92279D01*
X173686D01*
Y92143D01*
X173549D01*
Y92007D01*
X173277D01*
Y91870D01*
X173141D01*
Y91734D01*
X172868D01*
Y91598D01*
X172596D01*
Y91462D01*
X172459D01*
Y91325D01*
X172187D01*
Y91189D01*
X171914D01*
Y91053D01*
X171642D01*
Y90917D01*
X171505D01*
Y90781D01*
X171233D01*
Y90644D01*
X170960D01*
Y90508D01*
X170688D01*
Y90372D01*
X170415D01*
Y90235D01*
X170143D01*
Y90099D01*
X169870D01*
Y89963D01*
X169598D01*
Y89827D01*
X169325D01*
Y89690D01*
X169053D01*
Y89554D01*
X168644D01*
Y89418D01*
X168372D01*
Y89282D01*
X168099D01*
Y89145D01*
X167690D01*
Y89009D01*
X167418D01*
Y88873D01*
X167009D01*
Y88737D01*
X166600D01*
Y88600D01*
X166191D01*
Y88464D01*
X165783D01*
Y88328D01*
X165374D01*
Y88192D01*
X164965D01*
Y88055D01*
X164420D01*
Y87919D01*
X163875D01*
Y87783D01*
X163194D01*
Y87647D01*
X162513D01*
Y87510D01*
X161559D01*
Y87374D01*
X159787D01*
Y87238D01*
X158425D01*
Y87374D01*
X156790D01*
Y87510D01*
X155836D01*
Y87647D01*
X155155D01*
Y87783D01*
X154474D01*
Y87919D01*
X153928D01*
Y88055D01*
X153520D01*
Y88192D01*
X153111D01*
Y88328D01*
X152702D01*
Y88464D01*
X152294D01*
Y88600D01*
X151885D01*
Y88737D01*
X151612D01*
Y88873D01*
X151340D01*
Y89009D01*
X150931D01*
Y89145D01*
X150658D01*
Y89282D01*
X150386D01*
Y89418D01*
X150113D01*
Y89554D01*
X149841D01*
Y89690D01*
X149568D01*
Y89827D01*
X149296D01*
Y89963D01*
X149160D01*
Y90099D01*
X148887D01*
Y90235D01*
X148615D01*
Y90372D01*
X148478D01*
Y90508D01*
X148206D01*
Y90644D01*
X148070D01*
Y90781D01*
X147797D01*
Y90917D01*
X147661D01*
Y91053D01*
X147388D01*
Y91189D01*
X147252D01*
Y91325D01*
X146979D01*
Y91462D01*
X146843D01*
Y91598D01*
X146707D01*
Y91734D01*
X146571D01*
Y91870D01*
X146298D01*
Y92007D01*
X146162D01*
Y92143D01*
X146026D01*
Y92279D01*
X145889D01*
Y92415D01*
X145753D01*
Y92552D01*
X145481D01*
Y92688D01*
X145344D01*
Y92824D01*
X145208D01*
Y92961D01*
X145072D01*
Y93097D01*
X144936D01*
Y93233D01*
X144799D01*
Y93369D01*
X144663D01*
Y93506D01*
X144527D01*
Y93642D01*
X144391D01*
Y93778D01*
X144254D01*
Y93914D01*
X144118D01*
Y94051D01*
X143982D01*
Y94187D01*
X143846D01*
Y94323D01*
Y94459D01*
X143709D01*
Y94596D01*
X143573D01*
Y94732D01*
X143437D01*
Y94868D01*
X143301D01*
Y95004D01*
X143164D01*
Y95141D01*
Y95277D01*
X143028D01*
Y95413D01*
X142892D01*
Y95549D01*
X142756D01*
Y95686D01*
X142619D01*
Y95822D01*
Y95958D01*
X142483D01*
Y96095D01*
X142347D01*
Y96231D01*
Y96367D01*
X142210D01*
Y96503D01*
X142074D01*
Y96640D01*
Y96776D01*
X141938D01*
Y96912D01*
X141802D01*
Y97048D01*
Y97184D01*
X141665D01*
Y97321D01*
X141529D01*
Y97457D01*
Y97593D01*
X141393D01*
Y97729D01*
Y97866D01*
X141257D01*
Y98002D01*
X141121D01*
Y98138D01*
Y98274D01*
X140984D01*
Y98411D01*
Y98547D01*
X140848D01*
Y98683D01*
Y98820D01*
X140712D01*
Y98956D01*
Y99092D01*
X140576D01*
Y99228D01*
Y99365D01*
X140439D01*
Y99501D01*
Y99637D01*
X140303D01*
Y99773D01*
Y99910D01*
Y100046D01*
X140167D01*
Y100182D01*
Y100318D01*
X140030D01*
Y100455D01*
Y100591D01*
Y100727D01*
X139894D01*
Y100863D01*
Y101000D01*
Y101136D01*
X139758D01*
Y101272D01*
Y101408D01*
X139622D01*
Y101545D01*
Y101681D01*
Y101817D01*
X139485D01*
Y101953D01*
Y102090D01*
Y102226D01*
Y102362D01*
X139349D01*
Y102498D01*
Y102635D01*
Y102771D01*
X139213D01*
Y102907D01*
Y103043D01*
Y103180D01*
Y103316D01*
X139077D01*
Y103452D01*
Y103588D01*
Y103725D01*
Y103861D01*
X138940D01*
Y103997D01*
Y104133D01*
Y104270D01*
Y104406D01*
Y104542D01*
Y104678D01*
X138804D01*
Y104815D01*
Y104951D01*
Y105087D01*
Y105224D01*
Y105360D01*
Y105496D01*
X138668D01*
Y105632D01*
Y105769D01*
Y105905D01*
Y106041D01*
Y106177D01*
Y106314D01*
Y106450D01*
Y106586D01*
Y106722D01*
X138532D01*
Y106859D01*
Y106995D01*
Y107131D01*
Y107267D01*
Y107404D01*
Y107540D01*
Y107676D01*
Y107812D01*
Y107949D01*
Y108085D01*
Y108221D01*
Y108357D01*
Y108494D01*
Y108630D01*
Y108766D01*
Y108903D01*
Y109039D01*
Y109175D01*
Y109311D01*
Y109448D01*
Y109584D01*
Y109720D01*
Y109856D01*
Y109993D01*
X138668D01*
Y110129D01*
Y110265D01*
Y110401D01*
Y110538D01*
Y110674D01*
Y110810D01*
Y110946D01*
Y111083D01*
Y111219D01*
X138804D01*
Y111355D01*
Y111491D01*
Y111628D01*
Y111764D01*
Y111900D01*
Y112036D01*
X138940D01*
Y112173D01*
Y112309D01*
Y112445D01*
Y112581D01*
Y112718D01*
X139077D01*
Y112854D01*
Y112990D01*
Y113126D01*
Y113263D01*
Y113399D01*
X139213D01*
Y113535D01*
Y113671D01*
Y113808D01*
Y113944D01*
X139349D01*
Y114080D01*
Y114216D01*
Y114353D01*
X139485D01*
Y114489D01*
Y114625D01*
Y114761D01*
X139622D01*
Y114898D01*
Y115034D01*
Y115170D01*
X139758D01*
Y115306D01*
Y115443D01*
Y115579D01*
X139894D01*
Y115715D01*
Y115851D01*
Y115988D01*
X140030D01*
Y116124D01*
Y116260D01*
X140167D01*
Y116396D01*
Y116533D01*
Y116669D01*
X140303D01*
Y116805D01*
Y116942D01*
X140439D01*
Y117078D01*
Y117214D01*
X140576D01*
Y117350D01*
Y117487D01*
X140712D01*
Y117623D01*
Y117759D01*
Y117895D01*
X140848D01*
Y118032D01*
X140984D01*
Y118168D01*
Y118304D01*
X141121D01*
Y118440D01*
Y118577D01*
X141257D01*
Y118713D01*
Y118849D01*
X141393D01*
Y118985D01*
Y119122D01*
X141529D01*
Y119258D01*
X141665D01*
Y119394D01*
Y119530D01*
X141802D01*
Y119667D01*
X141938D01*
Y119803D01*
Y119939D01*
X142074D01*
Y120075D01*
Y120212D01*
X142210D01*
Y120348D01*
X142347D01*
Y120484D01*
X142483D01*
Y120621D01*
Y120757D01*
X142619D01*
Y120893D01*
X142756D01*
Y121029D01*
X142892D01*
Y121166D01*
Y121302D01*
X143028D01*
Y121438D01*
X143164D01*
Y121574D01*
X143301D01*
Y121711D01*
X143437D01*
Y121847D01*
Y121983D01*
X143573D01*
Y122119D01*
X143709D01*
Y122256D01*
X143846D01*
Y122392D01*
X143982D01*
Y122528D01*
X144118D01*
Y122664D01*
X144254D01*
Y122801D01*
X144391D01*
Y122937D01*
X144527D01*
Y123073D01*
X144663D01*
Y123209D01*
X144799D01*
Y123346D01*
X144936D01*
Y123482D01*
X145072D01*
Y123618D01*
X145208D01*
Y123754D01*
X145344D01*
Y123891D01*
X145481D01*
Y124027D01*
X145617D01*
Y124163D01*
X145753D01*
Y124299D01*
X146026D01*
Y124436D01*
X146162D01*
Y124572D01*
X146298D01*
Y124708D01*
X146434D01*
Y124844D01*
X146707D01*
Y124981D01*
X146843D01*
Y125117D01*
X146979D01*
Y125253D01*
X147252D01*
Y125389D01*
X147388D01*
Y125526D01*
X147661D01*
Y125662D01*
X147797D01*
Y125798D01*
X148070D01*
Y125934D01*
X148206D01*
Y126071D01*
X148478D01*
Y126207D01*
X148751D01*
Y126343D01*
X148887D01*
Y126479D01*
X149160D01*
Y126616D01*
X149432D01*
Y126752D01*
X149705D01*
Y126888D01*
X149977D01*
Y127024D01*
X150250D01*
Y127161D01*
X150522D01*
Y127297D01*
X150931D01*
Y127433D01*
X151203D01*
Y127569D01*
X151612D01*
Y127706D01*
X151885D01*
Y127842D01*
X152294D01*
Y127978D01*
X152702D01*
Y128114D01*
X153111D01*
Y128251D01*
X153656D01*
Y128387D01*
X154201D01*
Y128523D01*
X154746D01*
Y128659D01*
X155564D01*
Y128796D01*
X156381D01*
Y128932D01*
X157744D01*
Y129068D01*
X161150D01*
Y128932D01*
D02*
G37*
G36*
X168644Y83695D02*
X168508D01*
Y83559D01*
X168372D01*
Y83423D01*
Y83286D01*
X168235D01*
Y83150D01*
X168099D01*
Y83014D01*
Y82878D01*
X167963D01*
Y82741D01*
Y82605D01*
X167827D01*
Y82469D01*
X167690D01*
Y82333D01*
Y82196D01*
X167554D01*
Y82060D01*
Y81924D01*
X167418D01*
Y81788D01*
X167282D01*
Y81651D01*
Y81515D01*
X167145D01*
Y81379D01*
Y81243D01*
X167009D01*
Y81106D01*
X166873D01*
Y80970D01*
Y80834D01*
X166737D01*
Y80698D01*
X166600D01*
Y80561D01*
Y80425D01*
X166464D01*
Y80289D01*
Y80152D01*
X166328D01*
Y80016D01*
X166191D01*
Y79880D01*
Y79744D01*
X166055D01*
Y79607D01*
Y79471D01*
X165919D01*
Y79335D01*
X165783D01*
Y79199D01*
Y79062D01*
X165647D01*
Y78926D01*
Y78790D01*
X165510D01*
Y78654D01*
X165374D01*
Y78517D01*
Y78381D01*
Y78245D01*
Y78109D01*
Y77972D01*
Y77836D01*
Y77700D01*
Y77564D01*
Y77427D01*
Y77291D01*
Y77155D01*
Y77019D01*
Y76882D01*
Y76746D01*
Y76610D01*
Y76474D01*
Y76337D01*
Y76201D01*
Y76065D01*
Y75929D01*
Y75792D01*
X164693D01*
Y75929D01*
Y76065D01*
Y76201D01*
Y76337D01*
Y76474D01*
Y76610D01*
Y76746D01*
Y76882D01*
Y77019D01*
Y77155D01*
Y77291D01*
Y77427D01*
Y77564D01*
Y77700D01*
Y77836D01*
Y77972D01*
Y78109D01*
Y78245D01*
Y78381D01*
Y78517D01*
X164557D01*
Y78654D01*
Y78790D01*
X164420D01*
Y78926D01*
Y79062D01*
X164284D01*
Y79199D01*
X164148D01*
Y79335D01*
Y79471D01*
X164012D01*
Y79607D01*
Y79744D01*
X163875D01*
Y79880D01*
X163739D01*
Y80016D01*
Y80152D01*
X163603D01*
Y80289D01*
X163466D01*
Y80425D01*
Y80561D01*
X163330D01*
Y80698D01*
Y80834D01*
X163194D01*
Y80970D01*
X163058D01*
Y81106D01*
Y81243D01*
X162921D01*
Y81379D01*
Y81515D01*
X162785D01*
Y81651D01*
X162649D01*
Y81788D01*
Y81924D01*
X162513D01*
Y82060D01*
Y82196D01*
X162376D01*
Y82333D01*
X162240D01*
Y82469D01*
Y82605D01*
X162104D01*
Y82741D01*
X161968D01*
Y82878D01*
Y83014D01*
X161831D01*
Y83150D01*
Y83286D01*
X161695D01*
Y83423D01*
X161559D01*
Y83559D01*
Y83695D01*
X161423D01*
Y83831D01*
X162240D01*
Y83695D01*
Y83559D01*
X162376D01*
Y83423D01*
X162513D01*
Y83286D01*
Y83150D01*
X162649D01*
Y83014D01*
X162785D01*
Y82878D01*
Y82741D01*
X162921D01*
Y82605D01*
Y82469D01*
X163058D01*
Y82333D01*
X163194D01*
Y82196D01*
Y82060D01*
X163330D01*
Y81924D01*
Y81788D01*
X163466D01*
Y81651D01*
X163603D01*
Y81515D01*
Y81379D01*
X163739D01*
Y81243D01*
Y81106D01*
X163875D01*
Y80970D01*
X164012D01*
Y80834D01*
Y80698D01*
X164148D01*
Y80561D01*
Y80425D01*
X164284D01*
Y80289D01*
X164420D01*
Y80152D01*
Y80016D01*
X164557D01*
Y79880D01*
X164693D01*
Y79744D01*
Y79607D01*
X164829D01*
Y79471D01*
Y79335D01*
X165102D01*
Y79471D01*
Y79607D01*
X165238D01*
Y79744D01*
X165374D01*
Y79880D01*
Y80016D01*
X165510D01*
Y80152D01*
X165647D01*
Y80289D01*
Y80425D01*
X165783D01*
Y80561D01*
Y80698D01*
X165919D01*
Y80834D01*
X166055D01*
Y80970D01*
Y81106D01*
X166191D01*
Y81243D01*
Y81379D01*
X166328D01*
Y81515D01*
X166464D01*
Y81651D01*
Y81788D01*
X166600D01*
Y81924D01*
Y82060D01*
X166737D01*
Y82196D01*
X166873D01*
Y82333D01*
Y82469D01*
X167009D01*
Y82605D01*
X167145D01*
Y82741D01*
Y82878D01*
X167282D01*
Y83014D01*
Y83150D01*
X167418D01*
Y83286D01*
X167554D01*
Y83423D01*
Y83559D01*
X167690D01*
Y83695D01*
Y83831D01*
X168644D01*
Y83695D01*
D02*
G37*
G36*
X184041D02*
Y83559D01*
Y83423D01*
Y83286D01*
Y83150D01*
Y83014D01*
Y82878D01*
Y82741D01*
Y82605D01*
Y82469D01*
Y82333D01*
Y82196D01*
Y82060D01*
Y81924D01*
Y81788D01*
Y81651D01*
Y81515D01*
Y81379D01*
Y81243D01*
Y81106D01*
Y80970D01*
Y80834D01*
Y80698D01*
Y80561D01*
Y80425D01*
Y80289D01*
Y80152D01*
Y80016D01*
Y79880D01*
Y79744D01*
Y79607D01*
Y79471D01*
Y79335D01*
Y79199D01*
Y79062D01*
Y78926D01*
Y78790D01*
Y78654D01*
Y78517D01*
Y78381D01*
Y78245D01*
Y78109D01*
Y77972D01*
Y77836D01*
Y77700D01*
Y77564D01*
Y77427D01*
Y77291D01*
Y77155D01*
Y77019D01*
Y76882D01*
Y76746D01*
Y76610D01*
Y76474D01*
Y76337D01*
Y76201D01*
Y76065D01*
Y75929D01*
Y75792D01*
X183223D01*
Y75929D01*
Y76065D01*
Y76201D01*
Y76337D01*
Y76474D01*
Y76610D01*
Y76746D01*
Y76882D01*
Y77019D01*
Y77155D01*
Y77291D01*
Y77427D01*
Y77564D01*
Y77700D01*
Y77836D01*
Y77972D01*
Y78109D01*
Y78245D01*
Y78381D01*
Y78517D01*
Y78654D01*
Y78790D01*
Y78926D01*
Y79062D01*
Y79199D01*
Y79335D01*
Y79471D01*
Y79607D01*
Y79744D01*
Y79880D01*
Y80016D01*
Y80152D01*
Y80289D01*
Y80425D01*
Y80561D01*
Y80698D01*
Y80834D01*
Y80970D01*
Y81106D01*
Y81243D01*
Y81379D01*
Y81515D01*
Y81651D01*
Y81788D01*
Y81924D01*
Y82060D01*
Y82196D01*
Y82333D01*
X183087D01*
Y82196D01*
X182951D01*
Y82060D01*
Y81924D01*
X182815D01*
Y81788D01*
X182678D01*
Y81651D01*
X182542D01*
Y81515D01*
X182406D01*
Y81379D01*
Y81243D01*
X182270D01*
Y81106D01*
X182133D01*
Y80970D01*
X181997D01*
Y80834D01*
Y80698D01*
X181861D01*
Y80561D01*
X181725D01*
Y80425D01*
X181588D01*
Y80289D01*
X181452D01*
Y80152D01*
Y80016D01*
X181316D01*
Y79880D01*
X181180D01*
Y79744D01*
X181043D01*
Y79607D01*
X180907D01*
Y79471D01*
Y79335D01*
X180771D01*
Y79199D01*
X180635D01*
Y79062D01*
X180498D01*
Y78926D01*
X180362D01*
Y78790D01*
Y78654D01*
X180226D01*
Y78517D01*
X180090D01*
Y78381D01*
X179953D01*
Y78245D01*
X179817D01*
Y78109D01*
Y77972D01*
X179681D01*
Y77836D01*
X179545D01*
Y77700D01*
X179408D01*
Y77564D01*
Y77427D01*
X179272D01*
Y77291D01*
X179136D01*
Y77155D01*
X179000D01*
Y77019D01*
X178863D01*
Y76882D01*
Y76746D01*
X178727D01*
Y76610D01*
X178591D01*
Y76474D01*
X178454D01*
Y76337D01*
X178318D01*
Y76201D01*
Y76065D01*
X178182D01*
Y75929D01*
X178046D01*
Y75792D01*
X177365D01*
Y75929D01*
Y76065D01*
Y76201D01*
Y76337D01*
Y76474D01*
Y76610D01*
Y76746D01*
Y76882D01*
Y77019D01*
Y77155D01*
Y77291D01*
Y77427D01*
Y77564D01*
Y77700D01*
Y77836D01*
Y77972D01*
Y78109D01*
Y78245D01*
Y78381D01*
Y78517D01*
Y78654D01*
Y78790D01*
Y78926D01*
Y79062D01*
Y79199D01*
Y79335D01*
Y79471D01*
Y79607D01*
Y79744D01*
Y79880D01*
Y80016D01*
Y80152D01*
Y80289D01*
Y80425D01*
Y80561D01*
Y80698D01*
Y80834D01*
Y80970D01*
Y81106D01*
Y81243D01*
Y81379D01*
Y81515D01*
Y81651D01*
Y81788D01*
Y81924D01*
Y82060D01*
Y82196D01*
Y82333D01*
Y82469D01*
Y82605D01*
Y82741D01*
Y82878D01*
Y83014D01*
Y83150D01*
Y83286D01*
Y83423D01*
Y83559D01*
Y83695D01*
Y83831D01*
X178046D01*
Y83695D01*
Y83559D01*
Y83423D01*
Y83286D01*
Y83150D01*
Y83014D01*
Y82878D01*
Y82741D01*
Y82605D01*
Y82469D01*
Y82333D01*
Y82196D01*
Y82060D01*
Y81924D01*
Y81788D01*
Y81651D01*
Y81515D01*
Y81379D01*
Y81243D01*
Y81106D01*
Y80970D01*
Y80834D01*
Y80698D01*
Y80561D01*
Y80425D01*
Y80289D01*
Y80152D01*
Y80016D01*
Y79880D01*
Y79744D01*
Y79607D01*
Y79471D01*
Y79335D01*
Y79199D01*
Y79062D01*
Y78926D01*
Y78790D01*
Y78654D01*
Y78517D01*
Y78381D01*
Y78245D01*
Y78109D01*
Y77972D01*
Y77836D01*
Y77700D01*
Y77564D01*
Y77427D01*
X178318D01*
Y77564D01*
X178454D01*
Y77700D01*
X178591D01*
Y77836D01*
X178727D01*
Y77972D01*
Y78109D01*
X178863D01*
Y78245D01*
X179000D01*
Y78381D01*
X179136D01*
Y78517D01*
X179272D01*
Y78654D01*
Y78790D01*
X179408D01*
Y78926D01*
X179545D01*
Y79062D01*
X179681D01*
Y79199D01*
X179817D01*
Y79335D01*
Y79471D01*
X179953D01*
Y79607D01*
X180090D01*
Y79744D01*
X180226D01*
Y79880D01*
X180362D01*
Y80016D01*
Y80152D01*
X180498D01*
Y80289D01*
X180635D01*
Y80425D01*
X180771D01*
Y80561D01*
Y80698D01*
X180907D01*
Y80834D01*
X181043D01*
Y80970D01*
X181180D01*
Y81106D01*
X181316D01*
Y81243D01*
Y81379D01*
X181452D01*
Y81515D01*
X181588D01*
Y81651D01*
X181725D01*
Y81788D01*
X181861D01*
Y81924D01*
Y82060D01*
X181997D01*
Y82196D01*
X182133D01*
Y82333D01*
X182270D01*
Y82469D01*
X182406D01*
Y82605D01*
Y82741D01*
X182542D01*
Y82878D01*
X182678D01*
Y83014D01*
X182815D01*
Y83150D01*
X182951D01*
Y83286D01*
Y83423D01*
X183087D01*
Y83559D01*
X183223D01*
Y83695D01*
X183360D01*
Y83831D01*
X184041D01*
Y83695D01*
D02*
G37*
G36*
X196849D02*
Y83559D01*
Y83423D01*
Y83286D01*
Y83150D01*
Y83014D01*
Y82878D01*
Y82741D01*
Y82605D01*
Y82469D01*
Y82333D01*
Y82196D01*
Y82060D01*
Y81924D01*
Y81788D01*
Y81651D01*
Y81515D01*
Y81379D01*
Y81243D01*
Y81106D01*
Y80970D01*
Y80834D01*
Y80698D01*
Y80561D01*
Y80425D01*
Y80289D01*
Y80152D01*
Y80016D01*
Y79880D01*
Y79744D01*
Y79607D01*
Y79471D01*
Y79335D01*
Y79199D01*
Y79062D01*
Y78926D01*
Y78790D01*
Y78654D01*
Y78517D01*
Y78381D01*
Y78245D01*
Y78109D01*
Y77972D01*
Y77836D01*
Y77700D01*
Y77564D01*
Y77427D01*
Y77291D01*
Y77155D01*
Y77019D01*
Y76882D01*
Y76746D01*
Y76610D01*
Y76474D01*
Y76337D01*
Y76201D01*
Y76065D01*
Y75929D01*
Y75792D01*
X196168D01*
Y75929D01*
Y76065D01*
Y76201D01*
Y76337D01*
Y76474D01*
Y76610D01*
Y76746D01*
Y76882D01*
Y77019D01*
Y77155D01*
Y77291D01*
Y77427D01*
Y77564D01*
Y77700D01*
Y77836D01*
Y77972D01*
Y78109D01*
Y78245D01*
Y78381D01*
Y78517D01*
Y78654D01*
Y78790D01*
Y78926D01*
Y79062D01*
Y79199D01*
Y79335D01*
Y79471D01*
Y79607D01*
Y79744D01*
Y79880D01*
Y80016D01*
Y80152D01*
Y80289D01*
Y80425D01*
Y80561D01*
Y80698D01*
Y80834D01*
Y80970D01*
Y81106D01*
Y81243D01*
Y81379D01*
Y81515D01*
Y81651D01*
Y81788D01*
Y81924D01*
Y82060D01*
Y82196D01*
X195895D01*
Y82060D01*
X195759D01*
Y81924D01*
X195623D01*
Y81788D01*
Y81651D01*
X195486D01*
Y81515D01*
X195350D01*
Y81379D01*
X195214D01*
Y81243D01*
X195078D01*
Y81106D01*
Y80970D01*
X194941D01*
Y80834D01*
X194805D01*
Y80698D01*
X194669D01*
Y80561D01*
X194533D01*
Y80425D01*
Y80289D01*
X194396D01*
Y80152D01*
X194260D01*
Y80016D01*
X194124D01*
Y79880D01*
X193988D01*
Y79744D01*
Y79607D01*
X193851D01*
Y79471D01*
X193715D01*
Y79335D01*
X193579D01*
Y79199D01*
Y79062D01*
X193443D01*
Y78926D01*
X193306D01*
Y78790D01*
X193170D01*
Y78654D01*
X193034D01*
Y78517D01*
Y78381D01*
X192898D01*
Y78245D01*
X192761D01*
Y78109D01*
X192625D01*
Y77972D01*
X192489D01*
Y77836D01*
Y77700D01*
X192353D01*
Y77564D01*
X192216D01*
Y77427D01*
X192080D01*
Y77291D01*
X191944D01*
Y77155D01*
Y77019D01*
X191808D01*
Y76882D01*
X191671D01*
Y76746D01*
X191535D01*
Y76610D01*
X191399D01*
Y76474D01*
Y76337D01*
X191263D01*
Y76201D01*
X191126D01*
Y76065D01*
X190990D01*
Y75929D01*
X190854D01*
Y75792D01*
X190173D01*
Y75929D01*
Y76065D01*
Y76201D01*
Y76337D01*
Y76474D01*
Y76610D01*
Y76746D01*
Y76882D01*
Y77019D01*
Y77155D01*
Y77291D01*
Y77427D01*
Y77564D01*
Y77700D01*
Y77836D01*
Y77972D01*
Y78109D01*
Y78245D01*
Y78381D01*
Y78517D01*
Y78654D01*
Y78790D01*
Y78926D01*
Y79062D01*
Y79199D01*
Y79335D01*
Y79471D01*
Y79607D01*
Y79744D01*
Y79880D01*
Y80016D01*
Y80152D01*
Y80289D01*
Y80425D01*
Y80561D01*
Y80698D01*
Y80834D01*
Y80970D01*
Y81106D01*
Y81243D01*
Y81379D01*
Y81515D01*
Y81651D01*
Y81788D01*
Y81924D01*
Y82060D01*
Y82196D01*
Y82333D01*
Y82469D01*
Y82605D01*
Y82741D01*
Y82878D01*
Y83014D01*
Y83150D01*
Y83286D01*
Y83423D01*
Y83559D01*
Y83695D01*
Y83831D01*
X190990D01*
Y83695D01*
Y83559D01*
Y83423D01*
Y83286D01*
Y83150D01*
Y83014D01*
Y82878D01*
Y82741D01*
Y82605D01*
Y82469D01*
Y82333D01*
Y82196D01*
Y82060D01*
Y81924D01*
Y81788D01*
Y81651D01*
Y81515D01*
Y81379D01*
Y81243D01*
Y81106D01*
Y80970D01*
Y80834D01*
Y80698D01*
Y80561D01*
Y80425D01*
Y80289D01*
Y80152D01*
Y80016D01*
Y79880D01*
Y79744D01*
Y79607D01*
Y79471D01*
Y79335D01*
Y79199D01*
Y79062D01*
Y78926D01*
Y78790D01*
Y78654D01*
Y78517D01*
Y78381D01*
Y78245D01*
Y78109D01*
Y77972D01*
Y77836D01*
Y77700D01*
Y77564D01*
Y77427D01*
Y77291D01*
X191126D01*
Y77427D01*
X191263D01*
Y77564D01*
X191399D01*
Y77700D01*
Y77836D01*
X191535D01*
Y77972D01*
X191671D01*
Y78109D01*
X191808D01*
Y78245D01*
Y78381D01*
X191944D01*
Y78517D01*
X192080D01*
Y78654D01*
X192216D01*
Y78790D01*
X192353D01*
Y78926D01*
Y79062D01*
X192489D01*
Y79199D01*
X192625D01*
Y79335D01*
X192761D01*
Y79471D01*
X192898D01*
Y79607D01*
Y79744D01*
X193034D01*
Y79880D01*
X193170D01*
Y80016D01*
X193306D01*
Y80152D01*
X193443D01*
Y80289D01*
Y80425D01*
X193579D01*
Y80561D01*
X193715D01*
Y80698D01*
X193851D01*
Y80834D01*
X193988D01*
Y80970D01*
Y81106D01*
X194124D01*
Y81243D01*
X194260D01*
Y81379D01*
X194396D01*
Y81515D01*
X194533D01*
Y81651D01*
Y81788D01*
X194669D01*
Y81924D01*
X194805D01*
Y82060D01*
X194941D01*
Y82196D01*
X195078D01*
Y82333D01*
Y82469D01*
X195214D01*
Y82605D01*
X195350D01*
Y82741D01*
X195486D01*
Y82878D01*
Y83014D01*
X195623D01*
Y83150D01*
X195759D01*
Y83286D01*
X195895D01*
Y83423D01*
X196031D01*
Y83559D01*
Y83695D01*
X196168D01*
Y83831D01*
X196849D01*
Y83695D01*
D02*
G37*
G36*
X211020D02*
X211565D01*
Y83559D01*
X211837D01*
Y83423D01*
X212110D01*
Y83286D01*
X212382D01*
Y83150D01*
X212655D01*
Y83014D01*
X212791D01*
Y82878D01*
X212927D01*
Y82741D01*
X213064D01*
Y82605D01*
X213200D01*
Y82469D01*
X213336D01*
Y82333D01*
X213472D01*
Y82196D01*
Y82060D01*
X213609D01*
Y81924D01*
X213745D01*
Y81788D01*
Y81651D01*
X213881D01*
Y81515D01*
Y81379D01*
X214017D01*
Y81243D01*
Y81106D01*
Y80970D01*
X214154D01*
Y80834D01*
Y80698D01*
Y80561D01*
Y80425D01*
Y80289D01*
Y80152D01*
Y80016D01*
Y79880D01*
Y79744D01*
Y79607D01*
Y79471D01*
Y79335D01*
Y79199D01*
Y79062D01*
Y78926D01*
Y78790D01*
Y78654D01*
X214017D01*
Y78517D01*
Y78381D01*
Y78245D01*
X213881D01*
Y78109D01*
Y77972D01*
X213745D01*
Y77836D01*
Y77700D01*
X213609D01*
Y77564D01*
Y77427D01*
X213472D01*
Y77291D01*
X213336D01*
Y77155D01*
X213200D01*
Y77019D01*
X213064D01*
Y76882D01*
X212927D01*
Y76746D01*
X212791D01*
Y76610D01*
X212655D01*
Y76474D01*
X212382D01*
Y76337D01*
X212246D01*
Y76201D01*
X211974D01*
Y76065D01*
X211565D01*
Y75929D01*
X211156D01*
Y75792D01*
X208840D01*
Y75929D01*
X208295D01*
Y76065D01*
X208022D01*
Y76201D01*
X207750D01*
Y76337D01*
X207477D01*
Y76474D01*
X207341D01*
Y76610D01*
X207068D01*
Y76746D01*
Y76882D01*
Y77019D01*
Y77155D01*
Y77291D01*
Y77427D01*
Y77564D01*
Y77700D01*
Y77836D01*
Y77972D01*
Y78109D01*
Y78245D01*
Y78381D01*
Y78517D01*
Y78654D01*
Y78790D01*
Y78926D01*
Y79062D01*
Y79199D01*
Y79335D01*
Y79471D01*
Y79607D01*
Y79744D01*
X207750D01*
Y79607D01*
Y79471D01*
Y79335D01*
Y79199D01*
Y79062D01*
Y78926D01*
Y78790D01*
Y78654D01*
Y78517D01*
Y78381D01*
Y78245D01*
Y78109D01*
Y77972D01*
Y77836D01*
Y77700D01*
Y77564D01*
Y77427D01*
Y77291D01*
Y77155D01*
X207886D01*
Y77019D01*
X208022D01*
Y76882D01*
X208158D01*
Y76746D01*
X208567D01*
Y76610D01*
X208976D01*
Y76474D01*
X209793D01*
Y76337D01*
X210202D01*
Y76474D01*
X211020D01*
Y76610D01*
X211428D01*
Y76746D01*
X211701D01*
Y76882D01*
X211974D01*
Y77019D01*
X212110D01*
Y77155D01*
X212246D01*
Y77291D01*
X212382D01*
Y77427D01*
X212519D01*
Y77564D01*
X212655D01*
Y77700D01*
X212791D01*
Y77836D01*
X212927D01*
Y77972D01*
Y78109D01*
X213064D01*
Y78245D01*
X213200D01*
Y78381D01*
Y78517D01*
Y78654D01*
X213336D01*
Y78790D01*
Y78926D01*
Y79062D01*
X213472D01*
Y79199D01*
Y79335D01*
Y79471D01*
Y79607D01*
Y79744D01*
Y79880D01*
Y80016D01*
Y80152D01*
Y80289D01*
Y80425D01*
X213336D01*
Y80561D01*
Y80698D01*
Y80834D01*
Y80970D01*
X213200D01*
Y81106D01*
Y81243D01*
X213064D01*
Y81379D01*
Y81515D01*
X212927D01*
Y81651D01*
Y81788D01*
X212791D01*
Y81924D01*
X212655D01*
Y82060D01*
X212519D01*
Y82196D01*
X212382D01*
Y82333D01*
X212246D01*
Y82469D01*
X212110D01*
Y82605D01*
X211837D01*
Y82741D01*
X211701D01*
Y82878D01*
X211292D01*
Y83014D01*
X210883D01*
Y83150D01*
X208976D01*
Y83014D01*
X208567D01*
Y82878D01*
X208295D01*
Y82741D01*
X208022D01*
Y82605D01*
X207886D01*
Y82469D01*
X207750D01*
Y82333D01*
X207341D01*
Y82469D01*
X207205D01*
Y82605D01*
X207068D01*
Y82741D01*
Y82878D01*
X207205D01*
Y83014D01*
X207341D01*
Y83150D01*
X207613D01*
Y83286D01*
X207886D01*
Y83423D01*
X208158D01*
Y83559D01*
X208431D01*
Y83695D01*
X208976D01*
Y83831D01*
X211020D01*
Y83695D01*
D02*
G37*
G36*
X204616D02*
Y83559D01*
Y83423D01*
Y83286D01*
Y83150D01*
Y83014D01*
Y82878D01*
Y82741D01*
Y82605D01*
Y82469D01*
Y82333D01*
Y82196D01*
Y82060D01*
Y81924D01*
Y81788D01*
Y81651D01*
Y81515D01*
Y81379D01*
Y81243D01*
Y81106D01*
Y80970D01*
Y80834D01*
Y80698D01*
Y80561D01*
Y80425D01*
Y80289D01*
Y80152D01*
Y80016D01*
Y79880D01*
Y79744D01*
Y79607D01*
Y79471D01*
Y79335D01*
Y79199D01*
Y79062D01*
Y78926D01*
Y78790D01*
Y78654D01*
Y78517D01*
Y78381D01*
Y78245D01*
Y78109D01*
Y77972D01*
Y77836D01*
Y77700D01*
Y77564D01*
Y77427D01*
Y77291D01*
Y77155D01*
Y77019D01*
Y76882D01*
Y76746D01*
Y76610D01*
Y76474D01*
Y76337D01*
Y76201D01*
Y76065D01*
Y75929D01*
Y75792D01*
X199029D01*
Y75929D01*
Y76065D01*
Y76201D01*
Y76337D01*
Y76474D01*
X203798D01*
Y76610D01*
Y76746D01*
Y76882D01*
Y77019D01*
Y77155D01*
Y77291D01*
Y77427D01*
Y77564D01*
Y77700D01*
Y77836D01*
Y77972D01*
Y78109D01*
Y78245D01*
Y78381D01*
Y78517D01*
Y78654D01*
Y78790D01*
Y78926D01*
Y79062D01*
Y79199D01*
Y79335D01*
Y79471D01*
X203662D01*
Y79607D01*
X199710D01*
Y79744D01*
Y79880D01*
Y80016D01*
Y80152D01*
X203798D01*
Y80289D01*
Y80425D01*
Y80561D01*
Y80698D01*
Y80834D01*
Y80970D01*
Y81106D01*
Y81243D01*
Y81379D01*
Y81515D01*
Y81651D01*
Y81788D01*
Y81924D01*
Y82060D01*
Y82196D01*
Y82333D01*
Y82469D01*
Y82605D01*
Y82741D01*
Y82878D01*
Y83014D01*
Y83150D01*
X199165D01*
Y83286D01*
Y83423D01*
Y83559D01*
Y83695D01*
Y83831D01*
X204616D01*
Y83695D01*
D02*
G37*
G36*
X187447D02*
Y83559D01*
Y83423D01*
Y83286D01*
Y83150D01*
Y83014D01*
Y82878D01*
Y82741D01*
Y82605D01*
Y82469D01*
Y82333D01*
Y82196D01*
Y82060D01*
Y81924D01*
Y81788D01*
Y81651D01*
Y81515D01*
Y81379D01*
Y81243D01*
Y81106D01*
Y80970D01*
Y80834D01*
Y80698D01*
Y80561D01*
Y80425D01*
Y80289D01*
Y80152D01*
Y80016D01*
Y79880D01*
Y79744D01*
Y79607D01*
Y79471D01*
Y79335D01*
Y79199D01*
Y79062D01*
Y78926D01*
Y78790D01*
Y78654D01*
Y78517D01*
Y78381D01*
Y78245D01*
Y78109D01*
Y77972D01*
Y77836D01*
Y77700D01*
Y77564D01*
Y77427D01*
Y77291D01*
Y77155D01*
Y77019D01*
Y76882D01*
Y76746D01*
Y76610D01*
Y76474D01*
Y76337D01*
Y76201D01*
Y76065D01*
Y75929D01*
Y75792D01*
X186766D01*
Y75929D01*
Y76065D01*
Y76201D01*
Y76337D01*
Y76474D01*
Y76610D01*
Y76746D01*
Y76882D01*
Y77019D01*
Y77155D01*
Y77291D01*
Y77427D01*
Y77564D01*
Y77700D01*
Y77836D01*
Y77972D01*
Y78109D01*
Y78245D01*
Y78381D01*
Y78517D01*
Y78654D01*
Y78790D01*
Y78926D01*
Y79062D01*
Y79199D01*
Y79335D01*
Y79471D01*
Y79607D01*
Y79744D01*
Y79880D01*
Y80016D01*
Y80152D01*
Y80289D01*
Y80425D01*
Y80561D01*
Y80698D01*
Y80834D01*
Y80970D01*
Y81106D01*
Y81243D01*
Y81379D01*
Y81515D01*
Y81651D01*
Y81788D01*
Y81924D01*
Y82060D01*
Y82196D01*
Y82333D01*
Y82469D01*
Y82605D01*
Y82741D01*
Y82878D01*
Y83014D01*
Y83150D01*
Y83286D01*
Y83423D01*
Y83559D01*
Y83695D01*
Y83831D01*
X187447D01*
Y83695D01*
D02*
G37*
G36*
X174639D02*
Y83559D01*
Y83423D01*
Y83286D01*
Y83150D01*
Y83014D01*
Y82878D01*
Y82741D01*
Y82605D01*
Y82469D01*
Y82333D01*
Y82196D01*
Y82060D01*
Y81924D01*
Y81788D01*
Y81651D01*
Y81515D01*
Y81379D01*
Y81243D01*
Y81106D01*
Y80970D01*
Y80834D01*
Y80698D01*
Y80561D01*
Y80425D01*
Y80289D01*
Y80152D01*
Y80016D01*
Y79880D01*
Y79744D01*
Y79607D01*
Y79471D01*
Y79335D01*
Y79199D01*
Y79062D01*
Y78926D01*
Y78790D01*
Y78654D01*
Y78517D01*
Y78381D01*
Y78245D01*
Y78109D01*
Y77972D01*
Y77836D01*
Y77700D01*
Y77564D01*
Y77427D01*
Y77291D01*
Y77155D01*
Y77019D01*
Y76882D01*
Y76746D01*
Y76610D01*
Y76474D01*
Y76337D01*
Y76201D01*
Y76065D01*
Y75929D01*
Y75792D01*
X173822D01*
Y75929D01*
Y76065D01*
Y76201D01*
Y76337D01*
Y76474D01*
Y76610D01*
Y76746D01*
Y76882D01*
Y77019D01*
Y77155D01*
Y77291D01*
Y77427D01*
Y77564D01*
Y77700D01*
Y77836D01*
Y77972D01*
Y78109D01*
Y78245D01*
Y78381D01*
Y78517D01*
Y78654D01*
Y78790D01*
Y78926D01*
Y79062D01*
Y79199D01*
X169734D01*
Y79335D01*
Y79471D01*
Y79607D01*
Y79744D01*
Y79880D01*
X173822D01*
Y80016D01*
Y80152D01*
Y80289D01*
Y80425D01*
Y80561D01*
Y80698D01*
Y80834D01*
Y80970D01*
Y81106D01*
Y81243D01*
Y81379D01*
Y81515D01*
Y81651D01*
Y81788D01*
Y81924D01*
Y82060D01*
Y82196D01*
Y82333D01*
Y82469D01*
Y82605D01*
Y82741D01*
Y82878D01*
Y83014D01*
Y83150D01*
X169189D01*
Y83286D01*
Y83423D01*
Y83559D01*
Y83695D01*
Y83831D01*
X174639D01*
Y83695D01*
D02*
G37*
G36*
X81061Y12627D02*
X81054Y12569D01*
X81032Y12525D01*
X81018Y12489D01*
X81010Y12482D01*
X80967Y12445D01*
X80923Y12430D01*
X80886Y12423D01*
X80872D01*
X80821Y12430D01*
X80777Y12452D01*
X80748Y12467D01*
X80741Y12474D01*
X80704Y12518D01*
X80682Y12569D01*
X80668Y12605D01*
Y12613D01*
Y12620D01*
X80639Y12817D01*
X80617Y12926D01*
X80588Y13028D01*
X80558Y13116D01*
X80522Y13196D01*
X80493Y13254D01*
X80471Y13305D01*
X80456Y13334D01*
X80449Y13342D01*
X80376Y13436D01*
X80296Y13509D01*
X80260Y13531D01*
X80230Y13553D01*
X80216Y13560D01*
X80208Y13568D01*
Y13961D01*
X81061D01*
Y12627D01*
D02*
G37*
G36*
X78233Y13568D02*
X78138Y13495D01*
X78058Y13422D01*
X78036Y13393D01*
X78014Y13363D01*
X78007Y13349D01*
X78000Y13342D01*
X77949Y13254D01*
X77912Y13167D01*
X77876Y13079D01*
X77854Y12999D01*
X77832Y12926D01*
X77817Y12868D01*
X77810Y12831D01*
Y12817D01*
X77781Y12620D01*
X77766Y12554D01*
X77744Y12511D01*
X77723Y12481D01*
X77715Y12474D01*
X77672Y12445D01*
X77621Y12430D01*
X77591Y12423D01*
X77577D01*
X77518Y12430D01*
X77475Y12452D01*
X77446Y12474D01*
X77438Y12481D01*
X77402Y12532D01*
X77387Y12576D01*
X77380Y12613D01*
Y12627D01*
Y13961D01*
X78233D01*
Y13568D01*
D02*
G37*
G36*
X92995Y14034D02*
X93039Y14005D01*
X93075Y13976D01*
X93083Y13969D01*
Y13961D01*
X93112Y13925D01*
X93141Y13888D01*
X93170Y13852D01*
X93192Y13830D01*
X93199Y13823D01*
X93221Y13808D01*
X93250Y13801D01*
X93279D01*
X93323Y13808D01*
X93374Y13823D01*
X93418Y13837D01*
X93425Y13845D01*
X93432D01*
X93571Y13896D01*
X93710Y13939D01*
X93855Y13969D01*
X93994Y13998D01*
X94118Y14020D01*
X94169Y14027D01*
X94213Y14034D01*
X94249D01*
X94278Y14041D01*
X94300D01*
Y13692D01*
X94213Y13684D01*
X94132Y13670D01*
X94067Y13655D01*
X94008Y13641D01*
X93957Y13626D01*
X93921Y13611D01*
X93899Y13604D01*
X93892Y13597D01*
X93834Y13568D01*
X93775Y13531D01*
X93724Y13495D01*
X93680Y13451D01*
X93644Y13422D01*
X93615Y13393D01*
X93600Y13371D01*
X93593Y13364D01*
X93549Y13305D01*
X93505Y13247D01*
X93425Y13116D01*
X93396Y13065D01*
X93374Y13021D01*
X93360Y12992D01*
X93352Y12977D01*
X93309Y12890D01*
X93265Y12810D01*
X93236Y12737D01*
X93214Y12678D01*
X93192Y12627D01*
X93177Y12584D01*
X93170Y12562D01*
Y12554D01*
X93155Y12503D01*
X93141Y12467D01*
X93126Y12430D01*
X93119Y12409D01*
X93097Y12372D01*
X93090Y12365D01*
X93046Y12343D01*
X93002Y12328D01*
X92966Y12321D01*
X92951D01*
X92893Y12328D01*
X92849Y12358D01*
X92813Y12401D01*
X92791Y12445D01*
X92776Y12489D01*
X92769Y12532D01*
Y12562D01*
Y12569D01*
Y13830D01*
X92776Y13903D01*
X92791Y13961D01*
X92806Y13991D01*
X92813Y13998D01*
X92849Y14027D01*
X92886Y14041D01*
X92922Y14049D01*
X92966D01*
X92995Y14034D01*
D02*
G37*
G36*
X67414Y12824D02*
X67502Y12802D01*
X67575Y12773D01*
X67641Y12737D01*
X67691Y12700D01*
X67728Y12671D01*
X67757Y12649D01*
X67764Y12642D01*
X67823Y12569D01*
X67866Y12496D01*
X67903Y12423D01*
X67925Y12350D01*
X67939Y12292D01*
X67947Y12241D01*
Y12212D01*
Y12197D01*
X67939Y12102D01*
X67918Y12015D01*
X67888Y11942D01*
X67852Y11876D01*
X67823Y11825D01*
X67794Y11789D01*
X67772Y11760D01*
X67764Y11752D01*
X67691Y11694D01*
X67619Y11650D01*
X67546Y11614D01*
X67473Y11592D01*
X67414Y11577D01*
X67364Y11570D01*
X67320D01*
X67225Y11577D01*
X67137Y11599D01*
X67065Y11629D01*
X66999Y11665D01*
X66948Y11694D01*
X66904Y11723D01*
X66882Y11745D01*
X66875Y11752D01*
X66809Y11825D01*
X66766Y11898D01*
X66729Y11971D01*
X66707Y12044D01*
X66693Y12102D01*
X66685Y12153D01*
Y12183D01*
Y12197D01*
X66693Y12292D01*
X66715Y12379D01*
X66744Y12452D01*
X66780Y12518D01*
X66817Y12569D01*
X66846Y12613D01*
X66868Y12634D01*
X66875Y12642D01*
X66948Y12707D01*
X67021Y12751D01*
X67094Y12788D01*
X67167Y12810D01*
X67225Y12824D01*
X67276Y12831D01*
X67320D01*
X67414Y12824D01*
D02*
G37*
G36*
X86609Y13954D02*
X86667Y13939D01*
X86697Y13925D01*
X86711Y13918D01*
X86740Y13881D01*
X86755Y13837D01*
X86762Y13801D01*
Y13794D01*
Y13786D01*
X86755Y13750D01*
X86748Y13721D01*
X86740Y13699D01*
Y13692D01*
X86711Y13670D01*
X86682Y13648D01*
X86653Y13633D01*
X86646Y13626D01*
X86573Y13582D01*
X86514Y13539D01*
X86463Y13495D01*
X86427Y13458D01*
X86398Y13422D01*
X86376Y13393D01*
X86361Y13378D01*
Y13371D01*
X86332Y13313D01*
X86317Y13247D01*
X86288Y13108D01*
Y13050D01*
X86281Y12999D01*
Y12970D01*
Y12955D01*
Y12059D01*
X85938Y11483D01*
Y12955D01*
Y13036D01*
X85931Y13108D01*
X85917Y13174D01*
X85909Y13225D01*
X85895Y13269D01*
X85887Y13298D01*
X85880Y13313D01*
Y13320D01*
X85844Y13385D01*
X85800Y13436D01*
X85756Y13487D01*
X85712Y13524D01*
X85676Y13553D01*
X85647Y13575D01*
X85625Y13582D01*
X85618Y13589D01*
X85581Y13611D01*
X85545Y13626D01*
X85501Y13655D01*
X85479Y13670D01*
X85472Y13677D01*
X85450Y13706D01*
X85443Y13743D01*
X85435Y13772D01*
Y13779D01*
X85443Y13830D01*
X85465Y13867D01*
X85486Y13896D01*
X85494Y13903D01*
X85516Y13925D01*
X85552Y13939D01*
X85625Y13954D01*
X85654Y13961D01*
X86522D01*
X86609Y13954D01*
D02*
G37*
G36*
X48446Y13954D02*
X48504Y13939D01*
X48533Y13925D01*
X48548Y13918D01*
X48577Y13881D01*
X48592Y13837D01*
X48599Y13801D01*
Y13794D01*
Y13786D01*
X48592Y13750D01*
X48584Y13721D01*
X48577Y13699D01*
Y13692D01*
X48548Y13670D01*
X48519Y13648D01*
X48490Y13633D01*
X48482Y13626D01*
X48410Y13582D01*
X48351Y13539D01*
X48300Y13495D01*
X48264Y13458D01*
X48235Y13422D01*
X48213Y13393D01*
X48198Y13378D01*
Y13371D01*
X48169Y13313D01*
X48154Y13247D01*
X48125Y13108D01*
Y13050D01*
X48118Y12999D01*
Y12970D01*
Y12955D01*
Y12059D01*
X47775Y11483D01*
Y12955D01*
Y13036D01*
X47768Y13108D01*
X47753Y13174D01*
X47746Y13225D01*
X47732Y13269D01*
X47724Y13298D01*
X47717Y13313D01*
Y13320D01*
X47681Y13385D01*
X47637Y13436D01*
X47593Y13487D01*
X47549Y13524D01*
X47513Y13553D01*
X47484Y13575D01*
X47462Y13582D01*
X47455Y13589D01*
X47418Y13611D01*
X47382Y13626D01*
X47338Y13655D01*
X47316Y13670D01*
X47309Y13677D01*
X47287Y13706D01*
X47280Y13743D01*
X47272Y13772D01*
Y13779D01*
X47280Y13830D01*
X47301Y13867D01*
X47323Y13896D01*
X47331Y13903D01*
X47352Y13925D01*
X47389Y13939D01*
X47462Y13954D01*
X47491Y13961D01*
X48359D01*
X48446Y13954D01*
D02*
G37*
G36*
X62282Y13604D02*
X62173Y13575D01*
X62129Y13560D01*
X62093Y13539D01*
X62064Y13524D01*
X62042Y13509D01*
X62034Y13502D01*
X62027Y13495D01*
X61984Y13444D01*
X61962Y13400D01*
X61947Y13371D01*
X61940Y13356D01*
X61932Y13327D01*
X61925Y13291D01*
X61911Y13218D01*
Y13181D01*
Y13152D01*
Y13137D01*
Y13130D01*
Y12095D01*
Y12015D01*
X61925Y11949D01*
X61932Y11891D01*
X61947Y11840D01*
X61962Y11804D01*
X61969Y11774D01*
X61984Y11760D01*
Y11752D01*
X62020Y11701D01*
X62049Y11672D01*
X62078Y11650D01*
X62085Y11643D01*
X62107Y11629D01*
X62137Y11621D01*
X62202Y11599D01*
X62231Y11592D01*
X62253Y11585D01*
X62268Y11577D01*
X62275D01*
Y11228D01*
X62056Y11235D01*
X61867Y11249D01*
X61706Y11264D01*
X61575Y11286D01*
X61517Y11300D01*
X61473Y11308D01*
X61429Y11315D01*
X61393Y11330D01*
X61371Y11337D01*
X61349D01*
X61335Y11344D01*
X61196Y11410D01*
X61072Y11483D01*
X60970Y11563D01*
X60883Y11636D01*
X60810Y11701D01*
X60759Y11760D01*
X60730Y11796D01*
X60722Y11811D01*
X60649Y11935D01*
X60591Y12073D01*
X60555Y12212D01*
X60526Y12343D01*
X60511Y12452D01*
X60504Y12503D01*
X60496Y12547D01*
Y12576D01*
Y12605D01*
Y12620D01*
Y12627D01*
X60504Y12788D01*
X60533Y12933D01*
X60562Y13065D01*
X60606Y13174D01*
X60642Y13262D01*
X60679Y13334D01*
X60708Y13371D01*
X60715Y13385D01*
X60803Y13487D01*
X60897Y13582D01*
X60992Y13655D01*
X61087Y13721D01*
X61174Y13772D01*
X61240Y13801D01*
X61284Y13823D01*
X61291Y13830D01*
X61298D01*
X61364Y13852D01*
X61429Y13874D01*
X61582Y13903D01*
X61750Y13932D01*
X61911Y13947D01*
X62056Y13954D01*
X62115D01*
X62173Y13961D01*
X62282D01*
Y13604D01*
D02*
G37*
G36*
X40223Y13954D02*
X40288Y13939D01*
X40325Y13918D01*
X40339Y13910D01*
X40376Y13874D01*
X40398Y13830D01*
X40405Y13794D01*
Y13786D01*
Y13779D01*
X40398Y13735D01*
X40383Y13699D01*
X40339Y13648D01*
X40303Y13619D01*
X40288Y13611D01*
X40281D01*
X40172Y13575D01*
X40135Y13560D01*
X40099Y13539D01*
X40048Y13487D01*
X40019Y13444D01*
X40011Y13429D01*
Y13422D01*
X39990Y13363D01*
X39982Y13313D01*
X39975Y13276D01*
Y13262D01*
X39982Y13247D01*
Y13225D01*
X39997Y13174D01*
X40011Y13130D01*
X40019Y13116D01*
Y13108D01*
X40391Y11738D01*
X40216Y11133D01*
X39698Y13028D01*
X39647Y13159D01*
X39625Y13210D01*
X39596Y13262D01*
X39581Y13298D01*
X39559Y13334D01*
X39552Y13349D01*
X39545Y13356D01*
X39508Y13407D01*
X39472Y13451D01*
X39443Y13480D01*
X39414Y13509D01*
X39363Y13539D01*
X39355Y13546D01*
X39348D01*
X39180Y13626D01*
X39137Y13648D01*
X39115Y13670D01*
X39100Y13684D01*
X39093Y13692D01*
X39078Y13721D01*
X39064Y13750D01*
Y13779D01*
Y13786D01*
Y13823D01*
X39078Y13852D01*
X39100Y13896D01*
X39129Y13925D01*
X39137Y13932D01*
X39144D01*
X39166Y13939D01*
X39195Y13947D01*
X39261Y13961D01*
X40135D01*
X40223Y13954D01*
D02*
G37*
G36*
X101510Y13597D02*
X101437Y13575D01*
X101371Y13546D01*
X101328Y13524D01*
X101284Y13495D01*
X101255Y13473D01*
X101233Y13451D01*
X101218Y13444D01*
Y13436D01*
X101189Y13400D01*
X101174Y13349D01*
X101145Y13254D01*
Y13210D01*
X101138Y13174D01*
Y13145D01*
Y13138D01*
Y12277D01*
X101145Y12183D01*
X101153Y12110D01*
X101160Y12066D01*
X101167Y12059D01*
Y12051D01*
X101189Y12000D01*
X101218Y11957D01*
X101247Y11927D01*
X101255Y11920D01*
X101284Y11898D01*
X101320Y11876D01*
X101400Y11855D01*
X101437Y11840D01*
X101466D01*
X101488Y11833D01*
X101495D01*
Y11483D01*
X101437Y11468D01*
X101386Y11454D01*
X101335Y11432D01*
X101298Y11410D01*
X101269Y11388D01*
X101247Y11366D01*
X101240Y11359D01*
X101233Y11351D01*
X101189Y11279D01*
X101160Y11206D01*
X101153Y11169D01*
X101145Y11147D01*
Y11133D01*
Y11125D01*
Y11111D01*
X101138Y11082D01*
Y11009D01*
Y10972D01*
Y10943D01*
Y10921D01*
Y10914D01*
Y10375D01*
X101131Y10222D01*
X101102Y10083D01*
X101065Y9966D01*
X101014Y9872D01*
X100970Y9792D01*
X100934Y9733D01*
X100905Y9704D01*
X100898Y9689D01*
X100803Y9609D01*
X100693Y9551D01*
X100584Y9507D01*
X100475Y9478D01*
X100380Y9463D01*
X100307Y9456D01*
X100278Y9449D01*
X100154D01*
X100088Y9456D01*
X100023Y9463D01*
X99972Y9471D01*
X99928Y9478D01*
X99899Y9485D01*
X99877Y9493D01*
X99870D01*
X99753Y9536D01*
X99702Y9558D01*
X99658Y9587D01*
X99622Y9609D01*
X99593Y9631D01*
X99578Y9638D01*
X99571Y9646D01*
X99476Y9733D01*
X99403Y9813D01*
X99374Y9850D01*
X99352Y9879D01*
X99345Y9894D01*
X99337Y9901D01*
X99301Y9952D01*
X99279Y10003D01*
X99250Y10083D01*
X99243Y10112D01*
X99235Y10134D01*
Y10141D01*
Y10149D01*
X99243Y10192D01*
X99265Y10229D01*
X99286Y10258D01*
X99294Y10265D01*
X99337Y10302D01*
X99367Y10316D01*
X99396Y10324D01*
X99403D01*
X99432Y10316D01*
X99469Y10309D01*
X99520Y10273D01*
X99556Y10229D01*
X99563Y10222D01*
X99571Y10214D01*
X99593Y10185D01*
X99614Y10170D01*
X99622Y10156D01*
X99629D01*
X99651Y10149D01*
X99665D01*
X99687Y10156D01*
X99702Y10163D01*
X99724Y10200D01*
X99731Y10229D01*
Y10236D01*
Y10243D01*
Y10914D01*
Y10972D01*
X99746Y11031D01*
X99753Y11082D01*
X99768Y11125D01*
X99782Y11162D01*
X99797Y11191D01*
X99804Y11206D01*
X99811Y11213D01*
X99877Y11308D01*
X99942Y11388D01*
X99972Y11417D01*
X99993Y11439D01*
X100008Y11446D01*
X100015Y11454D01*
X100118Y11519D01*
X100212Y11563D01*
X100249Y11577D01*
X100278Y11592D01*
X100300Y11599D01*
X100307D01*
X100373Y11621D01*
X100445Y11643D01*
X100526Y11658D01*
X100599Y11672D01*
X100664Y11687D01*
X100715Y11694D01*
X100752Y11701D01*
X100766D01*
X100650Y11738D01*
X100555Y11767D01*
X100467Y11796D01*
X100402Y11825D01*
X100343Y11847D01*
X100307Y11862D01*
X100285Y11876D01*
X100278D01*
X100169Y11942D01*
X100118Y11978D01*
X100081Y12008D01*
X100045Y12037D01*
X100023Y12059D01*
X100008Y12073D01*
X100001Y12081D01*
X99906Y12197D01*
X99833Y12321D01*
X99782Y12445D01*
X99746Y12562D01*
X99724Y12664D01*
X99717Y12751D01*
X99709Y12780D01*
Y12802D01*
Y12817D01*
Y12824D01*
X99717Y12926D01*
X99731Y13021D01*
X99746Y13116D01*
X99775Y13196D01*
X99848Y13342D01*
X99921Y13466D01*
X100001Y13560D01*
X100074Y13626D01*
X100103Y13655D01*
X100118Y13670D01*
X100132Y13684D01*
X100139D01*
X100249Y13757D01*
X100365Y13815D01*
X100482Y13859D01*
X100584Y13888D01*
X100672Y13910D01*
X100744Y13925D01*
X100774D01*
X100795Y13932D01*
X100810D01*
X100912Y13939D01*
X101014Y13947D01*
X101116Y13954D01*
X101211Y13961D01*
X101510D01*
Y13597D01*
D02*
G37*
G36*
X70753Y13597D02*
X70680Y13575D01*
X70615Y13546D01*
X70571Y13524D01*
X70527Y13495D01*
X70498Y13473D01*
X70476Y13451D01*
X70462Y13444D01*
Y13436D01*
X70433Y13400D01*
X70418Y13349D01*
X70389Y13254D01*
Y13210D01*
X70382Y13174D01*
Y13145D01*
Y13137D01*
Y12277D01*
X70389Y12183D01*
X70396Y12110D01*
X70403Y12066D01*
X70411Y12059D01*
Y12051D01*
X70433Y12000D01*
X70462Y11957D01*
X70491Y11927D01*
X70498Y11920D01*
X70527Y11898D01*
X70564Y11876D01*
X70644Y11855D01*
X70680Y11840D01*
X70710D01*
X70732Y11833D01*
X70739D01*
Y11483D01*
X70680Y11468D01*
X70629Y11454D01*
X70578Y11432D01*
X70542Y11410D01*
X70513Y11388D01*
X70491Y11366D01*
X70484Y11359D01*
X70476Y11351D01*
X70433Y11279D01*
X70403Y11206D01*
X70396Y11169D01*
X70389Y11147D01*
Y11133D01*
Y11125D01*
Y11111D01*
X70382Y11082D01*
Y11009D01*
Y10972D01*
Y10943D01*
Y10921D01*
Y10914D01*
Y10375D01*
X70374Y10222D01*
X70345Y10083D01*
X70309Y9966D01*
X70258Y9872D01*
X70214Y9791D01*
X70177Y9733D01*
X70148Y9704D01*
X70141Y9689D01*
X70046Y9609D01*
X69937Y9551D01*
X69828Y9507D01*
X69718Y9478D01*
X69623Y9463D01*
X69551Y9456D01*
X69521Y9449D01*
X69397D01*
X69332Y9456D01*
X69266Y9463D01*
X69215Y9471D01*
X69171Y9478D01*
X69142Y9485D01*
X69120Y9493D01*
X69113D01*
X68997Y9536D01*
X68945Y9558D01*
X68902Y9587D01*
X68865Y9609D01*
X68836Y9631D01*
X68822Y9638D01*
X68814Y9646D01*
X68719Y9733D01*
X68647Y9813D01*
X68617Y9850D01*
X68595Y9879D01*
X68588Y9894D01*
X68581Y9901D01*
X68545Y9952D01*
X68523Y10003D01*
X68493Y10083D01*
X68486Y10112D01*
X68479Y10134D01*
Y10141D01*
Y10149D01*
X68486Y10192D01*
X68508Y10229D01*
X68530Y10258D01*
X68537Y10265D01*
X68581Y10302D01*
X68610Y10316D01*
X68639Y10324D01*
X68647D01*
X68676Y10316D01*
X68712Y10309D01*
X68763Y10273D01*
X68800Y10229D01*
X68807Y10222D01*
X68814Y10214D01*
X68836Y10185D01*
X68858Y10170D01*
X68865Y10156D01*
X68872D01*
X68894Y10149D01*
X68909D01*
X68931Y10156D01*
X68945Y10163D01*
X68967Y10200D01*
X68975Y10229D01*
Y10236D01*
Y10243D01*
Y10914D01*
Y10972D01*
X68989Y11031D01*
X68997Y11082D01*
X69011Y11125D01*
X69026Y11162D01*
X69040Y11191D01*
X69047Y11206D01*
X69055Y11213D01*
X69120Y11308D01*
X69186Y11388D01*
X69215Y11417D01*
X69237Y11439D01*
X69252Y11446D01*
X69259Y11454D01*
X69361Y11519D01*
X69456Y11563D01*
X69492Y11577D01*
X69521Y11592D01*
X69543Y11599D01*
X69551D01*
X69616Y11621D01*
X69689Y11643D01*
X69769Y11658D01*
X69842Y11672D01*
X69908Y11687D01*
X69959Y11694D01*
X69995Y11701D01*
X70010D01*
X69893Y11738D01*
X69798Y11767D01*
X69711Y11796D01*
X69645Y11825D01*
X69587Y11847D01*
X69551Y11862D01*
X69529Y11876D01*
X69521D01*
X69412Y11942D01*
X69361Y11978D01*
X69324Y12008D01*
X69288Y12037D01*
X69266Y12059D01*
X69252Y12073D01*
X69244Y12081D01*
X69150Y12197D01*
X69077Y12321D01*
X69026Y12445D01*
X68989Y12562D01*
X68967Y12664D01*
X68960Y12751D01*
X68953Y12780D01*
Y12802D01*
Y12817D01*
Y12824D01*
X68960Y12926D01*
X68975Y13021D01*
X68989Y13116D01*
X69018Y13196D01*
X69091Y13342D01*
X69164Y13466D01*
X69244Y13560D01*
X69317Y13626D01*
X69346Y13655D01*
X69361Y13670D01*
X69375Y13684D01*
X69383D01*
X69492Y13757D01*
X69609Y13815D01*
X69726Y13859D01*
X69828Y13888D01*
X69915Y13910D01*
X69988Y13925D01*
X70017D01*
X70039Y13932D01*
X70053D01*
X70156Y13939D01*
X70258Y13947D01*
X70360Y13954D01*
X70454Y13961D01*
X70753D01*
Y13597D01*
D02*
G37*
G36*
X58076D02*
X58003Y13575D01*
X57938Y13546D01*
X57894Y13524D01*
X57850Y13495D01*
X57821Y13473D01*
X57799Y13451D01*
X57784Y13444D01*
Y13436D01*
X57755Y13400D01*
X57741Y13349D01*
X57711Y13254D01*
Y13210D01*
X57704Y13174D01*
Y13145D01*
Y13137D01*
Y12277D01*
X57711Y12183D01*
X57719Y12110D01*
X57726Y12066D01*
X57733Y12059D01*
Y12051D01*
X57755Y12000D01*
X57784Y11957D01*
X57814Y11927D01*
X57821Y11920D01*
X57850Y11898D01*
X57886Y11876D01*
X57967Y11855D01*
X58003Y11840D01*
X58032D01*
X58054Y11833D01*
X58061D01*
Y11483D01*
X58003Y11468D01*
X57952Y11454D01*
X57901Y11432D01*
X57865Y11410D01*
X57836Y11388D01*
X57814Y11366D01*
X57806Y11359D01*
X57799Y11351D01*
X57755Y11279D01*
X57726Y11206D01*
X57719Y11169D01*
X57711Y11147D01*
Y11133D01*
Y11125D01*
Y11111D01*
X57704Y11082D01*
Y11009D01*
Y10972D01*
Y10943D01*
Y10921D01*
Y10914D01*
Y10375D01*
X57697Y10222D01*
X57668Y10083D01*
X57631Y9966D01*
X57580Y9872D01*
X57537Y9791D01*
X57500Y9733D01*
X57471Y9704D01*
X57464Y9689D01*
X57369Y9609D01*
X57260Y9551D01*
X57150Y9507D01*
X57041Y9478D01*
X56946Y9463D01*
X56873Y9456D01*
X56844Y9449D01*
X56720D01*
X56655Y9456D01*
X56589Y9463D01*
X56538Y9471D01*
X56494Y9478D01*
X56465Y9485D01*
X56443Y9493D01*
X56436D01*
X56319Y9536D01*
X56268Y9558D01*
X56224Y9587D01*
X56188Y9609D01*
X56159Y9631D01*
X56144Y9638D01*
X56137Y9646D01*
X56042Y9733D01*
X55969Y9813D01*
X55940Y9850D01*
X55918Y9879D01*
X55911Y9894D01*
X55904Y9901D01*
X55867Y9952D01*
X55845Y10003D01*
X55816Y10083D01*
X55809Y10112D01*
X55801Y10134D01*
Y10141D01*
Y10149D01*
X55809Y10192D01*
X55831Y10229D01*
X55853Y10258D01*
X55860Y10265D01*
X55904Y10302D01*
X55933Y10316D01*
X55962Y10324D01*
X55969D01*
X55998Y10316D01*
X56035Y10309D01*
X56086Y10273D01*
X56122Y10229D01*
X56130Y10222D01*
X56137Y10214D01*
X56159Y10185D01*
X56181Y10170D01*
X56188Y10156D01*
X56195D01*
X56217Y10149D01*
X56232D01*
X56253Y10156D01*
X56268Y10163D01*
X56290Y10200D01*
X56297Y10229D01*
Y10236D01*
Y10243D01*
Y10914D01*
Y10972D01*
X56312Y11031D01*
X56319Y11082D01*
X56334Y11125D01*
X56348Y11162D01*
X56363Y11191D01*
X56370Y11206D01*
X56378Y11213D01*
X56443Y11308D01*
X56509Y11388D01*
X56538Y11417D01*
X56560Y11439D01*
X56574Y11446D01*
X56582Y11454D01*
X56684Y11519D01*
X56778Y11563D01*
X56815Y11577D01*
X56844Y11592D01*
X56866Y11599D01*
X56873D01*
X56939Y11621D01*
X57012Y11643D01*
X57092Y11658D01*
X57165Y11672D01*
X57230Y11687D01*
X57281Y11694D01*
X57318Y11701D01*
X57332D01*
X57216Y11738D01*
X57121Y11767D01*
X57034Y11796D01*
X56968Y11825D01*
X56910Y11847D01*
X56873Y11862D01*
X56851Y11876D01*
X56844D01*
X56735Y11942D01*
X56684Y11978D01*
X56647Y12008D01*
X56611Y12037D01*
X56589Y12059D01*
X56574Y12073D01*
X56567Y12081D01*
X56472Y12197D01*
X56399Y12321D01*
X56348Y12445D01*
X56312Y12562D01*
X56290Y12664D01*
X56283Y12751D01*
X56275Y12780D01*
Y12802D01*
Y12817D01*
Y12824D01*
X56283Y12926D01*
X56297Y13021D01*
X56312Y13116D01*
X56341Y13196D01*
X56414Y13342D01*
X56487Y13466D01*
X56567Y13560D01*
X56640Y13626D01*
X56669Y13655D01*
X56684Y13670D01*
X56698Y13684D01*
X56705D01*
X56815Y13757D01*
X56932Y13815D01*
X57048Y13859D01*
X57150Y13888D01*
X57238Y13910D01*
X57311Y13925D01*
X57340D01*
X57362Y13932D01*
X57376D01*
X57478Y13939D01*
X57580Y13947D01*
X57682Y13954D01*
X57777Y13961D01*
X58076D01*
Y13597D01*
D02*
G37*
G36*
X103361Y13954D02*
X103420Y13939D01*
X103449Y13918D01*
X103464Y13910D01*
X103500Y13874D01*
X103515Y13830D01*
X103522Y13801D01*
Y13794D01*
Y13786D01*
X103515Y13743D01*
X103500Y13706D01*
X103456Y13648D01*
X103420Y13619D01*
X103405Y13611D01*
X103398D01*
X103361Y13597D01*
X103332Y13589D01*
X103296Y13575D01*
X103281Y13568D01*
X103274D01*
X103259Y13560D01*
X103245Y13546D01*
X103238Y13539D01*
Y13531D01*
X103208Y13487D01*
X103201Y13429D01*
X103194Y13385D01*
Y13378D01*
Y13371D01*
Y10120D01*
X103201Y10047D01*
X103216Y9996D01*
X103230Y9966D01*
X103238Y9959D01*
X103252Y9945D01*
X103259Y9930D01*
X103267Y9923D01*
X103274D01*
X103281Y9915D01*
X103296D01*
X103340Y9901D01*
X103383Y9886D01*
X103391Y9879D01*
X103398D01*
X103442Y9857D01*
X103471Y9835D01*
X103493Y9806D01*
X103507Y9777D01*
X103522Y9726D01*
Y9711D01*
Y9704D01*
X103515Y9653D01*
X103493Y9609D01*
X103471Y9587D01*
X103464Y9580D01*
X103405Y9558D01*
X103354Y9544D01*
X103303Y9536D01*
X101590D01*
X101546Y9544D01*
X101510Y9551D01*
X101481Y9558D01*
X101452Y9566D01*
X101437Y9573D01*
X101408Y9595D01*
X101386Y9617D01*
X101357Y9660D01*
X101349Y9697D01*
Y9711D01*
X101357Y9762D01*
X101371Y9799D01*
X101400Y9828D01*
X101430Y9850D01*
X101459Y9864D01*
X101488Y9879D01*
X101503Y9886D01*
X101510D01*
X101554Y9894D01*
X101583Y9908D01*
X101612D01*
X101627Y9915D01*
X101648Y9923D01*
X101656D01*
X101692Y9952D01*
X101699Y9959D01*
X101707Y9966D01*
X101728Y10017D01*
X101743Y10083D01*
X101750Y10127D01*
Y10141D01*
Y10149D01*
Y13961D01*
X103289D01*
X103361Y13954D01*
D02*
G37*
G36*
X98718D02*
X98776Y13939D01*
X98805Y13918D01*
X98820Y13910D01*
X98856Y13874D01*
X98871Y13830D01*
X98878Y13801D01*
Y13794D01*
Y13786D01*
X98871Y13743D01*
X98856Y13706D01*
X98813Y13648D01*
X98776Y13619D01*
X98761Y13611D01*
X98754D01*
X98718Y13597D01*
X98689Y13589D01*
X98652Y13575D01*
X98638Y13568D01*
X98630D01*
X98616Y13560D01*
X98601Y13546D01*
X98594Y13539D01*
Y13531D01*
X98565Y13487D01*
X98557Y13429D01*
X98550Y13385D01*
Y13378D01*
Y13371D01*
Y10120D01*
X98557Y10047D01*
X98572Y9996D01*
X98587Y9966D01*
X98594Y9959D01*
X98608Y9945D01*
X98616Y9930D01*
X98623Y9923D01*
X98630D01*
X98638Y9915D01*
X98652D01*
X98696Y9901D01*
X98740Y9886D01*
X98747Y9879D01*
X98754D01*
X98798Y9857D01*
X98827Y9835D01*
X98849Y9806D01*
X98864Y9777D01*
X98878Y9726D01*
Y9711D01*
Y9704D01*
X98871Y9653D01*
X98849Y9609D01*
X98827Y9587D01*
X98820Y9580D01*
X98761Y9558D01*
X98711Y9544D01*
X98659Y9536D01*
X97019D01*
X96946Y9544D01*
X96888Y9558D01*
X96859Y9573D01*
X96844Y9580D01*
X96808Y9617D01*
X96786Y9660D01*
X96779Y9689D01*
Y9704D01*
X96786Y9748D01*
X96801Y9784D01*
X96844Y9843D01*
X96888Y9872D01*
X96903Y9879D01*
X96910D01*
X96946Y9894D01*
X96975Y9901D01*
X97019Y9915D01*
X97034Y9923D01*
X97041D01*
X97048Y9930D01*
X97063Y9945D01*
X97070Y9952D01*
Y9959D01*
X97092Y10003D01*
X97099Y10061D01*
X97107Y10105D01*
Y10112D01*
Y10120D01*
Y13371D01*
X97099Y13444D01*
X97085Y13495D01*
X97078Y13524D01*
X97070Y13531D01*
X97056Y13553D01*
X97048Y13560D01*
X97041Y13568D01*
X97026Y13575D01*
X97012D01*
X96968Y13589D01*
X96924Y13604D01*
X96917Y13611D01*
X96910D01*
X96866Y13633D01*
X96837Y13655D01*
X96808Y13684D01*
X96793Y13713D01*
X96779Y13765D01*
Y13779D01*
Y13786D01*
X96786Y13837D01*
X96808Y13881D01*
X96837Y13903D01*
X96844Y13910D01*
X96903Y13939D01*
X96954Y13954D01*
X96997Y13961D01*
X98645D01*
X98718Y13954D01*
D02*
G37*
G36*
X91967D02*
X92026Y13939D01*
X92055Y13918D01*
X92069Y13910D01*
X92106Y13874D01*
X92120Y13830D01*
X92128Y13801D01*
Y13794D01*
Y13786D01*
X92120Y13743D01*
X92106Y13706D01*
X92062Y13648D01*
X92026Y13619D01*
X92011Y13611D01*
X92004D01*
X91967Y13597D01*
X91938Y13589D01*
X91902Y13575D01*
X91887Y13568D01*
X91880D01*
X91865Y13560D01*
X91851Y13546D01*
X91843Y13539D01*
Y13531D01*
X91814Y13487D01*
X91807Y13429D01*
X91800Y13385D01*
Y13378D01*
Y13371D01*
Y10120D01*
X91807Y10047D01*
X91821Y9996D01*
X91836Y9966D01*
X91843Y9959D01*
X91858Y9945D01*
X91865Y9930D01*
X91873Y9923D01*
X91880D01*
X91887Y9915D01*
X91902D01*
X91945Y9901D01*
X91989Y9886D01*
X91996Y9879D01*
X92004D01*
X92047Y9857D01*
X92077Y9835D01*
X92098Y9806D01*
X92113Y9777D01*
X92128Y9726D01*
Y9711D01*
Y9704D01*
X92120Y9653D01*
X92098Y9609D01*
X92077Y9587D01*
X92069Y9580D01*
X92011Y9558D01*
X91960Y9544D01*
X91909Y9536D01*
X90269D01*
X90196Y9544D01*
X90137Y9558D01*
X90108Y9573D01*
X90094Y9580D01*
X90057Y9617D01*
X90035Y9660D01*
X90028Y9689D01*
Y9704D01*
X90035Y9748D01*
X90050Y9784D01*
X90094Y9843D01*
X90137Y9872D01*
X90152Y9879D01*
X90159D01*
X90196Y9894D01*
X90225Y9901D01*
X90269Y9915D01*
X90283Y9923D01*
X90290D01*
X90298Y9930D01*
X90312Y9945D01*
X90320Y9952D01*
Y9959D01*
X90342Y10003D01*
X90349Y10061D01*
X90356Y10105D01*
Y10112D01*
Y10120D01*
Y13371D01*
X90349Y13444D01*
X90334Y13495D01*
X90327Y13524D01*
X90320Y13531D01*
X90305Y13553D01*
X90298Y13560D01*
X90290Y13568D01*
X90276Y13575D01*
X90261D01*
X90218Y13589D01*
X90174Y13604D01*
X90167Y13611D01*
X90159D01*
X90116Y13633D01*
X90086Y13655D01*
X90057Y13684D01*
X90043Y13713D01*
X90028Y13765D01*
Y13779D01*
Y13786D01*
X90035Y13837D01*
X90057Y13881D01*
X90086Y13903D01*
X90094Y13910D01*
X90152Y13939D01*
X90203Y13954D01*
X90247Y13961D01*
X91894D01*
X91967Y13954D01*
D02*
G37*
G36*
X89022Y10513D02*
Y10433D01*
X89037Y10360D01*
X89073Y10222D01*
X89124Y10120D01*
X89175Y10032D01*
X89233Y9966D01*
X89284Y9923D01*
X89321Y9894D01*
X89328Y9886D01*
X89336D01*
X89401Y9850D01*
X89438Y9821D01*
X89460Y9799D01*
X89467Y9792D01*
X89481Y9762D01*
X89489Y9740D01*
X89496Y9711D01*
Y9704D01*
X89481Y9646D01*
X89452Y9609D01*
X89401Y9580D01*
X89350Y9558D01*
X89299Y9544D01*
X89248Y9536D01*
X88402D01*
X88359Y9544D01*
X88315Y9551D01*
X88286Y9558D01*
X88264D01*
X88249Y9566D01*
X88242Y9573D01*
X88206Y9617D01*
X88184Y9653D01*
X88176Y9682D01*
Y9697D01*
Y9733D01*
X88191Y9762D01*
X88220Y9806D01*
X88249Y9835D01*
X88257Y9843D01*
X88264D01*
X88366Y9901D01*
X88424Y9937D01*
X88468Y9981D01*
X88512Y10017D01*
X88548Y10054D01*
X88570Y10090D01*
X88592Y10120D01*
X88599Y10134D01*
X88607Y10141D01*
X88628Y10200D01*
X88650Y10258D01*
X88672Y10382D01*
Y10433D01*
X88679Y10477D01*
Y10506D01*
Y10513D01*
Y12248D01*
X89022Y12817D01*
Y10513D01*
D02*
G37*
G36*
X89233Y13954D02*
X89284D01*
X89328Y13947D01*
X89357Y13939D01*
X89372D01*
X89387Y13932D01*
X89416Y13918D01*
X89438Y13896D01*
X89452Y13874D01*
X89460Y13867D01*
X89474Y13830D01*
X89481Y13801D01*
X89489Y13772D01*
Y13765D01*
X89481Y13728D01*
X89474Y13699D01*
X89467Y13677D01*
X89460Y13670D01*
X89408Y13626D01*
X89394Y13619D01*
X89387Y13611D01*
X89263Y13568D01*
X89212Y13546D01*
X89175Y13524D01*
X89153Y13502D01*
X89146Y13495D01*
X89131Y13473D01*
X89110Y13451D01*
X89073Y13393D01*
X89044Y13349D01*
X89029Y13334D01*
Y13327D01*
X86828Y9536D01*
X85938D01*
Y10965D01*
X87666Y13961D01*
X89168D01*
X89233Y13954D01*
D02*
G37*
G36*
X84699Y10462D02*
X84721Y10382D01*
X84743Y10316D01*
X84772Y10258D01*
X84794Y10207D01*
X84816Y10163D01*
X84830Y10134D01*
X84838Y10120D01*
X84845Y10112D01*
X84889Y10061D01*
X84925Y10017D01*
X84954Y9988D01*
X84969Y9981D01*
X85027Y9945D01*
X85093Y9915D01*
X85122Y9901D01*
X85144Y9886D01*
X85158Y9879D01*
X85166D01*
X85209Y9857D01*
X85246Y9828D01*
X85268Y9799D01*
X85290Y9777D01*
X85304Y9733D01*
Y9726D01*
Y9719D01*
X85297Y9660D01*
X85268Y9617D01*
X85246Y9587D01*
X85239Y9580D01*
X85180Y9558D01*
X85115Y9544D01*
X85071Y9536D01*
X84225D01*
X84145Y9544D01*
X84087Y9558D01*
X84043Y9587D01*
X84014Y9617D01*
X83999Y9646D01*
X83985Y9675D01*
Y9689D01*
Y9697D01*
X83992Y9733D01*
X83999Y9770D01*
X84036Y9821D01*
X84079Y9850D01*
X84087Y9857D01*
X84094D01*
X84203Y9908D01*
X84269Y9945D01*
X84313Y9988D01*
X84349Y10039D01*
X84371Y10090D01*
X84386Y10134D01*
X84393Y10163D01*
Y10192D01*
Y10200D01*
X84386Y10258D01*
X84378Y10316D01*
X84371Y10353D01*
Y10360D01*
Y10367D01*
X83802Y12460D01*
X83963Y13130D01*
X84699Y10462D01*
D02*
G37*
G36*
X83824Y13641D02*
X83227Y11009D01*
X83956D01*
X84043Y10622D01*
X83132D01*
X83030Y10149D01*
X83022Y10112D01*
X83015Y10083D01*
Y10061D01*
Y10054D01*
X83022Y10010D01*
X83030Y9981D01*
X83037Y9959D01*
X83044Y9952D01*
X83073Y9930D01*
X83103Y9908D01*
X83125Y9894D01*
X83139Y9886D01*
X83197Y9850D01*
X83227Y9821D01*
X83248Y9806D01*
X83256Y9799D01*
X83270Y9770D01*
X83278Y9740D01*
Y9719D01*
Y9704D01*
X83270Y9653D01*
X83248Y9609D01*
X83227Y9587D01*
X83219Y9580D01*
X83168Y9558D01*
X83117Y9544D01*
X83081Y9536D01*
X81448D01*
X81360Y9544D01*
X81302Y9566D01*
X81258Y9587D01*
X81222Y9624D01*
X81207Y9653D01*
X81200Y9675D01*
X81193Y9697D01*
Y9704D01*
X81200Y9740D01*
X81207Y9777D01*
X81222Y9792D01*
X81229Y9799D01*
X81258Y9828D01*
X81295Y9850D01*
X81331Y9864D01*
X81338Y9872D01*
X81346D01*
X81411Y9901D01*
X81448Y9937D01*
X81470Y9966D01*
X81477Y9974D01*
X81499Y10032D01*
X81513Y10090D01*
X81528Y10134D01*
X81535Y10141D01*
Y10149D01*
X82432Y13961D01*
X83744D01*
X83824Y13641D01*
D02*
G37*
G36*
X79946Y10149D02*
X79953Y10069D01*
X79968Y10010D01*
X79990Y9981D01*
X79997Y9966D01*
X80033Y9937D01*
X80041Y9923D01*
X80063D01*
X80077Y9915D01*
X80128Y9901D01*
X80172Y9894D01*
X80187Y9886D01*
X80194D01*
X80245Y9872D01*
X80281Y9843D01*
X80310Y9813D01*
X80325Y9784D01*
X80340Y9755D01*
X80347Y9733D01*
Y9719D01*
Y9711D01*
X80332Y9653D01*
X80310Y9617D01*
X80289Y9587D01*
X80274Y9580D01*
X80208Y9558D01*
X80143Y9544D01*
X80114Y9536D01*
X78342Y9536D01*
X78298Y9544D01*
X78262Y9551D01*
X78233Y9558D01*
X78204Y9565D01*
X78189Y9573D01*
X78160Y9595D01*
X78138Y9617D01*
X78109Y9660D01*
X78102Y9697D01*
Y9711D01*
X78109Y9762D01*
X78123Y9799D01*
X78153Y9828D01*
X78182Y9850D01*
X78211Y9864D01*
X78240Y9879D01*
X78255Y9886D01*
X78262D01*
X78306Y9894D01*
X78335Y9908D01*
X78364D01*
X78379Y9915D01*
X78400Y9923D01*
X78408D01*
X78444Y9952D01*
X78452Y9959D01*
X78459Y9966D01*
X78481Y10017D01*
X78495Y10083D01*
X78503Y10127D01*
Y10141D01*
Y10149D01*
Y13961D01*
X79946Y13961D01*
Y10149D01*
D02*
G37*
G36*
X72605Y13954D02*
X72663Y13939D01*
X72693Y13918D01*
X72707Y13910D01*
X72743Y13874D01*
X72758Y13830D01*
X72765Y13801D01*
Y13794D01*
Y13786D01*
X72758Y13743D01*
X72743Y13706D01*
X72700Y13648D01*
X72663Y13619D01*
X72649Y13611D01*
X72641D01*
X72605Y13597D01*
X72576Y13589D01*
X72539Y13575D01*
X72525Y13568D01*
X72518D01*
X72503Y13560D01*
X72488Y13546D01*
X72481Y13539D01*
Y13531D01*
X72452Y13487D01*
X72445Y13429D01*
X72437Y13385D01*
Y13378D01*
Y13371D01*
Y10120D01*
X72445Y10047D01*
X72459Y9996D01*
X72474Y9966D01*
X72481Y9959D01*
X72496Y9945D01*
X72503Y9930D01*
X72510Y9923D01*
X72518D01*
X72525Y9915D01*
X72539D01*
X72583Y9901D01*
X72627Y9886D01*
X72634Y9879D01*
X72641D01*
X72685Y9857D01*
X72714Y9835D01*
X72736Y9806D01*
X72751Y9777D01*
X72765Y9726D01*
Y9711D01*
Y9704D01*
X72758Y9653D01*
X72736Y9609D01*
X72714Y9587D01*
X72707Y9580D01*
X72649Y9558D01*
X72598Y9544D01*
X72547Y9536D01*
X70833D01*
X70790Y9544D01*
X70753Y9551D01*
X70724Y9558D01*
X70695Y9565D01*
X70680Y9573D01*
X70651Y9595D01*
X70629Y9617D01*
X70600Y9660D01*
X70593Y9697D01*
Y9711D01*
X70600Y9762D01*
X70615Y9799D01*
X70644Y9828D01*
X70673Y9850D01*
X70702Y9864D01*
X70732Y9879D01*
X70746Y9886D01*
X70753D01*
X70797Y9894D01*
X70826Y9908D01*
X70855D01*
X70870Y9915D01*
X70892Y9923D01*
X70899D01*
X70936Y9952D01*
X70943Y9959D01*
X70950Y9966D01*
X70972Y10017D01*
X70987Y10083D01*
X70994Y10127D01*
Y10141D01*
Y10149D01*
Y13961D01*
X72532D01*
X72605Y13954D01*
D02*
G37*
G36*
X64156D02*
X64214Y13939D01*
X64243Y13918D01*
X64258Y13910D01*
X64294Y13874D01*
X64309Y13830D01*
X64316Y13801D01*
Y13794D01*
Y13786D01*
X64309Y13743D01*
X64294Y13706D01*
X64251Y13648D01*
X64214Y13619D01*
X64200Y13611D01*
X64192D01*
X64156Y13597D01*
X64127Y13589D01*
X64090Y13575D01*
X64076Y13568D01*
X64068D01*
X64054Y13560D01*
X64039Y13546D01*
X64032Y13539D01*
Y13531D01*
X64003Y13487D01*
X63995Y13429D01*
X63988Y13385D01*
Y13378D01*
Y13371D01*
Y10120D01*
X63995Y10047D01*
X64010Y9996D01*
X64025Y9966D01*
X64032Y9959D01*
X64047Y9945D01*
X64054Y9930D01*
X64061Y9923D01*
X64068D01*
X64076Y9915D01*
X64090D01*
X64134Y9901D01*
X64178Y9886D01*
X64185Y9879D01*
X64192D01*
X64236Y9857D01*
X64265Y9835D01*
X64287Y9806D01*
X64302Y9777D01*
X64316Y9726D01*
Y9711D01*
Y9704D01*
X64309Y9653D01*
X64287Y9609D01*
X64265Y9587D01*
X64258Y9580D01*
X64200Y9558D01*
X64149Y9544D01*
X64098Y9536D01*
X62384D01*
X62341Y9544D01*
X62304Y9551D01*
X62275Y9558D01*
X62246Y9565D01*
X62231Y9573D01*
X62202Y9595D01*
X62180Y9617D01*
X62151Y9660D01*
X62144Y9697D01*
Y9711D01*
X62151Y9762D01*
X62166Y9799D01*
X62195Y9828D01*
X62224Y9850D01*
X62253Y9864D01*
X62282Y9879D01*
X62297Y9886D01*
X62304D01*
X62348Y9894D01*
X62377Y9908D01*
X62406D01*
X62421Y9915D01*
X62443Y9923D01*
X62450D01*
X62486Y9952D01*
X62494Y9959D01*
X62501Y9966D01*
X62523Y10017D01*
X62537Y10083D01*
X62545Y10127D01*
Y10141D01*
Y10149D01*
Y13961D01*
X64083D01*
X64156Y13954D01*
D02*
G37*
G36*
X59928D02*
X59986Y13939D01*
X60015Y13918D01*
X60030Y13910D01*
X60066Y13874D01*
X60081Y13830D01*
X60088Y13801D01*
Y13794D01*
Y13786D01*
X60081Y13743D01*
X60066Y13706D01*
X60022Y13648D01*
X59986Y13619D01*
X59971Y13611D01*
X59964D01*
X59928Y13597D01*
X59899Y13589D01*
X59862Y13575D01*
X59847Y13568D01*
X59840D01*
X59826Y13560D01*
X59811Y13546D01*
X59804Y13539D01*
Y13531D01*
X59775Y13487D01*
X59767Y13429D01*
X59760Y13385D01*
Y13378D01*
Y13371D01*
Y10120D01*
X59767Y10047D01*
X59782Y9996D01*
X59797Y9966D01*
X59804Y9959D01*
X59818Y9945D01*
X59826Y9930D01*
X59833Y9923D01*
X59840D01*
X59847Y9915D01*
X59862D01*
X59906Y9901D01*
X59950Y9886D01*
X59957Y9879D01*
X59964D01*
X60008Y9857D01*
X60037Y9835D01*
X60059Y9806D01*
X60074Y9777D01*
X60088Y9726D01*
Y9711D01*
Y9704D01*
X60081Y9653D01*
X60059Y9609D01*
X60037Y9587D01*
X60030Y9580D01*
X59971Y9558D01*
X59920Y9544D01*
X59869Y9536D01*
X58156D01*
X58113Y9544D01*
X58076Y9551D01*
X58047Y9558D01*
X58018Y9565D01*
X58003Y9573D01*
X57974Y9595D01*
X57952Y9617D01*
X57923Y9660D01*
X57916Y9697D01*
Y9711D01*
X57923Y9762D01*
X57938Y9799D01*
X57967Y9828D01*
X57996Y9850D01*
X58025Y9864D01*
X58054Y9879D01*
X58069Y9886D01*
X58076D01*
X58120Y9894D01*
X58149Y9908D01*
X58178D01*
X58193Y9915D01*
X58214Y9923D01*
X58222D01*
X58258Y9952D01*
X58266Y9959D01*
X58273Y9966D01*
X58295Y10017D01*
X58309Y10083D01*
X58317Y10127D01*
Y10141D01*
Y10149D01*
Y13961D01*
X59855D01*
X59928Y13954D01*
D02*
G37*
G36*
X55109Y10462D02*
X55131Y10382D01*
X55153Y10316D01*
X55182Y10258D01*
X55204Y10207D01*
X55226Y10163D01*
X55240Y10134D01*
X55247Y10120D01*
X55255Y10112D01*
X55299Y10061D01*
X55335Y10017D01*
X55364Y9988D01*
X55379Y9981D01*
X55437Y9945D01*
X55503Y9915D01*
X55532Y9901D01*
X55554Y9886D01*
X55568Y9879D01*
X55576D01*
X55619Y9857D01*
X55656Y9828D01*
X55678Y9799D01*
X55699Y9777D01*
X55714Y9733D01*
Y9726D01*
Y9719D01*
X55707Y9660D01*
X55678Y9617D01*
X55656Y9587D01*
X55648Y9580D01*
X55590Y9558D01*
X55524Y9544D01*
X55481Y9536D01*
X54635D01*
X54555Y9544D01*
X54497Y9558D01*
X54453Y9587D01*
X54424Y9617D01*
X54409Y9646D01*
X54395Y9675D01*
Y9689D01*
Y9697D01*
X54402Y9733D01*
X54409Y9770D01*
X54446Y9821D01*
X54489Y9850D01*
X54497Y9857D01*
X54504D01*
X54613Y9908D01*
X54679Y9945D01*
X54723Y9988D01*
X54759Y10039D01*
X54781Y10090D01*
X54795Y10134D01*
X54803Y10163D01*
Y10192D01*
Y10200D01*
X54795Y10258D01*
X54788Y10316D01*
X54781Y10353D01*
Y10360D01*
Y10367D01*
X54212Y12460D01*
X54373Y13130D01*
X55109Y10462D01*
D02*
G37*
G36*
X54234Y13641D02*
X53636Y11009D01*
X54365D01*
X54453Y10622D01*
X53542D01*
X53440Y10149D01*
X53432Y10112D01*
X53425Y10083D01*
Y10061D01*
Y10054D01*
X53432Y10010D01*
X53440Y9981D01*
X53447Y9959D01*
X53454Y9952D01*
X53483Y9930D01*
X53513Y9908D01*
X53534Y9894D01*
X53549Y9886D01*
X53607Y9850D01*
X53636Y9821D01*
X53658Y9806D01*
X53666Y9799D01*
X53680Y9770D01*
X53688Y9740D01*
Y9719D01*
Y9704D01*
X53680Y9653D01*
X53658Y9609D01*
X53636Y9587D01*
X53629Y9580D01*
X53578Y9558D01*
X53527Y9544D01*
X53491Y9536D01*
X51858D01*
X51770Y9544D01*
X51712Y9565D01*
X51668Y9587D01*
X51632Y9624D01*
X51617Y9653D01*
X51610Y9675D01*
X51603Y9697D01*
Y9704D01*
X51610Y9740D01*
X51617Y9777D01*
X51632Y9791D01*
X51639Y9799D01*
X51668Y9828D01*
X51705Y9850D01*
X51741Y9864D01*
X51748Y9872D01*
X51756D01*
X51821Y9901D01*
X51858Y9937D01*
X51880Y9966D01*
X51887Y9974D01*
X51909Y10032D01*
X51923Y10090D01*
X51938Y10134D01*
X51945Y10141D01*
Y10149D01*
X52842Y13961D01*
X54154D01*
X54234Y13641D01*
D02*
G37*
G36*
X50859Y10513D02*
Y10433D01*
X50874Y10360D01*
X50910Y10222D01*
X50961Y10120D01*
X51012Y10032D01*
X51070Y9966D01*
X51121Y9923D01*
X51158Y9894D01*
X51165Y9886D01*
X51172D01*
X51238Y9850D01*
X51275Y9821D01*
X51296Y9799D01*
X51304Y9791D01*
X51318Y9762D01*
X51326Y9740D01*
X51333Y9711D01*
Y9704D01*
X51318Y9646D01*
X51289Y9609D01*
X51238Y9580D01*
X51187Y9558D01*
X51136Y9544D01*
X51085Y9536D01*
X50239D01*
X50195Y9544D01*
X50152Y9551D01*
X50123Y9558D01*
X50101D01*
X50086Y9565D01*
X50079Y9573D01*
X50042Y9617D01*
X50021Y9653D01*
X50013Y9682D01*
Y9697D01*
Y9733D01*
X50028Y9762D01*
X50057Y9806D01*
X50086Y9835D01*
X50094Y9843D01*
X50101D01*
X50203Y9901D01*
X50261Y9937D01*
X50305Y9981D01*
X50349Y10017D01*
X50385Y10054D01*
X50407Y10090D01*
X50429Y10120D01*
X50436Y10134D01*
X50443Y10141D01*
X50465Y10200D01*
X50487Y10258D01*
X50509Y10382D01*
Y10433D01*
X50516Y10477D01*
Y10506D01*
Y10513D01*
Y12248D01*
X50859Y12817D01*
Y10513D01*
D02*
G37*
G36*
X51070Y13954D02*
X51121D01*
X51165Y13947D01*
X51194Y13939D01*
X51209D01*
X51223Y13932D01*
X51253Y13918D01*
X51275Y13896D01*
X51289Y13874D01*
X51296Y13867D01*
X51311Y13830D01*
X51318Y13801D01*
X51326Y13772D01*
Y13765D01*
X51318Y13728D01*
X51311Y13699D01*
X51304Y13677D01*
X51296Y13670D01*
X51245Y13626D01*
X51231Y13619D01*
X51223Y13611D01*
X51099Y13568D01*
X51048Y13546D01*
X51012Y13524D01*
X50990Y13502D01*
X50983Y13495D01*
X50968Y13473D01*
X50946Y13451D01*
X50910Y13393D01*
X50881Y13349D01*
X50866Y13334D01*
Y13327D01*
X48665Y9536D01*
X47775D01*
Y10965D01*
X49503Y13961D01*
X51005D01*
X51070Y13954D01*
D02*
G37*
G36*
X46536Y10462D02*
X46558Y10382D01*
X46580Y10316D01*
X46609Y10258D01*
X46631Y10207D01*
X46653Y10163D01*
X46667Y10134D01*
X46674Y10120D01*
X46682Y10112D01*
X46725Y10061D01*
X46762Y10017D01*
X46791Y9988D01*
X46806Y9981D01*
X46864Y9945D01*
X46930Y9915D01*
X46959Y9901D01*
X46981Y9886D01*
X46995Y9879D01*
X47003D01*
X47046Y9857D01*
X47083Y9828D01*
X47105Y9799D01*
X47126Y9777D01*
X47141Y9733D01*
Y9726D01*
Y9719D01*
X47134Y9660D01*
X47105Y9617D01*
X47083Y9587D01*
X47075Y9580D01*
X47017Y9558D01*
X46951Y9544D01*
X46908Y9536D01*
X46062D01*
X45982Y9544D01*
X45924Y9558D01*
X45880Y9587D01*
X45851Y9617D01*
X45836Y9646D01*
X45821Y9675D01*
Y9689D01*
Y9697D01*
X45829Y9733D01*
X45836Y9770D01*
X45873Y9821D01*
X45916Y9850D01*
X45924Y9857D01*
X45931D01*
X46040Y9908D01*
X46106Y9945D01*
X46150Y9988D01*
X46186Y10039D01*
X46208Y10090D01*
X46222Y10134D01*
X46230Y10163D01*
Y10192D01*
Y10200D01*
X46222Y10258D01*
X46215Y10316D01*
X46208Y10353D01*
Y10360D01*
Y10367D01*
X45639Y12460D01*
X45800Y13130D01*
X46536Y10462D01*
D02*
G37*
G36*
X45661Y13641D02*
X45063Y11009D01*
X45792D01*
X45880Y10622D01*
X44969D01*
X44867Y10149D01*
X44859Y10112D01*
X44852Y10083D01*
Y10061D01*
Y10054D01*
X44859Y10010D01*
X44867Y9981D01*
X44874Y9959D01*
X44881Y9952D01*
X44910Y9930D01*
X44939Y9908D01*
X44961Y9894D01*
X44976Y9886D01*
X45034Y9850D01*
X45063Y9821D01*
X45085Y9806D01*
X45092Y9799D01*
X45107Y9770D01*
X45114Y9740D01*
Y9719D01*
Y9704D01*
X45107Y9653D01*
X45085Y9609D01*
X45063Y9587D01*
X45056Y9580D01*
X45005Y9558D01*
X44954Y9544D01*
X44918Y9536D01*
X43285D01*
X43197Y9544D01*
X43139Y9565D01*
X43095Y9587D01*
X43059Y9624D01*
X43044Y9653D01*
X43037Y9675D01*
X43029Y9697D01*
Y9704D01*
X43037Y9740D01*
X43044Y9777D01*
X43059Y9791D01*
X43066Y9799D01*
X43095Y9828D01*
X43132Y9850D01*
X43168Y9864D01*
X43175Y9872D01*
X43183D01*
X43248Y9901D01*
X43285Y9937D01*
X43306Y9966D01*
X43314Y9974D01*
X43336Y10032D01*
X43350Y10090D01*
X43365Y10134D01*
X43372Y10141D01*
Y10149D01*
X44269Y13961D01*
X45581D01*
X45661Y13641D01*
D02*
G37*
G36*
X42738Y13954D02*
X42774Y13947D01*
X42803Y13939D01*
X42840Y13925D01*
X42854Y13918D01*
X42884Y13896D01*
X42906Y13867D01*
X42927Y13823D01*
X42942Y13779D01*
Y13772D01*
Y13765D01*
X42935Y13713D01*
X42927Y13684D01*
X42920Y13662D01*
X42913Y13655D01*
X42898Y13641D01*
X42876Y13626D01*
X42833Y13604D01*
X42789Y13582D01*
X42782Y13575D01*
X42774D01*
X42745Y13560D01*
X42723Y13539D01*
X42716Y13531D01*
X42709Y13524D01*
X42687Y13495D01*
X42672Y13458D01*
X42658Y13422D01*
Y13415D01*
Y13407D01*
X41506Y9536D01*
X40653D01*
X40339Y10666D01*
X41090Y13305D01*
X41098Y13334D01*
Y13363D01*
Y13393D01*
Y13400D01*
X41090Y13451D01*
X41083Y13495D01*
X41076Y13517D01*
X41069Y13524D01*
X41039Y13553D01*
X41003Y13582D01*
X40974Y13597D01*
X40959Y13604D01*
X40923Y13626D01*
X40894Y13655D01*
X40872Y13684D01*
X40857Y13713D01*
X40843Y13757D01*
Y13772D01*
Y13779D01*
X40850Y13808D01*
X40857Y13830D01*
X40864Y13852D01*
X40872Y13859D01*
X40886Y13888D01*
X40908Y13910D01*
X40915Y13918D01*
X40923Y13925D01*
X40981Y13947D01*
X41003Y13954D01*
X41032D01*
X41054Y13961D01*
X42687D01*
X42738Y13954D01*
D02*
G37*
G36*
X106168Y14034D02*
X106285Y14020D01*
X106394Y13991D01*
X106489Y13969D01*
X106569Y13947D01*
X106627Y13925D01*
X106664Y13910D01*
X106678Y13903D01*
X106788Y13852D01*
X106883Y13794D01*
X106977Y13728D01*
X107057Y13670D01*
X107123Y13619D01*
X107174Y13575D01*
X107203Y13546D01*
X107218Y13531D01*
X107335Y13407D01*
X107437Y13276D01*
X107517Y13152D01*
X107590Y13028D01*
X107641Y12919D01*
X107685Y12839D01*
X107699Y12802D01*
X107706Y12780D01*
X107714Y12766D01*
Y12758D01*
X107765Y12584D01*
X107808Y12409D01*
X107838Y12234D01*
X107852Y12081D01*
X107859Y12008D01*
X107867Y11942D01*
Y11884D01*
X107874Y11833D01*
Y11796D01*
Y11767D01*
Y11745D01*
Y11738D01*
X107867Y11534D01*
X107845Y11344D01*
X107816Y11162D01*
X107779Y10994D01*
X107728Y10834D01*
X107677Y10688D01*
X107619Y10557D01*
X107561Y10440D01*
X107502Y10338D01*
X107444Y10243D01*
X107393Y10170D01*
X107342Y10105D01*
X107305Y10054D01*
X107276Y10017D01*
X107254Y9996D01*
X107247Y9988D01*
X107152Y9901D01*
X107057Y9828D01*
X106956Y9762D01*
X106853Y9704D01*
X106751Y9653D01*
X106649Y9609D01*
X106460Y9536D01*
X106372Y9514D01*
X106292Y9493D01*
X106219Y9478D01*
X106154Y9463D01*
X106110Y9456D01*
X106066D01*
X106044Y9449D01*
X106037D01*
Y9799D01*
X106095Y9821D01*
X106146Y9843D01*
X106183Y9864D01*
X106212Y9886D01*
X106234Y9908D01*
X106248Y9930D01*
X106263Y9937D01*
Y9945D01*
X106285Y9996D01*
X106307Y10054D01*
X106328Y10192D01*
Y10251D01*
X106336Y10302D01*
Y10331D01*
Y10345D01*
Y13240D01*
Y13313D01*
X106328Y13371D01*
X106314Y13422D01*
X106299Y13458D01*
X106292Y13487D01*
X106278Y13517D01*
X106270Y13524D01*
Y13531D01*
X106241Y13568D01*
X106205Y13597D01*
X106132Y13648D01*
X106095Y13670D01*
X106066Y13684D01*
X106044Y13692D01*
X106037D01*
Y14049D01*
X106168Y14034D01*
D02*
G37*
G36*
X105767Y13692D02*
X105702Y13670D01*
X105658Y13648D01*
X105629Y13626D01*
X105621Y13619D01*
X105585Y13589D01*
X105549Y13553D01*
X105534Y13531D01*
X105527Y13517D01*
X105490Y13429D01*
X105468Y13342D01*
X105461Y13298D01*
Y13269D01*
Y13247D01*
Y13240D01*
Y10345D01*
X105468Y10251D01*
X105476Y10170D01*
X105490Y10098D01*
X105505Y10047D01*
X105527Y10003D01*
X105541Y9966D01*
X105549Y9952D01*
X105556Y9945D01*
X105585Y9908D01*
X105614Y9879D01*
X105636Y9857D01*
X105643Y9850D01*
X105680Y9828D01*
X105724Y9813D01*
X105753Y9806D01*
X105760Y9799D01*
X105767D01*
Y9449D01*
X105636Y9463D01*
X105505Y9493D01*
X105271Y9558D01*
X105169Y9602D01*
X105067Y9646D01*
X104973Y9689D01*
X104892Y9740D01*
X104820Y9792D01*
X104747Y9835D01*
X104696Y9872D01*
X104645Y9915D01*
X104608Y9945D01*
X104579Y9966D01*
X104564Y9981D01*
X104557Y9988D01*
X104448Y10112D01*
X104346Y10243D01*
X104265Y10382D01*
X104193Y10528D01*
X104127Y10673D01*
X104076Y10819D01*
X104032Y10958D01*
X104003Y11096D01*
X103974Y11228D01*
X103959Y11351D01*
X103945Y11461D01*
X103930Y11556D01*
Y11629D01*
X103923Y11687D01*
Y11723D01*
Y11738D01*
X103930Y11949D01*
X103952Y12146D01*
X103981Y12328D01*
X104025Y12503D01*
X104076Y12664D01*
X104134Y12810D01*
X104193Y12948D01*
X104251Y13065D01*
X104316Y13174D01*
X104375Y13269D01*
X104433Y13349D01*
X104484Y13415D01*
X104528Y13466D01*
X104557Y13502D01*
X104579Y13524D01*
X104586Y13531D01*
X104681Y13619D01*
X104776Y13692D01*
X104870Y13757D01*
X104958Y13808D01*
X105024Y13852D01*
X105082Y13881D01*
X105118Y13896D01*
X105133Y13903D01*
X105242Y13947D01*
X105352Y13976D01*
X105461Y14005D01*
X105556Y14020D01*
X105643Y14034D01*
X105709Y14041D01*
X105753Y14049D01*
X105767D01*
Y13692D01*
D02*
G37*
G36*
X94679Y14041D02*
X94730Y14034D01*
X94774D01*
X94810Y14027D01*
X94840Y14020D01*
X94854Y14012D01*
X94861D01*
X94971Y13976D01*
X95080Y13939D01*
X95175Y13896D01*
X95262Y13852D01*
X95335Y13815D01*
X95394Y13786D01*
X95423Y13765D01*
X95437Y13757D01*
X95598Y13633D01*
X95744Y13495D01*
X95860Y13356D01*
X95962Y13218D01*
X96042Y13101D01*
X96071Y13043D01*
X96101Y12999D01*
X96115Y12963D01*
X96130Y12933D01*
X96144Y12919D01*
Y12912D01*
X96225Y12708D01*
X96283Y12496D01*
X96327Y12292D01*
X96356Y12102D01*
X96363Y12015D01*
X96370Y11942D01*
X96378Y11869D01*
Y11811D01*
X96385Y11760D01*
Y11723D01*
Y11701D01*
Y11694D01*
X96370Y11439D01*
X96341Y11198D01*
X96319Y11089D01*
X96298Y10987D01*
X96276Y10892D01*
X96246Y10805D01*
X96225Y10732D01*
X96203Y10659D01*
X96181Y10601D01*
X96159Y10550D01*
X96137Y10506D01*
X96130Y10477D01*
X96115Y10462D01*
Y10455D01*
X96042Y10331D01*
X95969Y10222D01*
X95889Y10127D01*
X95824Y10039D01*
X95758Y9974D01*
X95707Y9923D01*
X95678Y9894D01*
X95663Y9879D01*
X95554Y9799D01*
X95452Y9726D01*
X95342Y9668D01*
X95248Y9624D01*
X95168Y9580D01*
X95102Y9558D01*
X95058Y9544D01*
X95051Y9536D01*
X95044D01*
X94949Y9507D01*
X94876Y9485D01*
X94832Y9471D01*
X94818D01*
X94752Y9456D01*
X94686Y9449D01*
X94621D01*
Y9813D01*
X94665Y9835D01*
X94708Y9857D01*
X94737Y9879D01*
X94767Y9901D01*
X94796Y9930D01*
X94803Y9945D01*
X94818Y9981D01*
X94825Y10025D01*
X94840Y10112D01*
X94847Y10156D01*
Y10185D01*
Y10207D01*
Y10214D01*
Y13232D01*
Y13298D01*
X94832Y13364D01*
X94803Y13466D01*
X94759Y13546D01*
X94701Y13604D01*
X94650Y13641D01*
X94606Y13670D01*
X94577Y13684D01*
X94563D01*
Y14049D01*
X94679Y14041D01*
D02*
G37*
G36*
X94278Y11774D02*
X94344Y11760D01*
X94380Y11738D01*
X94395Y11731D01*
X94438Y11694D01*
X94460Y11650D01*
X94468Y11614D01*
Y11607D01*
Y11599D01*
X94460Y11556D01*
X94446Y11512D01*
X94417Y11483D01*
X94388Y11461D01*
X94336Y11432D01*
X94322Y11424D01*
X94315D01*
X94271Y11417D01*
X94242Y11402D01*
X94213Y11395D01*
X94198D01*
X94176Y11381D01*
X94169D01*
X94147Y11373D01*
X94132Y11359D01*
X94118Y11351D01*
Y11344D01*
X94089Y11293D01*
X94074Y11235D01*
X94067Y11184D01*
Y11169D01*
Y11162D01*
Y10214D01*
X94074Y10112D01*
X94096Y10032D01*
X94103Y10003D01*
X94118Y9981D01*
X94125Y9966D01*
Y9959D01*
X94154Y9923D01*
X94176Y9894D01*
X94198Y9872D01*
X94205Y9864D01*
X94242Y9843D01*
X94293Y9828D01*
X94329Y9821D01*
X94336Y9813D01*
X94344D01*
Y9449D01*
X94220Y9456D01*
X94154Y9463D01*
X94096Y9471D01*
X94045Y9478D01*
X94008Y9485D01*
X93979Y9493D01*
X93972D01*
X93819Y9529D01*
X93753Y9544D01*
X93702Y9558D01*
X93651Y9573D01*
X93615Y9587D01*
X93593Y9595D01*
X93586D01*
X93440Y9660D01*
X93367Y9697D01*
X93309Y9733D01*
X93258Y9762D01*
X93214Y9784D01*
X93185Y9799D01*
X93177Y9806D01*
X93097Y9857D01*
X93032Y9908D01*
X92973Y9952D01*
X92922Y9996D01*
X92879Y10025D01*
X92849Y10054D01*
X92835Y10069D01*
X92827Y10076D01*
Y11184D01*
Y11249D01*
X92820Y11293D01*
X92813Y11315D01*
Y11322D01*
X92791Y11351D01*
X92769Y11381D01*
X92740Y11402D01*
X92733Y11410D01*
X92689Y11439D01*
X92667Y11468D01*
X92652Y11483D01*
X92645Y11490D01*
X92631Y11526D01*
X92616Y11563D01*
Y11592D01*
Y11599D01*
X92623Y11658D01*
X92645Y11701D01*
X92674Y11731D01*
X92682Y11738D01*
X92703Y11752D01*
X92740Y11767D01*
X92806Y11774D01*
X92835Y11782D01*
X94183D01*
X94278Y11774D01*
D02*
G37*
G36*
X75412Y14034D02*
X75528Y14020D01*
X75638Y13991D01*
X75732Y13969D01*
X75813Y13947D01*
X75871Y13925D01*
X75907Y13910D01*
X75922Y13903D01*
X76031Y13852D01*
X76126Y13794D01*
X76221Y13728D01*
X76301Y13670D01*
X76367Y13619D01*
X76418Y13575D01*
X76447Y13546D01*
X76461Y13531D01*
X76578Y13407D01*
X76680Y13276D01*
X76760Y13152D01*
X76833Y13028D01*
X76884Y12919D01*
X76928Y12839D01*
X76943Y12802D01*
X76950Y12780D01*
X76957Y12766D01*
Y12758D01*
X77008Y12584D01*
X77052Y12409D01*
X77081Y12234D01*
X77096Y12081D01*
X77103Y12008D01*
X77110Y11942D01*
Y11884D01*
X77118Y11833D01*
Y11796D01*
Y11767D01*
Y11745D01*
Y11738D01*
X77110Y11534D01*
X77088Y11344D01*
X77059Y11162D01*
X77023Y10994D01*
X76972Y10834D01*
X76921Y10688D01*
X76862Y10557D01*
X76804Y10440D01*
X76746Y10338D01*
X76687Y10243D01*
X76636Y10170D01*
X76585Y10105D01*
X76549Y10054D01*
X76520Y10017D01*
X76498Y9996D01*
X76491Y9988D01*
X76396Y9901D01*
X76301Y9828D01*
X76199Y9762D01*
X76097Y9704D01*
X75995Y9653D01*
X75893Y9609D01*
X75703Y9536D01*
X75616Y9514D01*
X75536Y9493D01*
X75463Y9478D01*
X75397Y9463D01*
X75353Y9456D01*
X75310D01*
X75288Y9449D01*
X75280D01*
Y9799D01*
X75339Y9821D01*
X75390Y9843D01*
X75426Y9864D01*
X75455Y9886D01*
X75477Y9908D01*
X75492Y9930D01*
X75506Y9937D01*
Y9945D01*
X75528Y9996D01*
X75550Y10054D01*
X75572Y10192D01*
Y10251D01*
X75579Y10302D01*
Y10331D01*
Y10345D01*
Y13240D01*
Y13313D01*
X75572Y13371D01*
X75557Y13422D01*
X75543Y13458D01*
X75536Y13487D01*
X75521Y13517D01*
X75514Y13524D01*
Y13531D01*
X75485Y13568D01*
X75448Y13597D01*
X75375Y13648D01*
X75339Y13670D01*
X75310Y13684D01*
X75288Y13692D01*
X75280D01*
Y14049D01*
X75412Y14034D01*
D02*
G37*
G36*
X75011Y13692D02*
X74945Y13670D01*
X74901Y13648D01*
X74872Y13626D01*
X74865Y13619D01*
X74828Y13589D01*
X74792Y13553D01*
X74777Y13531D01*
X74770Y13517D01*
X74734Y13429D01*
X74712Y13342D01*
X74704Y13298D01*
Y13269D01*
Y13247D01*
Y13240D01*
Y10345D01*
X74712Y10251D01*
X74719Y10170D01*
X74734Y10098D01*
X74748Y10047D01*
X74770Y10003D01*
X74785Y9966D01*
X74792Y9952D01*
X74799Y9945D01*
X74828Y9908D01*
X74858Y9879D01*
X74879Y9857D01*
X74887Y9850D01*
X74923Y9828D01*
X74967Y9813D01*
X74996Y9806D01*
X75003Y9799D01*
X75011D01*
Y9449D01*
X74879Y9463D01*
X74748Y9493D01*
X74515Y9558D01*
X74413Y9602D01*
X74311Y9646D01*
X74216Y9689D01*
X74136Y9740D01*
X74063Y9791D01*
X73990Y9835D01*
X73939Y9872D01*
X73888Y9915D01*
X73852Y9945D01*
X73822Y9966D01*
X73808Y9981D01*
X73801Y9988D01*
X73691Y10112D01*
X73589Y10243D01*
X73509Y10382D01*
X73436Y10528D01*
X73370Y10673D01*
X73319Y10819D01*
X73276Y10958D01*
X73247Y11096D01*
X73217Y11228D01*
X73203Y11351D01*
X73188Y11461D01*
X73174Y11556D01*
Y11629D01*
X73166Y11687D01*
Y11723D01*
Y11738D01*
X73174Y11949D01*
X73195Y12146D01*
X73225Y12328D01*
X73268Y12503D01*
X73319Y12664D01*
X73378Y12810D01*
X73436Y12948D01*
X73494Y13065D01*
X73560Y13174D01*
X73618Y13269D01*
X73677Y13349D01*
X73728Y13415D01*
X73771Y13466D01*
X73801Y13502D01*
X73822Y13524D01*
X73830Y13531D01*
X73924Y13619D01*
X74019Y13692D01*
X74114Y13757D01*
X74202Y13808D01*
X74267Y13852D01*
X74325Y13881D01*
X74362Y13896D01*
X74376Y13903D01*
X74486Y13947D01*
X74595Y13976D01*
X74704Y14005D01*
X74799Y14020D01*
X74887Y14034D01*
X74952Y14041D01*
X74996Y14049D01*
X75011D01*
Y13692D01*
D02*
G37*
G36*
X67414Y10703D02*
X67502Y10681D01*
X67575Y10652D01*
X67641Y10615D01*
X67691Y10579D01*
X67728Y10550D01*
X67757Y10528D01*
X67764Y10520D01*
X67823Y10447D01*
X67866Y10375D01*
X67903Y10302D01*
X67925Y10229D01*
X67939Y10170D01*
X67947Y10120D01*
Y10090D01*
Y10076D01*
X67939Y9981D01*
X67918Y9894D01*
X67888Y9821D01*
X67852Y9755D01*
X67823Y9704D01*
X67794Y9668D01*
X67772Y9638D01*
X67764Y9631D01*
X67691Y9573D01*
X67619Y9529D01*
X67546Y9493D01*
X67473Y9471D01*
X67414Y9456D01*
X67364Y9449D01*
X67320D01*
X67225Y9456D01*
X67137Y9478D01*
X67065Y9507D01*
X66999Y9544D01*
X66948Y9573D01*
X66904Y9602D01*
X66882Y9624D01*
X66875Y9631D01*
X66809Y9704D01*
X66766Y9777D01*
X66729Y9850D01*
X66707Y9923D01*
X66693Y9981D01*
X66685Y10032D01*
Y10061D01*
Y10076D01*
X66693Y10170D01*
X66715Y10258D01*
X66744Y10331D01*
X66780Y10396D01*
X66817Y10447D01*
X66846Y10491D01*
X66868Y10513D01*
X66875Y10520D01*
X66948Y10586D01*
X67021Y10630D01*
X67094Y10666D01*
X67167Y10688D01*
X67225Y10703D01*
X67276Y10710D01*
X67320D01*
X67414Y10703D01*
D02*
G37*
%LPC*%
G36*
X160605Y123482D02*
X158425D01*
Y123346D01*
X156926D01*
Y123209D01*
X156109D01*
Y123073D01*
X155564D01*
Y122937D01*
X155019D01*
Y122801D01*
X154474D01*
Y122664D01*
X154065D01*
Y122528D01*
X153656D01*
Y122392D01*
X153384D01*
Y122256D01*
X153111D01*
Y122119D01*
X152702D01*
Y121983D01*
X152430D01*
Y121847D01*
X152157D01*
Y121711D01*
X151885D01*
Y121574D01*
X151748D01*
Y121438D01*
X151476D01*
Y121302D01*
X151203D01*
Y121166D01*
X151067D01*
Y121029D01*
X150795D01*
Y120893D01*
X150658D01*
Y120757D01*
X150386D01*
Y120621D01*
X150250D01*
Y120484D01*
X149977D01*
Y120348D01*
X149841D01*
Y120212D01*
X149705D01*
Y120075D01*
X149568D01*
Y119939D01*
X149296D01*
Y119803D01*
X149160D01*
Y119667D01*
X149023D01*
Y119530D01*
X148887D01*
Y119394D01*
X148751D01*
Y119258D01*
X148615D01*
Y119122D01*
X148478D01*
Y118985D01*
X148342D01*
Y118849D01*
X148206D01*
Y118713D01*
X148070D01*
Y118577D01*
X147933D01*
Y118440D01*
X147797D01*
Y118304D01*
Y118168D01*
X147661D01*
Y118032D01*
X147524D01*
Y117895D01*
X147388D01*
Y117759D01*
X147252D01*
Y117623D01*
Y117487D01*
X147116D01*
Y117350D01*
X146979D01*
Y117214D01*
X146843D01*
Y117078D01*
Y116942D01*
X146707D01*
Y116805D01*
X146571D01*
Y116669D01*
Y116533D01*
X146434D01*
Y116396D01*
Y116260D01*
X146298D01*
Y116124D01*
X146162D01*
Y115988D01*
Y115851D01*
X146026D01*
Y115715D01*
Y115579D01*
X145889D01*
Y115443D01*
Y115306D01*
X145753D01*
Y115170D01*
Y115034D01*
X145617D01*
Y114898D01*
Y114761D01*
X145481D01*
Y114625D01*
Y114489D01*
X145344D01*
Y114353D01*
Y114216D01*
X145208D01*
Y114080D01*
Y113944D01*
Y113808D01*
X145072D01*
Y113671D01*
Y113535D01*
Y113399D01*
X144936D01*
Y113263D01*
Y113126D01*
Y112990D01*
X144799D01*
Y112854D01*
Y112718D01*
Y112581D01*
X144663D01*
Y112445D01*
Y112309D01*
Y112173D01*
Y112036D01*
X144527D01*
Y111900D01*
Y111764D01*
Y111628D01*
Y111491D01*
X144391D01*
Y111355D01*
Y111219D01*
Y111083D01*
Y110946D01*
Y110810D01*
Y110674D01*
X144254D01*
Y110538D01*
Y110401D01*
Y110265D01*
Y110129D01*
Y109993D01*
Y109856D01*
Y109720D01*
Y109584D01*
Y109448D01*
Y109311D01*
X144118D01*
Y109175D01*
Y109039D01*
Y108903D01*
Y108766D01*
Y108630D01*
Y108494D01*
Y108357D01*
Y108221D01*
Y108085D01*
Y107949D01*
Y107812D01*
Y107676D01*
Y107540D01*
Y107404D01*
X144254D01*
Y107267D01*
Y107131D01*
Y106995D01*
Y106859D01*
Y106722D01*
Y106586D01*
Y106450D01*
Y106314D01*
Y106177D01*
Y106041D01*
X144391D01*
Y105905D01*
Y105769D01*
Y105632D01*
Y105496D01*
Y105360D01*
Y105224D01*
X144527D01*
Y105087D01*
Y104951D01*
Y104815D01*
Y104678D01*
X144663D01*
Y104542D01*
Y104406D01*
Y104270D01*
Y104133D01*
X144799D01*
Y103997D01*
Y103861D01*
Y103725D01*
Y103588D01*
X144936D01*
Y103452D01*
Y103316D01*
Y103180D01*
X145072D01*
Y103043D01*
Y102907D01*
X145208D01*
Y102771D01*
Y102635D01*
Y102498D01*
X145344D01*
Y102362D01*
Y102226D01*
X145481D01*
Y102090D01*
Y101953D01*
Y101817D01*
X145617D01*
Y101681D01*
Y101545D01*
X145753D01*
Y101408D01*
Y101272D01*
X145889D01*
Y101136D01*
Y101000D01*
X146026D01*
Y100863D01*
X146162D01*
Y100727D01*
Y100591D01*
X146298D01*
Y100455D01*
Y100318D01*
X146434D01*
Y100182D01*
X146571D01*
Y100046D01*
Y99910D01*
X146707D01*
Y99773D01*
Y99637D01*
X146843D01*
Y99501D01*
X146979D01*
Y99365D01*
X147116D01*
Y99228D01*
Y99092D01*
X147252D01*
Y98956D01*
X147388D01*
Y98820D01*
X147524D01*
Y98683D01*
Y98547D01*
X147661D01*
Y98411D01*
X147797D01*
Y98274D01*
X147933D01*
Y98138D01*
X148070D01*
Y98002D01*
X148206D01*
Y97866D01*
X148342D01*
Y97729D01*
X148478D01*
Y97593D01*
Y97457D01*
X148615D01*
Y97321D01*
X148751D01*
Y97184D01*
X148887D01*
Y97048D01*
X149160D01*
Y96912D01*
X149296D01*
Y96776D01*
X149432D01*
Y96640D01*
X149568D01*
Y96503D01*
X149705D01*
Y96367D01*
X149841D01*
Y96231D01*
X150113D01*
Y96095D01*
X150250D01*
Y95958D01*
X150386D01*
Y95822D01*
X150658D01*
Y95686D01*
X150795D01*
Y95549D01*
X150931D01*
Y95413D01*
X151203D01*
Y95277D01*
X151340D01*
Y95141D01*
X151612D01*
Y95004D01*
X151885D01*
Y94868D01*
X152157D01*
Y94732D01*
X152294D01*
Y94596D01*
X152566D01*
Y94459D01*
X152839D01*
Y94323D01*
X153111D01*
Y94187D01*
X153384D01*
Y94051D01*
X153792D01*
Y93914D01*
X154065D01*
Y93778D01*
X154474D01*
Y93642D01*
X154882D01*
Y93506D01*
X155291D01*
Y93369D01*
X155836D01*
Y93233D01*
X156381D01*
Y93097D01*
X157335D01*
Y92961D01*
X161014D01*
Y93097D01*
X161831D01*
Y93233D01*
X162513D01*
Y93369D01*
X163058D01*
Y93506D01*
X163603D01*
Y93642D01*
X164012D01*
Y93778D01*
X164420D01*
Y93914D01*
X164829D01*
Y94051D01*
X165238D01*
Y94187D01*
X165510D01*
Y94323D01*
X165919D01*
Y94459D01*
X166191D01*
Y94596D01*
X166464D01*
Y94732D01*
X166873D01*
Y94868D01*
X167145D01*
Y95004D01*
X167418D01*
Y95141D01*
X167690D01*
Y95277D01*
X167963D01*
Y95413D01*
X168235D01*
Y95549D01*
X168508D01*
Y95686D01*
X168644D01*
Y95822D01*
X168917D01*
Y95958D01*
X169189D01*
Y96095D01*
X169462D01*
Y96231D01*
X169598D01*
Y96367D01*
X169870D01*
Y96503D01*
X170143D01*
Y96640D01*
X170279D01*
Y96776D01*
X170552D01*
Y96912D01*
X170824D01*
Y97048D01*
X170960D01*
Y97184D01*
X171233D01*
Y97321D01*
X171369D01*
Y97457D01*
X171642D01*
Y97593D01*
X171778D01*
Y97729D01*
X172050D01*
Y97866D01*
X172187D01*
Y98002D01*
X172323D01*
Y98138D01*
X172596D01*
Y98274D01*
X172732D01*
Y98411D01*
X173004D01*
Y98547D01*
X173141D01*
Y98683D01*
X173277D01*
Y98820D01*
X173549D01*
Y98956D01*
X173686D01*
Y99092D01*
X173822D01*
Y99228D01*
X174094D01*
Y99365D01*
X174231D01*
Y99501D01*
X174367D01*
Y99637D01*
X174639D01*
Y99773D01*
X174776D01*
Y99910D01*
X174912D01*
Y100046D01*
X175184D01*
Y100182D01*
X175321D01*
Y100318D01*
X175457D01*
Y100455D01*
X175593D01*
Y100591D01*
X175866D01*
Y100727D01*
X176002D01*
Y100863D01*
X176138D01*
Y101000D01*
X176275D01*
Y101136D01*
X176547D01*
Y101272D01*
X176683D01*
Y101408D01*
X176820D01*
Y101545D01*
X176956D01*
Y101681D01*
X177092D01*
Y101817D01*
X177365D01*
Y101953D01*
X177501D01*
Y102090D01*
X177637D01*
Y102226D01*
X177773D01*
Y102362D01*
X177910D01*
Y102498D01*
X178046D01*
Y102635D01*
X178318D01*
Y102771D01*
X178454D01*
Y102907D01*
X178591D01*
Y103043D01*
X178727D01*
Y103180D01*
X178863D01*
Y103316D01*
X179000D01*
Y103452D01*
X179136D01*
Y103588D01*
X179272D01*
Y103725D01*
X179408D01*
Y103861D01*
X179545D01*
Y103997D01*
X179681D01*
Y104133D01*
X179817D01*
Y104270D01*
X179953D01*
Y104406D01*
X180090D01*
Y104542D01*
X180226D01*
Y104678D01*
X180362D01*
Y104815D01*
X180498D01*
Y104951D01*
X180635D01*
Y105087D01*
X180771D01*
Y105224D01*
X181043D01*
Y105360D01*
X181180D01*
Y105496D01*
X181316D01*
Y105632D01*
X181452D01*
Y105769D01*
X181588D01*
Y105905D01*
X181725D01*
Y106041D01*
X181861D01*
Y106177D01*
X181997D01*
Y106314D01*
X182133D01*
Y106450D01*
X182270D01*
Y106586D01*
X182406D01*
Y106722D01*
X182542D01*
Y106859D01*
X182678D01*
Y106995D01*
X182815D01*
Y107131D01*
X182951D01*
Y107267D01*
X183087D01*
Y107404D01*
X183223D01*
Y107540D01*
X183360D01*
Y107676D01*
X183496D01*
Y107812D01*
X183632D01*
Y107949D01*
X183768D01*
Y108085D01*
X183905D01*
Y108221D01*
X184041D01*
Y108357D01*
X183905D01*
Y108494D01*
X183768D01*
Y108630D01*
X183632D01*
Y108766D01*
X183496D01*
Y108903D01*
X183360D01*
Y109039D01*
X183223D01*
Y109175D01*
X183087D01*
Y109311D01*
X182951D01*
Y109448D01*
X182815D01*
Y109584D01*
X182678D01*
Y109720D01*
X182542D01*
Y109856D01*
X182406D01*
Y109993D01*
X182270D01*
Y110129D01*
X182133D01*
Y110265D01*
X181997D01*
Y110401D01*
X181861D01*
Y110538D01*
X181725D01*
Y110674D01*
X181588D01*
Y110810D01*
X181452D01*
Y110946D01*
X181316D01*
Y111083D01*
X181180D01*
Y111219D01*
X181043D01*
Y111355D01*
X180907D01*
Y111491D01*
X180771D01*
Y111628D01*
X180635D01*
Y111764D01*
X180498D01*
Y111900D01*
X180362D01*
Y112036D01*
X180226D01*
Y112173D01*
X180090D01*
Y112309D01*
X179953D01*
Y112445D01*
X179817D01*
Y112581D01*
X179681D01*
Y112718D01*
X179408D01*
Y112854D01*
X179272D01*
Y112990D01*
X179136D01*
Y113126D01*
X179000D01*
Y113263D01*
X178863D01*
Y113399D01*
X178727D01*
Y113535D01*
X178591D01*
Y113671D01*
X178454D01*
Y113808D01*
X178318D01*
Y113944D01*
X178182D01*
Y114080D01*
X178046D01*
Y114216D01*
X177910D01*
Y114353D01*
X177773D01*
Y114489D01*
X177637D01*
Y114625D01*
X177501D01*
Y114761D01*
X177228D01*
Y114898D01*
X177092D01*
Y115034D01*
X176956D01*
Y115170D01*
X176820D01*
Y115306D01*
X176683D01*
Y115443D01*
X176547D01*
Y115579D01*
X176411D01*
Y115715D01*
X176275D01*
Y115851D01*
X176002D01*
Y115988D01*
X175866D01*
Y116124D01*
X175729D01*
Y116260D01*
X175593D01*
Y116396D01*
X175457D01*
Y116533D01*
X175321D01*
Y116669D01*
X175048D01*
Y116805D01*
X174912D01*
Y116942D01*
X174776D01*
Y117078D01*
X174639D01*
Y117214D01*
X174367D01*
Y117350D01*
X174231D01*
Y117487D01*
X174094D01*
Y117623D01*
X173958D01*
Y117759D01*
X173686D01*
Y117895D01*
X173549D01*
Y118032D01*
X173413D01*
Y118168D01*
X173141D01*
Y118304D01*
X173004D01*
Y118440D01*
X172868D01*
Y118577D01*
X172596D01*
Y118713D01*
X172459D01*
Y118849D01*
X172187D01*
Y118985D01*
X172050D01*
Y119122D01*
X171778D01*
Y119258D01*
X171642D01*
Y119394D01*
X171369D01*
Y119530D01*
X171233D01*
Y119667D01*
X170960D01*
Y119803D01*
X170824D01*
Y119939D01*
X170552D01*
Y120075D01*
X170279D01*
Y120212D01*
X170143D01*
Y120348D01*
X169870D01*
Y120484D01*
X169598D01*
Y120621D01*
X169462D01*
Y120757D01*
X169189D01*
Y120893D01*
X168917D01*
Y121029D01*
X168644D01*
Y121166D01*
X168372D01*
Y121302D01*
X168099D01*
Y121438D01*
X167827D01*
Y121574D01*
X167554D01*
Y121711D01*
X167145D01*
Y121847D01*
X166873D01*
Y121983D01*
X166600D01*
Y122119D01*
X166191D01*
Y122256D01*
X165783D01*
Y122392D01*
X165510D01*
Y122528D01*
X164965D01*
Y122664D01*
X164557D01*
Y122801D01*
X164012D01*
Y122937D01*
X163466D01*
Y123073D01*
X162785D01*
Y123209D01*
X161968D01*
Y123346D01*
X160605D01*
Y123482D01*
D02*
G37*
%LPD*%
D11*
X194095Y176091D02*
X201181D01*
X194095D02*
Y188689D01*
X201181D01*
Y176091D02*
Y188689D01*
X228740Y206012D02*
Y218610D01*
X221654D02*
X228740D01*
X221654Y206012D02*
Y218610D01*
Y206012D02*
X228740D01*
X37795Y216535D02*
X44882D01*
X37795D02*
Y229134D01*
X44882D01*
Y216535D02*
Y229134D01*
X222047Y166248D02*
X229134D01*
X222047D02*
Y178847D01*
X229134D01*
Y166248D02*
Y178847D01*
X201181Y156405D02*
Y169004D01*
X194095D02*
X201181D01*
X194095Y156405D02*
Y169004D01*
Y156405D02*
X201181D01*
X194095Y196563D02*
X201181D01*
X194095D02*
Y209161D01*
X201181D01*
Y196563D02*
Y209161D01*
X228740Y186327D02*
Y198925D01*
X221654D02*
X228740D01*
X221654Y186327D02*
Y198925D01*
Y186327D02*
X228740D01*
X190417Y179658D02*
X189761Y180314D01*
X188449D01*
X187793Y179658D01*
Y179002D01*
X188449Y178346D01*
X189105D01*
X188449D01*
X187793Y177690D01*
Y177034D01*
X188449Y176378D01*
X189761D01*
X190417Y177034D01*
X186481Y180314D02*
Y177690D01*
X185169Y176378D01*
X183857Y177690D01*
Y180314D01*
X182545Y179658D02*
X181889Y180314D01*
X180577D01*
X179921Y179658D01*
Y179002D01*
X180577Y178346D01*
X181233D01*
X180577D01*
X179921Y177690D01*
Y177034D01*
X180577Y176378D01*
X181889D01*
X182545Y177034D01*
X190417Y200524D02*
X189761Y201180D01*
X188449D01*
X187793Y200524D01*
Y199868D01*
X188449Y199212D01*
X189105D01*
X188449D01*
X187793Y198556D01*
Y197900D01*
X188449Y197244D01*
X189761D01*
X190417Y197900D01*
X186481Y201180D02*
Y198556D01*
X185169Y197244D01*
X183857Y198556D01*
Y201180D01*
X182545Y200524D02*
X181889Y201180D01*
X180577D01*
X179921Y200524D01*
Y199868D01*
X180577Y199212D01*
X181233D01*
X180577D01*
X179921Y198556D01*
Y197900D01*
X180577Y197244D01*
X181889D01*
X182545Y197900D01*
X190417Y160366D02*
X189761Y161022D01*
X188449D01*
X187793Y160366D01*
Y159710D01*
X188449Y159055D01*
X189105D01*
X188449D01*
X187793Y158398D01*
Y157743D01*
X188449Y157087D01*
X189761D01*
X190417Y157743D01*
X186481Y161022D02*
Y158398D01*
X185169Y157087D01*
X183857Y158398D01*
Y161022D01*
X182545Y160366D02*
X181889Y161022D01*
X180577D01*
X179921Y160366D01*
Y159710D01*
X180577Y159055D01*
X181233D01*
X180577D01*
X179921Y158398D01*
Y157743D01*
X180577Y157087D01*
X181889D01*
X182545Y157743D01*
X243566Y209579D02*
X242910Y210235D01*
X241598D01*
X240942Y209579D01*
Y208923D01*
X241598Y208267D01*
X242254D01*
X241598D01*
X240942Y207611D01*
Y206955D01*
X241598Y206299D01*
X242910D01*
X243566Y206955D01*
X239630Y210235D02*
Y207611D01*
X238318Y206299D01*
X237007Y207611D01*
Y210235D01*
X235695Y209579D02*
X235039Y210235D01*
X233727D01*
X233071Y209579D01*
Y208923D01*
X233727Y208267D01*
X234383D01*
X233727D01*
X233071Y207611D01*
Y206955D01*
X233727Y206299D01*
X235039D01*
X235695Y206955D01*
X243566Y190681D02*
X242910Y191337D01*
X241598D01*
X240942Y190681D01*
Y190025D01*
X241598Y189369D01*
X242254D01*
X241598D01*
X240942Y188714D01*
Y188057D01*
X241598Y187402D01*
X242910D01*
X243566Y188057D01*
X239630Y191337D02*
Y188714D01*
X238318Y187402D01*
X237007Y188714D01*
Y191337D01*
X235695Y190681D02*
X235039Y191337D01*
X233727D01*
X233071Y190681D01*
Y190025D01*
X233727Y189369D01*
X234383D01*
X233727D01*
X233071Y188714D01*
Y188057D01*
X233727Y187402D01*
X235039D01*
X235695Y188057D01*
X243566Y170603D02*
X242910Y171259D01*
X241598D01*
X240942Y170603D01*
Y169947D01*
X241598Y169291D01*
X242254D01*
X241598D01*
X240942Y168635D01*
Y167979D01*
X241598Y167323D01*
X242910D01*
X243566Y167979D01*
X239630Y171259D02*
Y168635D01*
X238318Y167323D01*
X237007Y168635D01*
Y171259D01*
X235695Y170603D02*
X235039Y171259D01*
X233727D01*
X233071Y170603D01*
Y169947D01*
X233727Y169291D01*
X234383D01*
X233727D01*
X233071Y168635D01*
Y167979D01*
X233727Y167323D01*
X235039D01*
X235695Y167979D01*
D13*
X327292Y60102D02*
X329916Y57478D01*
Y52230D01*
X327292Y49606D01*
X324669D01*
X322045Y52230D01*
Y57478D01*
X319421Y60102D01*
X316797D01*
X314173Y57478D01*
Y52230D01*
X316797Y49606D01*
X314173Y65349D02*
X329916D01*
X324669Y70597D01*
X329916Y75845D01*
X314173D01*
Y81092D02*
X324669D01*
X329916Y86340D01*
X324669Y91588D01*
X314173D01*
X322045D01*
Y81092D01*
X314173Y96835D02*
X329916D01*
Y104707D01*
X327292Y107330D01*
X322045D01*
X319421Y104707D01*
Y96835D01*
Y102083D02*
X314173Y107330D01*
X329916Y112578D02*
Y123073D01*
Y117826D01*
X314173D01*
X329916Y144064D02*
X314173D01*
Y151935D01*
X316797Y154559D01*
X319421D01*
X322045Y151935D01*
Y144064D01*
Y151935D01*
X324669Y154559D01*
X327292D01*
X329916Y151935D01*
Y144064D01*
X314173Y159807D02*
X324669D01*
X329916Y165055D01*
X324669Y170302D01*
X314173D01*
X322045D01*
Y159807D01*
X329916Y175550D02*
Y186045D01*
Y180798D01*
X314173D01*
X329916Y191293D02*
Y201788D01*
Y196540D01*
X314173D01*
X329916Y217531D02*
Y207036D01*
X314173D01*
Y217531D01*
X322045Y207036D02*
Y212283D01*
X314173Y222779D02*
X329916D01*
Y230650D01*
X327292Y233274D01*
X322045D01*
X319421Y230650D01*
Y222779D01*
Y228026D02*
X314173Y233274D01*
X239898Y283985D02*
X242522Y286609D01*
X247770D01*
X250394Y283985D01*
Y281361D01*
X247770Y278738D01*
X242522D01*
X239898Y276114D01*
Y273490D01*
X242522Y270866D01*
X247770D01*
X250394Y273490D01*
X224155Y286609D02*
X234651D01*
Y270866D01*
X224155D01*
X234651Y278738D02*
X229403D01*
X208413Y283985D02*
X211036Y286609D01*
X216284D01*
X218908Y283985D01*
Y273490D01*
X216284Y270866D01*
X211036D01*
X208413Y273490D01*
X203165Y286609D02*
X192670D01*
X197917D01*
Y270866D01*
X187422Y286609D02*
X182174D01*
X184798D01*
Y270866D01*
X187422D01*
X182174D01*
X166431Y286609D02*
X171679D01*
X174303Y283985D01*
Y273490D01*
X171679Y270866D01*
X166431D01*
X163807Y273490D01*
Y283985D01*
X166431Y286609D01*
X158560Y270866D02*
Y286609D01*
X148065Y270866D01*
Y286609D01*
X127074D02*
Y270866D01*
X119202D01*
X116579Y273490D01*
Y283985D01*
X119202Y286609D01*
X127074D01*
D93*
X115354Y261678D02*
X112074Y255118D01*
X108795Y261678D01*
X105515Y255118D02*
X102235D01*
X103875D01*
Y264957D01*
X105515Y263318D01*
X97316Y255118D02*
Y256758D01*
X95676D01*
Y255118D01*
X97316D01*
X89116Y263318D02*
X87476Y264957D01*
X84196D01*
X82556Y263318D01*
Y256758D01*
X84196Y255118D01*
X87476D01*
X89116Y256758D01*
Y263318D01*
M02*
