G04*
G04 #@! TF.GenerationSoftware,Altium Limited,Altium Designer,20.1.8 (145)*
G04*
G04 Layer_Physical_Order=2*
G04 Layer_Color=16711680*
%FSLAX25Y25*%
%MOIN*%
G70*
G04*
G04 #@! TF.SameCoordinates,8A5546FC-2E64-4ACD-A3F0-66F597033F2E*
G04*
G04*
G04 #@! TF.FilePolarity,Positive*
G04*
G01*
G75*
%ADD10C,0.01968*%
%ADD52C,0.05118*%
%ADD53R,0.05118X0.05118*%
%ADD62C,0.05512*%
%ADD63R,0.05512X0.05512*%
%ADD64C,0.06181*%
%ADD65R,0.06181X0.06181*%
%ADD70C,0.01000*%
%ADD71C,0.02953*%
%ADD72R,0.06299X0.06299*%
%ADD73C,0.06299*%
%ADD74R,0.07480X0.07480*%
%ADD75C,0.07480*%
%ADD76R,0.06024X0.06024*%
%ADD77C,0.06024*%
%ADD78C,0.10827*%
%ADD79R,0.06000X0.06000*%
%ADD80C,0.06000*%
%ADD81C,0.05906*%
%ADD82R,0.05906X0.05906*%
%ADD83O,0.06299X0.07874*%
G04:AMPARAMS|DCode=84|XSize=78.74mil|YSize=62.99mil|CornerRadius=15.75mil|HoleSize=0mil|Usage=FLASHONLY|Rotation=90.000|XOffset=0mil|YOffset=0mil|HoleType=Round|Shape=RoundedRectangle|*
%AMROUNDEDRECTD84*
21,1,0.07874,0.03150,0,0,90.0*
21,1,0.04724,0.06299,0,0,90.0*
1,1,0.03150,0.01575,0.02362*
1,1,0.03150,0.01575,-0.02362*
1,1,0.03150,-0.01575,-0.02362*
1,1,0.03150,-0.01575,0.02362*
%
%ADD84ROUNDEDRECTD84*%
%ADD85C,0.11811*%
%ADD86C,0.09843*%
%ADD87R,0.09843X0.09843*%
%ADD88R,0.05709X0.05709*%
%ADD89C,0.05709*%
%ADD90C,0.02362*%
%ADD91R,0.03937X0.01968*%
G36*
X349213Y333177D02*
X348713Y332940D01*
X348137Y333413D01*
X347001Y334020D01*
X345769Y334394D01*
X344488Y334520D01*
X343207Y334394D01*
X341975Y334020D01*
X340840Y333413D01*
X339845Y332596D01*
X339028Y331601D01*
X338421Y330466D01*
X338047Y329234D01*
X337921Y327953D01*
X338047Y326672D01*
X338421Y325440D01*
X339028Y324304D01*
X339845Y323309D01*
X340840Y322493D01*
X341975Y321886D01*
X343207Y321512D01*
X344488Y321386D01*
X345769Y321512D01*
X347001Y321886D01*
X348137Y322493D01*
X348713Y322965D01*
X349213Y322729D01*
Y17035D01*
X348713Y16799D01*
X348137Y17271D01*
X347001Y17878D01*
X345769Y18252D01*
X344488Y18378D01*
X343207Y18252D01*
X341975Y17878D01*
X340840Y17271D01*
X339845Y16455D01*
X339028Y15460D01*
X338421Y14324D01*
X338047Y13092D01*
X337921Y11811D01*
X338047Y10530D01*
X338421Y9298D01*
X339012Y8192D01*
X338935Y7915D01*
X338830Y7692D01*
X313855Y7636D01*
X313664Y8097D01*
X329555Y23989D01*
X329804Y24362D01*
X329892Y24803D01*
Y57874D01*
X329804Y58315D01*
X329555Y58689D01*
X315421Y72822D01*
X315047Y73072D01*
X314606Y73160D01*
X302172D01*
X301872Y73884D01*
X301275Y74661D01*
X300498Y75258D01*
X299593Y75633D01*
X298622Y75760D01*
X297651Y75633D01*
X296746Y75258D01*
X295969Y74661D01*
X295372Y73884D01*
X294997Y72979D01*
X294869Y72008D01*
X294997Y71037D01*
X295372Y70132D01*
X295969Y69354D01*
X296746Y68758D01*
X297651Y68383D01*
X298622Y68255D01*
X299593Y68383D01*
X300498Y68758D01*
X301275Y69354D01*
X301872Y70132D01*
X302172Y70856D01*
X314129D01*
X327588Y57397D01*
Y25280D01*
X311334Y9026D01*
X176461D01*
X158689Y26799D01*
X158315Y27049D01*
X157874Y27136D01*
X116225D01*
X104302Y39060D01*
Y66929D01*
X104214Y67370D01*
X103964Y67744D01*
X85798Y85910D01*
Y111334D01*
X105134Y130670D01*
X105315Y130634D01*
X106022Y130774D01*
X106621Y131175D01*
X107021Y131774D01*
X107161Y132480D01*
X107021Y133187D01*
X106621Y133786D01*
X106022Y134186D01*
X105315Y134327D01*
X104608Y134186D01*
X104009Y133786D01*
X103609Y133187D01*
X103469Y132480D01*
X103505Y132299D01*
X83831Y112626D01*
X83581Y112252D01*
X83494Y111811D01*
Y85433D01*
X83581Y84992D01*
X83831Y84618D01*
X101998Y66452D01*
Y38583D01*
X102085Y38142D01*
X102335Y37768D01*
X114933Y25170D01*
X115307Y24920D01*
X115748Y24832D01*
X157397D01*
X174445Y7784D01*
X174254Y7322D01*
X170693Y7314D01*
X156326Y21681D01*
X155953Y21930D01*
X155512Y22018D01*
X115438D01*
X99971Y37485D01*
Y62598D01*
X99883Y63039D01*
X99634Y63413D01*
X76012Y87035D01*
X75638Y87285D01*
X75197Y87372D01*
X69769D01*
X65325Y91816D01*
Y117633D01*
X83942Y136249D01*
X103316D01*
X103419Y136096D01*
X104018Y135696D01*
X104724Y135555D01*
X105431Y135696D01*
X106030Y136096D01*
X106430Y136695D01*
X106571Y137402D01*
X106430Y138108D01*
X106030Y138707D01*
X105431Y139108D01*
X104724Y139248D01*
X104018Y139108D01*
X103419Y138707D01*
X103316Y138554D01*
X83465D01*
X83024Y138466D01*
X82650Y138216D01*
X63359Y118925D01*
X63109Y118551D01*
X63021Y118110D01*
Y91339D01*
X63109Y90898D01*
X63359Y90524D01*
X68477Y85406D01*
X68850Y85156D01*
X69291Y85068D01*
X74720D01*
X97667Y62121D01*
Y37008D01*
X97755Y36567D01*
X98004Y36193D01*
X114146Y20052D01*
X114520Y19802D01*
X114961Y19714D01*
X155035D01*
X166981Y7767D01*
X166791Y7305D01*
X122711Y7206D01*
X122502Y7519D01*
X122348Y7621D01*
Y9119D01*
X122261Y9560D01*
X122011Y9933D01*
X92884Y39060D01*
Y51968D01*
X92797Y52409D01*
X92547Y52783D01*
X55876Y89454D01*
Y91111D01*
X56030Y91214D01*
X56430Y91813D01*
X56571Y92520D01*
X56430Y93226D01*
X56030Y93825D01*
X55431Y94226D01*
X54724Y94366D01*
X54018Y94226D01*
X53419Y93825D01*
X53018Y93226D01*
X52878Y92520D01*
X53018Y91813D01*
X53419Y91214D01*
X53572Y91111D01*
Y88976D01*
X53660Y88535D01*
X53910Y88162D01*
X90580Y51491D01*
Y38583D01*
X90668Y38142D01*
X90918Y37768D01*
X120044Y8642D01*
Y7621D01*
X119891Y7519D01*
X119677Y7199D01*
X106271Y7169D01*
X92491Y20950D01*
Y31102D01*
X92403Y31543D01*
X92153Y31917D01*
X85798Y38273D01*
Y49606D01*
X85710Y50047D01*
X85460Y50421D01*
X64932Y70950D01*
Y71820D01*
X65085Y71923D01*
X65486Y72522D01*
X65626Y73228D01*
X65486Y73935D01*
X65085Y74534D01*
X64486Y74934D01*
X63779Y75075D01*
X63073Y74934D01*
X62474Y74534D01*
X62074Y73935D01*
X61933Y73228D01*
X62074Y72522D01*
X62474Y71923D01*
X62628Y71820D01*
Y70472D01*
X62715Y70032D01*
X62965Y69658D01*
X83494Y49129D01*
Y37795D01*
X83581Y37354D01*
X83831Y36981D01*
X90187Y30625D01*
Y20472D01*
X90274Y20032D01*
X90524Y19658D01*
X102559Y7622D01*
X102368Y7160D01*
X97819Y7150D01*
X97769Y7400D01*
X97369Y7999D01*
X96770Y8399D01*
X96063Y8539D01*
X95882Y8503D01*
X88160Y16225D01*
Y29528D01*
X88072Y29968D01*
X87823Y30342D01*
X77136Y41028D01*
Y50394D01*
X77049Y50835D01*
X76799Y51208D01*
X59813Y68194D01*
Y70245D01*
X59967Y70348D01*
X60367Y70947D01*
X60508Y71653D01*
X60367Y72360D01*
X59967Y72959D01*
X59368Y73360D01*
X58661Y73500D01*
X57955Y73360D01*
X57356Y72959D01*
X56955Y72360D01*
X56815Y71653D01*
X56955Y70947D01*
X57356Y70348D01*
X57509Y70245D01*
Y67716D01*
X57597Y67276D01*
X57847Y66902D01*
X74832Y49916D01*
Y40551D01*
X74920Y40110D01*
X75170Y39737D01*
X85856Y29050D01*
Y15748D01*
X85944Y15307D01*
X86193Y14933D01*
X93524Y7602D01*
X93334Y7140D01*
X7047Y6946D01*
X6693Y7299D01*
Y170158D01*
X7155Y170350D01*
X9820Y167684D01*
X10194Y167435D01*
X10635Y167347D01*
X10925D01*
X10964Y167052D01*
X11329Y166169D01*
X11911Y165411D01*
X12669Y164829D01*
X13552Y164463D01*
X14500Y164339D01*
X15448Y164463D01*
X16331Y164829D01*
X17089Y165411D01*
X17671Y166169D01*
X18036Y167052D01*
X18161Y168000D01*
X18036Y168948D01*
X17671Y169831D01*
X17089Y170589D01*
X16331Y171171D01*
X15448Y171537D01*
X14500Y171661D01*
X13552Y171537D01*
X12669Y171171D01*
X11911Y170589D01*
X11464Y170006D01*
X10945Y169909D01*
X10830Y169933D01*
X7058Y173705D01*
Y199523D01*
X9139Y201604D01*
X12449D01*
X12525Y201454D01*
X12582Y201104D01*
X11911Y200589D01*
X11329Y199831D01*
X10964Y198948D01*
X10839Y198000D01*
X10964Y197052D01*
X11329Y196169D01*
X11911Y195411D01*
X12669Y194829D01*
X13552Y194464D01*
X14500Y194339D01*
X15448Y194464D01*
X16331Y194829D01*
X17089Y195411D01*
X17671Y196169D01*
X18036Y197052D01*
X18161Y198000D01*
X18036Y198948D01*
X17671Y199831D01*
X17089Y200589D01*
X16418Y201104D01*
X16475Y201454D01*
X16551Y201604D01*
X22449D01*
X22525Y201454D01*
X22582Y201104D01*
X21911Y200589D01*
X21329Y199831D01*
X20964Y198948D01*
X20839Y198000D01*
X20964Y197052D01*
X21329Y196169D01*
X21911Y195411D01*
X22669Y194829D01*
X23552Y194464D01*
X24500Y194339D01*
X25448Y194464D01*
X26331Y194829D01*
X27089Y195411D01*
X27671Y196169D01*
X27952Y196848D01*
X52704D01*
X103516Y146036D01*
X103890Y145786D01*
X104331Y145698D01*
X108972D01*
X117352Y137318D01*
Y112795D01*
X117440Y112354D01*
X117689Y111981D01*
X121289Y108381D01*
Y83858D01*
X121377Y83417D01*
X121626Y83044D01*
X137768Y66902D01*
X138142Y66652D01*
X138583Y66565D01*
X171964D01*
X180738Y57790D01*
Y39764D01*
X180825Y39323D01*
X181075Y38949D01*
X190918Y29107D01*
X191291Y28857D01*
X191732Y28769D01*
X209016D01*
Y26732D01*
X215394D01*
Y33110D01*
X209016D01*
Y31073D01*
X192209D01*
X183042Y40241D01*
Y58268D01*
X182954Y58709D01*
X182704Y59082D01*
X173256Y68531D01*
X172882Y68781D01*
X172441Y68869D01*
X139060D01*
X123593Y84336D01*
Y108858D01*
X123505Y109299D01*
X123256Y109673D01*
X119656Y113273D01*
Y137795D01*
X119568Y138236D01*
X119319Y138610D01*
X110264Y147665D01*
X109890Y147915D01*
X109449Y148002D01*
X104808D01*
X53996Y198815D01*
X53622Y199064D01*
X53181Y199152D01*
X27952D01*
X27671Y199831D01*
X27089Y200589D01*
X26418Y201104D01*
X26475Y201454D01*
X26551Y201604D01*
X57003D01*
X98792Y159815D01*
X99165Y159566D01*
X99606Y159478D01*
X104497D01*
X104600Y159324D01*
X105199Y158924D01*
X105905Y158783D01*
X106612Y158924D01*
X107211Y159324D01*
X107611Y159923D01*
X107752Y160630D01*
X107611Y161337D01*
X107211Y161936D01*
X106612Y162336D01*
X105905Y162476D01*
X105199Y162336D01*
X104600Y161936D01*
X104497Y161782D01*
X100083D01*
X58295Y203571D01*
X57921Y203820D01*
X57480Y203908D01*
X26380D01*
X26281Y204408D01*
X26517Y204506D01*
X27353Y205147D01*
X27994Y205983D01*
X28397Y206956D01*
X28469Y207500D01*
X24500D01*
X20531D01*
X20603Y206956D01*
X21006Y205983D01*
X21647Y205147D01*
X22483Y204506D01*
X22719Y204408D01*
X22620Y203908D01*
X15058D01*
X15026Y204408D01*
X15448Y204464D01*
X16331Y204829D01*
X17089Y205411D01*
X17671Y206169D01*
X18036Y207052D01*
X18161Y208000D01*
X18036Y208948D01*
X17671Y209831D01*
X17089Y210589D01*
X16331Y211171D01*
X15448Y211537D01*
X14500Y211661D01*
X13552Y211537D01*
X12669Y211171D01*
X11911Y210589D01*
X11329Y209831D01*
X10964Y208948D01*
X10839Y208000D01*
X10964Y207052D01*
X11329Y206169D01*
X11911Y205411D01*
X12669Y204829D01*
X13552Y204464D01*
X13974Y204408D01*
X13941Y203908D01*
X8661D01*
X8221Y203820D01*
X7847Y203571D01*
X7155Y202879D01*
X6693Y203070D01*
Y384334D01*
X21421D01*
X21613Y383872D01*
X20445Y382704D01*
X20196Y382331D01*
X20108Y381890D01*
Y352362D01*
X20196Y351921D01*
X20445Y351548D01*
X35856Y336137D01*
Y281890D01*
X35943Y281449D01*
X36193Y281075D01*
X49635Y267633D01*
Y227618D01*
X49723Y227177D01*
X49973Y226803D01*
X119409Y157366D01*
X119373Y157185D01*
X119514Y156478D01*
X119914Y155879D01*
X120513Y155479D01*
X121220Y155339D01*
X121926Y155479D01*
X122526Y155879D01*
X122926Y156478D01*
X123066Y157185D01*
X122926Y157892D01*
X122526Y158491D01*
X121926Y158891D01*
X121220Y159031D01*
X121039Y158995D01*
X51939Y228095D01*
Y268110D01*
X51852Y268551D01*
X51602Y268925D01*
X38160Y282367D01*
Y336614D01*
X38072Y337055D01*
X37822Y337429D01*
X22412Y352839D01*
Y381413D01*
X25333Y384334D01*
X116077Y384334D01*
X116268Y383872D01*
X114623Y382227D01*
X114158Y381530D01*
X113994Y380709D01*
Y375693D01*
X110134Y371833D01*
X70866D01*
X70044Y371669D01*
X69348Y371204D01*
X65804Y367660D01*
X65339Y366964D01*
X65175Y366142D01*
Y348921D01*
X58953Y342699D01*
X53543D01*
X52722Y342535D01*
X52025Y342070D01*
X44544Y334589D01*
X44079Y333893D01*
X43915Y333071D01*
Y316378D01*
X42480D01*
Y309213D01*
X49646D01*
Y316378D01*
X48211D01*
Y332181D01*
X54433Y338404D01*
X59842D01*
X60664Y338567D01*
X61361Y339033D01*
X68841Y346513D01*
X69307Y347210D01*
X69470Y348031D01*
Y365252D01*
X71756Y367537D01*
X111024D01*
X111846Y367701D01*
X112542Y368166D01*
X117660Y373285D01*
X118126Y373981D01*
X118289Y374803D01*
Y379819D01*
X122804Y384334D01*
X207511Y384334D01*
X211632Y380213D01*
Y373622D01*
X211795Y372800D01*
X212261Y372104D01*
X217773Y366592D01*
X218470Y366126D01*
X219291Y365963D01*
X249111D01*
X252971Y362103D01*
Y344984D01*
X249111Y341124D01*
X231890D01*
X231068Y340961D01*
X230371Y340495D01*
X219348Y329471D01*
X218882Y328775D01*
X218719Y327953D01*
Y234646D01*
X218882Y233824D01*
X219348Y233127D01*
X226041Y226434D01*
X226737Y225969D01*
X227559Y225805D01*
X243701D01*
X244523Y225969D01*
X245219Y226434D01*
X249550Y230765D01*
X250016Y231462D01*
X250179Y232283D01*
Y233819D01*
X251417D01*
Y240197D01*
X245039D01*
Y233819D01*
X245884D01*
Y233173D01*
X242811Y230100D01*
X228449D01*
X223014Y235535D01*
Y327063D01*
X232779Y336829D01*
X250000D01*
X250822Y336992D01*
X251519Y337458D01*
X256637Y342576D01*
X257102Y343273D01*
X257266Y344094D01*
Y362992D01*
X257102Y363814D01*
X256637Y364511D01*
X251519Y369629D01*
X250822Y370094D01*
X250000Y370258D01*
X220181D01*
X215927Y374512D01*
Y381102D01*
X215764Y381924D01*
X215298Y382621D01*
X214047Y383872D01*
X214238Y384334D01*
X236084Y384334D01*
X237037Y383381D01*
Y382338D01*
X236382Y382066D01*
X235634Y381492D01*
X235059Y380744D01*
X234699Y379872D01*
X234575Y378937D01*
X234699Y378002D01*
X235059Y377130D01*
X235634Y376382D01*
X236382Y375808D01*
X237254Y375447D01*
X238189Y375323D01*
X239124Y375447D01*
X239996Y375808D01*
X240744Y376382D01*
X241318Y377130D01*
X241679Y378002D01*
X241803Y378937D01*
X241679Y379872D01*
X241318Y380744D01*
X240744Y381492D01*
X239996Y382066D01*
X239341Y382338D01*
Y383858D01*
X239756Y384334D01*
X259368D01*
Y335565D01*
X257083Y333279D01*
X232776D01*
X231954Y333116D01*
X231257Y332650D01*
X227222Y328615D01*
X226756Y327918D01*
X226593Y327097D01*
Y264567D01*
X226756Y263745D01*
X227222Y263048D01*
X232301Y257969D01*
X232301Y239380D01*
X232174Y239282D01*
X231663Y238616D01*
X231342Y237840D01*
X231232Y237008D01*
X231342Y236175D01*
X231663Y235400D01*
X232174Y234734D01*
X232841Y234222D01*
X233616Y233901D01*
X234449Y233791D01*
X235281Y233901D01*
X236057Y234222D01*
X236723Y234734D01*
X237234Y235400D01*
X237556Y236175D01*
X237665Y237008D01*
X237556Y237840D01*
X237234Y238616D01*
X236723Y239282D01*
X236596Y239380D01*
X236596Y258858D01*
X236433Y259680D01*
X235967Y260377D01*
X230888Y265457D01*
Y326207D01*
X233665Y328984D01*
X257972D01*
X258794Y329148D01*
X259491Y329613D01*
X263034Y333157D01*
X263500Y333853D01*
X263663Y334675D01*
Y384334D01*
X349213Y384334D01*
Y333177D01*
D02*
G37*
%LPC*%
G36*
X316429Y382858D02*
X315897Y382788D01*
X314936Y382390D01*
X314110Y381756D01*
X313476Y380930D01*
X313078Y379969D01*
X313008Y379437D01*
X316429D01*
Y382858D01*
D02*
G37*
G36*
X269185D02*
X268653Y382788D01*
X267692Y382390D01*
X266866Y381756D01*
X266232Y380930D01*
X265834Y379969D01*
X265764Y379437D01*
X269185D01*
Y382858D01*
D02*
G37*
G36*
X221941D02*
X221409Y382788D01*
X220447Y382390D01*
X219622Y381756D01*
X218988Y380930D01*
X218590Y379969D01*
X218520Y379437D01*
X221941D01*
Y382858D01*
D02*
G37*
G36*
X174697D02*
X174165Y382788D01*
X173203Y382390D01*
X172378Y381756D01*
X171744Y380930D01*
X171346Y379969D01*
X171276Y379437D01*
X174697D01*
Y382858D01*
D02*
G37*
G36*
X127453D02*
X126921Y382788D01*
X125959Y382390D01*
X125134Y381756D01*
X124500Y380930D01*
X124102Y379969D01*
X124032Y379437D01*
X127453D01*
Y382858D01*
D02*
G37*
G36*
X80209D02*
X79677Y382788D01*
X78715Y382390D01*
X77890Y381756D01*
X77256Y380930D01*
X76858Y379969D01*
X76788Y379437D01*
X80209D01*
Y382858D01*
D02*
G37*
G36*
X32965D02*
X32433Y382788D01*
X31471Y382390D01*
X30645Y381756D01*
X30012Y380930D01*
X29614Y379969D01*
X29544Y379437D01*
X32965D01*
Y382858D01*
D02*
G37*
G36*
X344134Y382520D02*
X336968D01*
Y375354D01*
X344134D01*
Y382520D01*
D02*
G37*
G36*
X296890D02*
X289724D01*
Y375354D01*
X296890D01*
Y382520D01*
D02*
G37*
G36*
X249646D02*
X242480D01*
Y375354D01*
X249646D01*
Y382520D01*
D02*
G37*
G36*
X107913D02*
X100748D01*
Y375354D01*
X107913D01*
Y382520D01*
D02*
G37*
G36*
X60669D02*
X53504D01*
Y375354D01*
X60669D01*
Y382520D01*
D02*
G37*
G36*
X332677Y382551D02*
X331742Y382428D01*
X330870Y382066D01*
X330122Y381492D01*
X329548Y380744D01*
X329187Y379872D01*
X329064Y378937D01*
X329187Y378002D01*
X329548Y377130D01*
X330122Y376382D01*
X330870Y375808D01*
X331742Y375447D01*
X332677Y375323D01*
X333612Y375447D01*
X334484Y375808D01*
X335232Y376382D01*
X335807Y377130D01*
X336168Y378002D01*
X336291Y378937D01*
X336168Y379872D01*
X335807Y380744D01*
X335232Y381492D01*
X334484Y382066D01*
X333612Y382428D01*
X332677Y382551D01*
D02*
G37*
G36*
X317429Y382858D02*
Y378937D01*
Y375016D01*
X317961Y375086D01*
X318923Y375484D01*
X319748Y376118D01*
X320382Y376944D01*
X320780Y377905D01*
X320801Y378061D01*
X321305D01*
X321313Y378002D01*
X321674Y377130D01*
X322248Y376382D01*
X322996Y375808D01*
X323868Y375447D01*
X324803Y375323D01*
X325738Y375447D01*
X326610Y375808D01*
X327358Y376382D01*
X327933Y377130D01*
X328294Y378002D01*
X328417Y378937D01*
X328294Y379872D01*
X327933Y380744D01*
X327358Y381492D01*
X326610Y382066D01*
X325738Y382428D01*
X324803Y382551D01*
X323868Y382428D01*
X322996Y382066D01*
X322248Y381492D01*
X321674Y380744D01*
X321313Y379872D01*
X321305Y379813D01*
X320801D01*
X320780Y379969D01*
X320382Y380930D01*
X319748Y381756D01*
X318923Y382390D01*
X317961Y382788D01*
X317429Y382858D01*
D02*
G37*
G36*
X285433Y382551D02*
X284498Y382428D01*
X283626Y382066D01*
X282878Y381492D01*
X282304Y380744D01*
X281943Y379872D01*
X281820Y378937D01*
X281943Y378002D01*
X282304Y377130D01*
X282878Y376382D01*
X283626Y375808D01*
X284498Y375447D01*
X285433Y375323D01*
X286368Y375447D01*
X287240Y375808D01*
X287988Y376382D01*
X288562Y377130D01*
X288924Y378002D01*
X289047Y378937D01*
X288924Y379872D01*
X288562Y380744D01*
X287988Y381492D01*
X287240Y382066D01*
X286368Y382428D01*
X285433Y382551D01*
D02*
G37*
G36*
X270185Y382858D02*
Y378937D01*
Y375016D01*
X270717Y375086D01*
X271678Y375484D01*
X272504Y376118D01*
X273138Y376944D01*
X273536Y377905D01*
X273556Y378061D01*
X274061D01*
X274069Y378002D01*
X274430Y377130D01*
X275004Y376382D01*
X275752Y375808D01*
X276624Y375447D01*
X277559Y375323D01*
X278494Y375447D01*
X279366Y375808D01*
X280114Y376382D01*
X280689Y377130D01*
X281049Y378002D01*
X281173Y378937D01*
X281049Y379872D01*
X280689Y380744D01*
X280114Y381492D01*
X279366Y382066D01*
X278494Y382428D01*
X277559Y382551D01*
X276624Y382428D01*
X275752Y382066D01*
X275004Y381492D01*
X274430Y380744D01*
X274069Y379872D01*
X274061Y379813D01*
X273556D01*
X273536Y379969D01*
X273138Y380930D01*
X272504Y381756D01*
X271678Y382390D01*
X270717Y382788D01*
X270185Y382858D01*
D02*
G37*
G36*
X222941D02*
Y378937D01*
Y375016D01*
X223473Y375086D01*
X224434Y375484D01*
X225260Y376118D01*
X225894Y376944D01*
X226292Y377905D01*
X226312Y378061D01*
X226817D01*
X226824Y378002D01*
X227186Y377130D01*
X227760Y376382D01*
X228508Y375808D01*
X229380Y375447D01*
X230315Y375323D01*
X231250Y375447D01*
X232122Y375808D01*
X232870Y376382D01*
X233444Y377130D01*
X233805Y378002D01*
X233928Y378937D01*
X233805Y379872D01*
X233444Y380744D01*
X232870Y381492D01*
X232122Y382066D01*
X231250Y382428D01*
X230315Y382551D01*
X229380Y382428D01*
X228508Y382066D01*
X227760Y381492D01*
X227186Y380744D01*
X226824Y379872D01*
X226817Y379813D01*
X226312D01*
X226292Y379969D01*
X225894Y380930D01*
X225260Y381756D01*
X224434Y382390D01*
X223473Y382788D01*
X222941Y382858D01*
D02*
G37*
G36*
X190945Y382551D02*
X190010Y382428D01*
X189138Y382066D01*
X188390Y381492D01*
X187815Y380744D01*
X187454Y379872D01*
X187331Y378937D01*
X187454Y378002D01*
X187815Y377130D01*
X188390Y376382D01*
X189138Y375808D01*
X190010Y375447D01*
X190945Y375323D01*
X191880Y375447D01*
X192752Y375808D01*
X193500Y376382D01*
X194074Y377130D01*
X194435Y378002D01*
X194558Y378937D01*
X194435Y379872D01*
X194074Y380744D01*
X193500Y381492D01*
X192752Y382066D01*
X191880Y382428D01*
X190945Y382551D01*
D02*
G37*
G36*
X175697Y382858D02*
Y378937D01*
Y375016D01*
X176229Y375086D01*
X177190Y375484D01*
X178016Y376118D01*
X178649Y376944D01*
X179048Y377905D01*
X179068Y378061D01*
X179573D01*
X179580Y378002D01*
X179941Y377130D01*
X180516Y376382D01*
X181264Y375808D01*
X182136Y375447D01*
X183071Y375323D01*
X184006Y375447D01*
X184878Y375808D01*
X185626Y376382D01*
X186200Y377130D01*
X186561Y378002D01*
X186684Y378937D01*
X186561Y379872D01*
X186200Y380744D01*
X185626Y381492D01*
X184878Y382066D01*
X184006Y382428D01*
X183071Y382551D01*
X182136Y382428D01*
X181264Y382066D01*
X180516Y381492D01*
X179941Y380744D01*
X179580Y379872D01*
X179573Y379813D01*
X179068D01*
X179048Y379969D01*
X178649Y380930D01*
X178016Y381756D01*
X177190Y382390D01*
X176229Y382788D01*
X175697Y382858D01*
D02*
G37*
G36*
X143701Y382551D02*
X142765Y382428D01*
X141894Y382066D01*
X141146Y381492D01*
X140571Y380744D01*
X140210Y379872D01*
X140087Y378937D01*
X140210Y378002D01*
X140571Y377130D01*
X141146Y376382D01*
X141894Y375808D01*
X142765Y375447D01*
X143701Y375323D01*
X144636Y375447D01*
X145508Y375808D01*
X146256Y376382D01*
X146830Y377130D01*
X147191Y378002D01*
X147314Y378937D01*
X147191Y379872D01*
X146830Y380744D01*
X146256Y381492D01*
X145508Y382066D01*
X144636Y382428D01*
X143701Y382551D01*
D02*
G37*
G36*
X128453Y382858D02*
Y378937D01*
Y375016D01*
X128985Y375086D01*
X129946Y375484D01*
X130772Y376118D01*
X131405Y376944D01*
X131804Y377905D01*
X131824Y378061D01*
X132328D01*
X132336Y378002D01*
X132697Y377130D01*
X133272Y376382D01*
X134020Y375808D01*
X134891Y375447D01*
X135827Y375323D01*
X136762Y375447D01*
X137634Y375808D01*
X138382Y376382D01*
X138956Y377130D01*
X139317Y378002D01*
X139440Y378937D01*
X139317Y379872D01*
X138956Y380744D01*
X138382Y381492D01*
X137634Y382066D01*
X136762Y382428D01*
X135827Y382551D01*
X134891Y382428D01*
X134020Y382066D01*
X133272Y381492D01*
X132697Y380744D01*
X132336Y379872D01*
X132328Y379813D01*
X131824D01*
X131804Y379969D01*
X131405Y380930D01*
X130772Y381756D01*
X129946Y382390D01*
X128985Y382788D01*
X128453Y382858D01*
D02*
G37*
G36*
X96457Y382551D02*
X95521Y382428D01*
X94650Y382066D01*
X93901Y381492D01*
X93327Y380744D01*
X92966Y379872D01*
X92843Y378937D01*
X92966Y378002D01*
X93327Y377130D01*
X93901Y376382D01*
X94650Y375808D01*
X95521Y375447D01*
X96457Y375323D01*
X97392Y375447D01*
X98264Y375808D01*
X99012Y376382D01*
X99586Y377130D01*
X99947Y378002D01*
X100070Y378937D01*
X99947Y379872D01*
X99586Y380744D01*
X99012Y381492D01*
X98264Y382066D01*
X97392Y382428D01*
X96457Y382551D01*
D02*
G37*
G36*
X81209Y382858D02*
Y378937D01*
Y375016D01*
X81740Y375086D01*
X82702Y375484D01*
X83528Y376118D01*
X84161Y376944D01*
X84560Y377905D01*
X84580Y378061D01*
X85084D01*
X85092Y378002D01*
X85453Y377130D01*
X86027Y376382D01*
X86776Y375808D01*
X87647Y375447D01*
X88583Y375323D01*
X89518Y375447D01*
X90390Y375808D01*
X91138Y376382D01*
X91712Y377130D01*
X92073Y378002D01*
X92196Y378937D01*
X92073Y379872D01*
X91712Y380744D01*
X91138Y381492D01*
X90390Y382066D01*
X89518Y382428D01*
X88583Y382551D01*
X87647Y382428D01*
X86776Y382066D01*
X86027Y381492D01*
X85453Y380744D01*
X85092Y379872D01*
X85084Y379813D01*
X84580D01*
X84560Y379969D01*
X84161Y380930D01*
X83528Y381756D01*
X82702Y382390D01*
X81740Y382788D01*
X81209Y382858D01*
D02*
G37*
G36*
X49213Y382551D02*
X48277Y382428D01*
X47406Y382066D01*
X46657Y381492D01*
X46083Y380744D01*
X45722Y379872D01*
X45599Y378937D01*
X45722Y378002D01*
X46083Y377130D01*
X46657Y376382D01*
X47406Y375808D01*
X48277Y375447D01*
X49213Y375323D01*
X50148Y375447D01*
X51019Y375808D01*
X51768Y376382D01*
X52342Y377130D01*
X52703Y378002D01*
X52826Y378937D01*
X52703Y379872D01*
X52342Y380744D01*
X51768Y381492D01*
X51019Y382066D01*
X50148Y382428D01*
X49213Y382551D01*
D02*
G37*
G36*
X33965Y382858D02*
Y378937D01*
Y375016D01*
X34496Y375086D01*
X35458Y375484D01*
X36284Y376118D01*
X36917Y376944D01*
X37316Y377905D01*
X37336Y378061D01*
X37840D01*
X37848Y378002D01*
X38209Y377130D01*
X38783Y376382D01*
X39532Y375808D01*
X40403Y375447D01*
X41339Y375323D01*
X42274Y375447D01*
X43145Y375808D01*
X43894Y376382D01*
X44468Y377130D01*
X44829Y378002D01*
X44952Y378937D01*
X44829Y379872D01*
X44468Y380744D01*
X43894Y381492D01*
X43145Y382066D01*
X42274Y382428D01*
X41339Y382551D01*
X40403Y382428D01*
X39532Y382066D01*
X38783Y381492D01*
X38209Y380744D01*
X37848Y379872D01*
X37840Y379813D01*
X37336D01*
X37316Y379969D01*
X36917Y380930D01*
X36284Y381756D01*
X35458Y382390D01*
X34496Y382788D01*
X33965Y382858D01*
D02*
G37*
G36*
X316429Y378437D02*
X313008D01*
X313078Y377905D01*
X313476Y376944D01*
X314110Y376118D01*
X314936Y375484D01*
X315897Y375086D01*
X316429Y375016D01*
Y378437D01*
D02*
G37*
G36*
X269185D02*
X265764D01*
X265834Y377905D01*
X266232Y376944D01*
X266866Y376118D01*
X267692Y375484D01*
X268653Y375086D01*
X269185Y375016D01*
Y378437D01*
D02*
G37*
G36*
X221941D02*
X218520D01*
X218590Y377905D01*
X218988Y376944D01*
X219622Y376118D01*
X220447Y375484D01*
X221409Y375086D01*
X221941Y375016D01*
Y378437D01*
D02*
G37*
G36*
X174697D02*
X171276D01*
X171346Y377905D01*
X171744Y376944D01*
X172378Y376118D01*
X173203Y375484D01*
X174165Y375086D01*
X174697Y375016D01*
Y378437D01*
D02*
G37*
G36*
X127453D02*
X124032D01*
X124102Y377905D01*
X124500Y376944D01*
X125134Y376118D01*
X125959Y375484D01*
X126921Y375086D01*
X127453Y375016D01*
Y378437D01*
D02*
G37*
G36*
X80209D02*
X76788D01*
X76858Y377905D01*
X77256Y376944D01*
X77890Y376118D01*
X78715Y375484D01*
X79677Y375086D01*
X80209Y375016D01*
Y378437D01*
D02*
G37*
G36*
X32965D02*
X29544D01*
X29614Y377905D01*
X30012Y376944D01*
X30645Y376118D01*
X31471Y375484D01*
X32433Y375086D01*
X32965Y375016D01*
Y378437D01*
D02*
G37*
G36*
X148031Y365626D02*
X147325Y365486D01*
X146726Y365085D01*
X146623Y364932D01*
X74016D01*
X73575Y364844D01*
X73201Y364594D01*
X72020Y363413D01*
X71770Y363039D01*
X71683Y362598D01*
Y345359D01*
X57453Y331130D01*
X57203Y330756D01*
X57116Y330315D01*
Y231496D01*
X57203Y231055D01*
X57453Y230681D01*
X119264Y168870D01*
X119638Y168621D01*
X120079Y168533D01*
X122607D01*
X122710Y168379D01*
X123309Y167979D01*
X124016Y167839D01*
X124722Y167979D01*
X125321Y168379D01*
X125722Y168978D01*
X125862Y169685D01*
X125722Y170392D01*
X125321Y170991D01*
X124722Y171391D01*
X124016Y171531D01*
X123309Y171391D01*
X122710Y170991D01*
X122607Y170837D01*
X120556D01*
X59420Y231973D01*
Y329838D01*
X73649Y344067D01*
X73899Y344441D01*
X73987Y344882D01*
Y362121D01*
X74493Y362628D01*
X146623D01*
X146726Y362474D01*
X147325Y362074D01*
X148031Y361933D01*
X148738Y362074D01*
X149337Y362474D01*
X149737Y363073D01*
X149878Y363779D01*
X149737Y364486D01*
X149337Y365085D01*
X148738Y365486D01*
X148031Y365626D01*
D02*
G37*
G36*
X174697Y356480D02*
X174165Y356410D01*
X173203Y356012D01*
X172378Y355378D01*
X171744Y354553D01*
X171346Y353591D01*
X171276Y353059D01*
X174697D01*
Y356480D01*
D02*
G37*
G36*
X127453D02*
X126921Y356410D01*
X125959Y356012D01*
X125134Y355378D01*
X124500Y354553D01*
X124102Y353591D01*
X124032Y353059D01*
X127453D01*
Y356480D01*
D02*
G37*
G36*
X80209D02*
X79677Y356410D01*
X78715Y356012D01*
X77890Y355378D01*
X77256Y354553D01*
X76858Y353591D01*
X76788Y353059D01*
X80209D01*
Y356480D01*
D02*
G37*
G36*
X32965D02*
X32433Y356410D01*
X31471Y356012D01*
X30645Y355378D01*
X30012Y354553D01*
X29614Y353591D01*
X29544Y353059D01*
X32965D01*
Y356480D01*
D02*
G37*
G36*
X316429Y356086D02*
X315897Y356016D01*
X314936Y355618D01*
X314110Y354984D01*
X313476Y354159D01*
X313078Y353197D01*
X313008Y352665D01*
X316429D01*
Y356086D01*
D02*
G37*
G36*
X269185D02*
X268653Y356016D01*
X267692Y355618D01*
X266866Y354984D01*
X266232Y354159D01*
X265834Y353197D01*
X265764Y352665D01*
X269185D01*
Y356086D01*
D02*
G37*
G36*
X221941D02*
X221409Y356016D01*
X220447Y355618D01*
X219622Y354984D01*
X218988Y354159D01*
X218590Y353197D01*
X218520Y352665D01*
X221941D01*
Y356086D01*
D02*
G37*
G36*
X107913Y356142D02*
X100748D01*
Y348976D01*
X107913D01*
Y356142D01*
D02*
G37*
G36*
X60669D02*
X53504D01*
Y348976D01*
X60669D01*
Y356142D01*
D02*
G37*
G36*
X190945Y356173D02*
X190010Y356049D01*
X189138Y355689D01*
X188390Y355114D01*
X187815Y354366D01*
X187454Y353494D01*
X187331Y352559D01*
X187454Y351624D01*
X187815Y350752D01*
X188390Y350004D01*
X189138Y349430D01*
X190010Y349069D01*
X190945Y348945D01*
X191880Y349069D01*
X192752Y349430D01*
X193500Y350004D01*
X194074Y350752D01*
X194435Y351624D01*
X194558Y352559D01*
X194435Y353494D01*
X194074Y354366D01*
X193500Y355114D01*
X192752Y355689D01*
X191880Y356049D01*
X190945Y356173D01*
D02*
G37*
G36*
X175697Y356480D02*
Y352559D01*
Y348638D01*
X176229Y348708D01*
X177190Y349106D01*
X178016Y349740D01*
X178649Y350566D01*
X179048Y351527D01*
X179068Y351683D01*
X179573D01*
X179580Y351624D01*
X179941Y350752D01*
X180516Y350004D01*
X181264Y349430D01*
X182136Y349069D01*
X183071Y348945D01*
X184006Y349069D01*
X184878Y349430D01*
X185626Y350004D01*
X186200Y350752D01*
X186561Y351624D01*
X186684Y352559D01*
X186561Y353494D01*
X186200Y354366D01*
X185626Y355114D01*
X184878Y355689D01*
X184006Y356049D01*
X183071Y356173D01*
X182136Y356049D01*
X181264Y355689D01*
X180516Y355114D01*
X179941Y354366D01*
X179580Y353494D01*
X179573Y353435D01*
X179068D01*
X179048Y353591D01*
X178649Y354553D01*
X178016Y355378D01*
X177190Y356012D01*
X176229Y356410D01*
X175697Y356480D01*
D02*
G37*
G36*
X143701Y356173D02*
X142765Y356049D01*
X141894Y355689D01*
X141146Y355114D01*
X140571Y354366D01*
X140210Y353494D01*
X140087Y352559D01*
X140210Y351624D01*
X140571Y350752D01*
X141146Y350004D01*
X141894Y349430D01*
X142765Y349069D01*
X143701Y348945D01*
X144636Y349069D01*
X145508Y349430D01*
X146256Y350004D01*
X146830Y350752D01*
X147191Y351624D01*
X147314Y352559D01*
X147191Y353494D01*
X146830Y354366D01*
X146256Y355114D01*
X145508Y355689D01*
X144636Y356049D01*
X143701Y356173D01*
D02*
G37*
G36*
X128453Y356480D02*
Y352559D01*
Y348638D01*
X128985Y348708D01*
X129946Y349106D01*
X130772Y349740D01*
X131405Y350566D01*
X131804Y351527D01*
X131824Y351683D01*
X132328D01*
X132336Y351624D01*
X132697Y350752D01*
X133272Y350004D01*
X134020Y349430D01*
X134891Y349069D01*
X135827Y348945D01*
X136762Y349069D01*
X137634Y349430D01*
X138382Y350004D01*
X138956Y350752D01*
X139317Y351624D01*
X139440Y352559D01*
X139317Y353494D01*
X138956Y354366D01*
X138382Y355114D01*
X137634Y355689D01*
X136762Y356049D01*
X135827Y356173D01*
X134891Y356049D01*
X134020Y355689D01*
X133272Y355114D01*
X132697Y354366D01*
X132336Y353494D01*
X132328Y353435D01*
X131824D01*
X131804Y353591D01*
X131405Y354553D01*
X130772Y355378D01*
X129946Y356012D01*
X128985Y356410D01*
X128453Y356480D01*
D02*
G37*
G36*
X96457Y356173D02*
X95521Y356049D01*
X94650Y355689D01*
X93901Y355114D01*
X93327Y354366D01*
X92966Y353494D01*
X92843Y352559D01*
X92966Y351624D01*
X93327Y350752D01*
X93901Y350004D01*
X94650Y349430D01*
X95521Y349069D01*
X96457Y348945D01*
X97392Y349069D01*
X98264Y349430D01*
X99012Y350004D01*
X99586Y350752D01*
X99947Y351624D01*
X100070Y352559D01*
X99947Y353494D01*
X99586Y354366D01*
X99012Y355114D01*
X98264Y355689D01*
X97392Y356049D01*
X96457Y356173D01*
D02*
G37*
G36*
X81209Y356480D02*
Y352559D01*
Y348638D01*
X81740Y348708D01*
X82702Y349106D01*
X83528Y349740D01*
X84161Y350566D01*
X84560Y351527D01*
X84580Y351683D01*
X85084D01*
X85092Y351624D01*
X85453Y350752D01*
X86027Y350004D01*
X86776Y349430D01*
X87647Y349069D01*
X88583Y348945D01*
X89518Y349069D01*
X90390Y349430D01*
X91138Y350004D01*
X91712Y350752D01*
X92073Y351624D01*
X92196Y352559D01*
X92073Y353494D01*
X91712Y354366D01*
X91138Y355114D01*
X90390Y355689D01*
X89518Y356049D01*
X88583Y356173D01*
X87647Y356049D01*
X86776Y355689D01*
X86027Y355114D01*
X85453Y354366D01*
X85092Y353494D01*
X85084Y353435D01*
X84580D01*
X84560Y353591D01*
X84161Y354553D01*
X83528Y355378D01*
X82702Y356012D01*
X81740Y356410D01*
X81209Y356480D01*
D02*
G37*
G36*
X49213Y356173D02*
X48277Y356049D01*
X47406Y355689D01*
X46657Y355114D01*
X46083Y354366D01*
X45722Y353494D01*
X45599Y352559D01*
X45722Y351624D01*
X46083Y350752D01*
X46657Y350004D01*
X47406Y349430D01*
X48277Y349069D01*
X49213Y348945D01*
X50148Y349069D01*
X51019Y349430D01*
X51768Y350004D01*
X52342Y350752D01*
X52703Y351624D01*
X52826Y352559D01*
X52703Y353494D01*
X52342Y354366D01*
X51768Y355114D01*
X51019Y355689D01*
X50148Y356049D01*
X49213Y356173D01*
D02*
G37*
G36*
X33965Y356480D02*
Y352559D01*
Y348638D01*
X34496Y348708D01*
X35458Y349106D01*
X36284Y349740D01*
X36917Y350566D01*
X37316Y351527D01*
X37336Y351683D01*
X37840D01*
X37848Y351624D01*
X38209Y350752D01*
X38783Y350004D01*
X39532Y349430D01*
X40403Y349069D01*
X41339Y348945D01*
X42274Y349069D01*
X43145Y349430D01*
X43894Y350004D01*
X44468Y350752D01*
X44829Y351624D01*
X44952Y352559D01*
X44829Y353494D01*
X44468Y354366D01*
X43894Y355114D01*
X43145Y355689D01*
X42274Y356049D01*
X41339Y356173D01*
X40403Y356049D01*
X39532Y355689D01*
X38783Y355114D01*
X38209Y354366D01*
X37848Y353494D01*
X37840Y353435D01*
X37336D01*
X37316Y353591D01*
X36917Y354553D01*
X36284Y355378D01*
X35458Y356012D01*
X34496Y356410D01*
X33965Y356480D01*
D02*
G37*
G36*
X174697Y352059D02*
X171276D01*
X171346Y351527D01*
X171744Y350566D01*
X172378Y349740D01*
X173203Y349106D01*
X174165Y348708D01*
X174697Y348638D01*
Y352059D01*
D02*
G37*
G36*
X127453D02*
X124032D01*
X124102Y351527D01*
X124500Y350566D01*
X125134Y349740D01*
X125959Y349106D01*
X126921Y348708D01*
X127453Y348638D01*
Y352059D01*
D02*
G37*
G36*
X80209D02*
X76788D01*
X76858Y351527D01*
X77256Y350566D01*
X77890Y349740D01*
X78715Y349106D01*
X79677Y348708D01*
X80209Y348638D01*
Y352059D01*
D02*
G37*
G36*
X32965D02*
X29544D01*
X29614Y351527D01*
X30012Y350566D01*
X30645Y349740D01*
X31471Y349106D01*
X32433Y348708D01*
X32965Y348638D01*
Y352059D01*
D02*
G37*
G36*
X344134Y355748D02*
X336968D01*
Y348583D01*
X344134D01*
Y355748D01*
D02*
G37*
G36*
X296890D02*
X289724D01*
Y348583D01*
X296890D01*
Y355748D01*
D02*
G37*
G36*
X249646D02*
X242480D01*
Y348583D01*
X249646D01*
Y355748D01*
D02*
G37*
G36*
X332677Y355779D02*
X331742Y355656D01*
X330870Y355295D01*
X330122Y354721D01*
X329548Y353972D01*
X329187Y353101D01*
X329064Y352165D01*
X329187Y351230D01*
X329548Y350359D01*
X330122Y349610D01*
X330870Y349036D01*
X331742Y348675D01*
X332677Y348552D01*
X333612Y348675D01*
X334484Y349036D01*
X335232Y349610D01*
X335807Y350359D01*
X336168Y351230D01*
X336291Y352165D01*
X336168Y353101D01*
X335807Y353972D01*
X335232Y354721D01*
X334484Y355295D01*
X333612Y355656D01*
X332677Y355779D01*
D02*
G37*
G36*
X317429Y356086D02*
Y352165D01*
Y348244D01*
X317961Y348314D01*
X318923Y348713D01*
X319748Y349346D01*
X320382Y350172D01*
X320780Y351133D01*
X320801Y351289D01*
X321305D01*
X321313Y351230D01*
X321674Y350359D01*
X322248Y349610D01*
X322996Y349036D01*
X323868Y348675D01*
X324803Y348552D01*
X325738Y348675D01*
X326610Y349036D01*
X327358Y349610D01*
X327933Y350359D01*
X328294Y351230D01*
X328417Y352165D01*
X328294Y353101D01*
X327933Y353972D01*
X327358Y354721D01*
X326610Y355295D01*
X325738Y355656D01*
X324803Y355779D01*
X323868Y355656D01*
X322996Y355295D01*
X322248Y354721D01*
X321674Y353972D01*
X321313Y353101D01*
X321305Y353042D01*
X320801D01*
X320780Y353197D01*
X320382Y354159D01*
X319748Y354984D01*
X318923Y355618D01*
X317961Y356016D01*
X317429Y356086D01*
D02*
G37*
G36*
X285433Y355779D02*
X284498Y355656D01*
X283626Y355295D01*
X282878Y354721D01*
X282304Y353972D01*
X281943Y353101D01*
X281820Y352165D01*
X281943Y351230D01*
X282304Y350359D01*
X282878Y349610D01*
X283626Y349036D01*
X284498Y348675D01*
X285433Y348552D01*
X286368Y348675D01*
X287240Y349036D01*
X287988Y349610D01*
X288562Y350359D01*
X288924Y351230D01*
X289047Y352165D01*
X288924Y353101D01*
X288562Y353972D01*
X287988Y354721D01*
X287240Y355295D01*
X286368Y355656D01*
X285433Y355779D01*
D02*
G37*
G36*
X270185Y356086D02*
Y352165D01*
Y348244D01*
X270717Y348314D01*
X271678Y348713D01*
X272504Y349346D01*
X273138Y350172D01*
X273536Y351133D01*
X273556Y351289D01*
X274061D01*
X274069Y351230D01*
X274430Y350359D01*
X275004Y349610D01*
X275752Y349036D01*
X276624Y348675D01*
X277559Y348552D01*
X278494Y348675D01*
X279366Y349036D01*
X280114Y349610D01*
X280689Y350359D01*
X281049Y351230D01*
X281173Y352165D01*
X281049Y353101D01*
X280689Y353972D01*
X280114Y354721D01*
X279366Y355295D01*
X278494Y355656D01*
X277559Y355779D01*
X276624Y355656D01*
X275752Y355295D01*
X275004Y354721D01*
X274430Y353972D01*
X274069Y353101D01*
X274061Y353042D01*
X273556D01*
X273536Y353197D01*
X273138Y354159D01*
X272504Y354984D01*
X271678Y355618D01*
X270717Y356016D01*
X270185Y356086D01*
D02*
G37*
G36*
X238189Y355779D02*
X237254Y355656D01*
X236382Y355295D01*
X235634Y354721D01*
X235059Y353972D01*
X234699Y353101D01*
X234575Y352165D01*
X234699Y351230D01*
X235059Y350359D01*
X235634Y349610D01*
X236382Y349036D01*
X237254Y348675D01*
X238189Y348552D01*
X239124Y348675D01*
X239996Y349036D01*
X240744Y349610D01*
X241318Y350359D01*
X241679Y351230D01*
X241803Y352165D01*
X241679Y353101D01*
X241318Y353972D01*
X240744Y354721D01*
X239996Y355295D01*
X239124Y355656D01*
X238189Y355779D01*
D02*
G37*
G36*
X222941Y356086D02*
Y352165D01*
Y348244D01*
X223473Y348314D01*
X224434Y348713D01*
X225260Y349346D01*
X225894Y350172D01*
X226292Y351133D01*
X226312Y351289D01*
X226817D01*
X226824Y351230D01*
X227186Y350359D01*
X227760Y349610D01*
X228508Y349036D01*
X229380Y348675D01*
X230315Y348552D01*
X231250Y348675D01*
X232122Y349036D01*
X232870Y349610D01*
X233444Y350359D01*
X233805Y351230D01*
X233928Y352165D01*
X233805Y353101D01*
X233444Y353972D01*
X232870Y354721D01*
X232122Y355295D01*
X231250Y355656D01*
X230315Y355779D01*
X229380Y355656D01*
X228508Y355295D01*
X227760Y354721D01*
X227186Y353972D01*
X226824Y353101D01*
X226817Y353042D01*
X226312D01*
X226292Y353197D01*
X225894Y354159D01*
X225260Y354984D01*
X224434Y355618D01*
X223473Y356016D01*
X222941Y356086D01*
D02*
G37*
G36*
X316429Y351665D02*
X313008D01*
X313078Y351133D01*
X313476Y350172D01*
X314110Y349346D01*
X314936Y348713D01*
X315897Y348314D01*
X316429Y348244D01*
Y351665D01*
D02*
G37*
G36*
X269185D02*
X265764D01*
X265834Y351133D01*
X266232Y350172D01*
X266866Y349346D01*
X267692Y348713D01*
X268653Y348314D01*
X269185Y348244D01*
Y351665D01*
D02*
G37*
G36*
X221941D02*
X218520D01*
X218590Y351133D01*
X218988Y350172D01*
X219622Y349346D01*
X220447Y348713D01*
X221409Y348314D01*
X221941Y348244D01*
Y351665D01*
D02*
G37*
G36*
X16535Y334913D02*
X15254Y334787D01*
X14022Y334414D01*
X12887Y333807D01*
X11892Y332990D01*
X11075Y331995D01*
X10468Y330860D01*
X10095Y329628D01*
X9968Y328346D01*
X10095Y327065D01*
X10468Y325833D01*
X11075Y324698D01*
X11892Y323703D01*
X12887Y322886D01*
X14022Y322279D01*
X15254Y321906D01*
X16535Y321779D01*
X17817Y321906D01*
X19049Y322279D01*
X20184Y322886D01*
X21179Y323703D01*
X21996Y324698D01*
X22603Y325833D01*
X22976Y327065D01*
X23102Y328346D01*
X22976Y329628D01*
X22603Y330860D01*
X21996Y331995D01*
X21179Y332990D01*
X20184Y333807D01*
X19049Y334414D01*
X17817Y334787D01*
X16535Y334913D01*
D02*
G37*
G36*
X115394Y316378D02*
X108228D01*
Y309213D01*
X115394D01*
Y316378D01*
D02*
G37*
G36*
X271693Y315394D02*
X264528D01*
Y308228D01*
X271693D01*
Y315394D01*
D02*
G37*
G36*
X260236Y315425D02*
X259301Y315301D01*
X258429Y314941D01*
X257681Y314366D01*
X257107Y313618D01*
X256746Y312746D01*
X256623Y311811D01*
X256746Y310876D01*
X257107Y310004D01*
X257681Y309256D01*
X258429Y308682D01*
X259301Y308321D01*
X260236Y308197D01*
X261172Y308321D01*
X262043Y308682D01*
X262791Y309256D01*
X263366Y310004D01*
X263727Y310876D01*
X263850Y311811D01*
X263727Y312746D01*
X263366Y313618D01*
X262791Y314366D01*
X262043Y314941D01*
X261172Y315301D01*
X260236Y315425D01*
D02*
G37*
G36*
X252362D02*
X251427Y315301D01*
X250555Y314941D01*
X249807Y314366D01*
X249233Y313618D01*
X248872Y312746D01*
X248749Y311811D01*
X248872Y310876D01*
X249233Y310004D01*
X249807Y309256D01*
X250555Y308682D01*
X251427Y308321D01*
X252362Y308197D01*
X253297Y308321D01*
X254169Y308682D01*
X254917Y309256D01*
X255492Y310004D01*
X255853Y310876D01*
X255976Y311811D01*
X255853Y312746D01*
X255492Y313618D01*
X254917Y314366D01*
X254169Y314941D01*
X253297Y315301D01*
X252362Y315425D01*
D02*
G37*
G36*
X244488D02*
X243553Y315301D01*
X242681Y314941D01*
X241933Y314366D01*
X241359Y313618D01*
X240998Y312746D01*
X240875Y311811D01*
X240998Y310876D01*
X241359Y310004D01*
X241933Y309256D01*
X242681Y308682D01*
X243553Y308321D01*
X244488Y308197D01*
X245424Y308321D01*
X246295Y308682D01*
X247043Y309256D01*
X247618Y310004D01*
X247979Y310876D01*
X248102Y311811D01*
X247979Y312746D01*
X247618Y313618D01*
X247043Y314366D01*
X246295Y314941D01*
X245424Y315301D01*
X244488Y315425D01*
D02*
G37*
G36*
X196932Y313261D02*
X195945Y313131D01*
X195026Y312750D01*
X194236Y312144D01*
X193630Y311355D01*
X193249Y310436D01*
X193120Y309449D01*
Y307874D01*
X193249Y306887D01*
X193630Y305968D01*
X194236Y305178D01*
X195026Y304573D01*
X195945Y304192D01*
X196932Y304062D01*
X197918Y304192D01*
X198838Y304573D01*
X199627Y305178D01*
X200233Y305968D01*
X200614Y306887D01*
X200744Y307874D01*
Y309449D01*
X200614Y310436D01*
X200233Y311355D01*
X199627Y312144D01*
X198838Y312750D01*
X197918Y313131D01*
X196932Y313261D01*
D02*
G37*
G36*
X158858D02*
X157872Y313131D01*
X156952Y312750D01*
X156163Y312144D01*
X155557Y311355D01*
X155176Y310436D01*
X155046Y309449D01*
Y307874D01*
X155176Y306887D01*
X155557Y305968D01*
X156163Y305178D01*
X156952Y304573D01*
X157872Y304192D01*
X158858Y304062D01*
X159845Y304192D01*
X160764Y304573D01*
X161554Y305178D01*
X162160Y305968D01*
X162540Y306887D01*
X162670Y307874D01*
Y309449D01*
X162540Y310436D01*
X162160Y311355D01*
X161554Y312144D01*
X160764Y312750D01*
X159845Y313131D01*
X158858Y313261D01*
D02*
G37*
G36*
X188664Y313271D02*
X185514D01*
X184654Y313100D01*
X183925Y312613D01*
X183438Y311884D01*
X183266Y311024D01*
Y306299D01*
X183438Y305439D01*
X183925Y304710D01*
X184654Y304222D01*
X185514Y304051D01*
X188664D01*
X189524Y304222D01*
X190253Y304710D01*
X190741Y305439D01*
X190912Y306299D01*
Y311024D01*
X190741Y311884D01*
X190253Y312613D01*
X189524Y313100D01*
X188664Y313271D01*
D02*
G37*
G36*
X145669Y329992D02*
X87402D01*
X86772Y329867D01*
X86238Y329510D01*
X77773Y321046D01*
X77416Y320512D01*
X77291Y319882D01*
Y316378D01*
X75354D01*
Y309213D01*
X82520D01*
Y311150D01*
X84554D01*
X86937Y308767D01*
Y256193D01*
X71841Y241097D01*
X71734Y241076D01*
X71135Y240676D01*
X70735Y240077D01*
X70594Y239370D01*
X70735Y238664D01*
X71135Y238064D01*
X71734Y237664D01*
X72441Y237524D01*
X73148Y237664D01*
X73747Y238064D01*
X74147Y238664D01*
X74168Y238770D01*
X89746Y254348D01*
X90103Y254882D01*
X90228Y255512D01*
Y309449D01*
X90103Y310079D01*
X89746Y310613D01*
X86400Y313959D01*
X85866Y314316D01*
X85236Y314441D01*
X82520D01*
Y316378D01*
X80583D01*
Y319200D01*
X88083Y326701D01*
X144988D01*
X147370Y324318D01*
Y313257D01*
X146581Y313100D01*
X145851Y312613D01*
X145364Y311884D01*
X145193Y311024D01*
Y306299D01*
X145364Y305439D01*
X145851Y304710D01*
X146581Y304222D01*
X147441Y304051D01*
X150591D01*
X151451Y304222D01*
X152180Y304710D01*
X152667Y305439D01*
X152838Y306299D01*
Y311024D01*
X152667Y311884D01*
X152180Y312613D01*
X151451Y313100D01*
X150662Y313257D01*
Y325000D01*
X150536Y325630D01*
X150180Y326164D01*
X146833Y329510D01*
X146299Y329867D01*
X145669Y329992D01*
D02*
G37*
G36*
X112311Y306874D02*
Y303453D01*
X115732D01*
X115662Y303985D01*
X115264Y304946D01*
X114630Y305772D01*
X113804Y306405D01*
X112843Y306804D01*
X112311Y306874D01*
D02*
G37*
G36*
X111311D02*
X110779Y306804D01*
X109818Y306405D01*
X108992Y305772D01*
X108358Y304946D01*
X107960Y303985D01*
X107890Y303453D01*
X111311D01*
Y306874D01*
D02*
G37*
G36*
X79437D02*
Y303453D01*
X82858D01*
X82788Y303985D01*
X82390Y304946D01*
X81756Y305772D01*
X80930Y306405D01*
X79969Y306804D01*
X79437Y306874D01*
D02*
G37*
G36*
X78437D02*
X77905Y306804D01*
X76944Y306405D01*
X76118Y305772D01*
X75484Y304946D01*
X75086Y303985D01*
X75016Y303453D01*
X78437D01*
Y306874D01*
D02*
G37*
G36*
X294496Y304510D02*
Y301287D01*
X297719D01*
X297655Y301768D01*
X297277Y302682D01*
X296675Y303466D01*
X295890Y304068D01*
X294976Y304447D01*
X294496Y304510D01*
D02*
G37*
G36*
X293496Y304510D02*
X293016Y304447D01*
X292102Y304068D01*
X291317Y303466D01*
X290715Y302682D01*
X290337Y301768D01*
X290274Y301287D01*
X293496D01*
Y304510D01*
D02*
G37*
G36*
X46063Y306566D02*
X45128Y306443D01*
X44256Y306082D01*
X43508Y305508D01*
X42933Y304760D01*
X42573Y303888D01*
X42449Y302953D01*
X42573Y302017D01*
X42933Y301146D01*
X43508Y300398D01*
X44256Y299823D01*
X45128Y299462D01*
X46063Y299339D01*
X46998Y299462D01*
X47870Y299823D01*
X48618Y300398D01*
X49192Y301146D01*
X49553Y302017D01*
X49677Y302953D01*
X49553Y303888D01*
X49192Y304760D01*
X48618Y305508D01*
X47870Y306082D01*
X46998Y306443D01*
X46063Y306566D01*
D02*
G37*
G36*
X115732Y302453D02*
X112311D01*
Y299032D01*
X112843Y299102D01*
X113804Y299500D01*
X114630Y300134D01*
X115264Y300959D01*
X115662Y301921D01*
X115732Y302453D01*
D02*
G37*
G36*
X111311D02*
X107890D01*
X107960Y301921D01*
X108358Y300959D01*
X108992Y300134D01*
X109818Y299500D01*
X110779Y299102D01*
X111311Y299032D01*
Y302453D01*
D02*
G37*
G36*
X82858D02*
X79437D01*
Y299032D01*
X79969Y299102D01*
X80930Y299500D01*
X81756Y300134D01*
X82390Y300959D01*
X82788Y301921D01*
X82858Y302453D01*
D02*
G37*
G36*
X78437D02*
X75016D01*
X75086Y301921D01*
X75484Y300959D01*
X76118Y300134D01*
X76944Y299500D01*
X77905Y299102D01*
X78437Y299032D01*
Y302453D01*
D02*
G37*
G36*
X297719Y300287D02*
X294496D01*
Y297065D01*
X294976Y297128D01*
X295890Y297507D01*
X296675Y298109D01*
X297277Y298893D01*
X297655Y299807D01*
X297719Y300287D01*
D02*
G37*
G36*
X293496D02*
X290274D01*
X290337Y299807D01*
X290715Y298893D01*
X291317Y298109D01*
X292102Y297507D01*
X293016Y297128D01*
X293496Y297065D01*
Y300287D01*
D02*
G37*
G36*
X338689Y301806D02*
Y296406D01*
X344090D01*
X344025Y297066D01*
X343686Y298182D01*
X343136Y299211D01*
X342396Y300113D01*
X341495Y300853D01*
X340466Y301402D01*
X339350Y301741D01*
X338689Y301806D01*
D02*
G37*
G36*
X337689Y301806D02*
X337028Y301741D01*
X335912Y301402D01*
X334883Y300853D01*
X333982Y300113D01*
X333242Y299211D01*
X332692Y298182D01*
X332353Y297066D01*
X332288Y296406D01*
X337689D01*
Y301806D01*
D02*
G37*
G36*
X140551Y295600D02*
X139845Y295459D01*
X139245Y295059D01*
X139240Y295050D01*
X118307D01*
X117866Y294962D01*
X117492Y294712D01*
X101941Y279161D01*
X101691Y278787D01*
X101604Y278346D01*
Y250871D01*
X92307Y241574D01*
X92126Y241610D01*
X91419Y241470D01*
X90820Y241070D01*
X90420Y240470D01*
X90280Y239764D01*
X90420Y239057D01*
X90820Y238458D01*
X91419Y238058D01*
X92126Y237917D01*
X92833Y238058D01*
X93432Y238458D01*
X93832Y239057D01*
X93972Y239764D01*
X93936Y239945D01*
X103570Y249579D01*
X103820Y249953D01*
X103908Y250394D01*
Y277869D01*
X118784Y292746D01*
X139046D01*
X139245Y292447D01*
X139845Y292047D01*
X140551Y291906D01*
X141258Y292047D01*
X141857Y292447D01*
X142257Y293046D01*
X142398Y293753D01*
X142257Y294460D01*
X141857Y295059D01*
X141258Y295459D01*
X140551Y295600D01*
D02*
G37*
G36*
X337689Y295406D02*
X332288D01*
X332353Y294745D01*
X332692Y293629D01*
X333242Y292600D01*
X333982Y291698D01*
X334883Y290958D01*
X335912Y290408D01*
X337028Y290070D01*
X337689Y290005D01*
Y295406D01*
D02*
G37*
G36*
X344090D02*
X338689D01*
Y290005D01*
X339350Y290070D01*
X340466Y290408D01*
X341495Y290958D01*
X342396Y291698D01*
X343136Y292600D01*
X343686Y293629D01*
X344025Y294745D01*
X344090Y295406D01*
D02*
G37*
G36*
X293996Y294360D02*
X293112Y294244D01*
X292288Y293902D01*
X291581Y293360D01*
X291038Y292652D01*
X290697Y291829D01*
X290581Y290945D01*
X290697Y290061D01*
X291038Y289237D01*
X291581Y288530D01*
X292288Y287987D01*
X293112Y287646D01*
X293996Y287530D01*
X294880Y287646D01*
X295704Y287987D01*
X296411Y288530D01*
X296954Y289237D01*
X297295Y290061D01*
X297411Y290945D01*
X297295Y291829D01*
X296954Y292652D01*
X296411Y293360D01*
X295704Y293902D01*
X294880Y294244D01*
X293996Y294360D01*
D02*
G37*
G36*
X134646Y289248D02*
X133939Y289107D01*
X133340Y288707D01*
X133237Y288554D01*
X125197D01*
X124756Y288466D01*
X124382Y288216D01*
X108240Y272075D01*
X107991Y271701D01*
X107903Y271260D01*
Y204331D01*
X107991Y203890D01*
X108240Y203516D01*
X122205Y189551D01*
X122169Y189370D01*
X122310Y188663D01*
X122710Y188064D01*
X123309Y187664D01*
X124016Y187524D01*
X124722Y187664D01*
X125321Y188064D01*
X125722Y188663D01*
X125862Y189370D01*
X125722Y190077D01*
X125321Y190676D01*
X124722Y191076D01*
X124016Y191217D01*
X123835Y191181D01*
X110207Y204808D01*
Y270783D01*
X125674Y286249D01*
X133237D01*
X133340Y286096D01*
X133939Y285696D01*
X134646Y285555D01*
X135352Y285696D01*
X135951Y286096D01*
X136352Y286695D01*
X136492Y287402D01*
X136352Y288108D01*
X135951Y288707D01*
X135352Y289107D01*
X134646Y289248D01*
D02*
G37*
G36*
X210343Y283227D02*
Y281602D01*
X211967D01*
X211897Y281953D01*
X211415Y282675D01*
X210694Y283157D01*
X210343Y283227D01*
D02*
G37*
G36*
X209343D02*
X208992Y283157D01*
X208270Y282675D01*
X207788Y281953D01*
X207718Y281602D01*
X209343D01*
Y283227D01*
D02*
G37*
G36*
X211967Y280602D02*
X210343D01*
Y278978D01*
X210694Y279048D01*
X211415Y279530D01*
X211897Y280251D01*
X211967Y280602D01*
D02*
G37*
G36*
X209343D02*
X207718D01*
X207788Y280251D01*
X208270Y279530D01*
X208992Y279048D01*
X209343Y278978D01*
Y280602D01*
D02*
G37*
G36*
X297382Y284488D02*
X290610D01*
Y277716D01*
X297382D01*
Y284488D01*
D02*
G37*
G36*
X97154Y272203D02*
Y270579D01*
X98778D01*
X98708Y270930D01*
X98226Y271651D01*
X97505Y272133D01*
X97154Y272203D01*
D02*
G37*
G36*
X96153D02*
X95802Y272133D01*
X95081Y271651D01*
X94599Y270930D01*
X94529Y270579D01*
X96153D01*
Y272203D01*
D02*
G37*
G36*
X338189Y281505D02*
X336740Y281314D01*
X335389Y280754D01*
X334230Y279865D01*
X333340Y278705D01*
X332781Y277355D01*
X332590Y275905D01*
X332781Y274456D01*
X333340Y273106D01*
X334230Y271946D01*
X335389Y271057D01*
X336740Y270497D01*
X338189Y270306D01*
X339638Y270497D01*
X340988Y271057D01*
X342148Y271946D01*
X343038Y273106D01*
X343597Y274456D01*
X343788Y275905D01*
X343597Y277355D01*
X343038Y278705D01*
X342148Y279865D01*
X340988Y280754D01*
X339638Y281314D01*
X338189Y281505D01*
D02*
G37*
G36*
X98778Y269579D02*
X97154D01*
Y267954D01*
X97505Y268024D01*
X98226Y268506D01*
X98708Y269228D01*
X98778Y269579D01*
D02*
G37*
G36*
X96153D02*
X94529D01*
X94599Y269228D01*
X95081Y268506D01*
X95802Y268024D01*
X96153Y267954D01*
Y269579D01*
D02*
G37*
G36*
X155157Y356142D02*
X147992D01*
Y348976D01*
X150423D01*
Y342520D01*
X150510Y342079D01*
X150760Y341705D01*
X171683Y320783D01*
Y296146D01*
X150366Y274830D01*
X150117Y274457D01*
X150029Y274016D01*
Y254164D01*
X149875Y254062D01*
X149475Y253463D01*
X149335Y252756D01*
X149475Y252049D01*
X149875Y251450D01*
X150475Y251050D01*
X151181Y250909D01*
X151888Y251050D01*
X152487Y251450D01*
X152887Y252049D01*
X153028Y252756D01*
X152887Y253463D01*
X152487Y254062D01*
X152333Y254164D01*
Y273538D01*
X173649Y294855D01*
X173899Y295228D01*
X173987Y295669D01*
Y321260D01*
X173899Y321701D01*
X173649Y322075D01*
X152727Y342997D01*
Y348976D01*
X155157D01*
Y356142D01*
D02*
G37*
G36*
X343740Y261457D02*
X332638D01*
Y250354D01*
X343740D01*
Y261457D01*
D02*
G37*
G36*
X202402Y382520D02*
X195236D01*
Y375354D01*
X200772D01*
X213809Y362318D01*
Y298115D01*
X202729Y287035D01*
X202479Y286661D01*
X202391Y286221D01*
Y253377D01*
X202238Y253274D01*
X201837Y252675D01*
X201697Y251969D01*
X201837Y251262D01*
X202238Y250663D01*
X202837Y250263D01*
X203543Y250122D01*
X204250Y250263D01*
X204849Y250663D01*
X205249Y251262D01*
X205390Y251969D01*
X205249Y252675D01*
X204849Y253274D01*
X204695Y253377D01*
Y285743D01*
X215775Y296823D01*
X216025Y297197D01*
X216113Y297638D01*
Y362795D01*
X216025Y363236D01*
X215775Y363610D01*
X202402Y376984D01*
Y382520D01*
D02*
G37*
G36*
X136221Y249484D02*
X135514Y249344D01*
X134915Y248943D01*
X134514Y248344D01*
X134374Y247638D01*
X134410Y247457D01*
X130681Y243728D01*
X130432Y243354D01*
X130344Y242913D01*
Y172274D01*
X130190Y172172D01*
X129790Y171573D01*
X129650Y170866D01*
X129790Y170159D01*
X130190Y169561D01*
X130344Y169458D01*
Y166619D01*
X126744Y163019D01*
X126495Y162646D01*
X126407Y162205D01*
Y97865D01*
X126253Y97762D01*
X125853Y97163D01*
X125713Y96457D01*
X125853Y95750D01*
X126253Y95151D01*
X126852Y94751D01*
X127559Y94610D01*
X128266Y94751D01*
X128865Y95151D01*
X129265Y95750D01*
X129406Y96457D01*
X129265Y97163D01*
X128865Y97762D01*
X128711Y97865D01*
Y161727D01*
X132311Y165327D01*
X132560Y165701D01*
X132648Y166142D01*
Y169458D01*
X132802Y169561D01*
X133202Y170159D01*
X133343Y170866D01*
X133202Y171573D01*
X132802Y172172D01*
X132648Y172274D01*
Y242436D01*
X136039Y245827D01*
X136221Y245791D01*
X136927Y245932D01*
X137526Y246332D01*
X137926Y246931D01*
X138067Y247638D01*
X137926Y248344D01*
X137526Y248943D01*
X136927Y249344D01*
X136221Y249484D01*
D02*
G37*
G36*
X19500Y253246D02*
X18315Y253129D01*
X17176Y252783D01*
X16126Y252222D01*
X15206Y251467D01*
X14451Y250547D01*
X13890Y249497D01*
X13544Y248358D01*
X13428Y247173D01*
X13544Y245988D01*
X13890Y244849D01*
X14451Y243799D01*
X15206Y242879D01*
X16126Y242124D01*
X17176Y241563D01*
X18315Y241217D01*
X19500Y241101D01*
X20685Y241217D01*
X21824Y241563D01*
X22874Y242124D01*
X23794Y242879D01*
X24549Y243799D01*
X25110Y244849D01*
X25456Y245988D01*
X25572Y247173D01*
X25456Y248358D01*
X25110Y249497D01*
X24549Y250547D01*
X23794Y251467D01*
X22874Y252222D01*
X21824Y252783D01*
X20685Y253129D01*
X19500Y253246D01*
D02*
G37*
G36*
X235433Y325469D02*
X234727Y325328D01*
X234127Y324928D01*
X233727Y324329D01*
X233587Y323622D01*
X233727Y322915D01*
X233787Y322825D01*
Y292126D01*
X233913Y291496D01*
X234269Y290962D01*
X286238Y238994D01*
X286772Y238637D01*
X287402Y238512D01*
X289438D01*
X289464Y238450D01*
X290006Y237743D01*
X290714Y237200D01*
X291537Y236859D01*
X292421Y236742D01*
X293305Y236859D01*
X294129Y237200D01*
X294836Y237743D01*
X295379Y238450D01*
X295720Y239274D01*
X295836Y240158D01*
X295720Y241041D01*
X295379Y241865D01*
X294836Y242572D01*
X294129Y243115D01*
X293305Y243456D01*
X292421Y243572D01*
X291537Y243456D01*
X290714Y243115D01*
X290006Y242572D01*
X289464Y241865D01*
X289438Y241803D01*
X288083D01*
X237079Y292808D01*
Y322825D01*
X237139Y322915D01*
X237280Y323622D01*
X237139Y324329D01*
X236739Y324928D01*
X236140Y325328D01*
X235433Y325469D01*
D02*
G37*
G36*
X202402Y356142D02*
X195236D01*
Y348976D01*
X200772D01*
X206722Y343027D01*
Y300477D01*
X189343Y283098D01*
X189093Y282724D01*
X189005Y282283D01*
Y236841D01*
X188852Y236739D01*
X188452Y236140D01*
X188311Y235433D01*
X188452Y234727D01*
X188852Y234127D01*
X189451Y233727D01*
X190157Y233587D01*
X190864Y233727D01*
X191463Y234127D01*
X191863Y234727D01*
X192004Y235433D01*
X191863Y236140D01*
X191463Y236739D01*
X191309Y236841D01*
Y281806D01*
X208689Y299185D01*
X208938Y299559D01*
X209026Y300000D01*
Y343504D01*
X208938Y343945D01*
X208689Y344319D01*
X202402Y350606D01*
Y356142D01*
D02*
G37*
G36*
X155157Y382520D02*
X147992D01*
Y375354D01*
X153528D01*
X160265Y368617D01*
Y341732D01*
X160353Y341291D01*
X160603Y340918D01*
X176801Y324720D01*
Y270950D01*
X156174Y250323D01*
X155924Y249949D01*
X155836Y249508D01*
Y235759D01*
X155683Y235656D01*
X155282Y235057D01*
X155142Y234350D01*
X155282Y233644D01*
X155683Y233045D01*
X156282Y232644D01*
X156988Y232504D01*
X157695Y232644D01*
X158294Y233045D01*
X158694Y233644D01*
X158835Y234350D01*
X158694Y235057D01*
X158294Y235656D01*
X158140Y235759D01*
Y249031D01*
X178767Y269658D01*
X179017Y270032D01*
X179105Y270472D01*
Y325197D01*
X179017Y325638D01*
X178767Y326011D01*
X162569Y342210D01*
Y369094D01*
X162482Y369535D01*
X162232Y369909D01*
X155157Y376984D01*
Y382520D01*
D02*
G37*
G36*
X292921Y234037D02*
Y230815D01*
X296144D01*
X296080Y231295D01*
X295702Y232209D01*
X295100Y232994D01*
X294315Y233596D01*
X293402Y233974D01*
X292921Y234037D01*
D02*
G37*
G36*
X291921Y234037D02*
X291441Y233974D01*
X290527Y233596D01*
X289742Y232994D01*
X289141Y232209D01*
X288762Y231295D01*
X288699Y230815D01*
X291921D01*
Y234037D01*
D02*
G37*
G36*
X296144Y229815D02*
X292921D01*
Y226592D01*
X293402Y226656D01*
X294315Y227034D01*
X295100Y227636D01*
X295702Y228421D01*
X296080Y229334D01*
X296144Y229815D01*
D02*
G37*
G36*
X291921D02*
X288699D01*
X288762Y229334D01*
X289141Y228421D01*
X289742Y227636D01*
X290527Y227034D01*
X291441Y226656D01*
X291921Y226592D01*
Y229815D01*
D02*
G37*
G36*
X40945Y240823D02*
X40238Y240682D01*
X39639Y240282D01*
X39239Y239683D01*
X39098Y238976D01*
X39239Y238270D01*
X39299Y238180D01*
Y228386D01*
X38740D01*
Y225157D01*
X41180D01*
X41339Y225126D01*
X41498Y225157D01*
X43937D01*
Y228386D01*
X42591D01*
Y238180D01*
X42651Y238270D01*
X42791Y238976D01*
X42651Y239683D01*
X42250Y240282D01*
X41651Y240682D01*
X40945Y240823D01*
D02*
G37*
G36*
X18130Y231630D02*
X10870D01*
Y224370D01*
X18130D01*
Y231630D01*
D02*
G37*
G36*
X43937Y224449D02*
X38740D01*
Y221220D01*
X43937D01*
Y224449D01*
D02*
G37*
G36*
X179921Y224287D02*
X179215Y224147D01*
X178616Y223747D01*
X178215Y223148D01*
X178075Y222441D01*
X178111Y222260D01*
X171332Y215481D01*
X171082Y215107D01*
X170995Y214667D01*
Y151015D01*
X170841Y150912D01*
X170441Y150313D01*
X170300Y149606D01*
X170441Y148900D01*
X170841Y148301D01*
X171440Y147900D01*
X172147Y147760D01*
X172854Y147900D01*
X173452Y148301D01*
X173853Y148900D01*
X173993Y149606D01*
X173853Y150313D01*
X173452Y150912D01*
X173299Y151015D01*
Y214189D01*
X179740Y220631D01*
X179921Y220594D01*
X180628Y220735D01*
X181227Y221135D01*
X181627Y221734D01*
X181768Y222441D01*
X181627Y223148D01*
X181227Y223747D01*
X180628Y224147D01*
X179921Y224287D01*
D02*
G37*
G36*
X145579Y222203D02*
Y220579D01*
X147203D01*
X147133Y220930D01*
X146651Y221651D01*
X145930Y222133D01*
X145579Y222203D01*
D02*
G37*
G36*
X144579D02*
X144228Y222133D01*
X143506Y221651D01*
X143024Y220930D01*
X142954Y220579D01*
X144579D01*
Y222203D01*
D02*
G37*
G36*
X147203Y219579D02*
X145579D01*
Y217954D01*
X145930Y218024D01*
X146651Y218506D01*
X147133Y219228D01*
X147203Y219579D01*
D02*
G37*
G36*
X144579D02*
X142954D01*
X143024Y219228D01*
X143506Y218506D01*
X144228Y218024D01*
X144579Y217954D01*
Y219579D01*
D02*
G37*
G36*
X24500Y231661D02*
X23552Y231537D01*
X22669Y231171D01*
X21911Y230589D01*
X21329Y229831D01*
X20964Y228948D01*
X20839Y228000D01*
X20964Y227052D01*
X21329Y226169D01*
X21911Y225411D01*
X22669Y224829D01*
X23348Y224548D01*
Y221452D01*
X22669Y221171D01*
X21911Y220589D01*
X21329Y219831D01*
X20964Y218948D01*
X20839Y218000D01*
X20964Y217052D01*
X21329Y216169D01*
X21911Y215411D01*
X22669Y214829D01*
X23552Y214463D01*
X24500Y214339D01*
X25448Y214463D01*
X26331Y214829D01*
X27089Y215411D01*
X27671Y216169D01*
X28036Y217052D01*
X28069Y217297D01*
X38740D01*
Y217284D01*
X43937D01*
Y220512D01*
X38740D01*
Y219601D01*
X27766D01*
X27671Y219831D01*
X27089Y220589D01*
X26331Y221171D01*
X25652Y221452D01*
Y224548D01*
X26331Y224829D01*
X27089Y225411D01*
X27671Y226169D01*
X28036Y227052D01*
X28161Y228000D01*
X28036Y228948D01*
X27671Y229831D01*
X27089Y230589D01*
X26331Y231171D01*
X25448Y231537D01*
X24500Y231661D01*
D02*
G37*
G36*
X295807Y223858D02*
X289035D01*
Y217087D01*
X295807D01*
Y223858D01*
D02*
G37*
G36*
X228165Y218232D02*
X225697D01*
Y216748D01*
X228165D01*
Y218232D01*
D02*
G37*
G36*
X224697D02*
X222228D01*
Y216748D01*
X224697D01*
Y218232D01*
D02*
G37*
G36*
X14500Y221661D02*
X13552Y221536D01*
X12669Y221171D01*
X11911Y220589D01*
X11329Y219831D01*
X10964Y218948D01*
X10839Y218000D01*
X10964Y217052D01*
X11329Y216169D01*
X11911Y215411D01*
X12669Y214829D01*
X13552Y214463D01*
X14500Y214339D01*
X15448Y214463D01*
X16331Y214829D01*
X17089Y215411D01*
X17671Y216169D01*
X18036Y217052D01*
X18161Y218000D01*
X18036Y218948D01*
X17671Y219831D01*
X17089Y220589D01*
X16331Y221171D01*
X15448Y221536D01*
X14500Y221661D01*
D02*
G37*
G36*
X216043Y215807D02*
X208760D01*
Y208524D01*
X216043D01*
Y211159D01*
X222598D01*
Y210697D01*
X227795D01*
Y213764D01*
X227795Y213925D01*
X228155Y214264D01*
X228165D01*
Y215748D01*
X225197D01*
X222228D01*
Y214264D01*
X222228D01*
X222552Y213894D01*
X222550Y213865D01*
X222223Y213463D01*
X216043D01*
Y215807D01*
D02*
G37*
G36*
X25000Y211969D02*
Y208500D01*
X28469D01*
X28397Y209044D01*
X27994Y210017D01*
X27353Y210853D01*
X26517Y211494D01*
X25544Y211897D01*
X25000Y211969D01*
D02*
G37*
G36*
X24000D02*
X23456Y211897D01*
X22483Y211494D01*
X21647Y210853D01*
X21006Y210017D01*
X20603Y209044D01*
X20531Y208500D01*
X24000D01*
Y211969D01*
D02*
G37*
G36*
X262402Y215839D02*
X261451Y215713D01*
X260565Y215346D01*
X259804Y214763D01*
X259221Y214002D01*
X258854Y213116D01*
X258728Y212165D01*
X258854Y211215D01*
X259221Y210329D01*
X259804Y209568D01*
X260565Y208984D01*
X261451Y208617D01*
X262402Y208492D01*
X263352Y208617D01*
X264238Y208984D01*
X264999Y209568D01*
X265583Y210329D01*
X265950Y211215D01*
X266075Y212165D01*
X265950Y213116D01*
X265583Y214002D01*
X264999Y214763D01*
X264238Y215346D01*
X263352Y215713D01*
X262402Y215839D01*
D02*
G37*
G36*
X200606Y208784D02*
X198138D01*
Y207299D01*
X200606D01*
Y208784D01*
D02*
G37*
G36*
X197138D02*
X194669D01*
Y207299D01*
X197138D01*
Y208784D01*
D02*
G37*
G36*
X153543Y331374D02*
X152837Y331234D01*
X152238Y330833D01*
X151837Y330234D01*
X151697Y329528D01*
X151837Y328821D01*
X152238Y328222D01*
X152837Y327822D01*
X153323Y327725D01*
X166171Y314877D01*
Y300871D01*
X123201Y257901D01*
X122951Y257527D01*
X122864Y257087D01*
Y205877D01*
X122710Y205775D01*
X122310Y205176D01*
X122169Y204469D01*
X122310Y203763D01*
X122710Y203163D01*
X123309Y202763D01*
X124016Y202623D01*
X124722Y202763D01*
X125321Y203163D01*
X125722Y203763D01*
X125862Y204469D01*
X125722Y205176D01*
X125321Y205775D01*
X125168Y205877D01*
Y256609D01*
X168138Y299579D01*
X168387Y299953D01*
X168475Y300394D01*
Y315354D01*
X168387Y315795D01*
X168138Y316169D01*
X155288Y329018D01*
X155390Y329528D01*
X155249Y330234D01*
X154849Y330833D01*
X154250Y331234D01*
X153543Y331374D01*
D02*
G37*
G36*
X214567Y258933D02*
X213860Y258792D01*
X213261Y258392D01*
X212861Y257793D01*
X212720Y257087D01*
X212861Y256380D01*
X213261Y255781D01*
X213415Y255678D01*
Y241816D01*
X180043Y208443D01*
X179793Y208070D01*
X179705Y207629D01*
Y205688D01*
X179551Y205586D01*
X179151Y204987D01*
X179011Y204280D01*
X179151Y203573D01*
X179551Y202974D01*
X180150Y202574D01*
X180857Y202433D01*
X181564Y202574D01*
X182163Y202974D01*
X182563Y203573D01*
X182704Y204280D01*
X182563Y204987D01*
X182163Y205586D01*
X182009Y205688D01*
Y207152D01*
X215382Y240524D01*
X215631Y240898D01*
X215719Y241339D01*
Y255678D01*
X215873Y255781D01*
X216273Y256380D01*
X216413Y257087D01*
X216273Y257793D01*
X215873Y258392D01*
X215273Y258792D01*
X214567Y258933D01*
D02*
G37*
G36*
X73138Y200274D02*
Y198650D01*
X74762D01*
X74692Y199001D01*
X74210Y199722D01*
X73489Y200204D01*
X73138Y200274D01*
D02*
G37*
G36*
X72138D02*
X71787Y200204D01*
X71065Y199722D01*
X70583Y199001D01*
X70513Y198650D01*
X72138D01*
Y200274D01*
D02*
G37*
G36*
X262402Y205838D02*
X261451Y205713D01*
X260565Y205346D01*
X259804Y204763D01*
X259221Y204002D01*
X258854Y203116D01*
X258728Y202165D01*
X258854Y201215D01*
X259221Y200329D01*
X259804Y199568D01*
X260565Y198984D01*
X261451Y198617D01*
X262402Y198492D01*
X263352Y198617D01*
X264238Y198984D01*
X264999Y199568D01*
X265583Y200329D01*
X265950Y201215D01*
X266075Y202165D01*
X265950Y203116D01*
X265583Y204002D01*
X264999Y204763D01*
X264238Y205346D01*
X263352Y205713D01*
X262402Y205838D01*
D02*
G37*
G36*
X200606Y206299D02*
X197638D01*
X194669D01*
Y204815D01*
X194680D01*
X195039Y204476D01*
X195039Y204315D01*
Y201248D01*
X200236D01*
Y201535D01*
X208811D01*
X208854Y201215D01*
X209221Y200329D01*
X209804Y199568D01*
X210565Y198984D01*
X211451Y198617D01*
X212402Y198492D01*
X213352Y198617D01*
X214238Y198984D01*
X214999Y199568D01*
X215583Y200329D01*
X215950Y201215D01*
X216075Y202165D01*
X215950Y203116D01*
X215583Y204002D01*
X214999Y204763D01*
X214238Y205346D01*
X213352Y205713D01*
X212402Y205838D01*
X211451Y205713D01*
X210565Y205346D01*
X209804Y204763D01*
X209221Y204002D01*
X209153Y203839D01*
X200590D01*
X200388Y204040D01*
X200395Y204626D01*
X200596Y204815D01*
X200606D01*
Y206299D01*
D02*
G37*
G36*
X258268Y252634D02*
X257561Y252493D01*
X256962Y252093D01*
X256562Y251494D01*
X256421Y250787D01*
X256562Y250081D01*
X256962Y249482D01*
X257116Y249379D01*
Y228036D01*
X253460Y224380D01*
X203543D01*
X203102Y224293D01*
X202729Y224043D01*
X189737Y211051D01*
X189487Y210677D01*
X189399Y210236D01*
Y205989D01*
X181019Y197609D01*
X179611D01*
X177530Y199690D01*
Y210940D01*
X189004Y222414D01*
X189253Y222787D01*
X189341Y223228D01*
Y227559D01*
X189253Y228000D01*
X189004Y228374D01*
X180286Y237091D01*
Y245669D01*
X180198Y246110D01*
X179948Y246484D01*
X176405Y250027D01*
X176031Y250277D01*
X175591Y250365D01*
X164567D01*
X164126Y250277D01*
X163752Y250027D01*
X159815Y246090D01*
X159566Y245717D01*
X159478Y245276D01*
Y228824D01*
X148158Y217504D01*
X147977Y217540D01*
X147270Y217399D01*
X146671Y216999D01*
X146271Y216400D01*
X146130Y215693D01*
X146271Y214987D01*
X146671Y214387D01*
X147270Y213987D01*
X147977Y213847D01*
X148683Y213987D01*
X149282Y214387D01*
X149683Y214987D01*
X149823Y215693D01*
X149787Y215874D01*
X161445Y227532D01*
X161694Y227906D01*
X161782Y228346D01*
Y244798D01*
X165044Y248060D01*
X175113D01*
X177982Y245192D01*
Y236614D01*
X178069Y236173D01*
X178319Y235800D01*
X187037Y227082D01*
Y223706D01*
X175563Y212232D01*
X175314Y211858D01*
X175226Y211417D01*
Y199213D01*
X175314Y198772D01*
X175563Y198398D01*
X178319Y195642D01*
X178693Y195392D01*
X179134Y195305D01*
X181496D01*
X181937Y195392D01*
X182311Y195642D01*
X191366Y204697D01*
X191615Y205071D01*
X191703Y205512D01*
Y209759D01*
X204021Y222076D01*
X253937D01*
X254378Y222164D01*
X254752Y222414D01*
X259082Y226744D01*
X259332Y227118D01*
X259420Y227559D01*
Y249379D01*
X259573Y249482D01*
X259974Y250081D01*
X260114Y250787D01*
X259974Y251494D01*
X259573Y252093D01*
X258974Y252493D01*
X258268Y252634D01*
D02*
G37*
G36*
X140551Y324287D02*
X139845Y324147D01*
X139245Y323747D01*
X138845Y323148D01*
X138705Y322441D01*
X138845Y321734D01*
X139245Y321135D01*
X139399Y321033D01*
Y303543D01*
X139487Y303102D01*
X139737Y302729D01*
X145305Y297161D01*
Y290635D01*
X115721Y261051D01*
X115471Y260677D01*
X115383Y260236D01*
Y204331D01*
X115471Y203890D01*
X115721Y203516D01*
X120839Y198398D01*
X121213Y198148D01*
X121654Y198061D01*
X122214D01*
X122316Y197907D01*
X122915Y197507D01*
X123622Y197366D01*
X124329Y197507D01*
X124928Y197907D01*
X125328Y198506D01*
X125469Y199213D01*
X125328Y199919D01*
X124928Y200518D01*
X124329Y200919D01*
X123622Y201059D01*
X122915Y200919D01*
X122316Y200518D01*
X121820Y200675D01*
X117687Y204808D01*
Y259759D01*
X147271Y289343D01*
X147521Y289717D01*
X147609Y290158D01*
Y297638D01*
X147521Y298079D01*
X147271Y298452D01*
X141703Y304021D01*
Y321033D01*
X141857Y321135D01*
X142257Y321734D01*
X142398Y322441D01*
X142257Y323148D01*
X141857Y323747D01*
X141258Y324147D01*
X140551Y324287D01*
D02*
G37*
G36*
X200236Y200539D02*
X195039D01*
Y200077D01*
X192913D01*
X192473Y199990D01*
X192099Y199740D01*
X189343Y196984D01*
X189093Y196610D01*
X189005Y196169D01*
Y180421D01*
Y175818D01*
X188852Y175715D01*
X188452Y175116D01*
X188311Y174409D01*
X188452Y173703D01*
X188852Y173104D01*
X189005Y173001D01*
Y161130D01*
X189093Y160689D01*
X189343Y160315D01*
X191705Y157953D01*
X192079Y157703D01*
X192520Y157616D01*
X195039D01*
Y157154D01*
X200236D01*
Y160382D01*
X195039D01*
Y159920D01*
X192997D01*
X191309Y161607D01*
Y173001D01*
X191463Y173104D01*
X191863Y173703D01*
X192004Y174409D01*
X191863Y175116D01*
X191463Y175715D01*
X191309Y175818D01*
Y177038D01*
X191432Y177152D01*
X191809Y177364D01*
X192126Y177301D01*
X195039D01*
Y176839D01*
X200236D01*
Y180067D01*
X195039D01*
Y179605D01*
X192603D01*
X191309Y180898D01*
Y195692D01*
X193391Y197773D01*
X195039D01*
Y197311D01*
X200236D01*
Y200539D01*
D02*
G37*
G36*
X228165Y198547D02*
X225697D01*
Y197063D01*
X228165D01*
Y198547D01*
D02*
G37*
G36*
X224697D02*
X222228D01*
Y197063D01*
X224697D01*
Y198547D01*
D02*
G37*
G36*
X74762Y197650D02*
X73138D01*
Y196025D01*
X73489Y196095D01*
X74210Y196577D01*
X74692Y197299D01*
X74762Y197650D01*
D02*
G37*
G36*
X72138D02*
X70513D01*
X70583Y197299D01*
X71065Y196577D01*
X71787Y196095D01*
X72138Y196025D01*
Y197650D01*
D02*
G37*
G36*
X228165Y196063D02*
X225197D01*
X222228D01*
Y194579D01*
X222239D01*
X222598Y194240D01*
Y194220D01*
X222256Y193720D01*
X215699D01*
X215583Y194002D01*
X214999Y194763D01*
X214238Y195346D01*
X213352Y195713D01*
X212402Y195838D01*
X211451Y195713D01*
X210565Y195346D01*
X209804Y194763D01*
X209221Y194002D01*
X208854Y193116D01*
X208728Y192165D01*
X208854Y191215D01*
X209221Y190329D01*
X209804Y189568D01*
X210565Y188984D01*
X211451Y188617D01*
X212402Y188492D01*
X213352Y188617D01*
X214238Y188984D01*
X214999Y189568D01*
X215583Y190329D01*
X215950Y191215D01*
X215976Y191416D01*
X222598D01*
Y191012D01*
X227795D01*
Y194079D01*
X227795Y194240D01*
X228155Y194579D01*
X228165D01*
Y196063D01*
D02*
G37*
G36*
X100000Y214126D02*
X99293Y213985D01*
X98694Y213585D01*
X98294Y212986D01*
X98154Y212280D01*
X98294Y211573D01*
X98694Y210974D01*
X98848Y210871D01*
Y206693D01*
X98936Y206252D01*
X99185Y205878D01*
X112757Y192307D01*
X112720Y192126D01*
X112861Y191419D01*
X113261Y190820D01*
X113860Y190420D01*
X114567Y190279D01*
X115274Y190420D01*
X115873Y190820D01*
X116273Y191419D01*
X116413Y192126D01*
X116273Y192833D01*
X115873Y193432D01*
X115274Y193832D01*
X114567Y193973D01*
X114386Y193936D01*
X101152Y207170D01*
Y210871D01*
X101306Y210974D01*
X101706Y211573D01*
X101847Y212280D01*
X101706Y212986D01*
X101306Y213585D01*
X100707Y213985D01*
X100000Y214126D01*
D02*
G37*
G36*
X293307Y197215D02*
X292397Y197095D01*
X291550Y196744D01*
X290822Y196186D01*
X290264Y195458D01*
X289913Y194610D01*
X289793Y193701D01*
X289913Y192791D01*
X290264Y191944D01*
X290822Y191216D01*
X291550Y190657D01*
X292397Y190306D01*
X293307Y190187D01*
X294217Y190306D01*
X295064Y190657D01*
X295792Y191216D01*
X296351Y191944D01*
X296702Y192791D01*
X296821Y193701D01*
X296702Y194610D01*
X296351Y195458D01*
X295792Y196186D01*
X295064Y196744D01*
X294217Y197095D01*
X293307Y197215D01*
D02*
G37*
G36*
X227795Y209988D02*
X222598D01*
Y206760D01*
X227795D01*
Y207222D01*
X229050D01*
X230738Y205535D01*
Y191135D01*
X229444Y189841D01*
X227795D01*
Y190303D01*
X222598D01*
Y187075D01*
X227795D01*
Y187537D01*
X229921D01*
X230238Y187600D01*
X230615Y187389D01*
X230738Y187274D01*
Y181830D01*
X230584Y181727D01*
X230184Y181128D01*
X230043Y180421D01*
X230184Y179715D01*
X230584Y179116D01*
X230738Y179013D01*
Y170662D01*
X229838Y169762D01*
X228189D01*
Y170224D01*
X222992D01*
Y166996D01*
X228189D01*
Y167458D01*
X230315D01*
X230756Y167546D01*
X231130Y167796D01*
X232704Y169370D01*
X232954Y169744D01*
X233042Y170185D01*
Y179013D01*
X233195Y179116D01*
X233596Y179715D01*
X233736Y180421D01*
X233596Y181128D01*
X233195Y181727D01*
X233042Y181830D01*
Y190657D01*
Y206012D01*
X232954Y206453D01*
X232704Y206826D01*
X230342Y209189D01*
X229968Y209438D01*
X229527Y209526D01*
X227795D01*
Y209988D01*
D02*
G37*
G36*
X15000Y191969D02*
Y188500D01*
X18469D01*
X18397Y189044D01*
X17994Y190017D01*
X17353Y190853D01*
X16517Y191494D01*
X15544Y191897D01*
X15000Y191969D01*
D02*
G37*
G36*
X14000D02*
X13456Y191897D01*
X12483Y191494D01*
X11647Y190853D01*
X11006Y190017D01*
X10603Y189044D01*
X10531Y188500D01*
X14000D01*
Y191969D01*
D02*
G37*
G36*
X262402Y195838D02*
X261451Y195713D01*
X260565Y195346D01*
X259804Y194763D01*
X259221Y194002D01*
X258854Y193116D01*
X258728Y192165D01*
X258854Y191215D01*
X259221Y190329D01*
X259804Y189568D01*
X260565Y188984D01*
X261451Y188617D01*
X262402Y188492D01*
X263352Y188617D01*
X264238Y188984D01*
X264999Y189568D01*
X265583Y190329D01*
X265950Y191215D01*
X266075Y192165D01*
X265950Y193116D01*
X265583Y194002D01*
X264999Y194763D01*
X264238Y195346D01*
X263352Y195713D01*
X262402Y195838D01*
D02*
G37*
G36*
X200606Y188311D02*
X198138D01*
Y186827D01*
X200606D01*
Y188311D01*
D02*
G37*
G36*
X197138D02*
X194669D01*
Y186827D01*
X197138D01*
Y188311D01*
D02*
G37*
G36*
X145579Y187361D02*
Y185736D01*
X147203D01*
X147133Y186087D01*
X146651Y186809D01*
X145930Y187291D01*
X145579Y187361D01*
D02*
G37*
G36*
X144579D02*
X144228Y187291D01*
X143506Y186809D01*
X143024Y186087D01*
X142954Y185736D01*
X144579D01*
Y187361D01*
D02*
G37*
G36*
X158661Y189341D02*
X153543D01*
X153102Y189253D01*
X152729Y189004D01*
X149579Y185854D01*
X149329Y185480D01*
X149242Y185039D01*
Y169375D01*
X135012Y155145D01*
X134762Y154772D01*
X134675Y154331D01*
Y137795D01*
X134762Y137354D01*
X135012Y136981D01*
X137824Y134169D01*
Y115354D01*
X137912Y114913D01*
X138162Y114540D01*
X140918Y111784D01*
X141291Y111534D01*
X141732Y111446D01*
X173731D01*
X173922Y110984D01*
X168420Y105483D01*
X151969D01*
X151528Y105395D01*
X151154Y105145D01*
X147217Y101208D01*
X146967Y100835D01*
X146879Y100394D01*
Y93784D01*
X143224Y90128D01*
X139597D01*
X139495Y90282D01*
X138896Y90682D01*
X138189Y90823D01*
X137482Y90682D01*
X136883Y90282D01*
X136483Y89683D01*
X136343Y88976D01*
X136483Y88270D01*
X136883Y87671D01*
X137482Y87270D01*
X138189Y87130D01*
X138896Y87270D01*
X139495Y87671D01*
X139597Y87824D01*
X143701D01*
X144142Y87912D01*
X144515Y88162D01*
X148846Y92493D01*
X149096Y92866D01*
X149184Y93307D01*
Y99916D01*
X152446Y103179D01*
X168898D01*
X169339Y103266D01*
X169712Y103516D01*
X176984Y110788D01*
X177165Y110752D01*
X177872Y110892D01*
X178471Y111293D01*
X178871Y111892D01*
X179012Y112598D01*
X178871Y113305D01*
X178471Y113904D01*
X177872Y114304D01*
X177165Y114445D01*
X176459Y114304D01*
X175860Y113904D01*
X175757Y113751D01*
X146847D01*
X146701Y114251D01*
X147133Y114897D01*
X147203Y115248D01*
X142954D01*
X143024Y114897D01*
X143456Y114251D01*
X143311Y113751D01*
X142209D01*
X140128Y115831D01*
Y134646D01*
X140041Y135087D01*
X139791Y135460D01*
X136979Y138273D01*
Y153853D01*
X151208Y168083D01*
X151458Y168457D01*
X151546Y168898D01*
Y184562D01*
X154021Y187037D01*
X158032D01*
X158391Y186623D01*
X158390Y186614D01*
X158530Y185907D01*
X158931Y185309D01*
X159530Y184908D01*
X160236Y184768D01*
X160943Y184908D01*
X161542Y185309D01*
X161942Y185907D01*
X162083Y186614D01*
X161942Y187321D01*
X161542Y187920D01*
X160943Y188320D01*
X160236Y188461D01*
X160055Y188425D01*
X159476Y189004D01*
X159102Y189253D01*
X158661Y189341D01*
D02*
G37*
G36*
X18469Y187500D02*
X15000D01*
Y184031D01*
X15544Y184103D01*
X16517Y184506D01*
X17353Y185147D01*
X17994Y185983D01*
X18397Y186956D01*
X18469Y187500D01*
D02*
G37*
G36*
X14000D02*
X10531D01*
X10603Y186956D01*
X11006Y185983D01*
X11647Y185147D01*
X12483Y184506D01*
X13456Y184103D01*
X14000Y184031D01*
Y187500D01*
D02*
G37*
G36*
X147203Y184736D02*
X145579D01*
Y183112D01*
X145930Y183182D01*
X146651Y183664D01*
X147133Y184385D01*
X147203Y184736D01*
D02*
G37*
G36*
X144579D02*
X142954D01*
X143024Y184385D01*
X143506Y183664D01*
X144228Y183182D01*
X144579Y183112D01*
Y184736D01*
D02*
G37*
G36*
X293307Y187373D02*
X292397Y187253D01*
X291550Y186902D01*
X290822Y186343D01*
X290264Y185615D01*
X289913Y184768D01*
X289793Y183858D01*
X289913Y182949D01*
X290264Y182101D01*
X290822Y181373D01*
X291550Y180815D01*
X292397Y180464D01*
X293307Y180344D01*
X294217Y180464D01*
X295064Y180815D01*
X295792Y181373D01*
X296351Y182101D01*
X296702Y182949D01*
X296821Y183858D01*
X296702Y184768D01*
X296351Y185615D01*
X295792Y186343D01*
X295064Y186902D01*
X294217Y187253D01*
X293307Y187373D01*
D02*
G37*
G36*
X262402Y185838D02*
X261451Y185713D01*
X260565Y185346D01*
X259804Y184763D01*
X259221Y184002D01*
X258854Y183116D01*
X258728Y182165D01*
X258854Y181215D01*
X259221Y180329D01*
X259804Y179568D01*
X260565Y178984D01*
X261451Y178617D01*
X262402Y178492D01*
X263352Y178617D01*
X264238Y178984D01*
X264999Y179568D01*
X265583Y180329D01*
X265950Y181215D01*
X266075Y182165D01*
X265950Y183116D01*
X265583Y184002D01*
X264999Y184763D01*
X264238Y185346D01*
X263352Y185713D01*
X262402Y185838D01*
D02*
G37*
G36*
X197638Y186327D02*
D01*
Y185827D01*
X194669D01*
Y184343D01*
X194680D01*
X195039Y184004D01*
X195039Y183843D01*
Y180776D01*
X200236D01*
Y181298D01*
X208843D01*
X208854Y181215D01*
X209221Y180329D01*
X209804Y179568D01*
X210565Y178984D01*
X211451Y178617D01*
X212402Y178492D01*
X213352Y178617D01*
X214238Y178984D01*
X214999Y179568D01*
X215583Y180329D01*
X215950Y181215D01*
X216075Y182165D01*
X215950Y183116D01*
X215583Y184002D01*
X214999Y184763D01*
X214238Y185346D01*
X213352Y185713D01*
X212402Y185838D01*
X211451Y185713D01*
X210565Y185346D01*
X209804Y184763D01*
X209221Y184002D01*
X209055Y183602D01*
X200590D01*
X200517Y183675D01*
X200490Y184120D01*
X200606Y184343D01*
X200606D01*
Y185827D01*
X197638D01*
Y186327D01*
D02*
G37*
G36*
X228559Y178469D02*
X226091D01*
Y176984D01*
X228559D01*
Y178469D01*
D02*
G37*
G36*
X225091D02*
X222622D01*
Y176984D01*
X225091D01*
Y178469D01*
D02*
G37*
G36*
X140157Y242004D02*
X139451Y241863D01*
X138852Y241463D01*
X138452Y240864D01*
X138311Y240158D01*
X138452Y239451D01*
X138852Y238852D01*
X139005Y238749D01*
Y173228D01*
Y168731D01*
X138852Y168629D01*
X138452Y168029D01*
X138311Y167323D01*
X138347Y167142D01*
X130288Y159082D01*
X130038Y158709D01*
X129950Y158268D01*
Y133465D01*
X130038Y133024D01*
X130288Y132650D01*
X130288Y132650D01*
X133968Y128970D01*
Y96371D01*
X133815Y96268D01*
X133414Y95669D01*
X133274Y94963D01*
X133414Y94256D01*
X133815Y93657D01*
X134414Y93257D01*
X135120Y93116D01*
X135827Y93257D01*
X136426Y93657D01*
X136826Y94256D01*
X136967Y94963D01*
X136931Y95144D01*
X149690Y107903D01*
X166702D01*
X166805Y107749D01*
X167404Y107349D01*
X168110Y107209D01*
X168817Y107349D01*
X169416Y107749D01*
X169816Y108349D01*
X169957Y109055D01*
X169816Y109762D01*
X169416Y110361D01*
X168817Y110761D01*
X168110Y110902D01*
X167404Y110761D01*
X166805Y110361D01*
X166702Y110207D01*
X149213D01*
X148772Y110119D01*
X148398Y109870D01*
X136734Y98206D01*
X136272Y98397D01*
Y129401D01*
X136257Y129481D01*
X136177Y129884D01*
X136158Y129912D01*
X135902Y130296D01*
X135549Y130647D01*
X132254Y133942D01*
Y157791D01*
X139976Y165512D01*
X140157Y165476D01*
X140864Y165617D01*
X141463Y166017D01*
X141863Y166616D01*
X142004Y167323D01*
X141863Y168029D01*
X141463Y168629D01*
X141309Y168731D01*
Y172751D01*
X145488Y176930D01*
X145669Y176894D01*
X146376Y177034D01*
X146975Y177435D01*
X147375Y178033D01*
X147516Y178740D01*
X147375Y179447D01*
X146975Y180046D01*
X146376Y180446D01*
X145669Y180587D01*
X144963Y180446D01*
X144364Y180046D01*
X143963Y179447D01*
X143823Y178740D01*
X143859Y178559D01*
X141771Y176472D01*
X141309Y176663D01*
Y238749D01*
X141463Y238852D01*
X141863Y239451D01*
X142004Y240158D01*
X141863Y240864D01*
X141463Y241463D01*
X140864Y241863D01*
X140157Y242004D01*
D02*
G37*
G36*
X116535Y361295D02*
X115829Y361155D01*
X115230Y360754D01*
X114830Y360155D01*
X114689Y359449D01*
X114830Y358742D01*
X115230Y358143D01*
X115383Y358040D01*
Y348902D01*
X110153Y343672D01*
X79921D01*
X79480Y343584D01*
X79107Y343334D01*
X64146Y328374D01*
X63896Y328000D01*
X63809Y327559D01*
Y235039D01*
X63896Y234598D01*
X64146Y234225D01*
X117352Y181019D01*
Y179361D01*
X117198Y179258D01*
X116798Y178659D01*
X116657Y177953D01*
X116798Y177246D01*
X117198Y176647D01*
X117797Y176247D01*
X118504Y176106D01*
X119211Y176247D01*
X119810Y176647D01*
X120210Y177246D01*
X120350Y177953D01*
X120210Y178659D01*
X119810Y179258D01*
X119656Y179361D01*
Y181496D01*
X119568Y181937D01*
X119319Y182311D01*
X66113Y235517D01*
Y327082D01*
X80398Y341368D01*
X110630D01*
X111071Y341455D01*
X111445Y341705D01*
X117350Y347611D01*
X117600Y347984D01*
X117687Y348425D01*
Y358040D01*
X117841Y358143D01*
X118241Y358742D01*
X118382Y359449D01*
X118241Y360155D01*
X117841Y360754D01*
X117242Y361155D01*
X116535Y361295D01*
D02*
G37*
G36*
X228559Y175984D02*
X225590D01*
X222622D01*
Y174500D01*
X222622D01*
X222970Y174140D01*
X222970Y174132D01*
X222624Y173681D01*
X215716D01*
X215583Y174002D01*
X214999Y174763D01*
X214238Y175346D01*
X213352Y175713D01*
X212402Y175838D01*
X211451Y175713D01*
X210565Y175346D01*
X209804Y174763D01*
X209221Y174002D01*
X208854Y173116D01*
X208728Y172165D01*
X208854Y171215D01*
X209221Y170329D01*
X209804Y169568D01*
X210565Y168984D01*
X211451Y168617D01*
X212402Y168492D01*
X213352Y168617D01*
X214238Y168984D01*
X214999Y169568D01*
X215583Y170329D01*
X215950Y171215D01*
X215971Y171377D01*
X222992D01*
Y170933D01*
X228189D01*
Y174000D01*
X228189Y174161D01*
X228549Y174500D01*
X228559D01*
Y175984D01*
D02*
G37*
G36*
X293307Y177530D02*
X292397Y177410D01*
X291550Y177059D01*
X290822Y176501D01*
X290563Y176163D01*
X282677D01*
X281855Y176000D01*
X281159Y175534D01*
X270355Y164730D01*
X265024D01*
X264999Y164763D01*
X264238Y165346D01*
X263352Y165713D01*
X262402Y165839D01*
X261451Y165713D01*
X260565Y165346D01*
X259804Y164763D01*
X259221Y164002D01*
X258854Y163116D01*
X258728Y162165D01*
X258854Y161215D01*
X259221Y160329D01*
X259804Y159568D01*
X260565Y158984D01*
X261451Y158617D01*
X262402Y158492D01*
X263352Y158617D01*
X264238Y158984D01*
X264999Y159568D01*
X265583Y160329D01*
X265627Y160435D01*
X271244D01*
X272066Y160599D01*
X272763Y161064D01*
X283567Y171868D01*
X290563D01*
X290822Y171531D01*
X291550Y170972D01*
X292397Y170621D01*
X293307Y170501D01*
X294217Y170621D01*
X295064Y170972D01*
X295792Y171531D01*
X296351Y172259D01*
X296702Y173106D01*
X296821Y174016D01*
X296702Y174925D01*
X296351Y175773D01*
X295792Y176501D01*
X295064Y177059D01*
X294217Y177410D01*
X293307Y177530D01*
D02*
G37*
G36*
X25000Y171969D02*
Y168500D01*
X28469D01*
X28397Y169044D01*
X27994Y170017D01*
X27353Y170853D01*
X26517Y171494D01*
X25544Y171897D01*
X25000Y171969D01*
D02*
G37*
G36*
X24000D02*
X23456Y171897D01*
X22483Y171494D01*
X21647Y170853D01*
X21006Y170017D01*
X20603Y169044D01*
X20531Y168500D01*
X24000D01*
Y171969D01*
D02*
G37*
G36*
X262402Y175838D02*
X261451Y175713D01*
X260565Y175346D01*
X259804Y174763D01*
X259221Y174002D01*
X258854Y173116D01*
X258728Y172165D01*
X258854Y171215D01*
X259221Y170329D01*
X259804Y169568D01*
X260565Y168984D01*
X261451Y168617D01*
X262402Y168492D01*
X263352Y168617D01*
X264238Y168984D01*
X264999Y169568D01*
X265583Y170329D01*
X265950Y171215D01*
X266075Y172165D01*
X265950Y173116D01*
X265583Y174002D01*
X264999Y174763D01*
X264238Y175346D01*
X263352Y175713D01*
X262402Y175838D01*
D02*
G37*
G36*
X200606Y168626D02*
X198138D01*
Y167142D01*
X200606D01*
Y168626D01*
D02*
G37*
G36*
X197138D02*
X194669D01*
Y167142D01*
X197138D01*
Y168626D01*
D02*
G37*
G36*
X164567Y245154D02*
X163860Y245013D01*
X163261Y244613D01*
X162861Y244014D01*
X162720Y243307D01*
X162861Y242600D01*
X163261Y242001D01*
X163415Y241899D01*
Y168731D01*
X163261Y168629D01*
X162861Y168029D01*
X162720Y167323D01*
X162861Y166616D01*
X163261Y166017D01*
X163860Y165617D01*
X164567Y165476D01*
X165274Y165617D01*
X165873Y166017D01*
X166273Y166616D01*
X166413Y167323D01*
X166273Y168029D01*
X165873Y168629D01*
X165719Y168731D01*
Y241899D01*
X165873Y242001D01*
X166273Y242600D01*
X166413Y243307D01*
X166273Y244014D01*
X165873Y244613D01*
X165274Y245013D01*
X164567Y245154D01*
D02*
G37*
G36*
X28469Y167500D02*
X25000D01*
Y164031D01*
X25544Y164103D01*
X26517Y164506D01*
X27353Y165147D01*
X27994Y165983D01*
X28397Y166956D01*
X28469Y167500D01*
D02*
G37*
G36*
X24000D02*
X20531D01*
X20603Y166956D01*
X21006Y165983D01*
X21647Y165147D01*
X22483Y164506D01*
X23456Y164103D01*
X24000Y164031D01*
Y167500D01*
D02*
G37*
G36*
X296791Y167657D02*
X289823D01*
Y160689D01*
X296791D01*
Y167657D01*
D02*
G37*
G36*
X200606Y166142D02*
X197638D01*
X194669D01*
Y164657D01*
X194680D01*
X195039Y164319D01*
X195039Y164157D01*
Y161091D01*
X200236D01*
Y161456D01*
X208822D01*
X208854Y161215D01*
X209221Y160329D01*
X209804Y159568D01*
X210565Y158984D01*
X211451Y158617D01*
X212402Y158492D01*
X213352Y158617D01*
X214238Y158984D01*
X214999Y159568D01*
X215583Y160329D01*
X215950Y161215D01*
X216075Y162165D01*
X215950Y163116D01*
X215583Y164002D01*
X214999Y164763D01*
X214238Y165346D01*
X213352Y165713D01*
X212402Y165839D01*
X211451Y165713D01*
X210565Y165346D01*
X209804Y164763D01*
X209221Y164002D01*
X209120Y163760D01*
X200590D01*
X200445Y163904D01*
X200453Y164523D01*
X200596Y164657D01*
X200606D01*
Y166142D01*
D02*
G37*
G36*
X24500Y161661D02*
X23552Y161537D01*
X22669Y161171D01*
X21911Y160589D01*
X21329Y159831D01*
X20964Y158948D01*
X20839Y158000D01*
X20964Y157052D01*
X21329Y156169D01*
X21911Y155411D01*
X22669Y154829D01*
X23552Y154464D01*
X24500Y154339D01*
X25448Y154464D01*
X26331Y154829D01*
X27089Y155411D01*
X27671Y156169D01*
X28036Y157052D01*
X28161Y158000D01*
X28036Y158948D01*
X27671Y159831D01*
X27089Y160589D01*
X26331Y161171D01*
X25448Y161537D01*
X24500Y161661D01*
D02*
G37*
G36*
X14500D02*
X13552Y161537D01*
X12669Y161171D01*
X11911Y160589D01*
X11329Y159831D01*
X10964Y158948D01*
X10839Y158000D01*
X10964Y157052D01*
X11329Y156169D01*
X11911Y155411D01*
X12669Y154829D01*
X13552Y154464D01*
X14500Y154339D01*
X15448Y154464D01*
X16331Y154829D01*
X17089Y155411D01*
X17671Y156169D01*
X18036Y157052D01*
X18161Y158000D01*
X18036Y158948D01*
X17671Y159831D01*
X17089Y160589D01*
X16331Y161171D01*
X15448Y161537D01*
X14500Y161661D01*
D02*
G37*
G36*
X142913Y154199D02*
Y152575D01*
X144538D01*
X144468Y152926D01*
X143986Y153647D01*
X143264Y154129D01*
X142913Y154199D01*
D02*
G37*
G36*
X141913D02*
X141562Y154129D01*
X140841Y153647D01*
X140359Y152926D01*
X140289Y152575D01*
X141913D01*
Y154199D01*
D02*
G37*
G36*
X190657Y154093D02*
Y152469D01*
X192282D01*
X192212Y152820D01*
X191730Y153541D01*
X191008Y154023D01*
X190657Y154093D01*
D02*
G37*
G36*
X189657D02*
X189306Y154023D01*
X188585Y153541D01*
X188103Y152820D01*
X188033Y152469D01*
X189657D01*
Y154093D01*
D02*
G37*
G36*
X121760Y153305D02*
Y151681D01*
X123384D01*
X123314Y152032D01*
X122832Y152754D01*
X122111Y153236D01*
X121760Y153305D01*
D02*
G37*
G36*
X120760D02*
X120409Y153236D01*
X119687Y152754D01*
X119205Y152032D01*
X119135Y151681D01*
X120760D01*
Y153305D01*
D02*
G37*
G36*
X144538Y151575D02*
X142913D01*
Y149950D01*
X143264Y150020D01*
X143986Y150502D01*
X144468Y151224D01*
X144538Y151575D01*
D02*
G37*
G36*
X141913D02*
X140289D01*
X140359Y151224D01*
X140841Y150502D01*
X141562Y150020D01*
X141913Y149950D01*
Y151575D01*
D02*
G37*
G36*
X192282Y151469D02*
X190657D01*
Y149844D01*
X191008Y149914D01*
X191730Y150396D01*
X192212Y151118D01*
X192282Y151469D01*
D02*
G37*
G36*
X189657D02*
X188033D01*
X188103Y151118D01*
X188585Y150396D01*
X189306Y149914D01*
X189657Y149844D01*
Y151469D01*
D02*
G37*
G36*
X123384Y150681D02*
X121760D01*
Y149057D01*
X122111Y149127D01*
X122832Y149609D01*
X123314Y150330D01*
X123384Y150681D01*
D02*
G37*
G36*
X120760D02*
X119135D01*
X119205Y150330D01*
X119687Y149609D01*
X120409Y149127D01*
X120760Y149057D01*
Y150681D01*
D02*
G37*
G36*
X180799Y179799D02*
X180093Y179659D01*
X179494Y179258D01*
X179094Y178659D01*
X178953Y177953D01*
X179094Y177246D01*
X179494Y176647D01*
X179647Y176544D01*
Y151355D01*
X177347Y149055D01*
X177165Y149091D01*
X176459Y148950D01*
X175860Y148550D01*
X175459Y147951D01*
X175319Y147244D01*
X175459Y146537D01*
X175860Y145938D01*
X176459Y145538D01*
X177165Y145398D01*
X177872Y145538D01*
X178471Y145938D01*
X178871Y146537D01*
X179012Y147244D01*
X178976Y147425D01*
X181614Y150064D01*
X181864Y150437D01*
X181951Y150878D01*
Y176544D01*
X182105Y176647D01*
X182505Y177246D01*
X182646Y177953D01*
X182505Y178659D01*
X182105Y179258D01*
X181506Y179659D01*
X180799Y179799D01*
D02*
G37*
G36*
X262402Y155839D02*
X261451Y155713D01*
X260565Y155346D01*
X259804Y154763D01*
X259221Y154002D01*
X258854Y153116D01*
X258728Y152165D01*
X258854Y151215D01*
X259221Y150329D01*
X259804Y149568D01*
X260565Y148984D01*
X261451Y148617D01*
X262402Y148492D01*
X263352Y148617D01*
X264238Y148984D01*
X264999Y149568D01*
X265583Y150329D01*
X265950Y151215D01*
X266075Y152165D01*
X265950Y153116D01*
X265583Y154002D01*
X264999Y154763D01*
X264238Y155346D01*
X263352Y155713D01*
X262402Y155839D01*
D02*
G37*
G36*
X212402D02*
X211451Y155713D01*
X210565Y155346D01*
X209804Y154763D01*
X209221Y154002D01*
X208854Y153116D01*
X208728Y152165D01*
X208854Y151215D01*
X209221Y150329D01*
X209804Y149568D01*
X210565Y148984D01*
X210778Y148896D01*
X210678Y148396D01*
X203150D01*
X202709Y148308D01*
X202335Y148059D01*
X199129Y144853D01*
X172524D01*
X167744Y149634D01*
X167370Y149883D01*
X166929Y149971D01*
X151575D01*
X151134Y149883D01*
X150760Y149634D01*
X145642Y144515D01*
X145392Y144142D01*
X145305Y143701D01*
Y126206D01*
X143350Y124251D01*
X143169Y124287D01*
X142462Y124147D01*
X141863Y123747D01*
X141463Y123148D01*
X141322Y122441D01*
X141463Y121734D01*
X141863Y121135D01*
X142462Y120735D01*
X143169Y120594D01*
X143875Y120735D01*
X144474Y121135D01*
X144875Y121734D01*
X145015Y122441D01*
X144979Y122622D01*
X147271Y124914D01*
X147521Y125288D01*
X147609Y125729D01*
Y143224D01*
X150485Y146100D01*
X150946Y145854D01*
X150909Y145669D01*
X151050Y144963D01*
X151450Y144364D01*
X152049Y143963D01*
X152756Y143823D01*
X153463Y143963D01*
X154062Y144364D01*
X154164Y144517D01*
X164090D01*
X167875Y140732D01*
X167839Y140551D01*
X167979Y139845D01*
X168379Y139245D01*
X168978Y138845D01*
X169685Y138705D01*
X170392Y138845D01*
X170991Y139245D01*
X171391Y139845D01*
X171531Y140551D01*
X171391Y141258D01*
X170991Y141857D01*
X170392Y142257D01*
X169685Y142398D01*
X169504Y142362D01*
X165382Y146484D01*
X165008Y146734D01*
X164567Y146821D01*
X154164D01*
X154062Y146975D01*
X153774Y147167D01*
X153926Y147667D01*
X166452D01*
X171233Y142886D01*
X171606Y142636D01*
X172047Y142549D01*
X199606D01*
X200047Y142636D01*
X200421Y142886D01*
X203627Y146092D01*
X211059D01*
X211158Y145592D01*
X210565Y145346D01*
X209804Y144763D01*
X209221Y144002D01*
X208854Y143116D01*
X208728Y142165D01*
X208854Y141215D01*
X209221Y140329D01*
X209804Y139568D01*
X210565Y138984D01*
X211451Y138617D01*
X212402Y138492D01*
X213352Y138617D01*
X214238Y138984D01*
X214999Y139568D01*
X215583Y140329D01*
X215950Y141215D01*
X216075Y142165D01*
X215950Y143116D01*
X215583Y144002D01*
X214999Y144763D01*
X214238Y145346D01*
X213645Y145592D01*
X213745Y146092D01*
X239680D01*
X251941Y133831D01*
X252315Y133581D01*
X252756Y133494D01*
X274016D01*
X274457Y133581D01*
X274830Y133831D01*
X283942Y142942D01*
X302672D01*
X309084Y136531D01*
Y117013D01*
X305231Y113160D01*
X302172D01*
X301872Y113884D01*
X301275Y114661D01*
X300498Y115258D01*
X299593Y115633D01*
X298622Y115760D01*
X297651Y115633D01*
X296746Y115258D01*
X295969Y114661D01*
X295372Y113884D01*
X294997Y112979D01*
X294869Y112008D01*
X294997Y111037D01*
X295372Y110132D01*
X295969Y109354D01*
X296746Y108758D01*
X297651Y108383D01*
X298622Y108255D01*
X299593Y108383D01*
X300498Y108758D01*
X301275Y109354D01*
X301872Y110132D01*
X302172Y110856D01*
X305709D01*
X306150Y110943D01*
X306523Y111193D01*
X311051Y115721D01*
X311301Y116095D01*
X311388Y116535D01*
Y137008D01*
X311301Y137449D01*
X311051Y137822D01*
X303964Y144909D01*
X303590Y145159D01*
X303150Y145247D01*
X283465D01*
X283024Y145159D01*
X282650Y144909D01*
X273538Y135798D01*
X253233D01*
X240972Y148059D01*
X240598Y148308D01*
X240158Y148396D01*
X214125D01*
X214025Y148896D01*
X214238Y148984D01*
X214999Y149568D01*
X215583Y150329D01*
X215950Y151215D01*
X216075Y152165D01*
X215950Y153116D01*
X215583Y154002D01*
X214999Y154763D01*
X214238Y155346D01*
X213352Y155713D01*
X212402Y155839D01*
D02*
G37*
G36*
X24500Y151661D02*
X23552Y151537D01*
X22669Y151171D01*
X21911Y150589D01*
X21329Y149831D01*
X20964Y148948D01*
X20839Y148000D01*
X20964Y147052D01*
X21329Y146169D01*
X21911Y145411D01*
X22669Y144829D01*
X23552Y144464D01*
X24500Y144339D01*
X25448Y144464D01*
X26331Y144829D01*
X27089Y145411D01*
X27671Y146169D01*
X28036Y147052D01*
X28161Y148000D01*
X28036Y148948D01*
X27671Y149831D01*
X27089Y150589D01*
X26331Y151171D01*
X25448Y151537D01*
X24500Y151661D01*
D02*
G37*
G36*
X14500D02*
X13552Y151537D01*
X12669Y151171D01*
X11911Y150589D01*
X11329Y149831D01*
X10964Y148948D01*
X10839Y148000D01*
X10964Y147052D01*
X11329Y146169D01*
X11911Y145411D01*
X12669Y144829D01*
X13552Y144464D01*
X14500Y144339D01*
X15448Y144464D01*
X16331Y144829D01*
X17089Y145411D01*
X17671Y146169D01*
X18036Y147052D01*
X18161Y148000D01*
X18036Y148948D01*
X17671Y149831D01*
X17089Y150589D01*
X16331Y151171D01*
X15448Y151537D01*
X14500Y151661D01*
D02*
G37*
G36*
X262901Y146146D02*
Y142665D01*
X266382D01*
X266310Y143213D01*
X265906Y144189D01*
X265263Y145027D01*
X264425Y145670D01*
X263449Y146074D01*
X262901Y146146D01*
D02*
G37*
G36*
X261901Y146146D02*
X261354Y146074D01*
X260378Y145670D01*
X259540Y145027D01*
X258897Y144189D01*
X258493Y143213D01*
X258421Y142665D01*
X261901D01*
Y146146D01*
D02*
G37*
G36*
X155118Y184917D02*
X154411Y184777D01*
X153812Y184377D01*
X153412Y183777D01*
X153272Y183071D01*
X153412Y182364D01*
X153812Y181765D01*
X153966Y181663D01*
Y158745D01*
X141311Y146090D01*
X141062Y145717D01*
X140974Y145276D01*
Y141960D01*
X140820Y141857D01*
X140420Y141258D01*
X140279Y140551D01*
X140420Y139845D01*
X140820Y139245D01*
X141419Y138845D01*
X142126Y138705D01*
X142833Y138845D01*
X143432Y139245D01*
X143832Y139845D01*
X143973Y140551D01*
X143832Y141258D01*
X143432Y141857D01*
X143278Y141960D01*
Y144798D01*
X155933Y157453D01*
X156183Y157827D01*
X156270Y158268D01*
Y181663D01*
X156424Y181765D01*
X156824Y182364D01*
X156965Y183071D01*
X156824Y183777D01*
X156424Y184377D01*
X155825Y184777D01*
X155118Y184917D01*
D02*
G37*
G36*
X25000Y141969D02*
Y138500D01*
X28469D01*
X28397Y139044D01*
X27994Y140017D01*
X27353Y140853D01*
X26517Y141494D01*
X25544Y141897D01*
X25000Y141969D01*
D02*
G37*
G36*
X24000D02*
X23456Y141897D01*
X22483Y141494D01*
X21647Y140853D01*
X21006Y140017D01*
X20603Y139044D01*
X20531Y138500D01*
X24000D01*
Y141969D01*
D02*
G37*
G36*
X261901Y141665D02*
X258421D01*
X258493Y141118D01*
X258897Y140142D01*
X259540Y139304D01*
X260378Y138661D01*
X261354Y138257D01*
X261901Y138185D01*
Y141665D01*
D02*
G37*
G36*
X266382D02*
X262901D01*
Y138185D01*
X263449Y138257D01*
X264425Y138661D01*
X265263Y139304D01*
X265906Y140142D01*
X266310Y141118D01*
X266382Y141665D01*
D02*
G37*
G36*
X52362Y185705D02*
X51656Y185564D01*
X51056Y185164D01*
X50656Y184565D01*
X50516Y183858D01*
X50656Y183152D01*
X50716Y183062D01*
Y182677D01*
X50842Y182047D01*
X51199Y181513D01*
X73157Y159555D01*
Y140028D01*
X73097Y139938D01*
X72957Y139232D01*
X73097Y138525D01*
X73497Y137926D01*
X74097Y137526D01*
X74803Y137385D01*
X75510Y137526D01*
X76109Y137926D01*
X76509Y138525D01*
X76650Y139232D01*
X76509Y139938D01*
X76449Y140028D01*
Y160236D01*
X76324Y160866D01*
X75967Y161400D01*
X54093Y183274D01*
X54209Y183858D01*
X54068Y184565D01*
X53668Y185164D01*
X53069Y185564D01*
X52362Y185705D01*
D02*
G37*
G36*
X14500Y141661D02*
X13552Y141536D01*
X12669Y141171D01*
X11911Y140589D01*
X11329Y139831D01*
X10964Y138948D01*
X10839Y138000D01*
X10964Y137052D01*
X11329Y136169D01*
X11911Y135411D01*
X12669Y134829D01*
X13552Y134464D01*
X14500Y134339D01*
X15448Y134464D01*
X16331Y134829D01*
X17089Y135411D01*
X17671Y136169D01*
X18036Y137052D01*
X18161Y138000D01*
X18036Y138948D01*
X17671Y139831D01*
X17089Y140589D01*
X16331Y141171D01*
X15448Y141536D01*
X14500Y141661D01*
D02*
G37*
G36*
X28469Y137500D02*
X25000D01*
Y134031D01*
X25544Y134103D01*
X26517Y134506D01*
X27353Y135147D01*
X27994Y135983D01*
X28397Y136956D01*
X28469Y137500D01*
D02*
G37*
G36*
X24000D02*
X20531D01*
X20603Y136956D01*
X21006Y135983D01*
X21647Y135147D01*
X22483Y134506D01*
X23456Y134103D01*
X24000Y134031D01*
Y137500D01*
D02*
G37*
G36*
X299122Y136068D02*
Y132508D01*
X302682D01*
X302607Y133076D01*
X302195Y134071D01*
X301539Y134925D01*
X300685Y135581D01*
X299690Y135993D01*
X299122Y136068D01*
D02*
G37*
G36*
X298122Y136068D02*
X297554Y135993D01*
X296559Y135581D01*
X295705Y134925D01*
X295049Y134071D01*
X294637Y133076D01*
X294562Y132508D01*
X298122D01*
Y136068D01*
D02*
G37*
G36*
X158539Y134662D02*
X157833Y134521D01*
X157234Y134121D01*
X157131Y133968D01*
X154464D01*
X154023Y133880D01*
X153649Y133630D01*
X149579Y129560D01*
X149329Y129186D01*
X149242Y128745D01*
Y122047D01*
X149329Y121606D01*
X149579Y121233D01*
X155485Y115327D01*
X155858Y115077D01*
X156299Y114990D01*
X226544D01*
X226647Y114836D01*
X227246Y114436D01*
X227953Y114295D01*
X228659Y114436D01*
X229258Y114836D01*
X229659Y115435D01*
X229799Y116142D01*
X229659Y116848D01*
X229258Y117447D01*
X228659Y117848D01*
X227953Y117988D01*
X227246Y117848D01*
X226647Y117447D01*
X226544Y117294D01*
X156776D01*
X151546Y122524D01*
Y128268D01*
X154941Y131664D01*
X157131D01*
X157234Y131510D01*
X157833Y131110D01*
X158539Y130969D01*
X159246Y131110D01*
X159845Y131510D01*
X160245Y132109D01*
X160386Y132816D01*
X160245Y133522D01*
X159845Y134121D01*
X159246Y134521D01*
X158539Y134662D01*
D02*
G37*
G36*
X192913Y133343D02*
X192207Y133202D01*
X191608Y132802D01*
X191207Y132203D01*
X191067Y131496D01*
X191103Y131315D01*
X186784Y126996D01*
X186534Y126622D01*
X186490Y126400D01*
X186293Y126268D01*
X185892Y125669D01*
X185752Y124963D01*
X185892Y124256D01*
X186293Y123657D01*
X186892Y123257D01*
X187598Y123116D01*
X188305Y123257D01*
X188904Y123657D01*
X189304Y124256D01*
X189445Y124963D01*
X189304Y125669D01*
X189069Y126022D01*
X192732Y129686D01*
X192913Y129650D01*
X193620Y129790D01*
X194219Y130190D01*
X194619Y130789D01*
X194760Y131496D01*
X194619Y132203D01*
X194219Y132802D01*
X193620Y133202D01*
X192913Y133343D01*
D02*
G37*
G36*
X235827Y130193D02*
X235120Y130052D01*
X234521Y129652D01*
X234419Y129499D01*
X198652D01*
X198550Y129652D01*
X197951Y130052D01*
X197244Y130193D01*
X196537Y130052D01*
X195938Y129652D01*
X195538Y129053D01*
X195398Y128347D01*
X195538Y127640D01*
X195938Y127041D01*
X196537Y126640D01*
X197244Y126500D01*
X197951Y126640D01*
X198550Y127041D01*
X198652Y127194D01*
X234419D01*
X234521Y127041D01*
X235120Y126640D01*
X235827Y126500D01*
X236533Y126640D01*
X237132Y127041D01*
X237533Y127640D01*
X237673Y128347D01*
X237533Y129053D01*
X237132Y129652D01*
X236533Y130052D01*
X235827Y130193D01*
D02*
G37*
G36*
X182283Y139248D02*
X181577Y139108D01*
X180978Y138707D01*
X180578Y138108D01*
X180437Y137402D01*
X180578Y136695D01*
X180978Y136096D01*
X181577Y135696D01*
X182283Y135555D01*
X182465Y135591D01*
X183831Y134225D01*
X184205Y133975D01*
X184646Y133887D01*
X242042D01*
X248792Y127138D01*
X249165Y126888D01*
X249606Y126801D01*
X277953D01*
X278394Y126888D01*
X278767Y127138D01*
X282485Y130856D01*
X285072D01*
X285372Y130132D01*
X285969Y129354D01*
X286746Y128758D01*
X287651Y128383D01*
X288622Y128255D01*
X289593Y128383D01*
X290498Y128758D01*
X291276Y129354D01*
X291872Y130132D01*
X292247Y131037D01*
X292375Y132008D01*
X292247Y132979D01*
X291872Y133884D01*
X291276Y134661D01*
X290498Y135258D01*
X289593Y135633D01*
X288622Y135760D01*
X287651Y135633D01*
X286746Y135258D01*
X285969Y134661D01*
X285372Y133884D01*
X285072Y133160D01*
X282008D01*
X281567Y133072D01*
X281193Y132823D01*
X277476Y129105D01*
X250083D01*
X243334Y135854D01*
X242961Y136104D01*
X242520Y136191D01*
X185123D01*
X184094Y137220D01*
X184130Y137402D01*
X183989Y138108D01*
X183589Y138707D01*
X182990Y139108D01*
X182283Y139248D01*
D02*
G37*
G36*
X302682Y131508D02*
X299122D01*
Y127948D01*
X299690Y128023D01*
X300685Y128435D01*
X301539Y129090D01*
X302195Y129945D01*
X302607Y130940D01*
X302682Y131508D01*
D02*
G37*
G36*
X298122D02*
X294562D01*
X294637Y130940D01*
X295049Y129945D01*
X295705Y129090D01*
X296559Y128435D01*
X297554Y128023D01*
X298122Y127948D01*
Y131508D01*
D02*
G37*
G36*
X150787Y143185D02*
X150081Y143044D01*
X149482Y142644D01*
X149082Y142045D01*
X148941Y141339D01*
X149082Y140632D01*
X149482Y140033D01*
X150081Y139633D01*
X150787Y139492D01*
X151494Y139633D01*
X152093Y140033D01*
X152196Y140187D01*
X156609D01*
X162178Y134618D01*
X162551Y134369D01*
X162992Y134281D01*
X170783D01*
X177651Y127413D01*
X177592Y127116D01*
X177733Y126409D01*
X178133Y125811D01*
X178732Y125410D01*
X179438Y125270D01*
X180145Y125410D01*
X180744Y125811D01*
X181144Y126409D01*
X181285Y127116D01*
X181144Y127823D01*
X180744Y128422D01*
X180145Y128822D01*
X179438Y128963D01*
X179373Y128950D01*
X172074Y136248D01*
X171701Y136497D01*
X171260Y136585D01*
X163469D01*
X157901Y142153D01*
X157527Y142403D01*
X157087Y142491D01*
X152196D01*
X152093Y142644D01*
X151494Y143044D01*
X150787Y143185D01*
D02*
G37*
G36*
X176378Y141610D02*
X175671Y141470D01*
X175072Y141069D01*
X174672Y140470D01*
X174531Y139764D01*
X174672Y139057D01*
X175072Y138458D01*
X175226Y138356D01*
Y137402D01*
X175314Y136961D01*
X175563Y136587D01*
X183100Y129050D01*
Y126855D01*
X181019Y124774D01*
X174099D01*
X173157Y125716D01*
X172783Y125966D01*
X172343Y126054D01*
X167648D01*
X167546Y126207D01*
X166947Y126608D01*
X166240Y126748D01*
X165533Y126608D01*
X164935Y126207D01*
X164534Y125608D01*
X164394Y124902D01*
X164534Y124195D01*
X164935Y123596D01*
X165533Y123196D01*
X166240Y123055D01*
X166947Y123196D01*
X167546Y123596D01*
X167648Y123749D01*
X171865D01*
X172807Y122807D01*
X173181Y122558D01*
X173380Y122518D01*
X173330Y122018D01*
X162682D01*
X156520Y128180D01*
X156129Y128766D01*
X155529Y129167D01*
X154823Y129307D01*
X154116Y129167D01*
X153517Y128766D01*
X153117Y128167D01*
X152976Y127461D01*
X153117Y126754D01*
X153517Y126155D01*
X154116Y125755D01*
X154823Y125614D01*
X155529Y125755D01*
X155624Y125818D01*
X161390Y120052D01*
X161764Y119802D01*
X162205Y119714D01*
X238106D01*
X243071Y114748D01*
X243035Y114567D01*
X243176Y113860D01*
X243576Y113261D01*
X244175Y112861D01*
X244882Y112720D01*
X245588Y112861D01*
X246188Y113261D01*
X246588Y113860D01*
X246728Y114567D01*
X246588Y115274D01*
X246188Y115873D01*
X245588Y116273D01*
X244882Y116413D01*
X244701Y116377D01*
X239397Y121681D01*
X239023Y121931D01*
X238583Y122018D01*
X181788D01*
X181738Y122518D01*
X181937Y122558D01*
X182311Y122807D01*
X185067Y125563D01*
X185316Y125937D01*
X185404Y126378D01*
Y129527D01*
X185316Y129968D01*
X185067Y130342D01*
X177530Y137879D01*
Y138356D01*
X177684Y138458D01*
X178084Y139057D01*
X178225Y139764D01*
X178084Y140470D01*
X177684Y141069D01*
X177085Y141470D01*
X176378Y141610D01*
D02*
G37*
G36*
X24500Y131661D02*
X23552Y131536D01*
X22669Y131171D01*
X21911Y130589D01*
X21329Y129831D01*
X20964Y128948D01*
X20839Y128000D01*
X20964Y127052D01*
X21329Y126169D01*
X21911Y125411D01*
X22669Y124829D01*
X23552Y124463D01*
X24500Y124339D01*
X25448Y124463D01*
X26331Y124829D01*
X27089Y125411D01*
X27671Y126169D01*
X28036Y127052D01*
X28161Y128000D01*
X28036Y128948D01*
X27671Y129831D01*
X27089Y130589D01*
X26331Y131171D01*
X25448Y131536D01*
X24500Y131661D01*
D02*
G37*
G36*
X14500D02*
X13552Y131536D01*
X12669Y131171D01*
X11911Y130589D01*
X11329Y129831D01*
X10964Y128948D01*
X10839Y128000D01*
X10964Y127052D01*
X11329Y126169D01*
X11911Y125411D01*
X12669Y124829D01*
X13552Y124463D01*
X14500Y124339D01*
X15448Y124463D01*
X16331Y124829D01*
X17089Y125411D01*
X17671Y126169D01*
X18036Y127052D01*
X18161Y128000D01*
X18036Y128948D01*
X17671Y129831D01*
X17089Y130589D01*
X16331Y131171D01*
X15448Y131536D01*
X14500Y131661D01*
D02*
G37*
G36*
X123335Y123778D02*
Y122153D01*
X124959D01*
X124889Y122505D01*
X124407Y123226D01*
X123686Y123708D01*
X123335Y123778D01*
D02*
G37*
G36*
X122335D02*
X121984Y123708D01*
X121262Y123226D01*
X120780Y122505D01*
X120710Y122153D01*
X122335D01*
Y123778D01*
D02*
G37*
G36*
X124959Y121153D02*
X123335D01*
Y119529D01*
X123686Y119599D01*
X124407Y120081D01*
X124889Y120802D01*
X124959Y121153D01*
D02*
G37*
G36*
X122335D02*
X120710D01*
X120780Y120802D01*
X121262Y120081D01*
X121984Y119599D01*
X122335Y119529D01*
Y121153D01*
D02*
G37*
G36*
X298622Y125760D02*
X297651Y125633D01*
X296746Y125258D01*
X295969Y124661D01*
X295372Y123884D01*
X294997Y122979D01*
X294869Y122008D01*
X294997Y121037D01*
X295343Y120201D01*
X293224Y118081D01*
X290171D01*
X290071Y118581D01*
X290498Y118758D01*
X291276Y119354D01*
X291872Y120132D01*
X292247Y121037D01*
X292375Y122008D01*
X292247Y122979D01*
X291872Y123884D01*
X291276Y124661D01*
X290498Y125258D01*
X289593Y125633D01*
X288622Y125760D01*
X287651Y125633D01*
X286746Y125258D01*
X285969Y124661D01*
X285372Y123884D01*
X285088Y123199D01*
X263386D01*
X262945Y123112D01*
X262571Y122862D01*
X249917Y110207D01*
X186841D01*
X186739Y110361D01*
X186140Y110761D01*
X185433Y110902D01*
X184726Y110761D01*
X184127Y110361D01*
X183727Y109762D01*
X183587Y109055D01*
X183727Y108349D01*
X184127Y107749D01*
X184726Y107349D01*
X185433Y107209D01*
X186140Y107349D01*
X186739Y107749D01*
X186841Y107903D01*
X250394D01*
X250835Y107991D01*
X251208Y108240D01*
X263863Y120895D01*
X285056D01*
X285372Y120132D01*
X285969Y119354D01*
X286746Y118758D01*
X287173Y118581D01*
X287073Y118081D01*
X272835D01*
X272394Y117993D01*
X272020Y117744D01*
X237904Y83628D01*
X219970D01*
X198452Y105145D01*
X198079Y105395D01*
X197638Y105483D01*
X191566D01*
X191463Y105636D01*
X190864Y106037D01*
X190157Y106177D01*
X189451Y106037D01*
X188852Y105636D01*
X188452Y105037D01*
X188311Y104331D01*
X188452Y103624D01*
X188852Y103025D01*
X189451Y102625D01*
X190157Y102484D01*
X190864Y102625D01*
X191463Y103025D01*
X191566Y103179D01*
X197161D01*
X218678Y81661D01*
X219052Y81411D01*
X219493Y81324D01*
X238381D01*
X238822Y81411D01*
X239196Y81661D01*
X273312Y115777D01*
X286693D01*
X286792Y115277D01*
X286746Y115258D01*
X285969Y114661D01*
X285372Y113884D01*
X284997Y112979D01*
X284870Y112008D01*
X284997Y111037D01*
X285372Y110132D01*
X285969Y109354D01*
X286746Y108758D01*
X286792Y108739D01*
X286693Y108239D01*
X275984D01*
X275543Y108151D01*
X275170Y107901D01*
X242042Y74774D01*
X218587D01*
X192941Y100421D01*
X192567Y100671D01*
X192126Y100758D01*
X180805D01*
X180439Y101306D01*
X179841Y101706D01*
X179134Y101847D01*
X178427Y101706D01*
X177828Y101306D01*
X177428Y100707D01*
X177287Y100000D01*
X177428Y99293D01*
X177828Y98694D01*
X178427Y98294D01*
X179134Y98154D01*
X179841Y98294D01*
X180154Y98503D01*
X180401Y98454D01*
X191649D01*
X217296Y72807D01*
X217669Y72558D01*
X218110Y72470D01*
X242520D01*
X242961Y72558D01*
X243334Y72807D01*
X276462Y105935D01*
X287073D01*
X287173Y105435D01*
X286746Y105258D01*
X285969Y104661D01*
X285372Y103884D01*
X285044Y103092D01*
X284617D01*
X284176Y103005D01*
X283803Y102755D01*
X247554Y66506D01*
X217984D01*
X187305Y97185D01*
X186932Y97435D01*
X186491Y97523D01*
X163677D01*
X163574Y97676D01*
X162975Y98077D01*
X162268Y98217D01*
X161562Y98077D01*
X160963Y97676D01*
X160562Y97077D01*
X160422Y96371D01*
X160562Y95664D01*
X160963Y95065D01*
X161562Y94665D01*
X162268Y94524D01*
X162975Y94665D01*
X163574Y95065D01*
X163677Y95219D01*
X186014D01*
X216692Y64540D01*
X217066Y64290D01*
X217507Y64202D01*
X248031D01*
X248472Y64290D01*
X248846Y64540D01*
X284716Y100409D01*
X285306Y100292D01*
X285372Y100132D01*
X285969Y99354D01*
X286746Y98758D01*
X287651Y98383D01*
X288622Y98255D01*
X289593Y98383D01*
X290498Y98758D01*
X291276Y99354D01*
X291872Y100132D01*
X292247Y101037D01*
X292375Y102008D01*
X292247Y102979D01*
X291872Y103884D01*
X291276Y104661D01*
X290498Y105258D01*
X290071Y105435D01*
X290171Y105935D01*
X292830D01*
X295228Y103536D01*
X294997Y102979D01*
X294869Y102008D01*
X294997Y101037D01*
X295372Y100132D01*
X295969Y99354D01*
X296746Y98758D01*
X297651Y98383D01*
X298622Y98255D01*
X299593Y98383D01*
X300498Y98758D01*
X301275Y99354D01*
X301872Y100132D01*
X302247Y101037D01*
X302375Y102008D01*
X302247Y102979D01*
X301872Y103884D01*
X301275Y104661D01*
X300498Y105258D01*
X299593Y105633D01*
X298622Y105760D01*
X297651Y105633D01*
X296760Y105263D01*
X294122Y107901D01*
X293748Y108151D01*
X293307Y108239D01*
X290551D01*
X290452Y108739D01*
X290498Y108758D01*
X291276Y109354D01*
X291872Y110132D01*
X292247Y111037D01*
X292375Y112008D01*
X292247Y112979D01*
X291872Y113884D01*
X291276Y114661D01*
X290498Y115258D01*
X290452Y115277D01*
X290551Y115777D01*
X293701D01*
X294142Y115865D01*
X294515Y116114D01*
X297038Y118637D01*
X297651Y118383D01*
X298622Y118255D01*
X299593Y118383D01*
X300498Y118758D01*
X301275Y119354D01*
X301872Y120132D01*
X302247Y121037D01*
X302375Y122008D01*
X302247Y122979D01*
X301872Y123884D01*
X301275Y124661D01*
X300498Y125258D01*
X299593Y125633D01*
X298622Y125760D01*
D02*
G37*
G36*
X145579Y117872D02*
Y116248D01*
X147203D01*
X147133Y116599D01*
X146651Y117321D01*
X145930Y117803D01*
X145579Y117872D01*
D02*
G37*
G36*
X144579D02*
X144228Y117803D01*
X143506Y117321D01*
X143024Y116599D01*
X142954Y116248D01*
X144579D01*
Y117872D01*
D02*
G37*
G36*
X24500Y121661D02*
X23552Y121537D01*
X22669Y121171D01*
X21911Y120589D01*
X21329Y119831D01*
X20964Y118948D01*
X20839Y118000D01*
X20964Y117052D01*
X21329Y116169D01*
X21911Y115411D01*
X22669Y114829D01*
X23552Y114463D01*
X24500Y114339D01*
X25448Y114463D01*
X26331Y114829D01*
X27089Y115411D01*
X27671Y116169D01*
X28036Y117052D01*
X28161Y118000D01*
X28036Y118948D01*
X27671Y119831D01*
X27089Y120589D01*
X26331Y121171D01*
X25448Y121537D01*
X24500Y121661D01*
D02*
G37*
G36*
X14500D02*
X13552Y121537D01*
X12669Y121171D01*
X11911Y120589D01*
X11329Y119831D01*
X10964Y118948D01*
X10839Y118000D01*
X10964Y117052D01*
X11329Y116169D01*
X11911Y115411D01*
X12669Y114829D01*
X13552Y114463D01*
X14500Y114339D01*
X15448Y114463D01*
X16331Y114829D01*
X17089Y115411D01*
X17671Y116169D01*
X18036Y117052D01*
X18161Y118000D01*
X18036Y118948D01*
X17671Y119831D01*
X17089Y120589D01*
X16331Y121171D01*
X15448Y121537D01*
X14500Y121661D01*
D02*
G37*
G36*
X15000Y111969D02*
Y108500D01*
X18469D01*
X18397Y109044D01*
X17994Y110017D01*
X17353Y110853D01*
X16517Y111494D01*
X15544Y111897D01*
X15000Y111969D01*
D02*
G37*
G36*
X14000D02*
X13456Y111897D01*
X12483Y111494D01*
X11647Y110853D01*
X11006Y110017D01*
X10603Y109044D01*
X10531Y108500D01*
X14000D01*
Y111969D01*
D02*
G37*
G36*
X24500Y111661D02*
X23552Y111537D01*
X22669Y111171D01*
X21911Y110589D01*
X21329Y109831D01*
X20964Y108948D01*
X20839Y108000D01*
X20964Y107052D01*
X21329Y106169D01*
X21911Y105411D01*
X22669Y104829D01*
X23552Y104464D01*
X24500Y104339D01*
X25448Y104464D01*
X26331Y104829D01*
X27089Y105411D01*
X27671Y106169D01*
X28036Y107052D01*
X28161Y108000D01*
X28036Y108948D01*
X27671Y109831D01*
X27089Y110589D01*
X26331Y111171D01*
X25448Y111537D01*
X24500Y111661D01*
D02*
G37*
G36*
X18469Y107500D02*
X15000D01*
Y104031D01*
X15544Y104103D01*
X16517Y104506D01*
X17353Y105147D01*
X17994Y105983D01*
X18397Y106956D01*
X18469Y107500D01*
D02*
G37*
G36*
X14000D02*
X10531D01*
X10603Y106956D01*
X11006Y105983D01*
X11647Y105147D01*
X12483Y104506D01*
X13456Y104103D01*
X14000Y104031D01*
Y107500D01*
D02*
G37*
G36*
X175197Y106571D02*
X174490Y106430D01*
X173891Y106030D01*
X173491Y105431D01*
X173350Y104724D01*
X173386Y104543D01*
X170389Y101546D01*
X160630D01*
X160189Y101458D01*
X159815Y101208D01*
X153122Y94515D01*
X152873Y94142D01*
X152785Y93701D01*
Y85910D01*
X149579Y82704D01*
X149329Y82331D01*
X149242Y81890D01*
Y78180D01*
X149088Y78077D01*
X148688Y77478D01*
X148547Y76772D01*
X148688Y76065D01*
X149088Y75466D01*
X149687Y75066D01*
X150394Y74925D01*
X151100Y75066D01*
X151699Y75466D01*
X152100Y76065D01*
X152240Y76772D01*
X152100Y77478D01*
X151699Y78077D01*
X151546Y78180D01*
Y81413D01*
X154752Y84618D01*
X155001Y84992D01*
X155089Y85433D01*
Y93224D01*
X161107Y99242D01*
X170866D01*
X171307Y99329D01*
X171681Y99579D01*
X175016Y102914D01*
X175197Y102878D01*
X175903Y103018D01*
X176503Y103419D01*
X176903Y104018D01*
X177043Y104724D01*
X176903Y105431D01*
X176503Y106030D01*
X175903Y106430D01*
X175197Y106571D01*
D02*
G37*
G36*
X14500Y101661D02*
X13552Y101537D01*
X12669Y101171D01*
X11911Y100589D01*
X11329Y99831D01*
X10964Y98948D01*
X10839Y98000D01*
X10964Y97052D01*
X11329Y96169D01*
X11911Y95411D01*
X12669Y94829D01*
X13552Y94463D01*
X14500Y94339D01*
X15448Y94463D01*
X16331Y94829D01*
X17089Y95411D01*
X17671Y96169D01*
X18036Y97052D01*
X18161Y98000D01*
X18036Y98948D01*
X17671Y99831D01*
X17089Y100589D01*
X16331Y101171D01*
X15448Y101537D01*
X14500Y101661D01*
D02*
G37*
G36*
X33858Y165232D02*
X33152Y165092D01*
X32553Y164691D01*
X32152Y164093D01*
X32012Y163386D01*
X32152Y162679D01*
X32553Y162080D01*
X32706Y161978D01*
Y98509D01*
X28263Y94065D01*
X25793D01*
X25694Y94565D01*
X26331Y94829D01*
X27089Y95411D01*
X27671Y96169D01*
X28036Y97052D01*
X28161Y98000D01*
X28036Y98948D01*
X27671Y99831D01*
X27089Y100589D01*
X26331Y101171D01*
X25448Y101537D01*
X24500Y101661D01*
X23552Y101537D01*
X22669Y101171D01*
X21911Y100589D01*
X21329Y99831D01*
X20964Y98948D01*
X20839Y98000D01*
X20964Y97052D01*
X21329Y96169D01*
X21911Y95411D01*
X22669Y94829D01*
X23306Y94565D01*
X23207Y94065D01*
X18898D01*
X18457Y93978D01*
X18083Y93728D01*
X15762Y91407D01*
X15448Y91536D01*
X14500Y91661D01*
X13552Y91536D01*
X12669Y91171D01*
X11911Y90589D01*
X11329Y89831D01*
X10964Y88948D01*
X10839Y88000D01*
X10964Y87052D01*
X11329Y86169D01*
X11911Y85411D01*
X12669Y84829D01*
X13552Y84464D01*
X14500Y84339D01*
X15448Y84464D01*
X16331Y84829D01*
X17089Y85411D01*
X17671Y86169D01*
X18036Y87052D01*
X18161Y88000D01*
X18036Y88948D01*
X17671Y89831D01*
X17572Y89959D01*
X19375Y91761D01*
X22010D01*
X22179Y91261D01*
X21647Y90853D01*
X21006Y90017D01*
X20603Y89044D01*
X20531Y88500D01*
X24500D01*
X28469D01*
X28397Y89044D01*
X27994Y90017D01*
X27353Y90853D01*
X26820Y91261D01*
X26990Y91761D01*
X28740D01*
X29181Y91849D01*
X29555Y92099D01*
X34673Y97217D01*
X34923Y97591D01*
X35010Y98032D01*
Y161978D01*
X35164Y162080D01*
X35564Y162679D01*
X35705Y163386D01*
X35564Y164093D01*
X35164Y164691D01*
X34565Y165092D01*
X33858Y165232D01*
D02*
G37*
G36*
X83858Y128225D02*
X83152Y128084D01*
X82553Y127684D01*
X82152Y127085D01*
X82131Y126978D01*
X73088Y117935D01*
X72732Y117402D01*
X72606Y116772D01*
Y102402D01*
X69882D01*
Y93661D01*
X78622D01*
Y102402D01*
X75898D01*
Y116090D01*
X84459Y124651D01*
X84565Y124672D01*
X85164Y125072D01*
X85564Y125671D01*
X85705Y126378D01*
X85564Y127085D01*
X85164Y127684D01*
X84565Y128084D01*
X83858Y128225D01*
D02*
G37*
G36*
X94252Y102439D02*
X93111Y102289D01*
X92048Y101849D01*
X91135Y101148D01*
X90435Y100235D01*
X89994Y99172D01*
X89844Y98032D01*
X89994Y96891D01*
X90435Y95828D01*
X91135Y94915D01*
X92048Y94214D01*
X93111Y93774D01*
X94252Y93624D01*
X95393Y93774D01*
X96456Y94214D01*
X97369Y94915D01*
X98069Y95828D01*
X98510Y96891D01*
X98660Y98032D01*
X98510Y99172D01*
X98069Y100235D01*
X97369Y101148D01*
X96456Y101849D01*
X95393Y102289D01*
X94252Y102439D01*
D02*
G37*
G36*
X298622Y95760D02*
X297651Y95633D01*
X296746Y95258D01*
X295969Y94661D01*
X295372Y93884D01*
X294997Y92979D01*
X294869Y92008D01*
X294997Y91037D01*
X295372Y90132D01*
X295969Y89354D01*
X296746Y88758D01*
X297651Y88383D01*
X298622Y88255D01*
X299593Y88383D01*
X300498Y88758D01*
X301275Y89354D01*
X301872Y90132D01*
X302247Y91037D01*
X302375Y92008D01*
X302247Y92979D01*
X301872Y93884D01*
X301275Y94661D01*
X300498Y95258D01*
X299593Y95633D01*
X298622Y95760D01*
D02*
G37*
G36*
X28469Y87500D02*
X25000D01*
Y84031D01*
X25544Y84103D01*
X26517Y84506D01*
X27353Y85147D01*
X27994Y85983D01*
X28397Y86956D01*
X28469Y87500D01*
D02*
G37*
G36*
X24000D02*
X20531D01*
X20603Y86956D01*
X21006Y85983D01*
X21647Y85147D01*
X22483Y84506D01*
X23456Y84103D01*
X24000Y84031D01*
Y87500D01*
D02*
G37*
G36*
X145579Y83030D02*
Y81406D01*
X147203D01*
X147133Y81757D01*
X146651Y82478D01*
X145930Y82960D01*
X145579Y83030D01*
D02*
G37*
G36*
X144579D02*
X144228Y82960D01*
X143506Y82478D01*
X143024Y81757D01*
X142954Y81406D01*
X144579D01*
Y83030D01*
D02*
G37*
G36*
X147203Y80405D02*
X145579D01*
Y78781D01*
X145930Y78851D01*
X146651Y79333D01*
X147133Y80054D01*
X147203Y80405D01*
D02*
G37*
G36*
X144579D02*
X142954D01*
X143024Y80054D01*
X143506Y79333D01*
X144228Y78851D01*
X144579Y78781D01*
Y80405D01*
D02*
G37*
G36*
X298622Y85760D02*
X297651Y85633D01*
X296746Y85258D01*
X295969Y84661D01*
X295372Y83884D01*
X294997Y82979D01*
X294869Y82008D01*
X294997Y81037D01*
X295372Y80132D01*
X295969Y79354D01*
X296746Y78758D01*
X297651Y78383D01*
X298622Y78255D01*
X299593Y78383D01*
X300498Y78758D01*
X301275Y79354D01*
X301872Y80132D01*
X302247Y81037D01*
X302375Y82008D01*
X302247Y82979D01*
X301872Y83884D01*
X301275Y84661D01*
X300498Y85258D01*
X299593Y85633D01*
X298622Y85760D01*
D02*
G37*
G36*
X288622D02*
X287651Y85633D01*
X286746Y85258D01*
X285969Y84661D01*
X285372Y83884D01*
X284997Y82979D01*
X284870Y82008D01*
X284997Y81037D01*
X285372Y80132D01*
X285969Y79354D01*
X286746Y78758D01*
X287651Y78383D01*
X288622Y78255D01*
X289593Y78383D01*
X290498Y78758D01*
X291276Y79354D01*
X291872Y80132D01*
X292247Y81037D01*
X292375Y82008D01*
X292247Y82979D01*
X291872Y83884D01*
X291276Y84661D01*
X290498Y85258D01*
X289593Y85633D01*
X288622Y85760D01*
D02*
G37*
G36*
X14500Y81661D02*
X13552Y81537D01*
X12669Y81171D01*
X11911Y80589D01*
X11329Y79831D01*
X10964Y78948D01*
X10839Y78000D01*
X10964Y77052D01*
X11329Y76169D01*
X11911Y75411D01*
X12669Y74829D01*
X13552Y74463D01*
X14500Y74339D01*
X15448Y74463D01*
X16331Y74829D01*
X17089Y75411D01*
X17671Y76169D01*
X18036Y77052D01*
X18161Y78000D01*
X18036Y78948D01*
X17671Y79831D01*
X17089Y80589D01*
X16331Y81171D01*
X15448Y81537D01*
X14500Y81661D01*
D02*
G37*
G36*
X25000Y71969D02*
Y68500D01*
X28469D01*
X28397Y69044D01*
X27994Y70017D01*
X27353Y70853D01*
X26517Y71494D01*
X25544Y71897D01*
X25000Y71969D01*
D02*
G37*
G36*
X24000D02*
X23456Y71897D01*
X22483Y71494D01*
X21647Y70853D01*
X21006Y70017D01*
X20603Y69044D01*
X20531Y68500D01*
X24000D01*
Y71969D01*
D02*
G37*
G36*
X288622Y75760D02*
X287651Y75633D01*
X286746Y75258D01*
X285969Y74661D01*
X285372Y73884D01*
X284997Y72979D01*
X284870Y72008D01*
X284997Y71037D01*
X285372Y70132D01*
X285969Y69354D01*
X286746Y68758D01*
X287651Y68383D01*
X288622Y68255D01*
X289593Y68383D01*
X290498Y68758D01*
X291276Y69354D01*
X291872Y70132D01*
X292247Y71037D01*
X292375Y72008D01*
X292247Y72979D01*
X291872Y73884D01*
X291276Y74661D01*
X290498Y75258D01*
X289593Y75633D01*
X288622Y75760D01*
D02*
G37*
G36*
Y65760D02*
X287651Y65633D01*
X286746Y65258D01*
X285969Y64661D01*
X285372Y63884D01*
X285032Y63061D01*
X263307D01*
X263209Y63209D01*
X262610Y63609D01*
X261903Y63750D01*
X261197Y63609D01*
X260598Y63209D01*
X260197Y62610D01*
X260057Y61903D01*
X260197Y61197D01*
X260598Y60598D01*
X261197Y60197D01*
X261903Y60057D01*
X262610Y60197D01*
X263209Y60598D01*
X263316Y60757D01*
X285113D01*
X285372Y60132D01*
X285969Y59354D01*
X286746Y58758D01*
X287651Y58383D01*
X288622Y58255D01*
X289593Y58383D01*
X290498Y58758D01*
X291276Y59354D01*
X291872Y60132D01*
X292247Y61037D01*
X292375Y62008D01*
X292247Y62979D01*
X291872Y63884D01*
X291276Y64661D01*
X290498Y65258D01*
X289593Y65633D01*
X288622Y65760D01*
D02*
G37*
G36*
Y95760D02*
X287651Y95633D01*
X286746Y95258D01*
X285969Y94661D01*
X285372Y93884D01*
X285072Y93160D01*
X284381D01*
X283940Y93072D01*
X283566Y92822D01*
X250557Y59813D01*
X215438D01*
X183184Y92067D01*
X182810Y92317D01*
X182369Y92405D01*
X163283D01*
X163180Y92558D01*
X162581Y92958D01*
X161875Y93099D01*
X161168Y92958D01*
X160569Y92558D01*
X160169Y91959D01*
X160028Y91252D01*
X160169Y90546D01*
X160569Y89947D01*
X161168Y89547D01*
X161875Y89406D01*
X162581Y89547D01*
X163180Y89947D01*
X163283Y90101D01*
X181892D01*
X214146Y57847D01*
X214520Y57597D01*
X214961Y57509D01*
X251034D01*
X251475Y57597D01*
X251849Y57847D01*
X284627Y90625D01*
X285215Y90511D01*
X285372Y90132D01*
X285969Y89354D01*
X286746Y88758D01*
X287651Y88383D01*
X288622Y88255D01*
X289593Y88383D01*
X290498Y88758D01*
X291276Y89354D01*
X291872Y90132D01*
X292247Y91037D01*
X292375Y92008D01*
X292247Y92979D01*
X291872Y93884D01*
X291276Y94661D01*
X290498Y95258D01*
X289593Y95633D01*
X288622Y95760D01*
D02*
G37*
G36*
X14500Y61661D02*
X13552Y61537D01*
X12669Y61171D01*
X11911Y60589D01*
X11329Y59831D01*
X10964Y58948D01*
X10839Y58000D01*
X10964Y57052D01*
X11329Y56169D01*
X11911Y55411D01*
X12669Y54829D01*
X13552Y54463D01*
X14500Y54339D01*
X15448Y54463D01*
X16331Y54829D01*
X17089Y55411D01*
X17671Y56169D01*
X18036Y57052D01*
X18161Y58000D01*
X18036Y58948D01*
X17671Y59831D01*
X17089Y60589D01*
X16331Y61171D01*
X15448Y61537D01*
X14500Y61661D01*
D02*
G37*
G36*
X165094Y56532D02*
X161445D01*
Y52882D01*
X165094D01*
Y56532D01*
D02*
G37*
G36*
X160445D02*
X156795D01*
Y52882D01*
X160445D01*
Y56532D01*
D02*
G37*
G36*
X150945Y56194D02*
X149958Y56064D01*
X149039Y55683D01*
X148249Y55077D01*
X147643Y54288D01*
X147263Y53369D01*
X147133Y52382D01*
X147263Y51395D01*
X147643Y50476D01*
X148249Y49686D01*
X149039Y49081D01*
X149958Y48700D01*
X150945Y48570D01*
X151932Y48700D01*
X152851Y49081D01*
X153640Y49686D01*
X154246Y50476D01*
X154627Y51395D01*
X154757Y52382D01*
X154627Y53369D01*
X154246Y54288D01*
X153640Y55077D01*
X152851Y55683D01*
X151932Y56064D01*
X150945Y56194D01*
D02*
G37*
G36*
X140945D02*
X139958Y56064D01*
X139039Y55683D01*
X138249Y55077D01*
X137644Y54288D01*
X137263Y53369D01*
X137133Y52382D01*
X137263Y51395D01*
X137644Y50476D01*
X138249Y49686D01*
X139039Y49081D01*
X139958Y48700D01*
X140945Y48570D01*
X141931Y48700D01*
X142851Y49081D01*
X143640Y49686D01*
X144246Y50476D01*
X144627Y51395D01*
X144757Y52382D01*
X144627Y53369D01*
X144246Y54288D01*
X143640Y55077D01*
X142851Y55683D01*
X141931Y56064D01*
X140945Y56194D01*
D02*
G37*
G36*
X120945D02*
X119958Y56064D01*
X119039Y55683D01*
X118249Y55077D01*
X117643Y54288D01*
X117263Y53369D01*
X117133Y52382D01*
X117263Y51395D01*
X117643Y50476D01*
X118249Y49686D01*
X119039Y49081D01*
X119958Y48700D01*
X120945Y48570D01*
X121932Y48700D01*
X122851Y49081D01*
X123641Y49686D01*
X124246Y50476D01*
X124627Y51395D01*
X124757Y52382D01*
X124627Y53369D01*
X124246Y54288D01*
X123641Y55077D01*
X122851Y55683D01*
X121932Y56064D01*
X120945Y56194D01*
D02*
G37*
G36*
X161811Y84779D02*
X161104Y84638D01*
X160505Y84238D01*
X160105Y83639D01*
X159965Y82933D01*
X160105Y82226D01*
X160505Y81627D01*
X161104Y81226D01*
X161811Y81086D01*
X162518Y81226D01*
X163117Y81627D01*
X163219Y81780D01*
X178696D01*
X178745Y81280D01*
X178283Y81188D01*
X177561Y80706D01*
X177079Y79985D01*
X177009Y79634D01*
X181258D01*
X181188Y79985D01*
X180706Y80706D01*
X179985Y81188D01*
X179522Y81280D01*
X179571Y81780D01*
X181157D01*
X211744Y51193D01*
X212118Y50943D01*
X212559Y50856D01*
X285072D01*
X285372Y50132D01*
X285969Y49354D01*
X286746Y48758D01*
X287651Y48383D01*
X288622Y48255D01*
X289593Y48383D01*
X290498Y48758D01*
X291276Y49354D01*
X291872Y50132D01*
X292247Y51037D01*
X292375Y52008D01*
X292247Y52979D01*
X291872Y53884D01*
X291276Y54661D01*
X290498Y55258D01*
X289593Y55633D01*
X288622Y55760D01*
X287651Y55633D01*
X286746Y55258D01*
X285969Y54661D01*
X285372Y53884D01*
X285072Y53160D01*
X213036D01*
X182449Y83747D01*
X182075Y83997D01*
X181634Y84085D01*
X163219D01*
X163117Y84238D01*
X162518Y84638D01*
X161811Y84779D01*
D02*
G37*
G36*
X165094Y51882D02*
X161445D01*
Y48232D01*
X165094D01*
Y51882D01*
D02*
G37*
G36*
X160445D02*
X156795D01*
Y48232D01*
X160445D01*
Y51882D01*
D02*
G37*
G36*
X24500Y81661D02*
X23552Y81537D01*
X22669Y81171D01*
X21911Y80589D01*
X21329Y79831D01*
X20964Y78948D01*
X20839Y78000D01*
X20964Y77052D01*
X21329Y76169D01*
X21911Y75411D01*
X22669Y74829D01*
X23552Y74463D01*
X24500Y74339D01*
X25448Y74463D01*
X26331Y74829D01*
X27089Y75411D01*
X27671Y76169D01*
X27952Y76848D01*
X32546D01*
X38473Y70921D01*
Y51408D01*
X38320Y51306D01*
X37920Y50707D01*
X37779Y50000D01*
X37920Y49293D01*
X38320Y48694D01*
X38919Y48294D01*
X39625Y48153D01*
X40332Y48294D01*
X40931Y48694D01*
X41331Y49293D01*
X41472Y50000D01*
X41331Y50707D01*
X40931Y51306D01*
X40778Y51408D01*
Y71398D01*
X40690Y71839D01*
X40440Y72213D01*
X33838Y78815D01*
X33465Y79064D01*
X33024Y79152D01*
X27952D01*
X27671Y79831D01*
X27089Y80589D01*
X26331Y81171D01*
X25448Y81537D01*
X24500Y81661D01*
D02*
G37*
G36*
Y51661D02*
X23552Y51537D01*
X22669Y51171D01*
X21911Y50589D01*
X21329Y49831D01*
X20964Y48948D01*
X20839Y48000D01*
X20964Y47052D01*
X21329Y46169D01*
X21911Y45411D01*
X22669Y44829D01*
X23552Y44464D01*
X24500Y44339D01*
X25448Y44464D01*
X26331Y44829D01*
X27089Y45411D01*
X27671Y46169D01*
X28036Y47052D01*
X28161Y48000D01*
X28036Y48948D01*
X27671Y49831D01*
X27089Y50589D01*
X26331Y51171D01*
X25448Y51537D01*
X24500Y51661D01*
D02*
G37*
G36*
X14500D02*
X13552Y51537D01*
X12669Y51171D01*
X11911Y50589D01*
X11329Y49831D01*
X10964Y48948D01*
X10839Y48000D01*
X10964Y47052D01*
X11329Y46169D01*
X11911Y45411D01*
X12669Y44829D01*
X13552Y44464D01*
X14500Y44339D01*
X15448Y44464D01*
X16331Y44829D01*
X17089Y45411D01*
X17671Y46169D01*
X18036Y47052D01*
X18161Y48000D01*
X18036Y48948D01*
X17671Y49831D01*
X17089Y50589D01*
X16331Y51171D01*
X15448Y51537D01*
X14500Y51661D01*
D02*
G37*
G36*
Y71661D02*
X13552Y71536D01*
X12669Y71171D01*
X11911Y70589D01*
X11329Y69831D01*
X10964Y68948D01*
X10839Y68000D01*
X10964Y67052D01*
X11329Y66169D01*
X11911Y65411D01*
X12669Y64829D01*
X13552Y64464D01*
X14500Y64339D01*
X15448Y64464D01*
X16251Y64797D01*
X18870Y62177D01*
X19244Y61928D01*
X19685Y61840D01*
X22979D01*
X23078Y61340D01*
X22669Y61171D01*
X21911Y60589D01*
X21329Y59831D01*
X20964Y58948D01*
X20839Y58000D01*
X20964Y57052D01*
X21329Y56169D01*
X21911Y55411D01*
X22669Y54829D01*
X23552Y54463D01*
X24500Y54339D01*
X25448Y54463D01*
X26331Y54829D01*
X27089Y55411D01*
X27671Y56169D01*
X28036Y57052D01*
X28161Y58000D01*
X28036Y58948D01*
X27671Y59831D01*
X27089Y60589D01*
X26331Y61171D01*
X25922Y61340D01*
X26021Y61840D01*
X30625D01*
X31919Y60546D01*
Y49213D01*
X32006Y48772D01*
X32256Y48398D01*
X36981Y43674D01*
X37354Y43424D01*
X37795Y43336D01*
X39609D01*
X39712Y43183D01*
X40311Y42782D01*
X41018Y42642D01*
X41724Y42782D01*
X42323Y43183D01*
X42724Y43782D01*
X42864Y44488D01*
X42724Y45195D01*
X42323Y45794D01*
X41724Y46194D01*
X41018Y46335D01*
X40311Y46194D01*
X39712Y45794D01*
X39609Y45640D01*
X38273D01*
X34223Y49690D01*
Y61024D01*
X34135Y61465D01*
X33885Y61838D01*
X31917Y63807D01*
X31543Y64056D01*
X31102Y64144D01*
X26867D01*
X26697Y64644D01*
X27353Y65147D01*
X27994Y65983D01*
X28397Y66956D01*
X28469Y67500D01*
X24500D01*
X20531D01*
X20603Y66956D01*
X21006Y65983D01*
X21647Y65147D01*
X22303Y64644D01*
X22133Y64144D01*
X20162D01*
X17807Y66499D01*
X18036Y67052D01*
X18161Y68000D01*
X18036Y68948D01*
X17671Y69831D01*
X17089Y70589D01*
X16331Y71171D01*
X15448Y71536D01*
X14500Y71661D01*
D02*
G37*
G36*
X160945Y46194D02*
X159958Y46064D01*
X159039Y45683D01*
X158249Y45077D01*
X157643Y44288D01*
X157263Y43369D01*
X157133Y42382D01*
X157263Y41395D01*
X157643Y40476D01*
X158249Y39686D01*
X159039Y39081D01*
X159958Y38700D01*
X160945Y38570D01*
X161932Y38700D01*
X162851Y39081D01*
X163640Y39686D01*
X164246Y40476D01*
X164627Y41395D01*
X164757Y42382D01*
X164627Y43369D01*
X164246Y44288D01*
X163640Y45077D01*
X162851Y45683D01*
X161932Y46064D01*
X160945Y46194D01*
D02*
G37*
G36*
X150945D02*
X149958Y46064D01*
X149039Y45683D01*
X148249Y45077D01*
X147643Y44288D01*
X147263Y43369D01*
X147133Y42382D01*
X147263Y41395D01*
X147643Y40476D01*
X148249Y39686D01*
X149039Y39081D01*
X149958Y38700D01*
X150945Y38570D01*
X151932Y38700D01*
X152851Y39081D01*
X153640Y39686D01*
X154246Y40476D01*
X154627Y41395D01*
X154757Y42382D01*
X154627Y43369D01*
X154246Y44288D01*
X153640Y45077D01*
X152851Y45683D01*
X151932Y46064D01*
X150945Y46194D01*
D02*
G37*
G36*
X140945D02*
X139958Y46064D01*
X139039Y45683D01*
X138249Y45077D01*
X137644Y44288D01*
X137263Y43369D01*
X137133Y42382D01*
X137263Y41395D01*
X137644Y40476D01*
X138249Y39686D01*
X139039Y39081D01*
X139958Y38700D01*
X140945Y38570D01*
X141931Y38700D01*
X142851Y39081D01*
X143640Y39686D01*
X144246Y40476D01*
X144627Y41395D01*
X144757Y42382D01*
X144627Y43369D01*
X144246Y44288D01*
X143640Y45077D01*
X142851Y45683D01*
X141931Y46064D01*
X140945Y46194D01*
D02*
G37*
G36*
X120945D02*
X119958Y46064D01*
X119039Y45683D01*
X118249Y45077D01*
X117643Y44288D01*
X117263Y43369D01*
X117133Y42382D01*
X117263Y41395D01*
X117643Y40476D01*
X118249Y39686D01*
X119039Y39081D01*
X119958Y38700D01*
X120945Y38570D01*
X121932Y38700D01*
X122851Y39081D01*
X123641Y39686D01*
X124246Y40476D01*
X124627Y41395D01*
X124757Y42382D01*
X124627Y43369D01*
X124246Y44288D01*
X123641Y45077D01*
X122851Y45683D01*
X121932Y46064D01*
X120945Y46194D01*
D02*
G37*
G36*
X15000Y41969D02*
Y38500D01*
X18469D01*
X18397Y39044D01*
X17994Y40017D01*
X17353Y40853D01*
X16517Y41494D01*
X15544Y41897D01*
X15000Y41969D01*
D02*
G37*
G36*
X14000D02*
X13456Y41897D01*
X12483Y41494D01*
X11647Y40853D01*
X11006Y40017D01*
X10603Y39044D01*
X10531Y38500D01*
X14000D01*
Y41969D01*
D02*
G37*
G36*
X292342Y45728D02*
X284902D01*
Y38287D01*
X292342D01*
Y45728D01*
D02*
G37*
G36*
X24500Y41661D02*
X23552Y41537D01*
X22669Y41171D01*
X21911Y40589D01*
X21329Y39831D01*
X20964Y38948D01*
X20839Y38000D01*
X20964Y37052D01*
X21329Y36169D01*
X21911Y35411D01*
X22669Y34829D01*
X23552Y34464D01*
X24500Y34339D01*
X25448Y34464D01*
X26331Y34829D01*
X27089Y35411D01*
X27671Y36169D01*
X28036Y37052D01*
X28161Y38000D01*
X28036Y38948D01*
X27671Y39831D01*
X27089Y40589D01*
X26331Y41171D01*
X25448Y41537D01*
X24500Y41661D01*
D02*
G37*
G36*
X18469Y37500D02*
X15000D01*
Y34031D01*
X15544Y34103D01*
X16517Y34506D01*
X17353Y35147D01*
X17994Y35983D01*
X18397Y36956D01*
X18469Y37500D01*
D02*
G37*
G36*
X14000D02*
X10531D01*
X10603Y36956D01*
X11006Y35983D01*
X11647Y35147D01*
X12483Y34506D01*
X13456Y34103D01*
X14000Y34031D01*
Y37500D01*
D02*
G37*
G36*
X112598Y103421D02*
X111892Y103281D01*
X111293Y102881D01*
X110892Y102281D01*
X110752Y101575D01*
X110892Y100868D01*
X111293Y100269D01*
X111446Y100166D01*
Y40945D01*
X111534Y40504D01*
X111784Y40130D01*
X118477Y33437D01*
X118851Y33188D01*
X119291Y33100D01*
X128740D01*
X129181Y33188D01*
X129555Y33437D01*
X131760Y35642D01*
X132009Y36016D01*
X132097Y36457D01*
Y38768D01*
X132851Y39081D01*
X133641Y39686D01*
X134246Y40476D01*
X134627Y41395D01*
X134757Y42382D01*
X134627Y43369D01*
X134246Y44288D01*
X133641Y45077D01*
X132851Y45683D01*
X131931Y46064D01*
X130945Y46194D01*
X129958Y46064D01*
X129039Y45683D01*
X128249Y45077D01*
X127644Y44288D01*
X127263Y43369D01*
X127133Y42382D01*
X127263Y41395D01*
X127644Y40476D01*
X128249Y39686D01*
X129039Y39081D01*
X129793Y38768D01*
Y36934D01*
X128263Y35404D01*
X119769D01*
X113751Y41422D01*
Y100166D01*
X113904Y100269D01*
X114304Y100868D01*
X114445Y101575D01*
X114304Y102281D01*
X113904Y102881D01*
X113305Y103281D01*
X112598Y103421D01*
D02*
G37*
G36*
X155512Y81374D02*
X154805Y81234D01*
X154206Y80833D01*
X153806Y80234D01*
X153665Y79528D01*
X153806Y78821D01*
X154206Y78222D01*
X154805Y77822D01*
X155512Y77681D01*
X155693Y77717D01*
X157847Y75563D01*
X158221Y75314D01*
X158661Y75226D01*
X177869D01*
X208241Y44855D01*
X208614Y44605D01*
X209055Y44517D01*
X269601D01*
X283044Y31075D01*
X283417Y30825D01*
X283858Y30738D01*
X295669D01*
X296110Y30825D01*
X296484Y31075D01*
X299437Y34028D01*
X299686Y34402D01*
X299774Y34843D01*
Y38458D01*
X300498Y38758D01*
X301275Y39354D01*
X301872Y40132D01*
X302247Y41037D01*
X302375Y42008D01*
X302247Y42979D01*
X301872Y43884D01*
X301275Y44661D01*
X300498Y45258D01*
X299593Y45633D01*
X298622Y45760D01*
X297651Y45633D01*
X296746Y45258D01*
X295969Y44661D01*
X295372Y43884D01*
X294997Y42979D01*
X294869Y42008D01*
X294997Y41037D01*
X295372Y40132D01*
X295969Y39354D01*
X296746Y38758D01*
X297470Y38458D01*
Y35320D01*
X295192Y33042D01*
X284335D01*
X270893Y46484D01*
X270520Y46734D01*
X270079Y46821D01*
X209532D01*
X179767Y76586D01*
X179912Y77065D01*
X179985Y77079D01*
X180706Y77561D01*
X181188Y78283D01*
X181258Y78634D01*
X177009D01*
X177079Y78283D01*
X177248Y78030D01*
X176981Y77530D01*
X159139D01*
X157322Y79346D01*
X157358Y79528D01*
X157218Y80234D01*
X156817Y80833D01*
X156218Y81234D01*
X155512Y81374D01*
D02*
G37*
G36*
X252075Y33445D02*
Y30421D01*
X255099D01*
X255042Y30850D01*
X254684Y31716D01*
X254113Y32460D01*
X253370Y33030D01*
X252504Y33389D01*
X252075Y33445D01*
D02*
G37*
G36*
X251075Y33445D02*
X250646Y33389D01*
X249780Y33030D01*
X249037Y32460D01*
X248466Y31716D01*
X248107Y30850D01*
X248051Y30421D01*
X251075D01*
Y33445D01*
D02*
G37*
G36*
X243701Y33138D02*
X242868Y33028D01*
X242092Y32707D01*
X241426Y32196D01*
X240915Y31530D01*
X240594Y30754D01*
X240484Y29921D01*
X240594Y29089D01*
X240915Y28313D01*
X241426Y27647D01*
X242092Y27136D01*
X242868Y26814D01*
X243701Y26705D01*
X244533Y26814D01*
X245309Y27136D01*
X245975Y27647D01*
X246486Y28313D01*
X246808Y29089D01*
X246917Y29921D01*
X246808Y30754D01*
X246486Y31530D01*
X245975Y32196D01*
X245309Y32707D01*
X244533Y33028D01*
X243701Y33138D01*
D02*
G37*
G36*
X235827D02*
X234994Y33028D01*
X234219Y32707D01*
X233552Y32196D01*
X233041Y31530D01*
X232720Y30754D01*
X232610Y29921D01*
X232720Y29089D01*
X233041Y28313D01*
X233552Y27647D01*
X234219Y27136D01*
X234994Y26814D01*
X235827Y26705D01*
X236659Y26814D01*
X237435Y27136D01*
X238101Y27647D01*
X238612Y28313D01*
X238934Y29089D01*
X239043Y29921D01*
X238934Y30754D01*
X238612Y31530D01*
X238101Y32196D01*
X237435Y32707D01*
X236659Y33028D01*
X235827Y33138D01*
D02*
G37*
G36*
X227953D02*
X227120Y33028D01*
X226344Y32707D01*
X225678Y32196D01*
X225167Y31530D01*
X224846Y30754D01*
X224736Y29921D01*
X224846Y29089D01*
X225167Y28313D01*
X225678Y27647D01*
X226344Y27136D01*
X227120Y26814D01*
X227953Y26705D01*
X228785Y26814D01*
X229561Y27136D01*
X230227Y27647D01*
X230738Y28313D01*
X231060Y29089D01*
X231169Y29921D01*
X231060Y30754D01*
X230738Y31530D01*
X230227Y32196D01*
X229561Y32707D01*
X228785Y33028D01*
X227953Y33138D01*
D02*
G37*
G36*
X251075Y29421D02*
X248051D01*
X248107Y28992D01*
X248466Y28126D01*
X249037Y27383D01*
X249780Y26812D01*
X250646Y26454D01*
X251075Y26397D01*
Y29421D01*
D02*
G37*
G36*
X255099D02*
X252075D01*
Y26397D01*
X252504Y26454D01*
X253370Y26812D01*
X254113Y27383D01*
X254684Y28126D01*
X255042Y28992D01*
X255099Y29421D01*
D02*
G37*
G36*
X78240Y28330D02*
X77708Y28260D01*
X76747Y27862D01*
X75921Y27229D01*
X75287Y26403D01*
X74889Y25441D01*
X74869Y25286D01*
X74364D01*
X74357Y25345D01*
X73996Y26216D01*
X73421Y26965D01*
X72673Y27539D01*
X71801Y27900D01*
X70866Y28023D01*
X69931Y27900D01*
X69059Y27539D01*
X68311Y26965D01*
X67737Y26216D01*
X67376Y25345D01*
X67253Y24409D01*
X67376Y23474D01*
X67737Y22603D01*
X68311Y21854D01*
X69059Y21280D01*
X69931Y20919D01*
X70866Y20796D01*
X71801Y20919D01*
X72673Y21280D01*
X73421Y21854D01*
X73996Y22603D01*
X74357Y23474D01*
X74364Y23533D01*
X74869D01*
X74889Y23378D01*
X75287Y22416D01*
X75921Y21590D01*
X76747Y20957D01*
X77708Y20558D01*
X78240Y20488D01*
Y24409D01*
Y28330D01*
D02*
G37*
G36*
X79240Y28330D02*
Y24909D01*
X82661D01*
X82591Y25441D01*
X82193Y26403D01*
X81559Y27229D01*
X80734Y27862D01*
X79772Y28260D01*
X79240Y28330D01*
D02*
G37*
G36*
X131102Y128225D02*
X130396Y128084D01*
X129797Y127684D01*
X129396Y127085D01*
X129256Y126378D01*
X129396Y125671D01*
X129797Y125072D01*
X129950Y124970D01*
Y84646D01*
X130038Y84205D01*
X130288Y83831D01*
X142492Y71626D01*
X142866Y71377D01*
X143307Y71289D01*
X173932D01*
X187824Y57397D01*
Y45669D01*
X187912Y45228D01*
X188162Y44855D01*
X194461Y38555D01*
X194835Y38306D01*
X195276Y38218D01*
X266846D01*
X280681Y24382D01*
X281055Y24133D01*
X281496Y24045D01*
X297244D01*
X297685Y24133D01*
X298059Y24382D01*
X308295Y34618D01*
X308545Y34992D01*
X308632Y35433D01*
Y48425D01*
X308545Y48866D01*
X308295Y49240D01*
X304712Y52823D01*
X304339Y53072D01*
X303898Y53160D01*
X302172D01*
X301872Y53884D01*
X301275Y54661D01*
X300498Y55258D01*
X299593Y55633D01*
X298622Y55760D01*
X297651Y55633D01*
X296746Y55258D01*
X295969Y54661D01*
X295372Y53884D01*
X294997Y52979D01*
X294869Y52008D01*
X294997Y51037D01*
X295372Y50132D01*
X295969Y49354D01*
X296746Y48758D01*
X297651Y48383D01*
X298622Y48255D01*
X299593Y48383D01*
X300498Y48758D01*
X301275Y49354D01*
X301872Y50132D01*
X302172Y50856D01*
X303420D01*
X306328Y47948D01*
Y35910D01*
X296767Y26349D01*
X281973D01*
X268138Y40185D01*
X267764Y40434D01*
X267323Y40522D01*
X195753D01*
X190128Y46147D01*
Y57874D01*
X190041Y58315D01*
X189791Y58689D01*
X175224Y73256D01*
X174850Y73505D01*
X174409Y73593D01*
X143784D01*
X132254Y85123D01*
Y124970D01*
X132408Y125072D01*
X132808Y125671D01*
X132949Y126378D01*
X132808Y127085D01*
X132408Y127684D01*
X131809Y128084D01*
X131102Y128225D01*
D02*
G37*
G36*
X24500Y191661D02*
X23552Y191536D01*
X22669Y191171D01*
X21911Y190589D01*
X21329Y189831D01*
X20964Y188948D01*
X20839Y188000D01*
X20964Y187052D01*
X21329Y186169D01*
X21911Y185411D01*
X22669Y184829D01*
X22926Y184723D01*
X22827Y184223D01*
X19571D01*
X19130Y184135D01*
X18756Y183886D01*
X16126Y181255D01*
X15448Y181536D01*
X14500Y181661D01*
X13552Y181536D01*
X12669Y181171D01*
X11911Y180589D01*
X11329Y179831D01*
X10964Y178948D01*
X10839Y178000D01*
X10964Y177052D01*
X11329Y176169D01*
X11911Y175411D01*
X12669Y174829D01*
X13552Y174463D01*
X14500Y174339D01*
X15448Y174463D01*
X16331Y174829D01*
X17089Y175411D01*
X17671Y176169D01*
X18036Y177052D01*
X18161Y178000D01*
X18036Y178948D01*
X17755Y179626D01*
X20048Y181919D01*
X23169D01*
X23268Y181419D01*
X22669Y181171D01*
X21911Y180589D01*
X21329Y179831D01*
X20964Y178948D01*
X20839Y178000D01*
X20964Y177052D01*
X21329Y176169D01*
X21911Y175411D01*
X22669Y174829D01*
X23552Y174463D01*
X24500Y174339D01*
X25448Y174463D01*
X26331Y174829D01*
X27089Y175411D01*
X27671Y176169D01*
X27952Y176848D01*
X42389D01*
X48454Y170783D01*
Y84646D01*
X48542Y84205D01*
X48792Y83831D01*
X53179Y79444D01*
Y63779D01*
X53266Y63339D01*
X53516Y62965D01*
X67481Y49000D01*
X67445Y48819D01*
X67585Y48112D01*
X67986Y47513D01*
X68585Y47113D01*
X69291Y46972D01*
X69998Y47113D01*
X70597Y47513D01*
X70997Y48112D01*
X71138Y48819D01*
X70997Y49525D01*
X70597Y50125D01*
X69998Y50525D01*
X69291Y50665D01*
X69110Y50629D01*
X55483Y64257D01*
Y79921D01*
X55395Y80362D01*
X55145Y80736D01*
X50758Y85123D01*
Y171260D01*
X50671Y171701D01*
X50421Y172074D01*
X43681Y178815D01*
X43307Y179064D01*
X42866Y179152D01*
X27952D01*
X27671Y179831D01*
X27089Y180589D01*
X26331Y181171D01*
X25732Y181419D01*
X25831Y181919D01*
X44405D01*
X58297Y168027D01*
Y90945D01*
X58385Y90504D01*
X58634Y90130D01*
X83623Y65142D01*
X83587Y64961D01*
X83727Y64254D01*
X84127Y63655D01*
X84726Y63255D01*
X85433Y63114D01*
X86140Y63255D01*
X86739Y63655D01*
X87139Y64254D01*
X87280Y64961D01*
X87139Y65667D01*
X86739Y66266D01*
X86140Y66667D01*
X85433Y66807D01*
X85252Y66771D01*
X60601Y91422D01*
Y168504D01*
X60513Y168945D01*
X60264Y169319D01*
X45696Y183886D01*
X45323Y184135D01*
X44882Y184223D01*
X26173D01*
X26074Y184723D01*
X26331Y184829D01*
X27089Y185411D01*
X27671Y186169D01*
X27952Y186848D01*
X54436D01*
X99973Y141311D01*
X100347Y141062D01*
X100787Y140974D01*
X106216D01*
X113809Y133381D01*
Y108268D01*
X113896Y107827D01*
X114146Y107453D01*
X116171Y105428D01*
Y80315D01*
X116259Y79874D01*
X116508Y79500D01*
X133831Y62177D01*
X134205Y61928D01*
X134646Y61840D01*
X169208D01*
X173651Y57397D01*
Y35827D01*
X173739Y35386D01*
X173988Y35012D01*
X187768Y21233D01*
X188142Y20983D01*
X188583Y20895D01*
X218110D01*
X218551Y20983D01*
X218925Y21233D01*
X220893Y23201D01*
X221143Y23575D01*
X221231Y24016D01*
Y26947D01*
X221687Y27136D01*
X222353Y27647D01*
X222864Y28313D01*
X223186Y29089D01*
X223295Y29921D01*
X223186Y30754D01*
X222864Y31530D01*
X222353Y32196D01*
X221687Y32707D01*
X220911Y33028D01*
X220079Y33138D01*
X219246Y33028D01*
X218471Y32707D01*
X217804Y32196D01*
X217293Y31530D01*
X216972Y30754D01*
X216862Y29921D01*
X216972Y29089D01*
X217293Y28313D01*
X217804Y27647D01*
X218471Y27136D01*
X218927Y26947D01*
Y24493D01*
X217633Y23199D01*
X189060D01*
X175955Y36304D01*
Y57874D01*
X175867Y58315D01*
X175618Y58689D01*
X170500Y63807D01*
X170126Y64056D01*
X169685Y64144D01*
X135123D01*
X118475Y80792D01*
Y105905D01*
X118387Y106346D01*
X118138Y106720D01*
X116113Y108745D01*
Y133858D01*
X116025Y134299D01*
X115775Y134673D01*
X107508Y142941D01*
X107134Y143190D01*
X106693Y143278D01*
X101265D01*
X55728Y188815D01*
X55354Y189064D01*
X54913Y189152D01*
X27952D01*
X27671Y189831D01*
X27089Y190589D01*
X26331Y191171D01*
X25448Y191536D01*
X24500Y191661D01*
D02*
G37*
G36*
X39370Y174287D02*
X38664Y174147D01*
X38064Y173747D01*
X37664Y173148D01*
X37524Y172441D01*
X37664Y171734D01*
X38064Y171135D01*
X38218Y171033D01*
Y79134D01*
X38306Y78693D01*
X38555Y78319D01*
X44124Y72751D01*
Y34252D01*
X44211Y33811D01*
X44461Y33437D01*
X51535Y26363D01*
Y20827D01*
X58701D01*
Y27992D01*
X53165D01*
X46428Y34729D01*
Y73228D01*
X46340Y73669D01*
X46090Y74043D01*
X40522Y79611D01*
Y171033D01*
X40676Y171135D01*
X41076Y171734D01*
X41217Y172441D01*
X41076Y173148D01*
X40676Y173747D01*
X40077Y174147D01*
X39370Y174287D01*
D02*
G37*
G36*
X44743Y171138D02*
X44037Y170997D01*
X43438Y170597D01*
X43038Y169998D01*
X42897Y169291D01*
X43038Y168585D01*
X43438Y167986D01*
X43591Y167883D01*
Y82028D01*
X43679Y81587D01*
X43929Y81213D01*
X48848Y76294D01*
Y44488D01*
X48936Y44047D01*
X49185Y43674D01*
X61446Y31413D01*
Y27647D01*
X61185Y27539D01*
X60437Y26965D01*
X59863Y26216D01*
X59502Y25345D01*
X59378Y24409D01*
X59502Y23474D01*
X59863Y22603D01*
X60437Y21854D01*
X61185Y21280D01*
X62057Y20919D01*
X62992Y20796D01*
X63927Y20919D01*
X64799Y21280D01*
X65547Y21854D01*
X66122Y22603D01*
X66483Y23474D01*
X66606Y24409D01*
X66483Y25345D01*
X66122Y26216D01*
X65547Y26965D01*
X64799Y27539D01*
X63927Y27900D01*
X63750Y27923D01*
Y31890D01*
X63663Y32331D01*
X63413Y32704D01*
X51152Y44965D01*
Y76772D01*
X51064Y77213D01*
X50815Y77586D01*
X45896Y82505D01*
Y167883D01*
X46049Y167986D01*
X46450Y168585D01*
X46590Y169291D01*
X46450Y169998D01*
X46049Y170597D01*
X45450Y170997D01*
X44743Y171138D01*
D02*
G37*
G36*
X82661Y23910D02*
X79240D01*
Y20488D01*
X79772Y20558D01*
X80734Y20957D01*
X81559Y21590D01*
X82193Y22416D01*
X82591Y23378D01*
X82661Y23910D01*
D02*
G37*
G36*
X166929Y60601D02*
X133826D01*
X133386Y60513D01*
X133012Y60264D01*
X130130Y57382D01*
X129880Y57008D01*
X129793Y56567D01*
Y55996D01*
X129039Y55683D01*
X128249Y55077D01*
X127644Y54288D01*
X127263Y53369D01*
X127133Y52382D01*
X127263Y51395D01*
X127644Y50476D01*
X128249Y49686D01*
X129039Y49081D01*
X129958Y48700D01*
X130945Y48570D01*
X131931Y48700D01*
X132851Y49081D01*
X133641Y49686D01*
X134246Y50476D01*
X134627Y51395D01*
X134757Y52382D01*
X134627Y53369D01*
X134246Y54288D01*
X133641Y55077D01*
X132851Y55683D01*
X132530Y55816D01*
X132413Y56406D01*
X134304Y58297D01*
X166452D01*
X168533Y56216D01*
Y32283D01*
X168621Y31843D01*
X168870Y31469D01*
X183437Y16902D01*
X183811Y16652D01*
X184252Y16565D01*
X291899D01*
X292001Y16411D01*
X292600Y16011D01*
X293307Y15870D01*
X294014Y16011D01*
X294613Y16411D01*
X295013Y17010D01*
X295154Y17717D01*
X295013Y18423D01*
X294613Y19022D01*
X294014Y19422D01*
X293307Y19563D01*
X292600Y19422D01*
X292001Y19022D01*
X291899Y18869D01*
X184729D01*
X170837Y32761D01*
Y56693D01*
X170749Y57134D01*
X170500Y57507D01*
X167744Y60264D01*
X167370Y60513D01*
X166929Y60601D01*
D02*
G37*
G36*
X19500Y24899D02*
X18315Y24783D01*
X17176Y24437D01*
X16126Y23876D01*
X15206Y23121D01*
X14451Y22200D01*
X13890Y21151D01*
X13544Y20011D01*
X13428Y18827D01*
X13544Y17642D01*
X13890Y16503D01*
X14451Y15453D01*
X15206Y14533D01*
X16126Y13778D01*
X17176Y13216D01*
X18315Y12871D01*
X19500Y12754D01*
X20685Y12871D01*
X21824Y13216D01*
X22874Y13778D01*
X23794Y14533D01*
X24549Y15453D01*
X25110Y16503D01*
X25456Y17642D01*
X25572Y18827D01*
X25456Y20011D01*
X25110Y21151D01*
X24549Y22200D01*
X23794Y23121D01*
X22874Y23876D01*
X21824Y24437D01*
X20685Y24783D01*
X19500Y24899D01*
D02*
G37*
G36*
X111417Y127043D02*
X110711Y126903D01*
X110112Y126503D01*
X109711Y125903D01*
X109571Y125197D01*
X109711Y124490D01*
X110112Y123891D01*
X110265Y123788D01*
Y109532D01*
X106666Y105933D01*
X106416Y105559D01*
X106328Y105118D01*
Y40551D01*
X106416Y40110D01*
X106666Y39737D01*
X116902Y29500D01*
X117276Y29251D01*
X117717Y29163D01*
X162121D01*
X179107Y12178D01*
X179480Y11928D01*
X179921Y11840D01*
X298425D01*
X298866Y11928D01*
X299240Y12178D01*
X317744Y30681D01*
X317993Y31055D01*
X318081Y31496D01*
Y52362D01*
X317993Y52803D01*
X317744Y53177D01*
X308098Y62823D01*
X307724Y63072D01*
X307283Y63160D01*
X302172D01*
X301872Y63884D01*
X301275Y64661D01*
X300498Y65258D01*
X299593Y65633D01*
X298622Y65760D01*
X297651Y65633D01*
X296746Y65258D01*
X295969Y64661D01*
X295372Y63884D01*
X294997Y62979D01*
X294869Y62008D01*
X294997Y61037D01*
X295372Y60132D01*
X295969Y59354D01*
X296746Y58758D01*
X297651Y58383D01*
X298622Y58255D01*
X299593Y58383D01*
X300498Y58758D01*
X301275Y59354D01*
X301872Y60132D01*
X302172Y60856D01*
X306806D01*
X315777Y51885D01*
Y31973D01*
X297948Y14144D01*
X180398D01*
X163413Y31130D01*
X163039Y31379D01*
X162598Y31467D01*
X118194D01*
X108632Y41028D01*
Y104641D01*
X112232Y108240D01*
X112482Y108614D01*
X112569Y109055D01*
Y123788D01*
X112723Y123891D01*
X113123Y124490D01*
X113264Y125197D01*
X113123Y125903D01*
X112723Y126503D01*
X112124Y126903D01*
X111417Y127043D01*
D02*
G37*
%LPD*%
D10*
X74803Y139232D02*
Y160236D01*
X52362Y182677D02*
X74803Y160236D01*
X52362Y182677D02*
Y183858D01*
X287402Y240158D02*
X292421D01*
X235433Y292126D02*
Y323622D01*
Y292126D02*
X287402Y240158D01*
X87402Y328346D02*
X145669D01*
X149016Y308661D02*
Y325000D01*
X145669Y328346D02*
X149016Y325000D01*
X40945Y227165D02*
Y238976D01*
Y227165D02*
X41339Y226772D01*
X74252Y98032D02*
Y116772D01*
X83858Y126378D01*
X78937Y312795D02*
X85236D01*
X88583Y309449D01*
Y255512D02*
Y309449D01*
X72441Y239370D02*
X88583Y255512D01*
X78937Y312795D02*
Y319882D01*
X87402Y328346D01*
D52*
X234449Y237008D02*
D03*
X251575Y29921D02*
D03*
X243701D02*
D03*
X235827D02*
D03*
X227953D02*
D03*
X220079D02*
D03*
D53*
X248228Y237008D02*
D03*
X212205Y29921D02*
D03*
D62*
X293996Y300787D02*
D03*
Y290945D02*
D03*
X292421Y240158D02*
D03*
Y230315D02*
D03*
D63*
X293996Y281102D02*
D03*
X292421Y220472D02*
D03*
D64*
X298622Y132008D02*
D03*
Y122008D02*
D03*
Y112008D02*
D03*
Y102008D02*
D03*
Y92008D02*
D03*
Y82008D02*
D03*
Y72008D02*
D03*
Y62008D02*
D03*
Y52008D02*
D03*
Y42008D02*
D03*
X288622Y132008D02*
D03*
Y122008D02*
D03*
Y112008D02*
D03*
Y102008D02*
D03*
Y92008D02*
D03*
Y82008D02*
D03*
Y72008D02*
D03*
Y62008D02*
D03*
Y52008D02*
D03*
D65*
Y42008D02*
D03*
D70*
X135120Y129401D02*
G03*
X135082Y129485I-133J-9D01*
G01*
X187598Y126181D02*
X192913Y131496D01*
X187598Y124963D02*
Y126181D01*
X154464Y132816D02*
X158539D01*
X150394Y128745D02*
X154464Y132816D01*
X150394Y122047D02*
Y128745D01*
Y122047D02*
X156299Y116142D01*
X112598Y40945D02*
Y101575D01*
Y40945D02*
X119291Y34252D01*
X19685Y62992D02*
X31102D01*
X14677Y68000D02*
X19685Y62992D01*
X31102D02*
X33071Y61024D01*
X44882Y183071D02*
X59449Y168504D01*
X14500Y178000D02*
X19571Y183071D01*
X44882D01*
X24500Y188000D02*
X54913D01*
X100787Y142126D02*
X106693D01*
X54913Y188000D02*
X100787Y142126D01*
X21260Y381890D02*
X30315Y390945D01*
X231102D01*
X238189Y383858D01*
X131102Y133465D02*
X135082Y129485D01*
X135120Y94963D02*
Y129401D01*
X131102Y133465D02*
Y158268D01*
X135120Y94963D02*
X149213Y109055D01*
X168110D01*
X141732Y112598D02*
X177165D01*
X138976Y115354D02*
Y134646D01*
Y115354D02*
X141732Y112598D01*
X109449Y146850D02*
X118504Y137795D01*
X122441Y83858D02*
Y108858D01*
X118504Y112795D02*
Y137795D01*
Y112795D02*
X122441Y108858D01*
X106693Y142126D02*
X114961Y133858D01*
X117323Y80315D02*
Y105905D01*
X114961Y108268D02*
Y133858D01*
Y108268D02*
X117323Y105905D01*
X122441Y83858D02*
X138583Y67716D01*
X104331Y146850D02*
X109449D01*
X117323Y80315D02*
X134646Y62992D01*
X83465Y137402D02*
X104724D01*
X64173Y118110D02*
X83465Y137402D01*
X121196Y6213D02*
Y9119D01*
X91732Y38583D02*
X121196Y9119D01*
X87008Y15748D02*
Y29528D01*
Y15748D02*
X96063Y6693D01*
X75984Y40551D02*
X87008Y29528D01*
X75984Y40551D02*
Y50394D01*
X58661Y67716D02*
X75984Y50394D01*
X58661Y67716D02*
Y71653D01*
X49606Y84646D02*
Y171260D01*
X54331Y63779D02*
Y79921D01*
X49606Y84646D02*
X54331Y79921D01*
X50000Y44488D02*
Y76772D01*
X44743Y82028D02*
Y169291D01*
Y82028D02*
X50000Y76772D01*
X39370Y79134D02*
X45276Y73228D01*
Y34252D02*
Y73228D01*
X39370Y79134D02*
Y172441D01*
X54331Y63779D02*
X69291Y48819D01*
X50000Y44488D02*
X62598Y31890D01*
X91732Y38583D02*
Y51968D01*
X150787Y42224D02*
X150945Y42382D01*
X169685Y32283D02*
X184252Y17717D01*
X293307D01*
X33071Y49213D02*
X37795Y44488D01*
X41018D01*
X33071Y49213D02*
Y61024D01*
X54724Y88976D02*
Y92520D01*
Y88976D02*
X91732Y51968D01*
X59449Y90945D02*
Y168504D01*
Y90945D02*
X85433Y64961D01*
X75197Y86221D02*
X98819Y62598D01*
Y37008D02*
X114961Y20866D01*
X98819Y37008D02*
Y62598D01*
X114961Y20866D02*
X155512D01*
X115748Y25984D02*
X157874D01*
X103150Y38583D02*
Y66929D01*
Y38583D02*
X115748Y25984D01*
X84646Y85433D02*
X103150Y66929D01*
X117717Y30315D02*
X162598D01*
X107480Y40551D02*
Y105118D01*
Y40551D02*
X117717Y30315D01*
X107480Y105118D02*
X111417Y109055D01*
X119291Y34252D02*
X128740D01*
X157874Y25984D02*
X175984Y7874D01*
X155512Y20866D02*
X172835Y3543D01*
X162598Y30315D02*
X179921Y12992D01*
X69291Y86221D02*
X75197D01*
X64173Y91339D02*
Y118110D01*
Y91339D02*
X69291Y86221D01*
X172835Y3543D02*
X222441D01*
X63779Y70472D02*
Y73228D01*
Y70472D02*
X84646Y49606D01*
Y37795D02*
X91339Y31102D01*
X108661Y3150D02*
X136221D01*
X91339Y20472D02*
Y31102D01*
Y20472D02*
X108661Y3150D01*
X84646Y37795D02*
Y49606D01*
X261910Y61910D02*
X288524D01*
X261903Y61903D02*
X261910Y61910D01*
X288524D02*
X288622Y62008D01*
X14500Y68000D02*
X14677D01*
X164567Y167323D02*
Y243307D01*
X39625Y50000D02*
Y71398D01*
X24500Y78000D02*
X33024D01*
X39625Y71398D01*
X164567Y249213D02*
X175591D01*
X179134Y236614D02*
Y245669D01*
X175591Y249213D02*
X179134Y245669D01*
X160630Y245276D02*
X164567Y249213D01*
X147977Y215693D02*
X160630Y228346D01*
Y245276D01*
X177953Y270472D02*
Y325197D01*
X156988Y234350D02*
Y249508D01*
X177953Y270472D01*
X179134Y236614D02*
X188189Y227559D01*
Y223228D02*
Y227559D01*
X176378Y211417D02*
X188189Y223228D01*
X190157Y235433D02*
Y282283D01*
X176378Y199213D02*
Y211417D01*
X179134Y196457D02*
X181496D01*
X176378Y199213D02*
X179134Y196457D01*
X151181Y274016D02*
X172835Y295669D01*
X151181Y252756D02*
Y274016D01*
X100000Y206693D02*
Y212280D01*
X124016Y204469D02*
Y257087D01*
X190551Y205512D02*
Y210236D01*
X181496Y196457D02*
X190551Y205512D01*
X180857Y204280D02*
Y207629D01*
X190551Y210236D02*
X203543Y223228D01*
X180857Y207629D02*
X214567Y241339D01*
X24500Y178000D02*
X42866D01*
X49606Y171260D01*
X33858Y98032D02*
Y163386D01*
X28740Y92913D02*
X33858Y98032D01*
X18898Y92913D02*
X28740D01*
X14500Y88516D02*
X18898Y92913D01*
X14500Y88000D02*
Y88516D01*
X203543Y223228D02*
X253937D01*
X212798Y212311D02*
X225197D01*
X229527Y208374D02*
X231890Y206012D01*
Y190657D02*
Y206012D01*
X225197Y208374D02*
X229527D01*
X231890Y170185D02*
Y190657D01*
X258268Y227559D02*
Y250787D01*
X253937Y223228D02*
X258268Y227559D01*
X102756Y278346D02*
X118307Y293898D01*
X140407D02*
X140551Y293753D01*
X118307Y293898D02*
X140407D01*
X125197Y287402D02*
X134646D01*
X109055Y271260D02*
X125197Y287402D01*
X109055Y204331D02*
Y271260D01*
X116535Y260236D02*
X146457Y290158D01*
X140551Y303543D02*
X146457Y297638D01*
Y290158D02*
Y297638D01*
X140551Y303543D02*
Y322441D01*
X153543Y329134D02*
Y329528D01*
Y329134D02*
X167323Y315354D01*
X92126Y239764D02*
X102756Y250394D01*
Y278346D01*
X109055Y204331D02*
X124016Y189370D01*
X169685Y32283D02*
Y56693D01*
X130945Y52382D02*
Y56567D01*
X133826Y59449D02*
X166929D01*
X130945Y56567D02*
X133826Y59449D01*
X166929D02*
X169685Y56693D01*
X174803Y35827D02*
Y57874D01*
X169685Y62992D02*
X174803Y57874D01*
X172441Y67716D02*
X181890Y58268D01*
Y39764D02*
Y58268D01*
X174803Y35827D02*
X188583Y22047D01*
X181890Y39764D02*
X191732Y29921D01*
X179921Y12992D02*
X298425D01*
X58268Y231496D02*
X120079Y169685D01*
X58268Y330315D02*
X72835Y344882D01*
X58268Y231496D02*
Y330315D01*
X72835Y344882D02*
Y362598D01*
X74016Y363779D01*
X214961Y297638D02*
Y362795D01*
X198819Y378937D02*
X214961Y362795D01*
X203543Y286221D02*
X214961Y297638D01*
X198819Y352559D02*
X207874Y343504D01*
Y300000D02*
Y343504D01*
X190157Y282283D02*
X207874Y300000D01*
X53181Y198000D02*
X104331Y146850D01*
X64961Y235039D02*
X118504Y181496D01*
X64961Y327559D02*
X79921Y342520D01*
X64961Y235039D02*
Y327559D01*
X138583Y67716D02*
X172441D01*
X100000Y206693D02*
X114567Y192126D01*
X127559Y96457D02*
Y162205D01*
X131496Y166142D01*
Y170866D01*
X180799Y150878D02*
Y177953D01*
X177165Y147244D02*
X180799Y150878D01*
X176378Y137402D02*
Y139764D01*
X171260Y135433D02*
X179438Y127255D01*
X162992Y135433D02*
X171260D01*
X179438Y127116D02*
Y127255D01*
X184252Y126378D02*
Y129527D01*
X176378Y137402D02*
X184252Y129527D01*
X181496Y123622D02*
X184252Y126378D01*
X173622Y123622D02*
X181496D01*
X166240Y124902D02*
X172343D01*
X173622Y123622D01*
X155610Y127461D02*
X162205Y120866D01*
X238583D02*
X244882Y114567D01*
X162205Y120866D02*
X238583D01*
X197244Y128347D02*
X235827D01*
X184646Y135039D02*
X242520D01*
X182283Y137402D02*
X184646Y135039D01*
X242520D02*
X249606Y127953D01*
X277953D01*
X172047Y143701D02*
X199606D01*
X166929Y148819D02*
X172047Y143701D01*
X199606D02*
X203150Y147244D01*
X150787Y141339D02*
X157087D01*
X162992Y135433D01*
X277953Y127953D02*
X282008Y132008D01*
X288622D01*
X185433Y109055D02*
X250394D01*
X263386Y122047D02*
X288583D01*
X250394Y109055D02*
X263386Y122047D01*
X154823Y127461D02*
X155610D01*
X164567Y145669D02*
X169685Y140551D01*
X152756Y145669D02*
X164567D01*
X146457Y143701D02*
X151575Y148819D01*
X166929D01*
X143169Y122441D02*
X146457Y125729D01*
Y143701D01*
X150394Y76772D02*
Y81890D01*
X153937Y85433D01*
Y93701D02*
X160630Y100394D01*
X153937Y85433D02*
Y93701D01*
X170866Y100394D02*
X175197Y104724D01*
X160630Y100394D02*
X170866D01*
X186491Y96371D02*
X217507Y65354D01*
X162268Y96371D02*
X186491D01*
X182369Y91252D02*
X214961Y58661D01*
X161875Y91252D02*
X182369D01*
X197638Y104331D02*
X219493Y82476D01*
X190157Y104331D02*
X197638D01*
X142126Y145276D02*
X155118Y158268D01*
Y183071D01*
X135827Y137795D02*
X138976Y134646D01*
X135827Y137795D02*
Y154331D01*
X150394Y168898D01*
Y185039D02*
X153543Y188189D01*
X150394Y168898D02*
Y185039D01*
X142126Y140551D02*
Y145276D01*
X153543Y188189D02*
X158661D01*
X160236Y186614D02*
X160236D01*
X158661Y188189D02*
X160236Y186614D01*
X156299Y116142D02*
X227953D01*
X172147Y214667D02*
X179921Y222441D01*
X172147Y149606D02*
Y214667D01*
X203150Y147244D02*
X240158D01*
X214567Y241339D02*
Y257087D01*
X148031Y100394D02*
X151969Y104331D01*
X168898D01*
X177165Y112598D01*
X140157Y173228D02*
Y240158D01*
Y167323D02*
Y173228D01*
X145669Y178740D01*
X131102Y158268D02*
X140157Y167323D01*
X131496Y170866D02*
Y242913D01*
X138189Y88976D02*
X143701D01*
X148031Y93307D02*
Y100394D01*
X143701Y88976D02*
X148031Y93307D01*
X214961Y58661D02*
X251034D01*
X192126Y99606D02*
X218110Y73622D01*
X179134Y100000D02*
X179394Y99739D01*
X180268D01*
X180401Y99606D01*
X192126D01*
X84646Y111811D02*
X105315Y132480D01*
X84646Y85433D02*
Y111811D01*
X188583Y22047D02*
X218110D01*
X220079Y24016D01*
X298425Y12992D02*
X316929Y31496D01*
X175984Y7874D02*
X311811D01*
X5906Y173228D02*
Y200000D01*
X8661Y202756D02*
X57480D01*
X5906Y200000D02*
X8661Y202756D01*
X57480D02*
X99606Y160630D01*
X105905D01*
X24500Y198000D02*
X53181D01*
X50787Y227618D02*
X121220Y157185D01*
X50787Y227618D02*
Y268110D01*
X120079Y169685D02*
X124016D01*
X118504Y177953D02*
Y181496D01*
X14001Y168499D02*
X14500Y168000D01*
X10635Y168499D02*
X14001D01*
X5906Y173228D02*
X10635Y168499D01*
X111417Y109055D02*
Y125197D01*
X130945Y36457D02*
Y42382D01*
X128740Y34252D02*
X130945Y36457D01*
X131102Y84646D02*
Y126378D01*
Y84646D02*
X143307Y72441D01*
X311811Y7874D02*
X328740Y24803D01*
Y57874D01*
X298622Y72008D02*
X314606D01*
X328740Y57874D01*
X252756Y134646D02*
X274016D01*
X240158Y147244D02*
X252756Y134646D01*
X178347Y76378D02*
X209055Y45669D01*
X270079D01*
X283858Y31890D01*
X251034Y58661D02*
X284381Y92008D01*
X217507Y65354D02*
X248031D01*
X284617Y101940D01*
X275984Y107087D02*
X293307D01*
X218110Y73622D02*
X242520D01*
X275984Y107087D01*
X298386Y102008D02*
X298622D01*
X293307Y107087D02*
X298386Y102008D01*
X219493Y82476D02*
X238381D01*
X272835Y116929D01*
X293701D01*
X298622Y121850D02*
Y122008D01*
X293701Y116929D02*
X298622Y121850D01*
X288554Y101940D02*
X288622Y102008D01*
X284617Y101940D02*
X288554D01*
X303150Y144095D02*
X310236Y137008D01*
Y116535D02*
Y137008D01*
X305709Y112008D02*
X310236Y116535D01*
X134646Y62992D02*
X169685D01*
X316929Y31496D02*
Y52362D01*
X307283Y62008D02*
X316929Y52362D01*
X303898Y52008D02*
X307480Y48425D01*
Y35433D02*
Y48425D01*
X297244Y25197D02*
X307480Y35433D01*
X298622Y52008D02*
X303898D01*
X298622Y62008D02*
X307283D01*
X143307Y72441D02*
X174409D01*
X195276Y39370D02*
X267323D01*
X188976Y45669D02*
Y57874D01*
Y45669D02*
X195276Y39370D01*
X174409Y72441D02*
X188976Y57874D01*
X283858Y31890D02*
X295669D01*
X281496Y25197D02*
X297244D01*
X155512Y79528D02*
X158661Y76378D01*
X178347D01*
X191732Y29921D02*
X212205D01*
X267323Y39370D02*
X281496Y25197D01*
X45276Y34252D02*
X55118Y24409D01*
X62598Y24803D02*
Y31890D01*
Y24803D02*
X62992Y24409D01*
X220079Y24016D02*
Y29921D01*
X295669Y31890D02*
X298622Y34843D01*
Y42008D01*
X283465Y144095D02*
X303150D01*
X274016Y134646D02*
X283465Y144095D01*
X298622Y112008D02*
X305709D01*
X197735Y162608D02*
X212502D01*
X190157Y161130D02*
Y180421D01*
Y161130D02*
X192520Y158768D01*
X197638D01*
X288583Y122047D02*
X288622Y122008D01*
X230315Y168610D02*
X231890Y170185D01*
X262402Y162165D02*
X262819Y162583D01*
X284381Y92008D02*
X288622D01*
X212559Y52008D02*
X288622D01*
X161811Y82933D02*
X181634D01*
X212559Y52008D01*
X238189Y378937D02*
Y383858D01*
X21260Y352362D02*
X37008Y336614D01*
X21260Y352362D02*
Y381890D01*
X37008Y281890D02*
Y336614D01*
Y281890D02*
X50787Y268110D01*
X79921Y342520D02*
X110630D01*
X116535Y348425D02*
Y359449D01*
X110630Y342520D02*
X116535Y348425D01*
Y204331D02*
Y260236D01*
Y204331D02*
X121654Y199213D01*
X123622D01*
X74016Y363779D02*
X148031D01*
X151575Y342520D02*
X172835Y321260D01*
Y295669D02*
Y321260D01*
X124016Y257087D02*
X167323Y300394D01*
Y315354D01*
X151575Y342520D02*
Y352559D01*
X161417Y341732D02*
X177953Y325197D01*
X203543Y251969D02*
Y286221D01*
X131496Y242913D02*
X136221Y247638D01*
X161417Y341732D02*
Y369094D01*
X151575Y378937D02*
X161417Y369094D01*
X190157Y180421D02*
Y196169D01*
X192126Y178453D02*
X197638D01*
X190157Y180421D02*
X192126Y178453D01*
X190157Y196169D02*
X192913Y198925D01*
X197638D01*
X225197Y188689D02*
X229921D01*
X231890Y190657D01*
X225590Y168610D02*
X230315D01*
X14295Y47795D02*
X14500Y48000D01*
X40890Y218449D02*
X41339Y218898D01*
X24949Y218449D02*
X40890D01*
X24500Y218000D02*
X24949Y218449D01*
X24500Y218000D02*
Y228000D01*
X197813Y202687D02*
X212423D01*
X212656Y192568D02*
X225139D01*
X197698Y182450D02*
X212538D01*
X212617Y172529D02*
X225572D01*
D71*
X228740Y264567D02*
X234449Y258858D01*
X228740Y327097D02*
X232776Y331132D01*
X228740Y264567D02*
Y327097D01*
X234449Y237008D02*
X234449Y258858D01*
X261516Y334675D02*
Y385335D01*
X232776Y331132D02*
X257972D01*
X261417Y385433D02*
X261516Y385335D01*
X257972Y331132D02*
X261516Y334675D01*
X67323Y348031D02*
Y366142D01*
X53543Y340551D02*
X59842D01*
X67323Y348031D01*
Y366142D02*
X70866Y369685D01*
X111024D01*
X116142Y374803D02*
Y380709D01*
X111024Y369685D02*
X116142Y374803D01*
X122047Y386614D02*
X208268D01*
X116142Y380709D02*
X122047Y386614D01*
X208268D02*
X213779Y381102D01*
X248031Y236811D02*
X248228Y237008D01*
X248031Y232283D02*
Y236811D01*
X227559Y227953D02*
X243701D01*
X248031Y232283D01*
X220866Y234646D02*
X227559Y227953D01*
X220866Y234646D02*
Y327953D01*
X231890Y338976D01*
X250000D01*
X255118Y344094D02*
Y362992D01*
X250000Y338976D02*
X255118Y344094D01*
X219291Y368110D02*
X250000D01*
X255118Y362992D01*
X213779Y373622D02*
X219291Y368110D01*
X213779Y373622D02*
Y381102D01*
X46063Y312795D02*
Y333071D01*
X53543Y340551D01*
X282677Y174016D02*
X293307D01*
X262819Y162583D02*
X271244D01*
X282677Y174016D01*
D72*
X160945Y52382D02*
D03*
D73*
Y42382D02*
D03*
X150945Y52382D02*
D03*
Y42382D02*
D03*
X140945D02*
D03*
Y52382D02*
D03*
X130945Y42382D02*
D03*
X120945D02*
D03*
X130945Y52382D02*
D03*
X120945D02*
D03*
D74*
X74252Y98032D02*
D03*
D75*
X94252D02*
D03*
D76*
X212402Y212165D02*
D03*
D77*
Y202165D02*
D03*
Y192165D02*
D03*
Y182165D02*
D03*
Y172165D02*
D03*
Y162165D02*
D03*
Y152165D02*
D03*
Y142165D02*
D03*
X262402D02*
D03*
Y152165D02*
D03*
Y162165D02*
D03*
Y172165D02*
D03*
Y182165D02*
D03*
Y192165D02*
D03*
Y202165D02*
D03*
Y212165D02*
D03*
D78*
X19500Y18827D02*
D03*
Y247173D02*
D03*
D79*
X14500Y228000D02*
D03*
D80*
Y218000D02*
D03*
Y208000D02*
D03*
Y198000D02*
D03*
Y188000D02*
D03*
Y178000D02*
D03*
X24500Y228000D02*
D03*
Y218000D02*
D03*
Y208000D02*
D03*
Y198000D02*
D03*
Y188000D02*
D03*
Y178000D02*
D03*
X14500Y168000D02*
D03*
X24500D02*
D03*
X14500Y158000D02*
D03*
Y148000D02*
D03*
Y138000D02*
D03*
Y128000D02*
D03*
Y118000D02*
D03*
Y108000D02*
D03*
X24500Y158000D02*
D03*
Y148000D02*
D03*
Y138000D02*
D03*
Y128000D02*
D03*
Y118000D02*
D03*
Y108000D02*
D03*
X14500Y98000D02*
D03*
X24500D02*
D03*
X14500Y88000D02*
D03*
Y78000D02*
D03*
Y68000D02*
D03*
Y58000D02*
D03*
Y48000D02*
D03*
Y38000D02*
D03*
X24500Y88000D02*
D03*
Y78000D02*
D03*
Y68000D02*
D03*
Y58000D02*
D03*
Y48000D02*
D03*
Y38000D02*
D03*
D81*
X46063Y302953D02*
D03*
X244488Y311811D02*
D03*
X260236D02*
D03*
X252362D02*
D03*
X111811Y302953D02*
D03*
X316929Y352165D02*
D03*
X332677D02*
D03*
X324803D02*
D03*
X269685D02*
D03*
X285433D02*
D03*
X277559D02*
D03*
X222441D02*
D03*
X238189D02*
D03*
X230315D02*
D03*
X78937Y302953D02*
D03*
X80709Y352559D02*
D03*
X96457D02*
D03*
X88583D02*
D03*
X80709Y378937D02*
D03*
X96457D02*
D03*
X88583D02*
D03*
X33465Y352559D02*
D03*
X49213D02*
D03*
X41339D02*
D03*
X33465Y378937D02*
D03*
X49213D02*
D03*
X41339D02*
D03*
X175197Y352559D02*
D03*
X190945D02*
D03*
X183071D02*
D03*
X175197Y378937D02*
D03*
X190945D02*
D03*
X183071D02*
D03*
X127953Y352559D02*
D03*
X143701D02*
D03*
X135827D02*
D03*
X127953Y378937D02*
D03*
X143701D02*
D03*
X135827D02*
D03*
X316929D02*
D03*
X332677D02*
D03*
X324803D02*
D03*
X269685D02*
D03*
X285433D02*
D03*
X277559D02*
D03*
X222441D02*
D03*
X238189D02*
D03*
X230315D02*
D03*
X78740Y24409D02*
D03*
X62992D02*
D03*
X70866D02*
D03*
D82*
X46063Y312795D02*
D03*
X268110Y311811D02*
D03*
X111811Y312795D02*
D03*
X340551Y352165D02*
D03*
X293307D02*
D03*
X246063D02*
D03*
X78937Y312795D02*
D03*
X104331Y352559D02*
D03*
Y378937D02*
D03*
X57087Y352559D02*
D03*
Y378937D02*
D03*
X198819Y352559D02*
D03*
Y378937D02*
D03*
X151575Y352559D02*
D03*
Y378937D02*
D03*
X340551D02*
D03*
X293307D02*
D03*
X246063D02*
D03*
X55118Y24409D02*
D03*
D83*
X196932Y308661D02*
D03*
X158858D02*
D03*
D84*
X187089D02*
D03*
X149016D02*
D03*
D85*
X16535Y328346D02*
D03*
X344488Y11811D02*
D03*
Y327953D02*
D03*
D86*
X338189Y295905D02*
D03*
Y275905D02*
D03*
D87*
Y255906D02*
D03*
D88*
X293307Y164173D02*
D03*
D89*
Y174016D02*
D03*
Y183858D02*
D03*
Y193701D02*
D03*
D90*
X187598Y124963D02*
D03*
X158539Y132816D02*
D03*
X122835Y121653D02*
D03*
X112598Y101575D02*
D03*
X135120Y94963D02*
D03*
X104724Y137402D02*
D03*
X121260Y151181D02*
D03*
X121196Y6213D02*
D03*
X96063Y6693D02*
D03*
X58661Y71653D02*
D03*
X293307Y17717D02*
D03*
X69291Y48819D02*
D03*
X41018Y44488D02*
D03*
X54724Y92520D02*
D03*
X222441Y3543D02*
D03*
X63779Y73228D02*
D03*
X85433Y64961D02*
D03*
X136221Y3150D02*
D03*
X261903Y61903D02*
D03*
X74803Y139232D02*
D03*
X164567Y167323D02*
D03*
X39625Y50000D02*
D03*
X190157Y235433D02*
D03*
X156988Y234350D02*
D03*
X164567Y243307D02*
D03*
X151181Y252756D02*
D03*
X147977Y215693D02*
D03*
X100000Y212280D02*
D03*
X124016Y204469D02*
D03*
X145079Y220079D02*
D03*
X180857Y204280D02*
D03*
X52362Y183858D02*
D03*
X33858Y163386D02*
D03*
X39370Y172441D02*
D03*
X44743Y169291D02*
D03*
X258268Y250787D02*
D03*
X134646Y287402D02*
D03*
X140551Y293753D02*
D03*
Y322441D02*
D03*
X153543Y329528D02*
D03*
X235433Y323622D02*
D03*
X92126Y239764D02*
D03*
X40945Y238976D02*
D03*
X261417Y385433D02*
D03*
X83858Y126378D02*
D03*
X72441Y239370D02*
D03*
X114567Y192126D02*
D03*
X124016Y189370D02*
D03*
X127559Y96457D02*
D03*
X177165Y147244D02*
D03*
X176378Y139764D02*
D03*
X180799Y177953D02*
D03*
X179438Y127116D02*
D03*
X235827Y128347D02*
D03*
X197244D02*
D03*
X192913Y131496D02*
D03*
X182283Y137402D02*
D03*
X244882Y114567D02*
D03*
X166240Y124902D02*
D03*
X154823Y127461D02*
D03*
X152756Y145669D02*
D03*
X169685Y140551D02*
D03*
X150394Y76772D02*
D03*
X162268Y96371D02*
D03*
X161875Y91252D02*
D03*
X175197Y104724D02*
D03*
X190157Y104331D02*
D03*
X185433Y109055D02*
D03*
X179134Y79134D02*
D03*
X142126Y140551D02*
D03*
X142413Y152075D02*
D03*
X155118Y183071D02*
D03*
X168110Y109055D02*
D03*
X143169Y122441D02*
D03*
X160236Y186614D02*
D03*
X172147Y149606D02*
D03*
X179921Y222441D02*
D03*
X177165Y112598D02*
D03*
X145669Y178740D02*
D03*
X150787Y141339D02*
D03*
X138189Y88976D02*
D03*
X179134Y100000D02*
D03*
X105315Y132480D02*
D03*
X105905Y160630D02*
D03*
X121220Y157185D02*
D03*
X72638Y198150D02*
D03*
X131102Y126378D02*
D03*
X111417Y125197D02*
D03*
X214567Y257087D02*
D03*
X227953Y116142D02*
D03*
X190157Y151969D02*
D03*
X161811Y82933D02*
D03*
X155512Y79528D02*
D03*
X145079Y80905D02*
D03*
X116535Y359449D02*
D03*
X118504Y177953D02*
D03*
X124016Y169685D02*
D03*
X140157Y167323D02*
D03*
X131496Y170866D02*
D03*
X148031Y363779D02*
D03*
X123622Y199213D02*
D03*
X209842Y281102D02*
D03*
X203543Y251969D02*
D03*
X140157Y240158D02*
D03*
X136221Y247638D02*
D03*
X145079Y115748D02*
D03*
Y185236D02*
D03*
X190157Y174409D02*
D03*
X231890Y180421D02*
D03*
X96653Y270079D02*
D03*
D91*
X197638Y178453D02*
D03*
Y182390D02*
D03*
Y186327D02*
D03*
X225197Y216248D02*
D03*
Y212311D02*
D03*
Y208374D02*
D03*
X41339Y218898D02*
D03*
Y222835D02*
D03*
Y226772D02*
D03*
X225590Y168610D02*
D03*
Y172547D02*
D03*
Y176484D02*
D03*
X197638Y166642D02*
D03*
Y162705D02*
D03*
Y158768D02*
D03*
Y198925D02*
D03*
Y202862D02*
D03*
Y206799D02*
D03*
X225197Y196563D02*
D03*
Y192626D02*
D03*
Y188689D02*
D03*
M02*
