G04*
G04 #@! TF.GenerationSoftware,Altium Limited,Altium Designer,20.1.8 (145)*
G04*
G04 Layer_Color=8388736*
%FSLAX25Y25*%
%MOIN*%
G70*
G04*
G04 #@! TF.SameCoordinates,8A5546FC-2E64-4ACD-A3F0-66F597033F2E*
G04*
G04*
G04 #@! TF.FilePolarity,Negative*
G04*
G01*
G75*
G04:AMPARAMS|DCode=29|XSize=60.01mil|YSize=22.75mil|CornerRadius=11.38mil|HoleSize=0mil|Usage=FLASHONLY|Rotation=270.000|XOffset=0mil|YOffset=0mil|HoleType=Round|Shape=RoundedRectangle|*
%AMROUNDEDRECTD29*
21,1,0.06001,0.00000,0,0,270.0*
21,1,0.03725,0.02275,0,0,270.0*
1,1,0.02275,0.00000,-0.01863*
1,1,0.02275,0.00000,0.01863*
1,1,0.02275,0.00000,0.01863*
1,1,0.02275,0.00000,-0.01863*
%
%ADD29ROUNDEDRECTD29*%
%ADD30R,0.02275X0.06001*%
G04:AMPARAMS|DCode=34|XSize=25.72mil|YSize=63.12mil|CornerRadius=5.95mil|HoleSize=0mil|Usage=FLASHONLY|Rotation=90.000|XOffset=0mil|YOffset=0mil|HoleType=Round|Shape=RoundedRectangle|*
%AMROUNDEDRECTD34*
21,1,0.02572,0.05122,0,0,90.0*
21,1,0.01382,0.06312,0,0,90.0*
1,1,0.01190,0.02561,0.00691*
1,1,0.01190,0.02561,-0.00691*
1,1,0.01190,-0.02561,-0.00691*
1,1,0.01190,-0.02561,0.00691*
%
%ADD34ROUNDEDRECTD34*%
G04:AMPARAMS|DCode=35|XSize=27.69mil|YSize=45.4mil|CornerRadius=8.92mil|HoleSize=0mil|Usage=FLASHONLY|Rotation=180.000|XOffset=0mil|YOffset=0mil|HoleType=Round|Shape=RoundedRectangle|*
%AMROUNDEDRECTD35*
21,1,0.02769,0.02756,0,0,180.0*
21,1,0.00984,0.04540,0,0,180.0*
1,1,0.01784,-0.00492,0.01378*
1,1,0.01784,0.00492,0.01378*
1,1,0.01784,0.00492,-0.01378*
1,1,0.01784,-0.00492,-0.01378*
%
%ADD35ROUNDEDRECTD35*%
%ADD36R,0.02769X0.04540*%
%ADD37R,0.03950X0.03950*%
G04:AMPARAMS|DCode=38|XSize=39.5mil|YSize=39.5mil|CornerRadius=11.87mil|HoleSize=0mil|Usage=FLASHONLY|Rotation=180.000|XOffset=0mil|YOffset=0mil|HoleType=Round|Shape=RoundedRectangle|*
%AMROUNDEDRECTD38*
21,1,0.03950,0.01575,0,0,180.0*
21,1,0.01575,0.03950,0,0,180.0*
1,1,0.02375,-0.00787,0.00787*
1,1,0.02375,0.00787,0.00787*
1,1,0.02375,0.00787,-0.00787*
1,1,0.02375,-0.00787,-0.00787*
%
%ADD38ROUNDEDRECTD38*%
%ADD39R,0.07099X0.12611*%
%ADD40R,0.23635X0.25210*%
G04:AMPARAMS|DCode=41|XSize=27.69mil|YSize=45.4mil|CornerRadius=8.92mil|HoleSize=0mil|Usage=FLASHONLY|Rotation=270.000|XOffset=0mil|YOffset=0mil|HoleType=Round|Shape=RoundedRectangle|*
%AMROUNDEDRECTD41*
21,1,0.02769,0.02756,0,0,270.0*
21,1,0.00984,0.04540,0,0,270.0*
1,1,0.01784,-0.01378,-0.00492*
1,1,0.01784,-0.01378,0.00492*
1,1,0.01784,0.01378,0.00492*
1,1,0.01784,0.01378,-0.00492*
%
%ADD41ROUNDEDRECTD41*%
%ADD42R,0.04540X0.02769*%
%ADD43R,0.12611X0.07099*%
%ADD44R,0.25210X0.23635*%
%ADD45R,0.07493X0.10642*%
%ADD46R,0.07099X0.07099*%
%ADD47C,0.07099*%
%ADD48R,0.08280X0.08280*%
%ADD49C,0.08280*%
%ADD50R,0.06824X0.06824*%
%ADD51C,0.06824*%
%ADD52C,0.05118*%
%ADD53R,0.05118X0.05118*%
%ADD54C,0.11627*%
%ADD55R,0.06800X0.06800*%
%ADD56C,0.06800*%
%ADD57C,0.06706*%
%ADD58R,0.06706X0.06706*%
%ADD59O,0.07099X0.08674*%
G04:AMPARAMS|DCode=60|XSize=86.74mil|YSize=70.99mil|CornerRadius=19.75mil|HoleSize=0mil|Usage=FLASHONLY|Rotation=90.000|XOffset=0mil|YOffset=0mil|HoleType=Round|Shape=RoundedRectangle|*
%AMROUNDEDRECTD60*
21,1,0.08674,0.03150,0,0,90.0*
21,1,0.04724,0.07099,0,0,90.0*
1,1,0.03950,0.01575,0.02362*
1,1,0.03950,0.01575,-0.02362*
1,1,0.03950,-0.01575,-0.02362*
1,1,0.03950,-0.01575,0.02362*
%
%ADD60ROUNDEDRECTD60*%
%ADD61C,0.12611*%
%ADD62C,0.05512*%
%ADD63R,0.05512X0.05512*%
%ADD64C,0.06181*%
%ADD65R,0.06181X0.06181*%
%ADD66C,0.10642*%
%ADD67R,0.10642X0.10642*%
%ADD68R,0.06509X0.06509*%
%ADD69C,0.06509*%
D29*
X266976Y245730D02*
D03*
X263236Y252897D02*
D03*
D30*
X270716D02*
D03*
D34*
X148425Y239469D02*
D03*
Y236909D02*
D03*
Y234350D02*
D03*
Y231791D02*
D03*
Y229232D02*
D03*
Y226673D02*
D03*
Y224114D02*
D03*
Y221555D02*
D03*
X171653Y239469D02*
D03*
Y236909D02*
D03*
Y234350D02*
D03*
Y231791D02*
D03*
Y229232D02*
D03*
Y226673D02*
D03*
Y224114D02*
D03*
Y221555D02*
D03*
X148425Y169980D02*
D03*
Y167421D02*
D03*
Y164862D02*
D03*
Y162303D02*
D03*
Y159744D02*
D03*
Y157185D02*
D03*
Y154626D02*
D03*
Y152067D02*
D03*
X171653Y169980D02*
D03*
Y167421D02*
D03*
Y164862D02*
D03*
Y162303D02*
D03*
Y159744D02*
D03*
Y157185D02*
D03*
Y154626D02*
D03*
Y152067D02*
D03*
X148425Y204626D02*
D03*
Y202067D02*
D03*
Y199508D02*
D03*
Y196949D02*
D03*
Y194390D02*
D03*
Y191831D02*
D03*
Y189272D02*
D03*
Y186713D02*
D03*
X171653Y204626D02*
D03*
Y202067D02*
D03*
Y199508D02*
D03*
Y196949D02*
D03*
Y194390D02*
D03*
Y191831D02*
D03*
Y189272D02*
D03*
Y186713D02*
D03*
X148425Y135138D02*
D03*
Y132579D02*
D03*
Y130020D02*
D03*
Y127461D02*
D03*
Y124902D02*
D03*
Y122343D02*
D03*
Y119783D02*
D03*
Y117224D02*
D03*
X171653Y135138D02*
D03*
Y132579D02*
D03*
Y130020D02*
D03*
Y127461D02*
D03*
Y124902D02*
D03*
Y122343D02*
D03*
Y119783D02*
D03*
Y117224D02*
D03*
Y82382D02*
D03*
Y84941D02*
D03*
Y87500D02*
D03*
Y90059D02*
D03*
Y92618D02*
D03*
Y95177D02*
D03*
Y97736D02*
D03*
Y100295D02*
D03*
X148425Y82382D02*
D03*
Y84941D02*
D03*
Y87500D02*
D03*
Y90059D02*
D03*
Y92618D02*
D03*
Y95177D02*
D03*
Y97736D02*
D03*
Y100295D02*
D03*
D35*
X133813Y221457D02*
D03*
X138931D02*
D03*
X131693Y115748D02*
D03*
X136811D02*
D03*
D36*
X79429Y286221D02*
D03*
X74311D02*
D03*
X46555D02*
D03*
X41437D02*
D03*
X47835Y244882D02*
D03*
X52953D02*
D03*
X47543Y233673D02*
D03*
X52661D02*
D03*
X77756Y205118D02*
D03*
X72638D02*
D03*
X93898D02*
D03*
X88779D02*
D03*
X219488Y317717D02*
D03*
X224606D02*
D03*
X264417Y266636D02*
D03*
X269535D02*
D03*
Y232778D02*
D03*
X264417D02*
D03*
X112303Y286221D02*
D03*
X107185D02*
D03*
X336811Y193701D02*
D03*
X331693D02*
D03*
X336811Y183858D02*
D03*
X331693D02*
D03*
X336811Y174016D02*
D03*
X331693D02*
D03*
X336811Y163779D02*
D03*
X331693D02*
D03*
D37*
X74311Y275984D02*
D03*
X41437D02*
D03*
X225787Y305906D02*
D03*
X107185Y275984D02*
D03*
X321457Y193701D02*
D03*
Y183858D02*
D03*
Y174016D02*
D03*
Y163779D02*
D03*
D38*
X80216Y275984D02*
D03*
X47343D02*
D03*
X219882Y305906D02*
D03*
X113091Y275984D02*
D03*
X315551Y193701D02*
D03*
Y183858D02*
D03*
Y174016D02*
D03*
Y163779D02*
D03*
D39*
X92087Y189764D02*
D03*
X74055D02*
D03*
D40*
X83071Y161417D02*
D03*
D41*
X137795Y180118D02*
D03*
Y185236D02*
D03*
Y80905D02*
D03*
Y75787D02*
D03*
X137795Y145472D02*
D03*
Y150591D02*
D03*
D42*
X184646Y151969D02*
D03*
Y157087D02*
D03*
Y79724D02*
D03*
Y84842D02*
D03*
X216929Y263189D02*
D03*
Y268307D02*
D03*
X273228Y288386D02*
D03*
Y283268D02*
D03*
X216929Y276181D02*
D03*
Y281299D02*
D03*
D43*
X199213Y263032D02*
D03*
Y281063D02*
D03*
D44*
X170866Y272047D02*
D03*
D45*
X144882Y262992D02*
D03*
Y278740D02*
D03*
D46*
X160945Y52382D02*
D03*
D47*
Y42382D02*
D03*
X150945Y52382D02*
D03*
Y42382D02*
D03*
X140945D02*
D03*
Y52382D02*
D03*
X130945Y42382D02*
D03*
X120945D02*
D03*
X130945Y52382D02*
D03*
X120945D02*
D03*
D48*
X74252Y98032D02*
D03*
D49*
X94252D02*
D03*
D50*
X212402Y212165D02*
D03*
D51*
Y202165D02*
D03*
Y192165D02*
D03*
Y182165D02*
D03*
Y172165D02*
D03*
Y162165D02*
D03*
Y152165D02*
D03*
Y142165D02*
D03*
X262402D02*
D03*
Y152165D02*
D03*
Y162165D02*
D03*
Y172165D02*
D03*
Y182165D02*
D03*
Y192165D02*
D03*
Y202165D02*
D03*
Y212165D02*
D03*
D52*
X234449Y237008D02*
D03*
X251575Y29921D02*
D03*
X243701D02*
D03*
X235827D02*
D03*
X227953D02*
D03*
X220079D02*
D03*
D53*
X248228Y237008D02*
D03*
X212205Y29921D02*
D03*
D54*
X19500Y18827D02*
D03*
Y247173D02*
D03*
D55*
X14500Y228000D02*
D03*
D56*
Y218000D02*
D03*
Y208000D02*
D03*
Y198000D02*
D03*
Y188000D02*
D03*
Y178000D02*
D03*
X24500Y228000D02*
D03*
Y218000D02*
D03*
Y208000D02*
D03*
Y198000D02*
D03*
Y188000D02*
D03*
Y178000D02*
D03*
X14500Y168000D02*
D03*
X24500D02*
D03*
X14500Y158000D02*
D03*
Y148000D02*
D03*
Y138000D02*
D03*
Y128000D02*
D03*
Y118000D02*
D03*
Y108000D02*
D03*
X24500Y158000D02*
D03*
Y148000D02*
D03*
Y138000D02*
D03*
Y128000D02*
D03*
Y118000D02*
D03*
Y108000D02*
D03*
X14500Y98000D02*
D03*
X24500D02*
D03*
X14500Y88000D02*
D03*
Y78000D02*
D03*
Y68000D02*
D03*
Y58000D02*
D03*
Y48000D02*
D03*
Y38000D02*
D03*
X24500Y88000D02*
D03*
Y78000D02*
D03*
Y68000D02*
D03*
Y58000D02*
D03*
Y48000D02*
D03*
Y38000D02*
D03*
D57*
X46063Y302953D02*
D03*
X244488Y311811D02*
D03*
X260236D02*
D03*
X252362D02*
D03*
X111811Y302953D02*
D03*
X316929Y352165D02*
D03*
X332677D02*
D03*
X324803D02*
D03*
X269685D02*
D03*
X285433D02*
D03*
X277559D02*
D03*
X222441D02*
D03*
X238189D02*
D03*
X230315D02*
D03*
X78937Y302953D02*
D03*
X80709Y352559D02*
D03*
X96457D02*
D03*
X88583D02*
D03*
X80709Y378937D02*
D03*
X96457D02*
D03*
X88583D02*
D03*
X33465Y352559D02*
D03*
X49213D02*
D03*
X41339D02*
D03*
X33465Y378937D02*
D03*
X49213D02*
D03*
X41339D02*
D03*
X175197Y352559D02*
D03*
X190945D02*
D03*
X183071D02*
D03*
X175197Y378937D02*
D03*
X190945D02*
D03*
X183071D02*
D03*
X127953Y352559D02*
D03*
X143701D02*
D03*
X135827D02*
D03*
X127953Y378937D02*
D03*
X143701D02*
D03*
X135827D02*
D03*
X316929D02*
D03*
X332677D02*
D03*
X324803D02*
D03*
X269685D02*
D03*
X285433D02*
D03*
X277559D02*
D03*
X222441D02*
D03*
X238189D02*
D03*
X230315D02*
D03*
X78740Y24409D02*
D03*
X62992D02*
D03*
X70866D02*
D03*
D58*
X46063Y312795D02*
D03*
X268110Y311811D02*
D03*
X111811Y312795D02*
D03*
X340551Y352165D02*
D03*
X293307D02*
D03*
X246063D02*
D03*
X78937Y312795D02*
D03*
X104331Y352559D02*
D03*
Y378937D02*
D03*
X57087Y352559D02*
D03*
Y378937D02*
D03*
X198819Y352559D02*
D03*
Y378937D02*
D03*
X151575Y352559D02*
D03*
Y378937D02*
D03*
X340551D02*
D03*
X293307D02*
D03*
X246063D02*
D03*
X55118Y24409D02*
D03*
D59*
X196932Y308661D02*
D03*
X158858D02*
D03*
D60*
X187089D02*
D03*
X149016D02*
D03*
D61*
X16535Y328346D02*
D03*
X344488Y11811D02*
D03*
Y327953D02*
D03*
D62*
X293996Y300787D02*
D03*
Y290945D02*
D03*
X292421Y240158D02*
D03*
Y230315D02*
D03*
D63*
X293996Y281102D02*
D03*
X292421Y220472D02*
D03*
D64*
X298622Y132008D02*
D03*
Y122008D02*
D03*
Y112008D02*
D03*
Y102008D02*
D03*
Y92008D02*
D03*
Y82008D02*
D03*
Y72008D02*
D03*
Y62008D02*
D03*
Y52008D02*
D03*
Y42008D02*
D03*
X288622Y132008D02*
D03*
Y122008D02*
D03*
Y112008D02*
D03*
Y102008D02*
D03*
Y92008D02*
D03*
Y82008D02*
D03*
Y72008D02*
D03*
Y62008D02*
D03*
Y52008D02*
D03*
D65*
Y42008D02*
D03*
D66*
X338189Y295905D02*
D03*
Y275905D02*
D03*
D67*
Y255906D02*
D03*
D68*
X293307Y164173D02*
D03*
D69*
Y174016D02*
D03*
Y183858D02*
D03*
Y193701D02*
D03*
M02*
