G04*
G04 #@! TF.GenerationSoftware,Altium Limited,Altium Designer,20.1.8 (145)*
G04*
G04 Layer_Color=16711935*
%FSLAX25Y25*%
%MOIN*%
G70*
G04*
G04 #@! TF.SameCoordinates,8A5546FC-2E64-4ACD-A3F0-66F597033F2E*
G04*
G04*
G04 #@! TF.FilePolarity,Negative*
G04*
G01*
G75*
%ADD46R,0.07099X0.07099*%
%ADD47C,0.07099*%
%ADD48R,0.08280X0.08280*%
%ADD49C,0.08280*%
%ADD50R,0.06824X0.06824*%
%ADD51C,0.06824*%
%ADD52C,0.05118*%
%ADD53R,0.05118X0.05118*%
%ADD54C,0.11627*%
%ADD55R,0.06800X0.06800*%
%ADD56C,0.06800*%
%ADD57C,0.06706*%
%ADD58R,0.06706X0.06706*%
%ADD59O,0.07099X0.08674*%
G04:AMPARAMS|DCode=60|XSize=86.74mil|YSize=70.99mil|CornerRadius=19.75mil|HoleSize=0mil|Usage=FLASHONLY|Rotation=90.000|XOffset=0mil|YOffset=0mil|HoleType=Round|Shape=RoundedRectangle|*
%AMROUNDEDRECTD60*
21,1,0.08674,0.03150,0,0,90.0*
21,1,0.04724,0.07099,0,0,90.0*
1,1,0.03950,0.01575,0.02362*
1,1,0.03950,0.01575,-0.02362*
1,1,0.03950,-0.01575,-0.02362*
1,1,0.03950,-0.01575,0.02362*
%
%ADD60ROUNDEDRECTD60*%
%ADD61C,0.12611*%
%ADD62C,0.05512*%
%ADD63R,0.05512X0.05512*%
%ADD64C,0.06181*%
%ADD65R,0.06181X0.06181*%
%ADD66C,0.10642*%
%ADD67R,0.10642X0.10642*%
%ADD68R,0.06509X0.06509*%
%ADD69C,0.06509*%
%ADD92R,0.04737X0.02769*%
D46*
X160945Y52382D02*
D03*
D47*
Y42382D02*
D03*
X150945Y52382D02*
D03*
Y42382D02*
D03*
X140945D02*
D03*
Y52382D02*
D03*
X130945Y42382D02*
D03*
X120945D02*
D03*
X130945Y52382D02*
D03*
X120945D02*
D03*
D48*
X74252Y98032D02*
D03*
D49*
X94252D02*
D03*
D50*
X212402Y212165D02*
D03*
D51*
Y202165D02*
D03*
Y192165D02*
D03*
Y182165D02*
D03*
Y172165D02*
D03*
Y162165D02*
D03*
Y152165D02*
D03*
Y142165D02*
D03*
X262402D02*
D03*
Y152165D02*
D03*
Y162165D02*
D03*
Y172165D02*
D03*
Y182165D02*
D03*
Y192165D02*
D03*
Y202165D02*
D03*
Y212165D02*
D03*
D52*
X234449Y237008D02*
D03*
X251575Y29921D02*
D03*
X243701D02*
D03*
X235827D02*
D03*
X227953D02*
D03*
X220079D02*
D03*
D53*
X248228Y237008D02*
D03*
X212205Y29921D02*
D03*
D54*
X19500Y18827D02*
D03*
Y247173D02*
D03*
D55*
X14500Y228000D02*
D03*
D56*
Y218000D02*
D03*
Y208000D02*
D03*
Y198000D02*
D03*
Y188000D02*
D03*
Y178000D02*
D03*
X24500Y228000D02*
D03*
Y218000D02*
D03*
Y208000D02*
D03*
Y198000D02*
D03*
Y188000D02*
D03*
Y178000D02*
D03*
X14500Y168000D02*
D03*
X24500D02*
D03*
X14500Y158000D02*
D03*
Y148000D02*
D03*
Y138000D02*
D03*
Y128000D02*
D03*
Y118000D02*
D03*
Y108000D02*
D03*
X24500Y158000D02*
D03*
Y148000D02*
D03*
Y138000D02*
D03*
Y128000D02*
D03*
Y118000D02*
D03*
Y108000D02*
D03*
X14500Y98000D02*
D03*
X24500D02*
D03*
X14500Y88000D02*
D03*
Y78000D02*
D03*
Y68000D02*
D03*
Y58000D02*
D03*
Y48000D02*
D03*
Y38000D02*
D03*
X24500Y88000D02*
D03*
Y78000D02*
D03*
Y68000D02*
D03*
Y58000D02*
D03*
Y48000D02*
D03*
Y38000D02*
D03*
D57*
X46063Y302953D02*
D03*
X244488Y311811D02*
D03*
X260236D02*
D03*
X252362D02*
D03*
X111811Y302953D02*
D03*
X316929Y352165D02*
D03*
X332677D02*
D03*
X324803D02*
D03*
X269685D02*
D03*
X285433D02*
D03*
X277559D02*
D03*
X222441D02*
D03*
X238189D02*
D03*
X230315D02*
D03*
X78937Y302953D02*
D03*
X80709Y352559D02*
D03*
X96457D02*
D03*
X88583D02*
D03*
X80709Y378937D02*
D03*
X96457D02*
D03*
X88583D02*
D03*
X33465Y352559D02*
D03*
X49213D02*
D03*
X41339D02*
D03*
X33465Y378937D02*
D03*
X49213D02*
D03*
X41339D02*
D03*
X175197Y352559D02*
D03*
X190945D02*
D03*
X183071D02*
D03*
X175197Y378937D02*
D03*
X190945D02*
D03*
X183071D02*
D03*
X127953Y352559D02*
D03*
X143701D02*
D03*
X135827D02*
D03*
X127953Y378937D02*
D03*
X143701D02*
D03*
X135827D02*
D03*
X316929D02*
D03*
X332677D02*
D03*
X324803D02*
D03*
X269685D02*
D03*
X285433D02*
D03*
X277559D02*
D03*
X222441D02*
D03*
X238189D02*
D03*
X230315D02*
D03*
X78740Y24409D02*
D03*
X62992D02*
D03*
X70866D02*
D03*
D58*
X46063Y312795D02*
D03*
X268110Y311811D02*
D03*
X111811Y312795D02*
D03*
X340551Y352165D02*
D03*
X293307D02*
D03*
X246063D02*
D03*
X78937Y312795D02*
D03*
X104331Y352559D02*
D03*
Y378937D02*
D03*
X57087Y352559D02*
D03*
Y378937D02*
D03*
X198819Y352559D02*
D03*
Y378937D02*
D03*
X151575Y352559D02*
D03*
Y378937D02*
D03*
X340551D02*
D03*
X293307D02*
D03*
X246063D02*
D03*
X55118Y24409D02*
D03*
D59*
X196932Y308661D02*
D03*
X158858D02*
D03*
D60*
X187089D02*
D03*
X149016D02*
D03*
D61*
X16535Y328346D02*
D03*
X344488Y11811D02*
D03*
Y327953D02*
D03*
D62*
X293996Y300787D02*
D03*
Y290945D02*
D03*
X292421Y240158D02*
D03*
Y230315D02*
D03*
D63*
X293996Y281102D02*
D03*
X292421Y220472D02*
D03*
D64*
X298622Y132008D02*
D03*
Y122008D02*
D03*
Y112008D02*
D03*
Y102008D02*
D03*
Y92008D02*
D03*
Y82008D02*
D03*
Y72008D02*
D03*
Y62008D02*
D03*
Y52008D02*
D03*
Y42008D02*
D03*
X288622Y132008D02*
D03*
Y122008D02*
D03*
Y112008D02*
D03*
Y102008D02*
D03*
Y92008D02*
D03*
Y82008D02*
D03*
Y72008D02*
D03*
Y62008D02*
D03*
Y52008D02*
D03*
D65*
Y42008D02*
D03*
D66*
X338189Y295905D02*
D03*
Y275905D02*
D03*
D67*
Y255906D02*
D03*
D68*
X293307Y164173D02*
D03*
D69*
Y174016D02*
D03*
Y183858D02*
D03*
Y193701D02*
D03*
D92*
X197638Y178453D02*
D03*
Y182390D02*
D03*
Y186327D02*
D03*
X225197Y216248D02*
D03*
Y212311D02*
D03*
Y208374D02*
D03*
X41339Y218898D02*
D03*
Y222835D02*
D03*
Y226772D02*
D03*
X225590Y168610D02*
D03*
Y172547D02*
D03*
Y176484D02*
D03*
X197638Y166642D02*
D03*
Y162705D02*
D03*
Y158768D02*
D03*
Y198925D02*
D03*
Y202862D02*
D03*
Y206799D02*
D03*
X225197Y196563D02*
D03*
Y192626D02*
D03*
Y188689D02*
D03*
M02*
