G04*
G04 #@! TF.GenerationSoftware,Altium Limited,Altium Designer,20.1.8 (145)*
G04*
G04 Layer_Physical_Order=1*
G04 Layer_Color=255*
%FSLAX25Y25*%
%MOIN*%
G70*
G04*
G04 #@! TF.SameCoordinates,8A5546FC-2E64-4ACD-A3F0-66F597033F2E*
G04*
G04*
G04 #@! TF.FilePolarity,Positive*
G04*
G01*
G75*
%ADD10C,0.01968*%
G04:AMPARAMS|DCode=20|XSize=17.72mil|YSize=55.12mil|CornerRadius=1.95mil|HoleSize=0mil|Usage=FLASHONLY|Rotation=90.000|XOffset=0mil|YOffset=0mil|HoleType=Round|Shape=RoundedRectangle|*
%AMROUNDEDRECTD20*
21,1,0.01772,0.05122,0,0,90.0*
21,1,0.01382,0.05512,0,0,90.0*
1,1,0.00390,0.02561,0.00691*
1,1,0.00390,0.02561,-0.00691*
1,1,0.00390,-0.02561,-0.00691*
1,1,0.00390,-0.02561,0.00691*
%
%ADD20ROUNDEDRECTD20*%
G04:AMPARAMS|DCode=21|XSize=19.68mil|YSize=37.4mil|CornerRadius=4.92mil|HoleSize=0mil|Usage=FLASHONLY|Rotation=180.000|XOffset=0mil|YOffset=0mil|HoleType=Round|Shape=RoundedRectangle|*
%AMROUNDEDRECTD21*
21,1,0.01968,0.02756,0,0,180.0*
21,1,0.00984,0.03740,0,0,180.0*
1,1,0.00984,-0.00492,0.01378*
1,1,0.00984,0.00492,0.01378*
1,1,0.00984,0.00492,-0.01378*
1,1,0.00984,-0.00492,-0.01378*
%
%ADD21ROUNDEDRECTD21*%
%ADD22R,0.01968X0.03740*%
%ADD23R,0.03150X0.03150*%
G04:AMPARAMS|DCode=24|XSize=31.5mil|YSize=31.5mil|CornerRadius=7.87mil|HoleSize=0mil|Usage=FLASHONLY|Rotation=180.000|XOffset=0mil|YOffset=0mil|HoleType=Round|Shape=RoundedRectangle|*
%AMROUNDEDRECTD24*
21,1,0.03150,0.01575,0,0,180.0*
21,1,0.01575,0.03150,0,0,180.0*
1,1,0.01575,-0.00787,0.00787*
1,1,0.01575,0.00787,0.00787*
1,1,0.01575,0.00787,-0.00787*
1,1,0.01575,-0.00787,-0.00787*
%
%ADD24ROUNDEDRECTD24*%
%ADD25R,0.06299X0.11811*%
%ADD26R,0.22835X0.24410*%
G04:AMPARAMS|DCode=27|XSize=19.68mil|YSize=37.4mil|CornerRadius=4.92mil|HoleSize=0mil|Usage=FLASHONLY|Rotation=270.000|XOffset=0mil|YOffset=0mil|HoleType=Round|Shape=RoundedRectangle|*
%AMROUNDEDRECTD27*
21,1,0.01968,0.02756,0,0,270.0*
21,1,0.00984,0.03740,0,0,270.0*
1,1,0.00984,-0.01378,-0.00492*
1,1,0.00984,-0.01378,0.00492*
1,1,0.00984,0.01378,0.00492*
1,1,0.00984,0.01378,-0.00492*
%
%ADD27ROUNDEDRECTD27*%
%ADD28R,0.03740X0.01968*%
G04:AMPARAMS|DCode=29|XSize=60.01mil|YSize=22.75mil|CornerRadius=11.38mil|HoleSize=0mil|Usage=FLASHONLY|Rotation=270.000|XOffset=0mil|YOffset=0mil|HoleType=Round|Shape=RoundedRectangle|*
%AMROUNDEDRECTD29*
21,1,0.06001,0.00000,0,0,270.0*
21,1,0.03725,0.02275,0,0,270.0*
1,1,0.02275,0.00000,-0.01863*
1,1,0.02275,0.00000,0.01863*
1,1,0.02275,0.00000,0.01863*
1,1,0.02275,0.00000,-0.01863*
%
%ADD29ROUNDEDRECTD29*%
%ADD30R,0.02275X0.06001*%
%ADD31R,0.11811X0.06299*%
%ADD32R,0.24410X0.22835*%
%ADD33R,0.06693X0.09843*%
%ADD52C,0.05118*%
%ADD53R,0.05118X0.05118*%
%ADD62C,0.05512*%
%ADD63R,0.05512X0.05512*%
%ADD64C,0.06181*%
%ADD65R,0.06181X0.06181*%
%ADD70C,0.01000*%
%ADD71C,0.02953*%
%ADD72R,0.06299X0.06299*%
%ADD73C,0.06299*%
%ADD74R,0.07480X0.07480*%
%ADD75C,0.07480*%
%ADD76R,0.06024X0.06024*%
%ADD77C,0.06024*%
%ADD78C,0.10827*%
%ADD79R,0.06000X0.06000*%
%ADD80C,0.06000*%
%ADD81C,0.05906*%
%ADD82R,0.05906X0.05906*%
%ADD83O,0.06299X0.07874*%
G04:AMPARAMS|DCode=84|XSize=78.74mil|YSize=62.99mil|CornerRadius=15.75mil|HoleSize=0mil|Usage=FLASHONLY|Rotation=90.000|XOffset=0mil|YOffset=0mil|HoleType=Round|Shape=RoundedRectangle|*
%AMROUNDEDRECTD84*
21,1,0.07874,0.03150,0,0,90.0*
21,1,0.04724,0.06299,0,0,90.0*
1,1,0.03150,0.01575,0.02362*
1,1,0.03150,0.01575,-0.02362*
1,1,0.03150,-0.01575,-0.02362*
1,1,0.03150,-0.01575,0.02362*
%
%ADD84ROUNDEDRECTD84*%
%ADD85C,0.11811*%
%ADD86C,0.09843*%
%ADD87R,0.09843X0.09843*%
%ADD88R,0.05709X0.05709*%
%ADD89C,0.05709*%
%ADD90C,0.02362*%
G36*
X349213Y333177D02*
X348713Y332940D01*
X348137Y333413D01*
X347001Y334020D01*
X345769Y334394D01*
X344488Y334520D01*
X343207Y334394D01*
X341975Y334020D01*
X340840Y333413D01*
X339845Y332596D01*
X339028Y331601D01*
X338421Y330466D01*
X338047Y329234D01*
X337921Y327953D01*
X338047Y326672D01*
X338421Y325440D01*
X339028Y324304D01*
X339845Y323309D01*
X340840Y322493D01*
X341975Y321886D01*
X343207Y321512D01*
X344488Y321386D01*
X345769Y321512D01*
X347001Y321886D01*
X348137Y322493D01*
X348713Y322965D01*
X349213Y322729D01*
X349213Y17035D01*
X348713Y16799D01*
X348137Y17271D01*
X347001Y17878D01*
X345769Y18252D01*
X344488Y18378D01*
X343207Y18252D01*
X341975Y17878D01*
X340840Y17271D01*
X339845Y16455D01*
X339028Y15460D01*
X338421Y14324D01*
X338047Y13092D01*
X337921Y11811D01*
X338047Y10530D01*
X338421Y9298D01*
X338972Y8268D01*
X338781Y7767D01*
X273684Y7621D01*
X273492Y8083D01*
X289060Y23651D01*
X315354D01*
X315795Y23739D01*
X316169Y23989D01*
X321287Y29107D01*
X321537Y29480D01*
X321624Y29921D01*
Y70866D01*
X321537Y71307D01*
X321287Y71681D01*
X310145Y82823D01*
X309772Y83072D01*
X309331Y83160D01*
X302172D01*
X301872Y83884D01*
X301275Y84661D01*
X300498Y85258D01*
X299593Y85633D01*
X298622Y85760D01*
X297651Y85633D01*
X296746Y85258D01*
X295969Y84661D01*
X295372Y83884D01*
X294997Y82979D01*
X294869Y82008D01*
X294997Y81037D01*
X295372Y80132D01*
X295969Y79354D01*
X296746Y78758D01*
X297651Y78383D01*
X298622Y78255D01*
X299593Y78383D01*
X300498Y78758D01*
X301275Y79354D01*
X301872Y80132D01*
X302172Y80856D01*
X308854D01*
X319320Y70389D01*
Y30398D01*
X314877Y25955D01*
X288583D01*
X288142Y25868D01*
X287768Y25618D01*
X269763Y7612D01*
X264662Y7601D01*
X264454Y8100D01*
X279948Y23595D01*
X280198Y23969D01*
X280286Y24409D01*
Y68027D01*
X283115Y70856D01*
X285072D01*
X285372Y70132D01*
X285969Y69354D01*
X286746Y68758D01*
X287651Y68383D01*
X288622Y68255D01*
X289593Y68383D01*
X290498Y68758D01*
X291276Y69354D01*
X291872Y70132D01*
X292247Y71037D01*
X292375Y72008D01*
X292247Y72979D01*
X291872Y73884D01*
X291276Y74661D01*
X290498Y75258D01*
X289593Y75633D01*
X288622Y75760D01*
X287651Y75633D01*
X286746Y75258D01*
X285969Y74661D01*
X285372Y73884D01*
X285072Y73160D01*
X282638D01*
X282197Y73072D01*
X281823Y72822D01*
X278319Y69319D01*
X278069Y68945D01*
X277982Y68504D01*
Y24887D01*
X262909Y9814D01*
X216142D01*
X215701Y9726D01*
X215327Y9476D01*
X213336Y7485D01*
X205814Y7469D01*
X205623Y7930D01*
X209926Y12234D01*
X260236D01*
X260677Y12321D01*
X261051Y12571D01*
X273649Y25170D01*
X273899Y25543D01*
X273987Y25984D01*
Y74326D01*
X280517Y80856D01*
X285072D01*
X285372Y80132D01*
X285969Y79354D01*
X286746Y78758D01*
X287651Y78383D01*
X288622Y78255D01*
X289593Y78383D01*
X290498Y78758D01*
X291276Y79354D01*
X291872Y80132D01*
X292247Y81037D01*
X292375Y82008D01*
X292247Y82979D01*
X291872Y83884D01*
X291276Y84661D01*
X290498Y85258D01*
X289593Y85633D01*
X288622Y85760D01*
X287651Y85633D01*
X286746Y85258D01*
X285969Y84661D01*
X285372Y83884D01*
X285072Y83160D01*
X280039D01*
X279598Y83072D01*
X279225Y82823D01*
X272020Y75618D01*
X271770Y75244D01*
X271683Y74803D01*
Y26461D01*
X259759Y14538D01*
X209449D01*
X209008Y14450D01*
X208634Y14200D01*
X201893Y7460D01*
X159816Y7365D01*
X122605D01*
X122502Y7519D01*
X121903Y7919D01*
X121196Y8060D01*
X120490Y7919D01*
X119891Y7519D01*
X119728Y7275D01*
X98881Y7228D01*
X98689Y7690D01*
X99690Y8691D01*
X190551D01*
X190992Y8778D01*
X191366Y9028D01*
X199690Y17352D01*
X257480D01*
X257921Y17440D01*
X258295Y17689D01*
X268925Y28319D01*
X269175Y28693D01*
X269262Y29134D01*
Y96767D01*
X283351Y110856D01*
X285072D01*
X285372Y110132D01*
X285969Y109354D01*
X286746Y108758D01*
X287651Y108383D01*
X288622Y108255D01*
X289593Y108383D01*
X290498Y108758D01*
X291276Y109354D01*
X291872Y110132D01*
X292247Y111037D01*
X292375Y112008D01*
X292247Y112979D01*
X291872Y113884D01*
X291276Y114661D01*
X290498Y115258D01*
X289593Y115633D01*
X288622Y115760D01*
X287651Y115633D01*
X286746Y115258D01*
X285969Y114661D01*
X285372Y113884D01*
X285072Y113160D01*
X282874D01*
X282433Y113072D01*
X282059Y112822D01*
X267296Y98059D01*
X267046Y97685D01*
X266958Y97244D01*
Y29611D01*
X257003Y19656D01*
X199213D01*
X198772Y19568D01*
X198398Y19319D01*
X190074Y10995D01*
X99213D01*
X98772Y10907D01*
X98398Y10657D01*
X96244Y8503D01*
X96063Y8539D01*
X95356Y8399D01*
X94757Y7999D01*
X94357Y7400D01*
X94321Y7218D01*
X90990Y7211D01*
X90798Y7672D01*
X95913Y12788D01*
X180548D01*
X180989Y12876D01*
X181363Y13126D01*
X222468Y54231D01*
X222718Y54605D01*
X222806Y55046D01*
Y147638D01*
X222718Y148079D01*
X222468Y148452D01*
X217941Y152980D01*
X217567Y153230D01*
X217126Y153317D01*
X215866D01*
X215583Y154002D01*
X214999Y154763D01*
X214238Y155346D01*
X213352Y155713D01*
X212402Y155839D01*
X211451Y155713D01*
X210565Y155346D01*
X209804Y154763D01*
X209221Y154002D01*
X208854Y153116D01*
X208728Y152165D01*
X208854Y151215D01*
X209221Y150329D01*
X209804Y149568D01*
X210565Y148984D01*
X211451Y148617D01*
X212402Y148492D01*
X213352Y148617D01*
X214238Y148984D01*
X214999Y149568D01*
X215583Y150329D01*
X215866Y151013D01*
X216649D01*
X220501Y147161D01*
Y55523D01*
X180071Y15092D01*
X95436D01*
X94995Y15004D01*
X94622Y14755D01*
X87712Y7845D01*
X15044D01*
X6693Y16196D01*
Y29802D01*
X7155Y29993D01*
X9222Y27926D01*
X9596Y27676D01*
X10037Y27588D01*
X25507D01*
X41311Y11784D01*
X41685Y11534D01*
X42126Y11446D01*
X87008D01*
X87449Y11534D01*
X87823Y11784D01*
X92997Y16958D01*
X174409D01*
X174850Y17046D01*
X175224Y17296D01*
X213019Y55091D01*
X213269Y55465D01*
X213357Y55905D01*
Y138619D01*
X214238Y138984D01*
X214999Y139568D01*
X215583Y140329D01*
X215950Y141215D01*
X216075Y142165D01*
X215950Y143116D01*
X215583Y144002D01*
X214999Y144763D01*
X214238Y145346D01*
X213352Y145713D01*
X212402Y145838D01*
X211451Y145713D01*
X210565Y145346D01*
X209804Y144763D01*
X209221Y144002D01*
X208854Y143116D01*
X208728Y142165D01*
X208854Y141215D01*
X209221Y140329D01*
X209804Y139568D01*
X210565Y138984D01*
X211053Y138782D01*
Y56383D01*
X173932Y19262D01*
X92520D01*
X92079Y19175D01*
X91705Y18925D01*
X86531Y13750D01*
X42603D01*
X26799Y29555D01*
X26425Y29805D01*
X25984Y29892D01*
X10514D01*
X7451Y32955D01*
Y55428D01*
X8871Y56848D01*
X11048D01*
X11329Y56169D01*
X11911Y55411D01*
X12669Y54829D01*
X13552Y54463D01*
X14500Y54339D01*
X15448Y54463D01*
X16331Y54829D01*
X17089Y55411D01*
X17671Y56169D01*
X18036Y57052D01*
X18161Y58000D01*
X18036Y58948D01*
X17671Y59831D01*
X17089Y60589D01*
X16331Y61171D01*
X15448Y61537D01*
X14500Y61661D01*
X13552Y61537D01*
X12669Y61171D01*
X11911Y60589D01*
X11329Y59831D01*
X11048Y59152D01*
X8394D01*
X7953Y59064D01*
X7579Y58815D01*
X7155Y58390D01*
X6693Y58582D01*
Y75536D01*
X8005Y76848D01*
X11048D01*
X11329Y76169D01*
X11911Y75411D01*
X12669Y74829D01*
X13552Y74463D01*
X14500Y74339D01*
X15448Y74463D01*
X16331Y74829D01*
X17089Y75411D01*
X17671Y76169D01*
X18036Y77052D01*
X18161Y78000D01*
X18036Y78948D01*
X17671Y79831D01*
X17089Y80589D01*
X16331Y81171D01*
X15448Y81537D01*
X14500Y81661D01*
X13552Y81537D01*
X12669Y81171D01*
X11911Y80589D01*
X11329Y79831D01*
X11048Y79152D01*
X7528D01*
X7193Y79085D01*
X6838Y79278D01*
X6693Y79403D01*
X6693Y196950D01*
X7193Y197117D01*
X7465Y196936D01*
X7905Y196848D01*
X11048D01*
X11329Y196169D01*
X11911Y195411D01*
X12669Y194829D01*
X13552Y194464D01*
X14500Y194339D01*
X15448Y194464D01*
X16331Y194829D01*
X17089Y195411D01*
X17671Y196169D01*
X18036Y197052D01*
X18161Y198000D01*
X18036Y198948D01*
X17671Y199831D01*
X17089Y200589D01*
X16331Y201171D01*
X15448Y201536D01*
X14500Y201661D01*
X13552Y201536D01*
X12669Y201171D01*
X11911Y200589D01*
X11329Y199831D01*
X11048Y199152D01*
X8383D01*
X6693Y200842D01*
Y209493D01*
X7193Y209682D01*
X9185Y207689D01*
X9559Y207440D01*
X10000Y207352D01*
X10924D01*
X10964Y207052D01*
X11329Y206169D01*
X11911Y205411D01*
X12669Y204829D01*
X13552Y204464D01*
X14500Y204339D01*
X15448Y204464D01*
X16331Y204829D01*
X17089Y205411D01*
X17671Y206169D01*
X18036Y207052D01*
X18161Y208000D01*
X18036Y208948D01*
X17755Y209626D01*
X19969Y211840D01*
X22979D01*
X23078Y211340D01*
X22669Y211171D01*
X21911Y210589D01*
X21329Y209831D01*
X20964Y208948D01*
X20839Y208000D01*
X20964Y207052D01*
X21329Y206169D01*
X21911Y205411D01*
X22669Y204829D01*
X23552Y204464D01*
X24500Y204339D01*
X25448Y204464D01*
X26331Y204829D01*
X27089Y205411D01*
X27671Y206169D01*
X28036Y207052D01*
X28161Y208000D01*
X28036Y208948D01*
X27671Y209831D01*
X27089Y210589D01*
X26331Y211171D01*
X25922Y211340D01*
X26021Y211840D01*
X30231D01*
X38218Y203854D01*
Y173849D01*
X38064Y173747D01*
X37664Y173148D01*
X37524Y172441D01*
X37664Y171734D01*
X38064Y171135D01*
X38664Y170735D01*
X39370Y170594D01*
X40077Y170735D01*
X40676Y171135D01*
X41076Y171734D01*
X41217Y172441D01*
X41076Y173148D01*
X40676Y173747D01*
X40522Y173849D01*
Y204331D01*
X40434Y204772D01*
X40185Y205145D01*
X31523Y213807D01*
X31150Y214056D01*
X30709Y214144D01*
X25983D01*
X25884Y214644D01*
X26331Y214829D01*
X27089Y215411D01*
X27671Y216169D01*
X28036Y217052D01*
X28161Y218000D01*
X28036Y218948D01*
X27671Y219831D01*
X27089Y220589D01*
X26331Y221171D01*
X26302Y221183D01*
X26401Y221683D01*
X36705D01*
X37146Y221770D01*
X37519Y222020D01*
X42520Y227020D01*
X43591Y225949D01*
Y170700D01*
X43438Y170597D01*
X43038Y169998D01*
X42897Y169291D01*
X43038Y168585D01*
X43438Y167986D01*
X44037Y167585D01*
X44743Y167445D01*
X45450Y167585D01*
X46049Y167986D01*
X46450Y168585D01*
X46590Y169291D01*
X46450Y169998D01*
X46049Y170597D01*
X45896Y170700D01*
Y226426D01*
X45808Y226867D01*
X45558Y227240D01*
X44149Y228650D01*
X46673Y231173D01*
X49158D01*
Y236173D01*
X45929D01*
Y233688D01*
X41705Y229464D01*
X36228Y223987D01*
X25546D01*
X25448Y224464D01*
X26331Y224829D01*
X27089Y225411D01*
X27671Y226169D01*
X28036Y227052D01*
X28161Y228000D01*
X28036Y228948D01*
X27671Y229831D01*
X27089Y230589D01*
X26331Y231171D01*
X25448Y231537D01*
X24500Y231661D01*
X23552Y231537D01*
X22669Y231171D01*
X21911Y230589D01*
X21329Y229831D01*
X20964Y228948D01*
X20839Y228000D01*
X20964Y227052D01*
X21329Y226169D01*
X21911Y225411D01*
X22669Y224829D01*
X23552Y224464D01*
X23454Y223987D01*
X20079D01*
X19638Y223899D01*
X19264Y223649D01*
X16588Y220973D01*
X16331Y221171D01*
X15448Y221536D01*
X14500Y221661D01*
X13552Y221536D01*
X12669Y221171D01*
X11911Y220589D01*
X11329Y219831D01*
X10964Y218948D01*
X10839Y218000D01*
X10964Y217052D01*
X11329Y216169D01*
X11911Y215411D01*
X12669Y214829D01*
X13552Y214463D01*
X14500Y214339D01*
X15448Y214463D01*
X16331Y214829D01*
X17089Y215411D01*
X17671Y216169D01*
X18036Y217052D01*
X18161Y218000D01*
X18036Y218948D01*
X17973Y219100D01*
X20556Y221683D01*
X22599D01*
X22698Y221183D01*
X22669Y221171D01*
X21911Y220589D01*
X21329Y219831D01*
X20964Y218948D01*
X20839Y218000D01*
X20964Y217052D01*
X21329Y216169D01*
X21911Y215411D01*
X22669Y214829D01*
X23116Y214644D01*
X23017Y214144D01*
X19492D01*
X19051Y214056D01*
X18677Y213807D01*
X16126Y211255D01*
X15448Y211537D01*
X14500Y211661D01*
X13552Y211537D01*
X12669Y211171D01*
X11911Y210589D01*
X11329Y209831D01*
X11257Y209656D01*
X10477D01*
X9026Y211107D01*
Y233775D01*
X11107Y235856D01*
X25984D01*
X26425Y235944D01*
X26799Y236193D01*
X34336Y243730D01*
X46220D01*
Y242382D01*
X49449D01*
Y247382D01*
X46220D01*
Y246034D01*
X33858D01*
X33417Y245946D01*
X33044Y245696D01*
X25507Y238160D01*
X10630D01*
X10189Y238072D01*
X9815Y237823D01*
X7193Y235200D01*
X6693Y235389D01*
Y254276D01*
X13076Y260659D01*
X50704D01*
X63752Y247611D01*
X64126Y247361D01*
X64567Y247273D01*
X82987D01*
X90316Y239945D01*
X90280Y239764D01*
X90420Y239057D01*
X90820Y238458D01*
X91419Y238058D01*
X92126Y237917D01*
X92833Y238058D01*
X93432Y238458D01*
X93832Y239057D01*
X93972Y239764D01*
X93832Y240470D01*
X93432Y241070D01*
X92833Y241470D01*
X92126Y241610D01*
X91945Y241574D01*
X84279Y249240D01*
X83905Y249490D01*
X83465Y249577D01*
X65044D01*
X51996Y262626D01*
X51622Y262875D01*
X51181Y262963D01*
X12598D01*
X12158Y262875D01*
X11784Y262626D01*
X7155Y257997D01*
X6693Y258188D01*
Y384646D01*
X20000D01*
X20192Y384184D01*
X13934Y377926D01*
X13469Y377229D01*
X13305Y376408D01*
Y344518D01*
X13469Y343696D01*
X13934Y342999D01*
X21021Y335913D01*
X21718Y335447D01*
X22539Y335284D01*
X27162D01*
X30234Y332211D01*
Y297274D01*
Y270657D01*
X30398Y269835D01*
X30863Y269138D01*
X32593Y267409D01*
X33290Y266943D01*
X34112Y266780D01*
X44587D01*
X45408Y266943D01*
X46105Y267409D01*
X48861Y270165D01*
X49327Y270861D01*
X49490Y271683D01*
Y274770D01*
X49575Y275197D01*
Y276772D01*
X49465Y277325D01*
X49152Y277794D01*
X48683Y278107D01*
X48130Y278217D01*
X46555D01*
X46002Y278107D01*
X45533Y277794D01*
X45220Y277325D01*
X45110Y276772D01*
Y275197D01*
X45195Y274770D01*
Y272573D01*
X43697Y271075D01*
X35001D01*
X34529Y271547D01*
Y296384D01*
X38980Y300835D01*
X43172D01*
X43508Y300398D01*
X44256Y299823D01*
X45128Y299462D01*
X46063Y299339D01*
X46998Y299462D01*
X47870Y299823D01*
X48618Y300398D01*
X49192Y301146D01*
X49553Y302017D01*
X49677Y302953D01*
X49553Y303888D01*
X49192Y304760D01*
X48618Y305508D01*
X47870Y306082D01*
X46998Y306443D01*
X46063Y306566D01*
X45128Y306443D01*
X44256Y306082D01*
X43508Y305508D01*
X43218Y305130D01*
X38091D01*
X37269Y304966D01*
X36572Y304501D01*
X34991Y302920D01*
X34529Y303112D01*
Y333101D01*
X34366Y333922D01*
X33900Y334619D01*
X29570Y338950D01*
X28873Y339415D01*
X28051Y339579D01*
X23429D01*
X17600Y345407D01*
Y375518D01*
X26728Y384646D01*
X254571Y384646D01*
X255273Y383944D01*
X255970Y383479D01*
X256791Y383315D01*
X261269D01*
X261417Y383285D01*
X262239Y383449D01*
X262936Y383914D01*
X263401Y384611D01*
X263408Y384646D01*
X349213Y384646D01*
X349213Y333177D01*
D02*
G37*
%LPC*%
G36*
X245563Y382890D02*
X242110D01*
Y380139D01*
X241610Y380039D01*
X241318Y380744D01*
X240744Y381492D01*
X239996Y382066D01*
X239124Y382428D01*
X238189Y382551D01*
X237254Y382428D01*
X236382Y382066D01*
X235634Y381492D01*
X235059Y380744D01*
X234699Y379872D01*
X234575Y378937D01*
X234699Y378002D01*
X235059Y377130D01*
X235634Y376382D01*
X236382Y375808D01*
X237254Y375447D01*
X238189Y375323D01*
X239124Y375447D01*
X239996Y375808D01*
X240744Y376382D01*
X241318Y377130D01*
X241610Y377835D01*
X242110Y377735D01*
Y374984D01*
X245563D01*
Y378937D01*
Y382890D01*
D02*
G37*
G36*
X340051D02*
X336598D01*
Y380139D01*
X336098Y380039D01*
X335807Y380744D01*
X335232Y381492D01*
X334484Y382066D01*
X333612Y382428D01*
X332677Y382551D01*
X331742Y382428D01*
X330870Y382066D01*
X330122Y381492D01*
X329548Y380744D01*
X329187Y379872D01*
X329064Y378937D01*
X329187Y378002D01*
X329548Y377130D01*
X330122Y376382D01*
X330870Y375808D01*
X331525Y375536D01*
Y371737D01*
X324720Y364932D01*
X149440D01*
X149337Y365085D01*
X148738Y365486D01*
X148031Y365626D01*
X147325Y365486D01*
X146726Y365085D01*
X146326Y364486D01*
X146185Y363779D01*
X146326Y363073D01*
X146726Y362474D01*
X147325Y362074D01*
X148031Y361933D01*
X148738Y362074D01*
X149337Y362474D01*
X149440Y362628D01*
X325197D01*
X325638Y362715D01*
X326011Y362965D01*
X333492Y370445D01*
X333741Y370819D01*
X333829Y371260D01*
Y375536D01*
X334484Y375808D01*
X335232Y376382D01*
X335807Y377130D01*
X336098Y377835D01*
X336598Y377735D01*
Y374984D01*
X340051D01*
Y378937D01*
Y382890D01*
D02*
G37*
G36*
X292807D02*
X289354D01*
Y380139D01*
X288854Y380039D01*
X288562Y380744D01*
X287988Y381492D01*
X287240Y382066D01*
X286368Y382428D01*
X285433Y382551D01*
X284498Y382428D01*
X283626Y382066D01*
X282878Y381492D01*
X282304Y380744D01*
X281943Y379872D01*
X281820Y378937D01*
X281943Y378002D01*
X282304Y377130D01*
X282878Y376382D01*
X283626Y375808D01*
X284281Y375536D01*
Y373615D01*
X281110Y370443D01*
X126378D01*
X125937Y370356D01*
X125563Y370106D01*
X116717Y361259D01*
X116535Y361295D01*
X115829Y361155D01*
X115230Y360754D01*
X114830Y360155D01*
X114689Y359449D01*
X114830Y358742D01*
X115230Y358143D01*
X115829Y357743D01*
X116535Y357602D01*
X117242Y357743D01*
X117841Y358143D01*
X118241Y358742D01*
X118382Y359449D01*
X118346Y359630D01*
X126855Y368139D01*
X281587D01*
X282028Y368227D01*
X282401Y368477D01*
X286248Y372323D01*
X286497Y372697D01*
X286585Y373137D01*
Y375536D01*
X287240Y375808D01*
X287988Y376382D01*
X288562Y377130D01*
X288854Y377835D01*
X289354Y377735D01*
Y374984D01*
X292807D01*
Y378937D01*
Y382890D01*
D02*
G37*
G36*
X182571Y382858D02*
X182039Y382788D01*
X181077Y382390D01*
X180252Y381756D01*
X179618Y380930D01*
X179220Y379969D01*
X179199Y379813D01*
X178695D01*
X178687Y379872D01*
X178326Y380744D01*
X177752Y381492D01*
X177004Y382066D01*
X176132Y382428D01*
X175197Y382551D01*
X174262Y382428D01*
X173390Y382066D01*
X172642Y381492D01*
X172067Y380744D01*
X171706Y379872D01*
X171583Y378937D01*
X171706Y378002D01*
X172067Y377130D01*
X172642Y376382D01*
X173390Y375808D01*
X174262Y375447D01*
X175197Y375323D01*
X176132Y375447D01*
X177004Y375808D01*
X177752Y376382D01*
X178326Y377130D01*
X178687Y378002D01*
X178695Y378061D01*
X179199D01*
X179220Y377905D01*
X179618Y376944D01*
X180252Y376118D01*
X181077Y375484D01*
X182039Y375086D01*
X182571Y375016D01*
Y378937D01*
Y382858D01*
D02*
G37*
G36*
X135327D02*
X134795Y382788D01*
X133833Y382390D01*
X133008Y381756D01*
X132374Y380930D01*
X131976Y379969D01*
X131955Y379813D01*
X131451D01*
X131443Y379872D01*
X131082Y380744D01*
X130508Y381492D01*
X129760Y382066D01*
X128888Y382428D01*
X127953Y382551D01*
X127017Y382428D01*
X126146Y382066D01*
X125398Y381492D01*
X124823Y380744D01*
X124462Y379872D01*
X124339Y378937D01*
X124462Y378002D01*
X124823Y377130D01*
X125398Y376382D01*
X126146Y375808D01*
X127017Y375447D01*
X127953Y375323D01*
X128888Y375447D01*
X129760Y375808D01*
X130508Y376382D01*
X131082Y377130D01*
X131443Y378002D01*
X131451Y378061D01*
X131955D01*
X131976Y377905D01*
X132374Y376944D01*
X133008Y376118D01*
X133833Y375484D01*
X134795Y375086D01*
X135327Y375016D01*
Y378937D01*
Y382858D01*
D02*
G37*
G36*
X88083D02*
X87551Y382788D01*
X86589Y382390D01*
X85764Y381756D01*
X85130Y380930D01*
X84732Y379969D01*
X84711Y379813D01*
X84207D01*
X84199Y379872D01*
X83838Y380744D01*
X83264Y381492D01*
X82515Y382066D01*
X81644Y382428D01*
X80709Y382551D01*
X79773Y382428D01*
X78902Y382066D01*
X78154Y381492D01*
X77579Y380744D01*
X77218Y379872D01*
X77095Y378937D01*
X77218Y378002D01*
X77579Y377130D01*
X78154Y376382D01*
X78902Y375808D01*
X79773Y375447D01*
X80709Y375323D01*
X81644Y375447D01*
X82515Y375808D01*
X83264Y376382D01*
X83838Y377130D01*
X84199Y378002D01*
X84207Y378061D01*
X84711D01*
X84732Y377905D01*
X85130Y376944D01*
X85764Y376118D01*
X86589Y375484D01*
X87551Y375086D01*
X88083Y375016D01*
Y378937D01*
Y382858D01*
D02*
G37*
G36*
X40839D02*
X40307Y382788D01*
X39345Y382390D01*
X38519Y381756D01*
X37886Y380930D01*
X37488Y379969D01*
X37467Y379813D01*
X36963D01*
X36955Y379872D01*
X36594Y380744D01*
X36020Y381492D01*
X35271Y382066D01*
X34400Y382428D01*
X33465Y382551D01*
X32529Y382428D01*
X31658Y382066D01*
X30909Y381492D01*
X30335Y380744D01*
X29974Y379872D01*
X29851Y378937D01*
X29974Y378002D01*
X30335Y377130D01*
X30909Y376382D01*
X31658Y375808D01*
X32529Y375447D01*
X33465Y375323D01*
X34400Y375447D01*
X35271Y375808D01*
X36020Y376382D01*
X36594Y377130D01*
X36955Y378002D01*
X36963Y378061D01*
X37467D01*
X37488Y377905D01*
X37886Y376944D01*
X38519Y376118D01*
X39345Y375484D01*
X40307Y375086D01*
X40839Y375016D01*
Y378937D01*
Y382858D01*
D02*
G37*
G36*
X344504Y382890D02*
X341051D01*
Y379437D01*
X344504D01*
Y382890D01*
D02*
G37*
G36*
X250016D02*
X246563D01*
Y379437D01*
X250016D01*
Y382890D01*
D02*
G37*
G36*
X297260D02*
X293807D01*
Y379437D01*
X297260D01*
Y382890D01*
D02*
G37*
G36*
X202402Y382520D02*
X195236D01*
Y375354D01*
X202402D01*
Y382520D01*
D02*
G37*
G36*
X155157D02*
X147992D01*
Y375354D01*
X155157D01*
Y382520D01*
D02*
G37*
G36*
X324803Y382551D02*
X323868Y382428D01*
X322996Y382066D01*
X322248Y381492D01*
X321674Y380744D01*
X321313Y379872D01*
X321190Y378937D01*
X321313Y378002D01*
X321674Y377130D01*
X322248Y376382D01*
X322996Y375808D01*
X323868Y375447D01*
X324803Y375323D01*
X325738Y375447D01*
X326610Y375808D01*
X327358Y376382D01*
X327933Y377130D01*
X328294Y378002D01*
X328417Y378937D01*
X328294Y379872D01*
X327933Y380744D01*
X327358Y381492D01*
X326610Y382066D01*
X325738Y382428D01*
X324803Y382551D01*
D02*
G37*
G36*
X316929D02*
X315994Y382428D01*
X315122Y382066D01*
X314374Y381492D01*
X313800Y380744D01*
X313439Y379872D01*
X313316Y378937D01*
X313439Y378002D01*
X313800Y377130D01*
X314374Y376382D01*
X315122Y375808D01*
X315994Y375447D01*
X316929Y375323D01*
X317864Y375447D01*
X318736Y375808D01*
X319484Y376382D01*
X320059Y377130D01*
X320420Y378002D01*
X320543Y378937D01*
X320420Y379872D01*
X320059Y380744D01*
X319484Y381492D01*
X318736Y382066D01*
X317864Y382428D01*
X316929Y382551D01*
D02*
G37*
G36*
X277559D02*
X276624Y382428D01*
X275752Y382066D01*
X275004Y381492D01*
X274430Y380744D01*
X274069Y379872D01*
X273945Y378937D01*
X274069Y378002D01*
X274430Y377130D01*
X275004Y376382D01*
X275752Y375808D01*
X276624Y375447D01*
X277559Y375323D01*
X278494Y375447D01*
X279366Y375808D01*
X280114Y376382D01*
X280689Y377130D01*
X281049Y378002D01*
X281173Y378937D01*
X281049Y379872D01*
X280689Y380744D01*
X280114Y381492D01*
X279366Y382066D01*
X278494Y382428D01*
X277559Y382551D01*
D02*
G37*
G36*
X269685D02*
X268750Y382428D01*
X267878Y382066D01*
X267130Y381492D01*
X266556Y380744D01*
X266195Y379872D01*
X266072Y378937D01*
X266195Y378002D01*
X266556Y377130D01*
X267130Y376382D01*
X267878Y375808D01*
X268750Y375447D01*
X269685Y375323D01*
X270620Y375447D01*
X271492Y375808D01*
X272240Y376382D01*
X272814Y377130D01*
X273176Y378002D01*
X273299Y378937D01*
X273176Y379872D01*
X272814Y380744D01*
X272240Y381492D01*
X271492Y382066D01*
X270620Y382428D01*
X269685Y382551D01*
D02*
G37*
G36*
X230315D02*
X229380Y382428D01*
X228508Y382066D01*
X227760Y381492D01*
X227186Y380744D01*
X226824Y379872D01*
X226701Y378937D01*
X226824Y378002D01*
X227186Y377130D01*
X227760Y376382D01*
X228508Y375808D01*
X229380Y375447D01*
X230315Y375323D01*
X231250Y375447D01*
X232122Y375808D01*
X232870Y376382D01*
X233444Y377130D01*
X233805Y378002D01*
X233928Y378937D01*
X233805Y379872D01*
X233444Y380744D01*
X232870Y381492D01*
X232122Y382066D01*
X231250Y382428D01*
X230315Y382551D01*
D02*
G37*
G36*
X222441D02*
X221506Y382428D01*
X220634Y382066D01*
X219886Y381492D01*
X219311Y380744D01*
X218951Y379872D01*
X218827Y378937D01*
X218951Y378002D01*
X219311Y377130D01*
X219886Y376382D01*
X220634Y375808D01*
X221506Y375447D01*
X222441Y375323D01*
X223376Y375447D01*
X224248Y375808D01*
X224996Y376382D01*
X225570Y377130D01*
X225931Y378002D01*
X226055Y378937D01*
X225931Y379872D01*
X225570Y380744D01*
X224996Y381492D01*
X224248Y382066D01*
X223376Y382428D01*
X222441Y382551D01*
D02*
G37*
G36*
X183571Y382858D02*
Y378937D01*
Y375016D01*
X184103Y375086D01*
X185064Y375484D01*
X185890Y376118D01*
X186524Y376944D01*
X186922Y377905D01*
X186942Y378061D01*
X187447D01*
X187454Y378002D01*
X187815Y377130D01*
X188390Y376382D01*
X189138Y375808D01*
X190010Y375447D01*
X190945Y375323D01*
X191880Y375447D01*
X192752Y375808D01*
X193500Y376382D01*
X194074Y377130D01*
X194435Y378002D01*
X194558Y378937D01*
X194435Y379872D01*
X194074Y380744D01*
X193500Y381492D01*
X192752Y382066D01*
X191880Y382428D01*
X190945Y382551D01*
X190010Y382428D01*
X189138Y382066D01*
X188390Y381492D01*
X187815Y380744D01*
X187454Y379872D01*
X187447Y379813D01*
X186942D01*
X186922Y379969D01*
X186524Y380930D01*
X185890Y381756D01*
X185064Y382390D01*
X184103Y382788D01*
X183571Y382858D01*
D02*
G37*
G36*
X136327D02*
Y378937D01*
Y375016D01*
X136859Y375086D01*
X137820Y375484D01*
X138646Y376118D01*
X139279Y376944D01*
X139678Y377905D01*
X139698Y378061D01*
X140203D01*
X140210Y378002D01*
X140571Y377130D01*
X141146Y376382D01*
X141894Y375808D01*
X142765Y375447D01*
X143701Y375323D01*
X144636Y375447D01*
X145508Y375808D01*
X146256Y376382D01*
X146830Y377130D01*
X147191Y378002D01*
X147314Y378937D01*
X147191Y379872D01*
X146830Y380744D01*
X146256Y381492D01*
X145508Y382066D01*
X144636Y382428D01*
X143701Y382551D01*
X142765Y382428D01*
X141894Y382066D01*
X141146Y381492D01*
X140571Y380744D01*
X140210Y379872D01*
X140203Y379813D01*
X139698D01*
X139678Y379969D01*
X139279Y380930D01*
X138646Y381756D01*
X137820Y382390D01*
X136859Y382788D01*
X136327Y382858D01*
D02*
G37*
G36*
X89083D02*
Y378937D01*
Y375016D01*
X89614Y375086D01*
X90576Y375484D01*
X91402Y376118D01*
X92035Y376944D01*
X92434Y377905D01*
X92454Y378061D01*
X92958D01*
X92966Y378002D01*
X93327Y377130D01*
X93901Y376382D01*
X94650Y375808D01*
X95521Y375447D01*
X96457Y375323D01*
X97392Y375447D01*
X98264Y375808D01*
X99012Y376382D01*
X99586Y377130D01*
X99947Y378002D01*
X100070Y378937D01*
X99947Y379872D01*
X99586Y380744D01*
X99012Y381492D01*
X98264Y382066D01*
X97392Y382428D01*
X96457Y382551D01*
X95521Y382428D01*
X94650Y382066D01*
X93901Y381492D01*
X93327Y380744D01*
X92966Y379872D01*
X92958Y379813D01*
X92454D01*
X92434Y379969D01*
X92035Y380930D01*
X91402Y381756D01*
X90576Y382390D01*
X89614Y382788D01*
X89083Y382858D01*
D02*
G37*
G36*
X41839D02*
Y378937D01*
Y375016D01*
X42371Y375086D01*
X43332Y375484D01*
X44158Y376118D01*
X44791Y376944D01*
X45190Y377905D01*
X45210Y378061D01*
X45714D01*
X45722Y378002D01*
X46083Y377130D01*
X46657Y376382D01*
X47406Y375808D01*
X48277Y375447D01*
X49213Y375323D01*
X50148Y375447D01*
X51019Y375808D01*
X51768Y376382D01*
X52342Y377130D01*
X52703Y378002D01*
X52826Y378937D01*
X52703Y379872D01*
X52342Y380744D01*
X51768Y381492D01*
X51019Y382066D01*
X50148Y382428D01*
X49213Y382551D01*
X48277Y382428D01*
X47406Y382066D01*
X46657Y381492D01*
X46083Y380744D01*
X45722Y379872D01*
X45714Y379813D01*
X45210D01*
X45190Y379969D01*
X44791Y380930D01*
X44158Y381756D01*
X43332Y382390D01*
X42371Y382788D01*
X41839Y382858D01*
D02*
G37*
G36*
X344504Y378437D02*
X341051D01*
Y374984D01*
X344504D01*
Y378437D01*
D02*
G37*
G36*
X297260D02*
X293807D01*
Y374984D01*
X297260D01*
Y378437D01*
D02*
G37*
G36*
X250016D02*
X246563D01*
Y374984D01*
X250016D01*
Y378437D01*
D02*
G37*
G36*
X182571Y356480D02*
X182039Y356410D01*
X181077Y356012D01*
X180252Y355378D01*
X179618Y354553D01*
X179220Y353591D01*
X179199Y353435D01*
X178695D01*
X178687Y353494D01*
X178326Y354366D01*
X177752Y355114D01*
X177004Y355689D01*
X176132Y356049D01*
X175197Y356173D01*
X174262Y356049D01*
X173390Y355689D01*
X172642Y355114D01*
X172067Y354366D01*
X171706Y353494D01*
X171583Y352559D01*
X171706Y351624D01*
X172067Y350752D01*
X172642Y350004D01*
X173390Y349430D01*
X174262Y349069D01*
X175197Y348945D01*
X176132Y349069D01*
X177004Y349430D01*
X177752Y350004D01*
X178326Y350752D01*
X178687Y351624D01*
X178695Y351683D01*
X179199D01*
X179220Y351527D01*
X179618Y350566D01*
X180252Y349740D01*
X181077Y349106D01*
X182039Y348708D01*
X182571Y348638D01*
Y352559D01*
Y356480D01*
D02*
G37*
G36*
X135327D02*
X134795Y356410D01*
X133833Y356012D01*
X133008Y355378D01*
X132374Y354553D01*
X131976Y353591D01*
X131955Y353435D01*
X131451D01*
X131443Y353494D01*
X131082Y354366D01*
X130508Y355114D01*
X129760Y355689D01*
X128888Y356049D01*
X127953Y356173D01*
X127017Y356049D01*
X126146Y355689D01*
X125398Y355114D01*
X124823Y354366D01*
X124462Y353494D01*
X124339Y352559D01*
X124462Y351624D01*
X124823Y350752D01*
X125398Y350004D01*
X126146Y349430D01*
X127017Y349069D01*
X127953Y348945D01*
X128888Y349069D01*
X129760Y349430D01*
X130508Y350004D01*
X131082Y350752D01*
X131443Y351624D01*
X131451Y351683D01*
X131955D01*
X131976Y351527D01*
X132374Y350566D01*
X133008Y349740D01*
X133833Y349106D01*
X134795Y348708D01*
X135327Y348638D01*
Y352559D01*
Y356480D01*
D02*
G37*
G36*
X88083D02*
X87551Y356410D01*
X86589Y356012D01*
X85764Y355378D01*
X85130Y354553D01*
X84732Y353591D01*
X84711Y353435D01*
X84207D01*
X84199Y353494D01*
X83838Y354366D01*
X83264Y355114D01*
X82515Y355689D01*
X81644Y356049D01*
X80709Y356173D01*
X79773Y356049D01*
X78902Y355689D01*
X78154Y355114D01*
X77579Y354366D01*
X77218Y353494D01*
X77095Y352559D01*
X77218Y351624D01*
X77579Y350752D01*
X78154Y350004D01*
X78902Y349430D01*
X79773Y349069D01*
X80709Y348945D01*
X81644Y349069D01*
X82515Y349430D01*
X83264Y350004D01*
X83838Y350752D01*
X84199Y351624D01*
X84207Y351683D01*
X84711D01*
X84732Y351527D01*
X85130Y350566D01*
X85764Y349740D01*
X86589Y349106D01*
X87551Y348708D01*
X88083Y348638D01*
Y352559D01*
Y356480D01*
D02*
G37*
G36*
X40839D02*
X40307Y356410D01*
X39345Y356012D01*
X38519Y355378D01*
X37886Y354553D01*
X37488Y353591D01*
X37467Y353435D01*
X36963D01*
X36955Y353494D01*
X36594Y354366D01*
X36020Y355114D01*
X35271Y355689D01*
X34400Y356049D01*
X33465Y356173D01*
X32529Y356049D01*
X31658Y355689D01*
X30909Y355114D01*
X30335Y354366D01*
X29974Y353494D01*
X29851Y352559D01*
X29974Y351624D01*
X30335Y350752D01*
X30909Y350004D01*
X31658Y349430D01*
X32529Y349069D01*
X33465Y348945D01*
X34400Y349069D01*
X35271Y349430D01*
X36020Y350004D01*
X36594Y350752D01*
X36955Y351624D01*
X36963Y351683D01*
X37467D01*
X37488Y351527D01*
X37886Y350566D01*
X38519Y349740D01*
X39345Y349106D01*
X40307Y348708D01*
X40839Y348638D01*
Y352559D01*
Y356480D01*
D02*
G37*
G36*
X340051Y356118D02*
X336598D01*
Y353367D01*
X336098Y353268D01*
X335807Y353972D01*
X335232Y354721D01*
X334484Y355295D01*
X333612Y355656D01*
X332677Y355779D01*
X331742Y355656D01*
X330870Y355295D01*
X330122Y354721D01*
X329548Y353972D01*
X329187Y353101D01*
X329064Y352165D01*
X329187Y351230D01*
X329548Y350359D01*
X330122Y349610D01*
X330870Y349036D01*
X331525Y348765D01*
Y344178D01*
X323538Y336191D01*
X164173D01*
X163732Y336104D01*
X163359Y335854D01*
X158184Y330680D01*
X154952D01*
X154849Y330833D01*
X154250Y331234D01*
X153543Y331374D01*
X152837Y331234D01*
X152238Y330833D01*
X151837Y330234D01*
X151697Y329528D01*
X151837Y328821D01*
X152238Y328222D01*
X152837Y327822D01*
X153543Y327681D01*
X154250Y327822D01*
X154849Y328222D01*
X154952Y328376D01*
X158661D01*
X159102Y328463D01*
X159476Y328713D01*
X164650Y333887D01*
X324016D01*
X324457Y333975D01*
X324830Y334225D01*
X333492Y342886D01*
X333741Y343260D01*
X333829Y343701D01*
Y348765D01*
X334484Y349036D01*
X335232Y349610D01*
X335807Y350359D01*
X336098Y351063D01*
X336598Y350964D01*
Y348213D01*
X340051D01*
Y352165D01*
X340551D01*
D01*
X340051D01*
Y356118D01*
D02*
G37*
G36*
X292807D02*
X289354D01*
Y353367D01*
X288854Y353268D01*
X288562Y353972D01*
X287988Y354721D01*
X287240Y355295D01*
X286368Y355656D01*
X285433Y355779D01*
X284498Y355656D01*
X283626Y355295D01*
X282878Y354721D01*
X282304Y353972D01*
X281943Y353101D01*
X281820Y352165D01*
X281943Y351230D01*
X282304Y350359D01*
X282878Y349610D01*
X283626Y349036D01*
X284281Y348765D01*
Y344965D01*
X279838Y340522D01*
X154724D01*
X154283Y340434D01*
X153910Y340185D01*
X139737Y326011D01*
X139487Y325638D01*
X139399Y325197D01*
Y323849D01*
X139245Y323747D01*
X138845Y323148D01*
X138705Y322441D01*
X138845Y321734D01*
X139245Y321135D01*
X139845Y320735D01*
X140551Y320594D01*
X141258Y320735D01*
X141857Y321135D01*
X142257Y321734D01*
X142398Y322441D01*
X142257Y323148D01*
X141857Y323747D01*
X141703Y323849D01*
Y324720D01*
X155202Y338218D01*
X280315D01*
X280756Y338306D01*
X281130Y338556D01*
X286248Y343674D01*
X286497Y344047D01*
X286585Y344488D01*
Y348765D01*
X287240Y349036D01*
X287988Y349610D01*
X288562Y350359D01*
X288854Y351063D01*
X289354Y350964D01*
Y348213D01*
X292807D01*
Y352165D01*
Y356118D01*
D02*
G37*
G36*
X245563D02*
X242110D01*
Y353367D01*
X241610Y353268D01*
X241318Y353972D01*
X240744Y354721D01*
X239996Y355295D01*
X239124Y355656D01*
X238189Y355779D01*
X237254Y355656D01*
X236382Y355295D01*
X235634Y354721D01*
X235059Y353972D01*
X234699Y353101D01*
X234575Y352165D01*
X234699Y351230D01*
X235059Y350359D01*
X235634Y349610D01*
X236382Y349036D01*
X237037Y348765D01*
Y348039D01*
X234244Y345247D01*
X146850D01*
X146409Y345159D01*
X146036Y344909D01*
X133831Y332704D01*
X133581Y332331D01*
X133494Y331890D01*
Y288810D01*
X133340Y288707D01*
X132940Y288108D01*
X132799Y287402D01*
X132940Y286695D01*
X133340Y286096D01*
X133939Y285696D01*
X134646Y285555D01*
X135352Y285696D01*
X135951Y286096D01*
X136352Y286695D01*
X136492Y287402D01*
X136352Y288108D01*
X135951Y288707D01*
X135798Y288810D01*
Y331413D01*
X147328Y342942D01*
X234721D01*
X235162Y343030D01*
X235536Y343280D01*
X239004Y346747D01*
X239253Y347121D01*
X239341Y347562D01*
Y348765D01*
X239996Y349036D01*
X240744Y349610D01*
X241318Y350359D01*
X241610Y351063D01*
X242110Y350964D01*
Y348213D01*
X245563D01*
Y352165D01*
X246063D01*
D01*
X245563D01*
Y356118D01*
D02*
G37*
G36*
X344504D02*
X341051D01*
Y352665D01*
X344504D01*
Y356118D01*
D02*
G37*
G36*
X250016D02*
X246563D01*
Y352665D01*
X250016D01*
Y356118D01*
D02*
G37*
G36*
X297260D02*
X293807D01*
Y352665D01*
X297260D01*
Y356118D01*
D02*
G37*
G36*
X202402Y356142D02*
X195236D01*
Y348976D01*
X202402D01*
Y356142D01*
D02*
G37*
G36*
X155157D02*
X147992D01*
Y348976D01*
X155157D01*
Y356142D01*
D02*
G37*
G36*
X183571Y356480D02*
Y352559D01*
Y348638D01*
X184103Y348708D01*
X185064Y349106D01*
X185890Y349740D01*
X186524Y350566D01*
X186922Y351527D01*
X186942Y351683D01*
X187447D01*
X187454Y351624D01*
X187815Y350752D01*
X188390Y350004D01*
X189138Y349430D01*
X190010Y349069D01*
X190945Y348945D01*
X191880Y349069D01*
X192752Y349430D01*
X193500Y350004D01*
X194074Y350752D01*
X194435Y351624D01*
X194558Y352559D01*
X194435Y353494D01*
X194074Y354366D01*
X193500Y355114D01*
X192752Y355689D01*
X191880Y356049D01*
X190945Y356173D01*
X190010Y356049D01*
X189138Y355689D01*
X188390Y355114D01*
X187815Y354366D01*
X187454Y353494D01*
X187447Y353435D01*
X186942D01*
X186922Y353591D01*
X186524Y354553D01*
X185890Y355378D01*
X185064Y356012D01*
X184103Y356410D01*
X183571Y356480D01*
D02*
G37*
G36*
X136327D02*
Y352559D01*
Y348638D01*
X136859Y348708D01*
X137820Y349106D01*
X138646Y349740D01*
X139279Y350566D01*
X139678Y351527D01*
X139698Y351683D01*
X140203D01*
X140210Y351624D01*
X140571Y350752D01*
X141146Y350004D01*
X141894Y349430D01*
X142765Y349069D01*
X143701Y348945D01*
X144636Y349069D01*
X145508Y349430D01*
X146256Y350004D01*
X146830Y350752D01*
X147191Y351624D01*
X147314Y352559D01*
X147191Y353494D01*
X146830Y354366D01*
X146256Y355114D01*
X145508Y355689D01*
X144636Y356049D01*
X143701Y356173D01*
X142765Y356049D01*
X141894Y355689D01*
X141146Y355114D01*
X140571Y354366D01*
X140210Y353494D01*
X140203Y353435D01*
X139698D01*
X139678Y353591D01*
X139279Y354553D01*
X138646Y355378D01*
X137820Y356012D01*
X136859Y356410D01*
X136327Y356480D01*
D02*
G37*
G36*
X89083D02*
Y352559D01*
Y348638D01*
X89614Y348708D01*
X90576Y349106D01*
X91402Y349740D01*
X92035Y350566D01*
X92434Y351527D01*
X92454Y351683D01*
X92958D01*
X92966Y351624D01*
X93327Y350752D01*
X93901Y350004D01*
X94650Y349430D01*
X95521Y349069D01*
X96457Y348945D01*
X97392Y349069D01*
X98264Y349430D01*
X99012Y350004D01*
X99586Y350752D01*
X99947Y351624D01*
X100070Y352559D01*
X99947Y353494D01*
X99586Y354366D01*
X99012Y355114D01*
X98264Y355689D01*
X97392Y356049D01*
X96457Y356173D01*
X95521Y356049D01*
X94650Y355689D01*
X93901Y355114D01*
X93327Y354366D01*
X92966Y353494D01*
X92958Y353435D01*
X92454D01*
X92434Y353591D01*
X92035Y354553D01*
X91402Y355378D01*
X90576Y356012D01*
X89614Y356410D01*
X89083Y356480D01*
D02*
G37*
G36*
X41839D02*
Y352559D01*
Y348638D01*
X42371Y348708D01*
X43332Y349106D01*
X44158Y349740D01*
X44791Y350566D01*
X45190Y351527D01*
X45210Y351683D01*
X45714D01*
X45722Y351624D01*
X46083Y350752D01*
X46657Y350004D01*
X47406Y349430D01*
X48277Y349069D01*
X49213Y348945D01*
X50148Y349069D01*
X51019Y349430D01*
X51768Y350004D01*
X52342Y350752D01*
X52703Y351624D01*
X52826Y352559D01*
X52703Y353494D01*
X52342Y354366D01*
X51768Y355114D01*
X51019Y355689D01*
X50148Y356049D01*
X49213Y356173D01*
X48277Y356049D01*
X47406Y355689D01*
X46657Y355114D01*
X46083Y354366D01*
X45722Y353494D01*
X45714Y353435D01*
X45210D01*
X45190Y353591D01*
X44791Y354553D01*
X44158Y355378D01*
X43332Y356012D01*
X42371Y356410D01*
X41839Y356480D01*
D02*
G37*
G36*
X324803Y355779D02*
X323868Y355656D01*
X322996Y355295D01*
X322248Y354721D01*
X321674Y353972D01*
X321313Y353101D01*
X321190Y352165D01*
X321313Y351230D01*
X321674Y350359D01*
X322248Y349610D01*
X322996Y349036D01*
X323868Y348675D01*
X324803Y348552D01*
X325738Y348675D01*
X326610Y349036D01*
X327358Y349610D01*
X327933Y350359D01*
X328294Y351230D01*
X328417Y352165D01*
X328294Y353101D01*
X327933Y353972D01*
X327358Y354721D01*
X326610Y355295D01*
X325738Y355656D01*
X324803Y355779D01*
D02*
G37*
G36*
X316929D02*
X315994Y355656D01*
X315122Y355295D01*
X314374Y354721D01*
X313800Y353972D01*
X313439Y353101D01*
X313316Y352165D01*
X313439Y351230D01*
X313800Y350359D01*
X314374Y349610D01*
X315122Y349036D01*
X315994Y348675D01*
X316929Y348552D01*
X317864Y348675D01*
X318736Y349036D01*
X319484Y349610D01*
X320059Y350359D01*
X320420Y351230D01*
X320543Y352165D01*
X320420Y353101D01*
X320059Y353972D01*
X319484Y354721D01*
X318736Y355295D01*
X317864Y355656D01*
X316929Y355779D01*
D02*
G37*
G36*
X277559D02*
X276624Y355656D01*
X275752Y355295D01*
X275004Y354721D01*
X274430Y353972D01*
X274069Y353101D01*
X273945Y352165D01*
X274069Y351230D01*
X274430Y350359D01*
X275004Y349610D01*
X275752Y349036D01*
X276624Y348675D01*
X277559Y348552D01*
X278494Y348675D01*
X279366Y349036D01*
X280114Y349610D01*
X280689Y350359D01*
X281049Y351230D01*
X281173Y352165D01*
X281049Y353101D01*
X280689Y353972D01*
X280114Y354721D01*
X279366Y355295D01*
X278494Y355656D01*
X277559Y355779D01*
D02*
G37*
G36*
X269685D02*
X268750Y355656D01*
X267878Y355295D01*
X267130Y354721D01*
X266556Y353972D01*
X266195Y353101D01*
X266072Y352165D01*
X266195Y351230D01*
X266556Y350359D01*
X267130Y349610D01*
X267878Y349036D01*
X268750Y348675D01*
X269685Y348552D01*
X270620Y348675D01*
X271492Y349036D01*
X272240Y349610D01*
X272814Y350359D01*
X273176Y351230D01*
X273299Y352165D01*
X273176Y353101D01*
X272814Y353972D01*
X272240Y354721D01*
X271492Y355295D01*
X270620Y355656D01*
X269685Y355779D01*
D02*
G37*
G36*
X230315D02*
X229380Y355656D01*
X228508Y355295D01*
X227760Y354721D01*
X227186Y353972D01*
X226824Y353101D01*
X226701Y352165D01*
X226824Y351230D01*
X227186Y350359D01*
X227760Y349610D01*
X228508Y349036D01*
X229380Y348675D01*
X230315Y348552D01*
X231250Y348675D01*
X232122Y349036D01*
X232870Y349610D01*
X233444Y350359D01*
X233805Y351230D01*
X233928Y352165D01*
X233805Y353101D01*
X233444Y353972D01*
X232870Y354721D01*
X232122Y355295D01*
X231250Y355656D01*
X230315Y355779D01*
D02*
G37*
G36*
X222441D02*
X221506Y355656D01*
X220634Y355295D01*
X219886Y354721D01*
X219311Y353972D01*
X218951Y353101D01*
X218827Y352165D01*
X218951Y351230D01*
X219311Y350359D01*
X219886Y349610D01*
X220634Y349036D01*
X221506Y348675D01*
X222441Y348552D01*
X223376Y348675D01*
X224248Y349036D01*
X224996Y349610D01*
X225570Y350359D01*
X225931Y351230D01*
X226055Y352165D01*
X225931Y353101D01*
X225570Y353972D01*
X224996Y354721D01*
X224248Y355295D01*
X223376Y355656D01*
X222441Y355779D01*
D02*
G37*
G36*
X344504Y351665D02*
X341051D01*
Y348213D01*
X344504D01*
Y351665D01*
D02*
G37*
G36*
X297260D02*
X293807D01*
Y348213D01*
X297260D01*
Y351665D01*
D02*
G37*
G36*
X250016D02*
X246563D01*
Y348213D01*
X250016D01*
Y351665D01*
D02*
G37*
G36*
X16535Y334913D02*
X15254Y334787D01*
X14022Y334414D01*
X12887Y333807D01*
X11892Y332990D01*
X11075Y331995D01*
X10468Y330860D01*
X10095Y329628D01*
X9968Y328346D01*
X10095Y327065D01*
X10468Y325833D01*
X11075Y324698D01*
X11892Y323703D01*
X12887Y322886D01*
X14022Y322279D01*
X15254Y321906D01*
X16535Y321779D01*
X17817Y321906D01*
X19049Y322279D01*
X20184Y322886D01*
X21179Y323703D01*
X21996Y324698D01*
X22603Y325833D01*
X22976Y327065D01*
X23102Y328346D01*
X22976Y329628D01*
X22603Y330860D01*
X21996Y331995D01*
X21179Y332990D01*
X20184Y333807D01*
X19049Y334414D01*
X17817Y334787D01*
X16535Y334913D01*
D02*
G37*
G36*
X235433Y325469D02*
X234727Y325328D01*
X234636Y325268D01*
X220866D01*
X220236Y325143D01*
X219702Y324786D01*
X218324Y323408D01*
X217968Y322874D01*
X217842Y322244D01*
Y319756D01*
X189764D01*
X189134Y319631D01*
X188600Y319274D01*
X187089Y317763D01*
X185578Y319274D01*
X185045Y319631D01*
X184415Y319756D01*
X151969D01*
X151339Y319631D01*
X150805Y319274D01*
X148049Y316518D01*
X147692Y315984D01*
X147567Y315354D01*
Y313271D01*
X147441D01*
X146581Y313100D01*
X145851Y312613D01*
X145364Y311884D01*
X145193Y311024D01*
Y306379D01*
X143718Y304904D01*
X143361Y304370D01*
X143236Y303740D01*
Y284291D01*
X140905D01*
Y273189D01*
X148858D01*
Y284291D01*
X146528D01*
Y303058D01*
X147520Y304051D01*
X150591D01*
X151451Y304222D01*
X152180Y304710D01*
X152667Y305439D01*
X152838Y306299D01*
Y311024D01*
X152667Y311884D01*
X152180Y312613D01*
X151451Y313100D01*
X150858Y313218D01*
Y314673D01*
X152650Y316464D01*
X183733D01*
X185443Y314754D01*
Y313257D01*
X184654Y313100D01*
X183925Y312613D01*
X183438Y311884D01*
X183266Y311024D01*
Y306299D01*
X183438Y305439D01*
X183925Y304710D01*
X184654Y304222D01*
X185514Y304051D01*
X188664D01*
X189524Y304222D01*
X190253Y304710D01*
X190741Y305439D01*
X190912Y306299D01*
Y311024D01*
X190741Y311884D01*
X190253Y312613D01*
X189524Y313100D01*
X188735Y313257D01*
Y314754D01*
X190445Y316464D01*
X217874D01*
Y315216D01*
X221102D01*
Y317558D01*
X221134Y317717D01*
Y321562D01*
X221548Y321976D01*
X234636D01*
X234727Y321916D01*
X235433Y321776D01*
X236140Y321916D01*
X236739Y322316D01*
X237139Y322915D01*
X237280Y323622D01*
X237139Y324329D01*
X236739Y324928D01*
X236140Y325328D01*
X235433Y325469D01*
D02*
G37*
G36*
X115764Y316748D02*
X112311D01*
Y313295D01*
X115764D01*
Y316748D01*
D02*
G37*
G36*
X111311D02*
X107858D01*
Y313295D01*
X111311D01*
Y316748D01*
D02*
G37*
G36*
X267610Y315764D02*
X264158D01*
Y313013D01*
X263657Y312913D01*
X263366Y313618D01*
X262791Y314366D01*
X262043Y314941D01*
X261172Y315301D01*
X260236Y315425D01*
X259301Y315301D01*
X258429Y314941D01*
X257681Y314366D01*
X257107Y313618D01*
X256746Y312746D01*
X256623Y311811D01*
X256746Y310876D01*
X257107Y310004D01*
X257681Y309256D01*
X258429Y308682D01*
X259084Y308410D01*
Y273706D01*
X195192Y209813D01*
X166929D01*
X166488Y209726D01*
X166114Y209476D01*
X161784Y205145D01*
X161534Y204772D01*
X161495Y204573D01*
X160995Y204622D01*
Y205428D01*
X166619Y211053D01*
X188976D01*
X189417Y211140D01*
X189791Y211390D01*
X253177Y274776D01*
X253427Y275150D01*
X253514Y275591D01*
Y308410D01*
X254169Y308682D01*
X254917Y309256D01*
X255492Y310004D01*
X255853Y310876D01*
X255976Y311811D01*
X255853Y312746D01*
X255492Y313618D01*
X254917Y314366D01*
X254169Y314941D01*
X253297Y315301D01*
X252362Y315425D01*
X251427Y315301D01*
X250555Y314941D01*
X249807Y314366D01*
X249233Y313618D01*
X248872Y312746D01*
X248749Y311811D01*
X248872Y310876D01*
X249233Y310004D01*
X249807Y309256D01*
X250555Y308682D01*
X251210Y308410D01*
Y276068D01*
X188499Y213357D01*
X166142D01*
X165701Y213269D01*
X165327Y213019D01*
X159028Y206720D01*
X158778Y206346D01*
X158691Y205906D01*
Y202446D01*
X157003Y200758D01*
X155011D01*
X154857Y201232D01*
X154856Y201258D01*
X156326Y202729D01*
X156576Y203102D01*
X156664Y203543D01*
Y209365D01*
X161895Y214596D01*
X182283D01*
X182724Y214684D01*
X183098Y214933D01*
X245303Y277138D01*
X245553Y277512D01*
X245640Y277953D01*
Y308410D01*
X246295Y308682D01*
X247043Y309256D01*
X247618Y310004D01*
X247979Y310876D01*
X248102Y311811D01*
X247979Y312746D01*
X247618Y313618D01*
X247043Y314366D01*
X246295Y314941D01*
X245424Y315301D01*
X244488Y315425D01*
X243553Y315301D01*
X242681Y314941D01*
X241933Y314366D01*
X241359Y313618D01*
X240998Y312746D01*
X240875Y311811D01*
X240998Y310876D01*
X241359Y310004D01*
X241933Y309256D01*
X242681Y308682D01*
X243336Y308410D01*
Y278430D01*
X181806Y216900D01*
X161417D01*
X160976Y216812D01*
X160603Y216563D01*
X154697Y210657D01*
X154447Y210283D01*
X154360Y209842D01*
Y204021D01*
X153558Y203219D01*
X152101D01*
X151977Y203364D01*
X151784Y203719D01*
X151827Y203935D01*
Y205317D01*
X151763Y205639D01*
X151581Y205912D01*
X151308Y206094D01*
X150986Y206158D01*
X145864D01*
X145542Y206094D01*
X145270Y205912D01*
X145180Y205778D01*
X133647D01*
X130342Y209082D01*
X129968Y209332D01*
X129770Y209372D01*
X129819Y209872D01*
X131413D01*
X132650Y208634D01*
X133024Y208384D01*
X133465Y208297D01*
X148425D01*
X148866Y208384D01*
X149240Y208634D01*
X154358Y213752D01*
X154358Y213752D01*
X161009Y220403D01*
X168409D01*
X168498Y220269D01*
X168771Y220087D01*
X169093Y220023D01*
X174215D01*
X174536Y220087D01*
X174809Y220269D01*
X174992Y220542D01*
X175056Y220864D01*
Y222246D01*
X175013Y222462D01*
X175205Y222817D01*
X175329Y222962D01*
X177771D01*
X178111Y222622D01*
X178075Y222441D01*
X178215Y221734D01*
X178616Y221135D01*
X179215Y220735D01*
X179921Y220594D01*
X180628Y220735D01*
X181227Y221135D01*
X181627Y221734D01*
X181768Y222441D01*
X181627Y223148D01*
X181227Y223747D01*
X180628Y224147D01*
X179921Y224287D01*
X179740Y224251D01*
X179063Y224929D01*
X178924Y225021D01*
X179076Y225521D01*
X184941D01*
X185382Y225609D01*
X185756Y225859D01*
X190972Y231075D01*
X191222Y231449D01*
X191309Y231890D01*
Y234025D01*
X191463Y234127D01*
X191863Y234727D01*
X192004Y235433D01*
X191863Y236140D01*
X191463Y236739D01*
X190864Y237139D01*
X190157Y237280D01*
X189451Y237139D01*
X188852Y236739D01*
X188452Y236140D01*
X188311Y235433D01*
X188452Y234727D01*
X188852Y234127D01*
X189005Y234025D01*
Y232367D01*
X184464Y227825D01*
X181635D01*
X181483Y228325D01*
X181622Y228418D01*
X184673Y231469D01*
X184923Y231843D01*
X185010Y232283D01*
Y247554D01*
X188273Y250816D01*
X202135D01*
X202238Y250663D01*
X202837Y250263D01*
X203543Y250122D01*
X204250Y250263D01*
X204849Y250663D01*
X205249Y251262D01*
X205390Y251969D01*
X205249Y252675D01*
X204849Y253274D01*
X204250Y253674D01*
X203543Y253815D01*
X202837Y253674D01*
X202238Y253274D01*
X202135Y253121D01*
X187795D01*
X187354Y253033D01*
X186981Y252783D01*
X183044Y248846D01*
X182794Y248472D01*
X182706Y248031D01*
Y232761D01*
X180330Y230384D01*
X177297D01*
X177145Y230884D01*
X177283Y230977D01*
X180342Y234035D01*
X180592Y234409D01*
X180680Y234850D01*
Y246063D01*
X180592Y246504D01*
X180342Y246878D01*
X173649Y253571D01*
X173275Y253820D01*
X172835Y253908D01*
X152589D01*
X152487Y254062D01*
X151888Y254462D01*
X151181Y254602D01*
X150475Y254462D01*
X149875Y254062D01*
X149475Y253463D01*
X149335Y252756D01*
X149475Y252049D01*
X149875Y251450D01*
X150475Y251050D01*
X151181Y250909D01*
X151888Y251050D01*
X152487Y251450D01*
X152589Y251604D01*
X172357D01*
X178375Y245586D01*
Y235327D01*
X175992Y232943D01*
X175329D01*
X175205Y233089D01*
X175013Y233443D01*
X175056Y233659D01*
Y235041D01*
X174992Y235363D01*
X174813Y235630D01*
X174992Y235897D01*
X175056Y236219D01*
Y237600D01*
X175003Y237867D01*
X175076Y237916D01*
X175340Y238311D01*
X175433Y238778D01*
Y238968D01*
X171653D01*
X167874D01*
Y238778D01*
X167917Y238562D01*
X167599Y238091D01*
X167107Y238065D01*
X165719Y239454D01*
Y241899D01*
X165873Y242001D01*
X166273Y242600D01*
X166413Y243307D01*
X166273Y244014D01*
X165873Y244613D01*
X165274Y245013D01*
X164567Y245154D01*
X163860Y245013D01*
X163261Y244613D01*
X162861Y244014D01*
X162720Y243307D01*
X162861Y242600D01*
X163261Y242001D01*
X163415Y241899D01*
Y238976D01*
X163503Y238535D01*
X163752Y238162D01*
X165819Y236095D01*
X165957Y236002D01*
X165806Y235502D01*
X158396D01*
X158294Y235656D01*
X157695Y236056D01*
X156988Y236197D01*
X156282Y236056D01*
X155683Y235656D01*
X155282Y235057D01*
X155142Y234350D01*
X155282Y233644D01*
X155683Y233045D01*
X156282Y232644D01*
X156988Y232504D01*
X157695Y232644D01*
X158294Y233045D01*
X158396Y233198D01*
X167978D01*
X168102Y233053D01*
X168295Y232698D01*
X168252Y232482D01*
Y231100D01*
X168316Y230779D01*
X168494Y230512D01*
X168316Y230245D01*
X168252Y229923D01*
Y228541D01*
X168316Y228220D01*
X168494Y227953D01*
X168316Y227686D01*
X168252Y227364D01*
Y225982D01*
X168316Y225660D01*
X168494Y225394D01*
X168316Y225127D01*
X168252Y224805D01*
Y223423D01*
X168295Y223207D01*
X168102Y222852D01*
X167978Y222707D01*
X160531D01*
X160091Y222620D01*
X159717Y222370D01*
X152729Y215382D01*
X152729Y215382D01*
X147948Y210601D01*
X133942D01*
X132704Y211838D01*
X132331Y212088D01*
X131890Y212176D01*
X115748D01*
X115307Y212088D01*
X114933Y211838D01*
X107256Y204161D01*
X107007Y203787D01*
X106919Y203346D01*
Y186107D01*
X101098Y180286D01*
X68898D01*
X68457Y180198D01*
X68083Y179948D01*
X65721Y177586D01*
X65471Y177213D01*
X65383Y176772D01*
Y165831D01*
X58704Y159152D01*
X27952D01*
X27671Y159831D01*
X27089Y160589D01*
X26331Y161171D01*
X25448Y161537D01*
X24500Y161661D01*
X23552Y161537D01*
X22669Y161171D01*
X21911Y160589D01*
X21329Y159831D01*
X20964Y158948D01*
X20839Y158000D01*
X20964Y157052D01*
X21329Y156169D01*
X21911Y155411D01*
X22669Y154829D01*
X22736Y154802D01*
X22637Y154302D01*
X19828D01*
X17755Y156374D01*
X18036Y157052D01*
X18161Y158000D01*
X18036Y158948D01*
X17671Y159831D01*
X17089Y160589D01*
X16331Y161171D01*
X15448Y161537D01*
X14500Y161661D01*
X13552Y161537D01*
X12669Y161171D01*
X11911Y160589D01*
X11329Y159831D01*
X10964Y158948D01*
X10839Y158000D01*
X10964Y157052D01*
X11329Y156169D01*
X11911Y155411D01*
X12669Y154829D01*
X13552Y154464D01*
X14500Y154339D01*
X15448Y154464D01*
X16126Y154745D01*
X18536Y152335D01*
X18910Y152085D01*
X19350Y151998D01*
X23359D01*
X23458Y151498D01*
X22669Y151171D01*
X21911Y150589D01*
X21329Y149831D01*
X20964Y148948D01*
X20839Y148000D01*
X20964Y147052D01*
X21329Y146169D01*
X21911Y145411D01*
X22669Y144829D01*
X23552Y144464D01*
X24500Y144339D01*
X25448Y144464D01*
X26331Y144829D01*
X27089Y145411D01*
X27671Y146169D01*
X27952Y146848D01*
X35381D01*
X59872Y122357D01*
Y90158D01*
X59959Y89717D01*
X60209Y89343D01*
X66902Y82650D01*
X67276Y82400D01*
X67716Y82313D01*
X105118D01*
X105559Y82400D01*
X105933Y82650D01*
X127249Y103966D01*
X143701D01*
X144142Y104054D01*
X144515Y104304D01*
X146540Y106328D01*
X155822D01*
X159657Y102493D01*
X165229Y96922D01*
X165602Y96672D01*
X166043Y96584D01*
X167978D01*
X168102Y96439D01*
X168295Y96084D01*
X168252Y95868D01*
Y94486D01*
X168316Y94164D01*
X168494Y93898D01*
X168316Y93631D01*
X168252Y93309D01*
Y91927D01*
X168316Y91605D01*
X168494Y91339D01*
X168316Y91072D01*
X168252Y90750D01*
Y89368D01*
X168316Y89046D01*
X168494Y88779D01*
X168316Y88513D01*
X168252Y88191D01*
Y86809D01*
X168316Y86487D01*
X168494Y86221D01*
X168316Y85954D01*
X168252Y85632D01*
Y84250D01*
X168316Y83928D01*
X168494Y83661D01*
X168316Y83395D01*
X168252Y83073D01*
Y81691D01*
X168316Y81369D01*
X168498Y81096D01*
X168771Y80914D01*
X169093Y80850D01*
X170501D01*
Y75984D01*
X170589Y75543D01*
X170839Y75170D01*
X177138Y68870D01*
X177512Y68621D01*
X177953Y68533D01*
X188583D01*
X189024Y68621D01*
X189397Y68870D01*
X193334Y72807D01*
X193584Y73181D01*
X193672Y73622D01*
Y91255D01*
X194909Y92492D01*
X195159Y92866D01*
X195247Y93307D01*
Y112205D01*
X195159Y112646D01*
X194909Y113019D01*
X188751Y119178D01*
Y123554D01*
X188904Y123657D01*
X189304Y124256D01*
X189445Y124963D01*
X189304Y125669D01*
X188904Y126268D01*
X188305Y126669D01*
X187598Y126809D01*
X186892Y126669D01*
X186293Y126268D01*
X185892Y125669D01*
X185752Y124963D01*
X185892Y124256D01*
X186293Y123657D01*
X186446Y123554D01*
Y118701D01*
X186534Y118260D01*
X186784Y117886D01*
X192942Y111727D01*
Y93784D01*
X191705Y92547D01*
X191455Y92173D01*
X191368Y91732D01*
Y74099D01*
X188105Y70837D01*
X178430D01*
X172806Y76461D01*
Y80850D01*
X174215D01*
X174536Y80914D01*
X174809Y81096D01*
X174992Y81369D01*
X175056Y81691D01*
Y83073D01*
X175022Y83240D01*
X175261Y83645D01*
X175362Y83740D01*
X182146D01*
Y83228D01*
X187146D01*
Y86457D01*
X182146D01*
Y86044D01*
X175297D01*
X175032Y86428D01*
X175003Y86544D01*
X175056Y86809D01*
Y88191D01*
X175013Y88407D01*
X175205Y88762D01*
X175329Y88907D01*
X185335D01*
X185775Y88995D01*
X186149Y89244D01*
X190972Y94067D01*
X191222Y94441D01*
X191309Y94882D01*
Y102922D01*
X191463Y103025D01*
X191863Y103624D01*
X192004Y104331D01*
X191863Y105037D01*
X191463Y105636D01*
X190864Y106037D01*
X190157Y106177D01*
X189451Y106037D01*
X188852Y105636D01*
X188452Y105037D01*
X188311Y104331D01*
X188452Y103624D01*
X188852Y103025D01*
X189005Y102922D01*
Y95359D01*
X184857Y91211D01*
X180454D01*
X180302Y91711D01*
X180441Y91803D01*
X186248Y97611D01*
X186497Y97984D01*
X186585Y98425D01*
Y107647D01*
X186739Y107749D01*
X187139Y108349D01*
X187280Y109055D01*
X187139Y109762D01*
X186739Y110361D01*
X186140Y110761D01*
X185433Y110902D01*
X184726Y110761D01*
X184127Y110361D01*
X183727Y109762D01*
X183587Y109055D01*
X183727Y108349D01*
X184127Y107749D01*
X184281Y107647D01*
Y98902D01*
X179149Y93770D01*
X176716D01*
X176565Y94270D01*
X176703Y94362D01*
X179948Y97608D01*
X180198Y97982D01*
X180286Y98423D01*
Y98592D01*
X180439Y98694D01*
X180840Y99293D01*
X180980Y100000D01*
X180840Y100707D01*
X180439Y101306D01*
X179841Y101706D01*
X179134Y101847D01*
X178427Y101706D01*
X177828Y101306D01*
X177428Y100707D01*
X177287Y100000D01*
X177428Y99293D01*
X177807Y98725D01*
X175716Y96634D01*
X175585Y96593D01*
X175080Y96705D01*
X175013Y96829D01*
X175056Y97045D01*
Y98427D01*
X175003Y98694D01*
X175076Y98743D01*
X175340Y99138D01*
X175433Y99604D01*
Y99795D01*
X171654D01*
X167874D01*
Y99604D01*
X167917Y99388D01*
X167578Y98888D01*
X166521D01*
X161782Y103627D01*
Y125901D01*
X165382Y129500D01*
X165631Y129874D01*
X165719Y130315D01*
Y165914D01*
X165873Y166017D01*
X166157Y166442D01*
X168112D01*
X168380Y165972D01*
X168316Y165875D01*
X168252Y165553D01*
Y164171D01*
X168316Y163849D01*
X168494Y163583D01*
X168316Y163316D01*
X168252Y162994D01*
Y161612D01*
X168316Y161290D01*
X168494Y161024D01*
X168316Y160757D01*
X168252Y160435D01*
Y159053D01*
X168316Y158731D01*
X168494Y158465D01*
X168316Y158198D01*
X168252Y157876D01*
Y156494D01*
X168316Y156172D01*
X168494Y155905D01*
X168316Y155639D01*
X168252Y155317D01*
Y153935D01*
X168316Y153613D01*
X168494Y153347D01*
X168316Y153080D01*
X168252Y152758D01*
Y151376D01*
X168316Y151054D01*
X168498Y150781D01*
X168771Y150599D01*
X169093Y150535D01*
X170034D01*
X170386Y150035D01*
X170300Y149606D01*
X170441Y148900D01*
X170841Y148301D01*
X171440Y147900D01*
X172147Y147760D01*
X172854Y147900D01*
X173452Y148301D01*
X173853Y148900D01*
X173993Y149606D01*
X173908Y150035D01*
X174181Y150480D01*
X174228Y150520D01*
X174277Y150548D01*
X174536Y150599D01*
X174809Y150781D01*
X174992Y151054D01*
X175056Y151376D01*
Y152529D01*
X175556Y152736D01*
X191761Y136531D01*
Y132904D01*
X191608Y132802D01*
X191207Y132203D01*
X191067Y131496D01*
X191207Y130789D01*
X191608Y130190D01*
X192207Y129790D01*
X192913Y129650D01*
X193620Y129790D01*
X194219Y130190D01*
X194619Y130789D01*
X194760Y131496D01*
X194619Y132203D01*
X194219Y132802D01*
X194065Y132904D01*
Y137008D01*
X193978Y137449D01*
X193728Y137822D01*
X176110Y155441D01*
X176045Y155484D01*
X176197Y155984D01*
X182146D01*
Y155472D01*
X187146D01*
Y158701D01*
X182146D01*
Y158288D01*
X175297D01*
X175032Y158672D01*
X175003Y158788D01*
X175056Y159053D01*
Y160435D01*
X174992Y160757D01*
X174813Y161024D01*
X174992Y161290D01*
X175056Y161612D01*
Y162994D01*
X175013Y163210D01*
X175205Y163565D01*
X175329Y163710D01*
X190372D01*
X196092Y157990D01*
Y129755D01*
X195938Y129652D01*
X195538Y129053D01*
X195398Y128347D01*
X195538Y127640D01*
X195938Y127041D01*
X196537Y126640D01*
X197244Y126500D01*
X197951Y126640D01*
X198550Y127041D01*
X198950Y127640D01*
X199091Y128347D01*
X198950Y129053D01*
X198550Y129652D01*
X198396Y129755D01*
Y158467D01*
X198308Y158908D01*
X198059Y159282D01*
X191664Y165677D01*
X191290Y165927D01*
X190849Y166014D01*
X175329D01*
X175205Y166160D01*
X175013Y166514D01*
X175056Y166730D01*
Y168112D01*
X175003Y168379D01*
X175076Y168428D01*
X175340Y168823D01*
X175433Y169289D01*
Y169480D01*
X171654D01*
X167874D01*
Y169289D01*
X167883Y169247D01*
X167472Y168746D01*
X165696D01*
X165274Y169029D01*
X164567Y169169D01*
X163860Y169029D01*
X163261Y168629D01*
X162861Y168029D01*
X162720Y167323D01*
X162861Y166616D01*
X163261Y166017D01*
X163415Y165914D01*
Y130792D01*
X159815Y127193D01*
X159566Y126819D01*
X159478Y126378D01*
Y106584D01*
X159016Y106393D01*
X157114Y108295D01*
X156740Y108545D01*
X156299Y108632D01*
X146063D01*
X145622Y108545D01*
X145248Y108295D01*
X143224Y106270D01*
X126772D01*
X126331Y106183D01*
X125957Y105933D01*
X104641Y84617D01*
X68194D01*
X62176Y90635D01*
Y122835D01*
X62088Y123275D01*
X61838Y123649D01*
X36673Y148815D01*
X36299Y149064D01*
X35858Y149152D01*
X27952D01*
X27671Y149831D01*
X27089Y150589D01*
X26331Y151171D01*
X25542Y151498D01*
X25641Y151998D01*
X44798D01*
X83494Y113302D01*
Y93307D01*
X83581Y92866D01*
X83831Y92493D01*
X88162Y88162D01*
X88535Y87912D01*
X88976Y87824D01*
X100000D01*
X100441Y87912D01*
X100815Y88162D01*
X105539Y92886D01*
X105789Y93260D01*
X105877Y93701D01*
Y119291D01*
X105789Y119732D01*
X105539Y120106D01*
X101152Y124493D01*
Y138893D01*
X105989Y143730D01*
X126688D01*
X130681Y139737D01*
X131055Y139487D01*
X131496Y139399D01*
X140718D01*
X140820Y139245D01*
X141107Y139054D01*
X140956Y138554D01*
X106133D01*
X106030Y138707D01*
X105431Y139108D01*
X104724Y139248D01*
X104018Y139108D01*
X103419Y138707D01*
X103018Y138108D01*
X102878Y137402D01*
X103018Y136695D01*
X103419Y136096D01*
X104018Y135696D01*
X104724Y135555D01*
X105431Y135696D01*
X106030Y136096D01*
X106133Y136249D01*
X143814D01*
X145023Y135040D01*
Y134447D01*
X145076Y134182D01*
X145046Y134066D01*
X144782Y133682D01*
X106690D01*
X106621Y133786D01*
X106022Y134186D01*
X105315Y134327D01*
X104608Y134186D01*
X104009Y133786D01*
X103609Y133187D01*
X103469Y132480D01*
X103609Y131774D01*
X104009Y131175D01*
X104608Y130774D01*
X105315Y130634D01*
X106022Y130774D01*
X106621Y131175D01*
X106756Y131377D01*
X122425D01*
X122577Y130877D01*
X122512Y130834D01*
X118027Y126349D01*
X112826D01*
X112723Y126503D01*
X112124Y126903D01*
X111417Y127043D01*
X110711Y126903D01*
X110112Y126503D01*
X109711Y125903D01*
X109571Y125197D01*
X109711Y124490D01*
X110112Y123891D01*
X110711Y123491D01*
X111417Y123350D01*
X112124Y123491D01*
X112723Y123891D01*
X112826Y124045D01*
X118504D01*
X118945Y124133D01*
X119319Y124382D01*
X123804Y128868D01*
X144749D01*
X144874Y128722D01*
X145066Y128368D01*
X145023Y128152D01*
Y126770D01*
X145037Y126701D01*
X144576Y126454D01*
X143838Y127193D01*
X143464Y127442D01*
X143023Y127530D01*
X132511D01*
X132408Y127684D01*
X131809Y128084D01*
X131102Y128225D01*
X130396Y128084D01*
X129797Y127684D01*
X129396Y127085D01*
X129256Y126378D01*
X129396Y125671D01*
X129797Y125072D01*
X130396Y124672D01*
X131102Y124531D01*
X131809Y124672D01*
X132408Y125072D01*
X132511Y125226D01*
X142546D01*
X143007Y124765D01*
X142842Y124223D01*
X142462Y124147D01*
X141863Y123747D01*
X141463Y123148D01*
X141322Y122441D01*
X141463Y121734D01*
X141863Y121135D01*
X142462Y120735D01*
X143169Y120594D01*
X143875Y120735D01*
X144375Y121069D01*
X144699Y121047D01*
X145055Y120633D01*
X145023Y120474D01*
Y119093D01*
X145087Y118771D01*
X145265Y118504D01*
X145087Y118237D01*
X145023Y117915D01*
Y117584D01*
X144372Y117454D01*
X143773Y117054D01*
X143670Y116900D01*
X138447D01*
Y117126D01*
X138360Y117564D01*
X138112Y117935D01*
X137963Y118035D01*
Y119021D01*
X137875Y119462D01*
X137626Y119836D01*
X134993Y122468D01*
X134619Y122718D01*
X134179Y122806D01*
X124243D01*
X124140Y122959D01*
X123541Y123360D01*
X122835Y123500D01*
X122128Y123360D01*
X121529Y122959D01*
X121129Y122360D01*
X120988Y121653D01*
X121129Y120947D01*
X121529Y120348D01*
X122128Y119948D01*
X122835Y119807D01*
X123541Y119948D01*
X124140Y120348D01*
X124243Y120501D01*
X133701D01*
X135659Y118544D01*
Y118035D01*
X135510Y117935D01*
X135262Y117564D01*
X135175Y117126D01*
Y114370D01*
X135262Y113932D01*
X135510Y113561D01*
X135881Y113313D01*
X136319Y113226D01*
X137303D01*
X137741Y113313D01*
X138112Y113561D01*
X138360Y113932D01*
X138447Y114370D01*
Y114596D01*
X143670D01*
X143773Y114442D01*
X144372Y114042D01*
X145079Y113901D01*
X145785Y114042D01*
X146384Y114442D01*
X146785Y115041D01*
X146914Y115692D01*
X150986D01*
X151308Y115756D01*
X151581Y115939D01*
X151763Y116212D01*
X151827Y116534D01*
Y117915D01*
X151784Y118131D01*
X151977Y118486D01*
X152101Y118631D01*
X154543D01*
X155147Y118027D01*
Y115438D01*
X152279Y112569D01*
X143506D01*
X143066Y112482D01*
X142692Y112232D01*
X141454Y110995D01*
X121110D01*
X120669Y110907D01*
X120296Y110657D01*
X112983Y103345D01*
X112598Y103421D01*
X111892Y103281D01*
X111293Y102881D01*
X110892Y102281D01*
X110752Y101575D01*
X110892Y100868D01*
X111293Y100269D01*
X111892Y99869D01*
X112598Y99728D01*
X113305Y99869D01*
X113904Y100269D01*
X114304Y100868D01*
X114438Y101541D01*
X121587Y108691D01*
X141932D01*
X142373Y108778D01*
X142746Y109028D01*
X143984Y110265D01*
X152756D01*
X153197Y110353D01*
X153570Y110603D01*
X157114Y114146D01*
X157364Y114520D01*
X157451Y114961D01*
Y118504D01*
X157364Y118945D01*
X157114Y119319D01*
X155834Y120598D01*
X155461Y120848D01*
X155020Y120935D01*
X152101D01*
X151977Y121081D01*
X151784Y121435D01*
X151827Y121652D01*
Y123033D01*
X151763Y123355D01*
X151585Y123622D01*
X151763Y123889D01*
X151827Y124211D01*
Y125593D01*
X151784Y125809D01*
X151977Y126163D01*
X152101Y126309D01*
X153414D01*
X153517Y126155D01*
X154116Y125755D01*
X154823Y125614D01*
X155529Y125755D01*
X156129Y126155D01*
X156529Y126754D01*
X156669Y127461D01*
X156529Y128167D01*
X156129Y128766D01*
X155529Y129167D01*
X154823Y129307D01*
X154116Y129167D01*
X153517Y128766D01*
X153414Y128613D01*
X152101D01*
X151977Y128758D01*
X151784Y129113D01*
X151827Y129329D01*
Y130711D01*
X151763Y131032D01*
X151585Y131299D01*
X151763Y131566D01*
X151827Y131888D01*
Y133270D01*
X151763Y133591D01*
X151585Y133858D01*
X151763Y134125D01*
X151827Y134447D01*
Y135829D01*
X151763Y136151D01*
X151581Y136423D01*
X151308Y136606D01*
X150986Y136670D01*
X146652D01*
X145106Y138216D01*
X144732Y138466D01*
X144291Y138554D01*
X143296D01*
X143145Y139054D01*
X143432Y139245D01*
X143534Y139399D01*
X149606D01*
X150047Y139487D01*
X150223Y139604D01*
X150787Y139492D01*
X151494Y139633D01*
X152093Y140033D01*
X152493Y140632D01*
X152634Y141339D01*
X152493Y142045D01*
X152093Y142644D01*
X151494Y143044D01*
X150787Y143185D01*
X150081Y143044D01*
X149482Y142644D01*
X149082Y142045D01*
X149013Y141703D01*
X143534D01*
X143432Y141857D01*
X142833Y142257D01*
X142126Y142398D01*
X141419Y142257D01*
X140820Y141857D01*
X140718Y141703D01*
X131973D01*
X127980Y145696D01*
X127606Y145946D01*
X127165Y146034D01*
X105512D01*
X105071Y145946D01*
X104697Y145696D01*
X99185Y140185D01*
X98936Y139811D01*
X98848Y139370D01*
Y124016D01*
X98936Y123575D01*
X99185Y123201D01*
X103572Y118814D01*
Y94178D01*
X99523Y90128D01*
X89454D01*
X85798Y93784D01*
Y113779D01*
X85710Y114220D01*
X85460Y114594D01*
X46090Y153964D01*
X45716Y154214D01*
X45276Y154302D01*
X26364D01*
X26264Y154802D01*
X26331Y154829D01*
X27089Y155411D01*
X27671Y156169D01*
X27952Y156848D01*
X59181D01*
X59622Y156936D01*
X59996Y157185D01*
X67350Y164540D01*
X67600Y164913D01*
X67687Y165354D01*
Y176295D01*
X69375Y177982D01*
X101575D01*
X102016Y178069D01*
X102389Y178319D01*
X108886Y184815D01*
X109135Y185189D01*
X109223Y185630D01*
Y202869D01*
X116225Y209872D01*
X119000D01*
X119049Y209372D01*
X118851Y209332D01*
X118477Y209082D01*
X113752Y204358D01*
X113503Y203984D01*
X113415Y203543D01*
Y193534D01*
X113261Y193432D01*
X112861Y192833D01*
X112720Y192126D01*
X112861Y191419D01*
X113261Y190820D01*
X113860Y190420D01*
X114567Y190279D01*
X115274Y190420D01*
X115873Y190820D01*
X116273Y191419D01*
X116413Y192126D01*
X116273Y192833D01*
X115873Y193432D01*
X115719Y193534D01*
Y203066D01*
X119769Y207116D01*
X129050D01*
X132355Y203811D01*
X132728Y203562D01*
X133169Y203474D01*
X144749D01*
X144874Y203329D01*
X145066Y202974D01*
X145023Y202758D01*
Y201376D01*
X145087Y201054D01*
X145265Y200787D01*
X145087Y200521D01*
X145023Y200199D01*
Y198817D01*
X145087Y198495D01*
X145265Y198228D01*
X145087Y197962D01*
X145023Y197640D01*
Y196258D01*
X145066Y196042D01*
X144874Y195687D01*
X144749Y195542D01*
X138765D01*
X129023Y205284D01*
X128649Y205533D01*
X128208Y205621D01*
X125424D01*
X125321Y205775D01*
X124722Y206175D01*
X124016Y206316D01*
X123309Y206175D01*
X122710Y205775D01*
X122310Y205176D01*
X122169Y204469D01*
X122310Y203763D01*
X122710Y203163D01*
X123309Y202763D01*
X124016Y202623D01*
X124722Y202763D01*
X125321Y203163D01*
X125424Y203317D01*
X127731D01*
X137473Y193575D01*
X137611Y193483D01*
X137459Y192983D01*
X131481D01*
X125433Y199031D01*
X125469Y199213D01*
X125328Y199919D01*
X124928Y200518D01*
X124329Y200919D01*
X123622Y201059D01*
X122915Y200919D01*
X122316Y200518D01*
X121916Y199919D01*
X121775Y199213D01*
X121916Y198506D01*
X122316Y197907D01*
X122915Y197507D01*
X123622Y197366D01*
X123803Y197402D01*
X130189Y191016D01*
X130254Y190973D01*
X130102Y190473D01*
X125457D01*
X125321Y190676D01*
X124722Y191076D01*
X124016Y191217D01*
X123309Y191076D01*
X122710Y190676D01*
X122310Y190077D01*
X122169Y189370D01*
X122310Y188663D01*
X122710Y188064D01*
X123309Y187664D01*
X124016Y187524D01*
X124722Y187664D01*
X125321Y188064D01*
X125391Y188169D01*
X144782D01*
X145047Y187784D01*
X145076Y187669D01*
X145023Y187404D01*
Y187072D01*
X144372Y186942D01*
X143773Y186542D01*
X143670Y186388D01*
X140082D01*
X139982Y186537D01*
X139611Y186785D01*
X139173Y186872D01*
X136417D01*
X135979Y186785D01*
X135608Y186537D01*
X135360Y186166D01*
X135273Y185728D01*
Y184744D01*
X135360Y184306D01*
X135608Y183935D01*
X135979Y183687D01*
X136417Y183600D01*
X139173D01*
X139611Y183687D01*
X139982Y183935D01*
X140082Y184084D01*
X143670D01*
X143773Y183931D01*
X144372Y183530D01*
X145079Y183390D01*
X145785Y183530D01*
X146384Y183931D01*
X146785Y184530D01*
X146914Y185181D01*
X150986D01*
X151308Y185245D01*
X151581Y185427D01*
X151763Y185700D01*
X151827Y186022D01*
Y187404D01*
X151763Y187725D01*
X151585Y187992D01*
X151763Y188259D01*
X151827Y188581D01*
Y189963D01*
X151763Y190284D01*
X151585Y190551D01*
X151763Y190818D01*
X151827Y191140D01*
Y192522D01*
X151763Y192843D01*
X151585Y193110D01*
X151763Y193377D01*
X151827Y193699D01*
Y195081D01*
X151784Y195297D01*
X151977Y195651D01*
X152101Y195797D01*
X159153D01*
X159594Y195884D01*
X159968Y196134D01*
X163413Y199579D01*
X163663Y199953D01*
X163751Y200394D01*
Y203854D01*
X167406Y207509D01*
X195669D01*
X195669Y207509D01*
X196110Y207597D01*
X196484Y207847D01*
X261051Y272414D01*
X261301Y272787D01*
X261388Y273228D01*
Y308410D01*
X262043Y308682D01*
X262791Y309256D01*
X263366Y310004D01*
X263657Y310709D01*
X264158Y310609D01*
Y307858D01*
X267610D01*
Y311811D01*
Y315764D01*
D02*
G37*
G36*
X272063D02*
X268610D01*
Y312311D01*
X272063D01*
Y315764D01*
D02*
G37*
G36*
X115764Y312295D02*
X112311D01*
Y308842D01*
X115764D01*
Y312295D01*
D02*
G37*
G36*
X111311D02*
X107858D01*
Y308842D01*
X111311D01*
Y312295D01*
D02*
G37*
G36*
X272063Y311311D02*
X268610D01*
Y307858D01*
X272063D01*
Y311311D01*
D02*
G37*
G36*
X226220Y320216D02*
X222992D01*
Y315216D01*
X224591D01*
X224635Y315172D01*
Y308110D01*
X223583D01*
Y303701D01*
X227992D01*
Y308110D01*
X226940D01*
Y315650D01*
X226852Y316090D01*
X226602Y316464D01*
X226220Y316846D01*
Y320216D01*
D02*
G37*
G36*
X111811Y306566D02*
X110876Y306443D01*
X110004Y306082D01*
X109256Y305508D01*
X108682Y304760D01*
X108321Y303888D01*
X108197Y302953D01*
X108321Y302017D01*
X108682Y301146D01*
X109256Y300398D01*
X110004Y299823D01*
X110876Y299462D01*
X111811Y299339D01*
X112746Y299462D01*
X113618Y299823D01*
X114366Y300398D01*
X114941Y301146D01*
X115302Y302017D01*
X115425Y302953D01*
X115302Y303888D01*
X114941Y304760D01*
X114366Y305508D01*
X113618Y306082D01*
X112746Y306443D01*
X111811Y306566D01*
D02*
G37*
G36*
X78937D02*
X78002Y306443D01*
X77130Y306082D01*
X76382Y305508D01*
X75808Y304760D01*
X75447Y303888D01*
X75323Y302953D01*
X75447Y302017D01*
X75808Y301146D01*
X76382Y300398D01*
X77130Y299823D01*
X78002Y299462D01*
X78937Y299339D01*
X79872Y299462D01*
X80744Y299823D01*
X81492Y300398D01*
X82066Y301146D01*
X82427Y302017D01*
X82551Y302953D01*
X82427Y303888D01*
X82066Y304760D01*
X81492Y305508D01*
X80744Y306082D01*
X79872Y306443D01*
X78937Y306566D01*
D02*
G37*
G36*
X293996Y304202D02*
X293112Y304086D01*
X292288Y303745D01*
X291581Y303202D01*
X291038Y302495D01*
X290697Y301671D01*
X290581Y300787D01*
X290697Y299903D01*
X291038Y299080D01*
X291581Y298373D01*
X292288Y297830D01*
X293112Y297489D01*
X293996Y297372D01*
X294880Y297489D01*
X295704Y297830D01*
X296411Y298373D01*
X296954Y299080D01*
X297295Y299903D01*
X297411Y300787D01*
X297295Y301671D01*
X296954Y302495D01*
X296411Y303202D01*
X295704Y303745D01*
X294880Y304086D01*
X293996Y304202D01*
D02*
G37*
G36*
X294496Y294667D02*
Y291445D01*
X297719D01*
X297655Y291925D01*
X297277Y292839D01*
X296675Y293624D01*
X295890Y294226D01*
X294976Y294604D01*
X294496Y294667D01*
D02*
G37*
G36*
X293496Y294667D02*
X293016Y294604D01*
X292102Y294226D01*
X291317Y293624D01*
X290715Y292839D01*
X290337Y291925D01*
X290274Y291445D01*
X293496D01*
Y294667D01*
D02*
G37*
G36*
X196932Y313261D02*
X195945Y313131D01*
X195026Y312750D01*
X194236Y312144D01*
X193630Y311355D01*
X193249Y310436D01*
X193120Y309449D01*
Y307874D01*
X193249Y306887D01*
X193630Y305968D01*
X194236Y305178D01*
X195026Y304573D01*
X195780Y304260D01*
Y300165D01*
X192436Y296821D01*
X178347D01*
X177906Y296734D01*
X177532Y296484D01*
X172480Y291432D01*
X172018Y291624D01*
Y295866D01*
X171931Y296307D01*
X171681Y296681D01*
X162228Y306133D01*
X162540Y306887D01*
X162670Y307874D01*
Y309449D01*
X162540Y310436D01*
X162160Y311355D01*
X161554Y312144D01*
X160764Y312750D01*
X159845Y313131D01*
X158858Y313261D01*
X157872Y313131D01*
X156952Y312750D01*
X156163Y312144D01*
X155557Y311355D01*
X155176Y310436D01*
X155046Y309449D01*
Y307874D01*
X155176Y306887D01*
X155557Y305968D01*
X156163Y305178D01*
X156952Y304573D01*
X157872Y304192D01*
X158858Y304062D01*
X159845Y304192D01*
X160599Y304504D01*
X169714Y295389D01*
Y288189D01*
Y284095D01*
X158031D01*
Y264144D01*
X148858D01*
Y268543D01*
X140905D01*
Y257441D01*
X148858D01*
Y261840D01*
X158031D01*
Y260000D01*
X183701D01*
Y284095D01*
X172018D01*
Y287712D01*
X178824Y294517D01*
X192913D01*
X193354Y294605D01*
X193728Y294855D01*
X197746Y298873D01*
X197996Y299247D01*
X198084Y299688D01*
Y304260D01*
X198838Y304573D01*
X199627Y305178D01*
X200233Y305968D01*
X200614Y306887D01*
X200696Y307509D01*
X206348D01*
X208767Y305091D01*
X209141Y304841D01*
X209582Y304753D01*
X217722D01*
X217759Y304565D01*
X218073Y304096D01*
X218542Y303783D01*
X219094Y303673D01*
X220669D01*
X221222Y303783D01*
X221691Y304096D01*
X222004Y304565D01*
X222114Y305118D01*
Y306693D01*
X222004Y307246D01*
X221691Y307715D01*
X221222Y308028D01*
X220669Y308138D01*
X219094D01*
X218542Y308028D01*
X218073Y307715D01*
X217759Y307246D01*
X217722Y307058D01*
X210059D01*
X207640Y309476D01*
X207267Y309726D01*
X206826Y309813D01*
X200696D01*
X200614Y310436D01*
X200233Y311355D01*
X199627Y312144D01*
X198838Y312750D01*
X197918Y313131D01*
X196932Y313261D01*
D02*
G37*
G36*
X338189Y301505D02*
X336740Y301314D01*
X335389Y300754D01*
X334230Y299865D01*
X333340Y298705D01*
X332781Y297355D01*
X332590Y295905D01*
X332781Y294456D01*
X333340Y293106D01*
X334230Y291946D01*
X335389Y291057D01*
X336740Y290497D01*
X338189Y290306D01*
X339638Y290497D01*
X340988Y291057D01*
X342148Y291946D01*
X343038Y293106D01*
X343597Y294456D01*
X343788Y295905D01*
X343597Y297355D01*
X343038Y298705D01*
X342148Y299865D01*
X340988Y300754D01*
X339638Y301314D01*
X338189Y301505D01*
D02*
G37*
G36*
X276098Y290370D02*
X273728D01*
Y288886D01*
X276098D01*
Y290370D01*
D02*
G37*
G36*
X272728D02*
X270358D01*
Y288886D01*
X272728D01*
Y290370D01*
D02*
G37*
G36*
X82520Y316378D02*
X75354D01*
Y309213D01*
X82520D01*
Y311150D01*
X85342D01*
X87331Y309161D01*
Y291233D01*
X83964Y287866D01*
X81043D01*
Y288720D01*
X77815D01*
Y283720D01*
X81043D01*
Y284575D01*
X84646D01*
X85276Y284700D01*
X85809Y285057D01*
X90140Y289387D01*
X90497Y289921D01*
X90622Y290551D01*
Y309842D01*
X90497Y310472D01*
X90140Y311006D01*
X87187Y313959D01*
X86653Y314316D01*
X86024Y314441D01*
X82520D01*
Y316378D01*
D02*
G37*
G36*
X297719Y290445D02*
X294496D01*
Y287222D01*
X294976Y287286D01*
X295890Y287664D01*
X296675Y288266D01*
X297277Y289051D01*
X297655Y289964D01*
X297719Y290445D01*
D02*
G37*
G36*
X293496D02*
X290274D01*
X290337Y289964D01*
X290715Y289051D01*
X291317Y288266D01*
X292102Y287664D01*
X293016Y287286D01*
X293496Y287222D01*
Y290445D01*
D02*
G37*
G36*
X114287Y289090D02*
X112803D01*
Y286720D01*
X114287D01*
Y289090D01*
D02*
G37*
G36*
X111803D02*
X110319D01*
Y286720D01*
X111803D01*
Y289090D01*
D02*
G37*
G36*
X276098Y287886D02*
X273728D01*
Y286402D01*
X276098D01*
Y287886D01*
D02*
G37*
G36*
X272728D02*
X270358D01*
Y286402D01*
X272728D01*
Y287886D01*
D02*
G37*
G36*
X49646Y316378D02*
X42480D01*
Y309213D01*
X49646D01*
Y310648D01*
X51670D01*
X52577Y309740D01*
Y295279D01*
X46018Y288720D01*
X44941D01*
Y283720D01*
X48169D01*
Y284945D01*
X48615Y285243D01*
X56243Y292871D01*
X56709Y293568D01*
X56872Y294390D01*
Y310630D01*
X56709Y311452D01*
X56243Y312148D01*
X54078Y314314D01*
X53381Y314779D01*
X52559Y314943D01*
X49646D01*
Y316378D01*
D02*
G37*
G36*
X114287Y285720D02*
X112803D01*
Y283350D01*
X114287D01*
Y285720D01*
D02*
G37*
G36*
X111803D02*
X110319D01*
Y283350D01*
X111803D01*
Y285720D01*
D02*
G37*
G36*
X275590Y330680D02*
X171260D01*
X170819Y330592D01*
X170445Y330342D01*
X165665Y325561D01*
X149213D01*
X148772Y325474D01*
X148398Y325224D01*
X139737Y316563D01*
X139487Y316189D01*
X139399Y315748D01*
Y295161D01*
X139245Y295059D01*
X138845Y294460D01*
X138705Y293753D01*
X138845Y293046D01*
X139245Y292447D01*
X139845Y292047D01*
X140551Y291906D01*
X141258Y292047D01*
X141857Y292447D01*
X142257Y293046D01*
X142398Y293753D01*
X142257Y294460D01*
X141857Y295059D01*
X141703Y295161D01*
Y315271D01*
X149690Y323257D01*
X166142D01*
X166583Y323345D01*
X166956Y323595D01*
X171737Y328376D01*
X275113D01*
X281131Y322358D01*
Y283942D01*
X279444Y282254D01*
X276757D01*
X275728Y283283D01*
Y284882D01*
X270728D01*
Y281653D01*
X274099D01*
X275465Y280288D01*
X275839Y280038D01*
X276279Y279950D01*
X290610D01*
Y277716D01*
X295753D01*
X318378Y255091D01*
X318752Y254841D01*
X319193Y254753D01*
X332638D01*
Y250354D01*
X337037D01*
Y232283D01*
X337125Y231843D01*
X337374Y231469D01*
X345305Y223538D01*
Y124887D01*
X328713Y108295D01*
X313302Y92884D01*
X302259D01*
X302247Y92979D01*
X301872Y93884D01*
X301275Y94661D01*
X300498Y95258D01*
X299593Y95633D01*
X298622Y95760D01*
X297651Y95633D01*
X296746Y95258D01*
X295969Y94661D01*
X295372Y93884D01*
X294997Y92979D01*
X294869Y92008D01*
X294997Y91037D01*
X295372Y90132D01*
X295969Y89354D01*
X296746Y88758D01*
X297651Y88383D01*
X298622Y88255D01*
X299593Y88383D01*
X300498Y88758D01*
X301275Y89354D01*
X301872Y90132D01*
X302058Y90580D01*
X313779D01*
X314220Y90668D01*
X314594Y90918D01*
X327914Y104237D01*
X328376Y104046D01*
Y26068D01*
X321176Y18869D01*
X294715D01*
X294613Y19022D01*
X294014Y19422D01*
X293307Y19563D01*
X292600Y19422D01*
X292001Y19022D01*
X291601Y18423D01*
X291461Y17717D01*
X291601Y17010D01*
X292001Y16411D01*
X292600Y16011D01*
X293307Y15870D01*
X294014Y16011D01*
X294613Y16411D01*
X294715Y16565D01*
X321654D01*
X322094Y16652D01*
X322468Y16902D01*
X330342Y24776D01*
X330592Y25150D01*
X330680Y25591D01*
Y107003D01*
X347271Y123595D01*
X347521Y123969D01*
X347609Y124409D01*
Y224016D01*
X347521Y224457D01*
X347271Y224830D01*
X339341Y232761D01*
Y250354D01*
X343740D01*
Y261457D01*
X332638D01*
Y257058D01*
X319670D01*
X297382Y279346D01*
Y284488D01*
X290610D01*
Y282254D01*
X283338D01*
X283168Y282754D01*
X283348Y283024D01*
X283436Y283465D01*
Y322835D01*
X283348Y323275D01*
X283098Y323649D01*
X276405Y330342D01*
X276031Y330592D01*
X275590Y330680D01*
D02*
G37*
G36*
X205748Y284842D02*
X192677D01*
Y277284D01*
X205748D01*
Y279152D01*
X216929D01*
X217751Y279315D01*
X218305Y279685D01*
X219429D01*
Y282913D01*
X218305D01*
X217751Y283283D01*
X216929Y283447D01*
X205748D01*
Y284842D01*
D02*
G37*
G36*
X338689Y281806D02*
Y276406D01*
X344090D01*
X344025Y277066D01*
X343686Y278182D01*
X343136Y279211D01*
X342396Y280113D01*
X341495Y280853D01*
X340466Y281402D01*
X339350Y281741D01*
X338689Y281806D01*
D02*
G37*
G36*
X337689Y281806D02*
X337028Y281741D01*
X335912Y281402D01*
X334883Y280853D01*
X333982Y280113D01*
X333242Y279211D01*
X332692Y278182D01*
X332353Y277066D01*
X332288Y276406D01*
X337689D01*
Y281806D01*
D02*
G37*
G36*
X108799Y288720D02*
X105571D01*
Y283720D01*
X106033D01*
Y278189D01*
X104980D01*
Y273780D01*
X109390D01*
Y278189D01*
X108337D01*
Y283720D01*
X108799D01*
Y288720D01*
D02*
G37*
G36*
X75925D02*
X72697D01*
Y283720D01*
X73159D01*
Y278189D01*
X72106D01*
Y273780D01*
X76516D01*
Y278189D01*
X75463D01*
Y283720D01*
X75925D01*
Y288720D01*
D02*
G37*
G36*
X43051D02*
X39823D01*
Y283720D01*
X40285D01*
Y278189D01*
X39232D01*
Y273780D01*
X43642D01*
Y278189D01*
X42589D01*
Y283720D01*
X43051D01*
Y288720D01*
D02*
G37*
G36*
X113878Y278217D02*
X112303D01*
X111750Y278107D01*
X111281Y277794D01*
X110968Y277325D01*
X110858Y276772D01*
Y275197D01*
X110968Y274644D01*
X111238Y274239D01*
Y273724D01*
X109740Y272226D01*
X83567D01*
X82364Y273429D01*
Y274770D01*
X82449Y275197D01*
Y276772D01*
X82339Y277325D01*
X82026Y277794D01*
X81557Y278107D01*
X81004Y278217D01*
X79429D01*
X78876Y278107D01*
X78407Y277794D01*
X78094Y277325D01*
X77984Y276772D01*
Y275197D01*
X78069Y274770D01*
Y272539D01*
X78232Y271718D01*
X78698Y271021D01*
X81159Y268560D01*
X81855Y268095D01*
X82677Y267931D01*
X110630D01*
X111452Y268095D01*
X112148Y268560D01*
X114904Y271316D01*
X115370Y272013D01*
X115533Y272835D01*
Y275689D01*
X115370Y276511D01*
X115323Y276581D01*
Y276772D01*
X115213Y277325D01*
X114900Y277794D01*
X114431Y278107D01*
X113878Y278217D01*
D02*
G37*
G36*
X337689Y275406D02*
X332288D01*
X332353Y274745D01*
X332692Y273629D01*
X333242Y272600D01*
X333982Y271698D01*
X334883Y270958D01*
X335912Y270409D01*
X337028Y270070D01*
X337689Y270005D01*
Y275406D01*
D02*
G37*
G36*
X344090D02*
X338689D01*
Y270005D01*
X339350Y270070D01*
X340466Y270409D01*
X341495Y270958D01*
X342396Y271698D01*
X343136Y272600D01*
X343686Y273629D01*
X344025Y274745D01*
X344090Y275406D01*
D02*
G37*
G36*
X271519Y269506D02*
X270035D01*
Y267136D01*
X271519D01*
Y269506D01*
D02*
G37*
G36*
X269035D02*
X267551D01*
Y267136D01*
X269035D01*
Y269506D01*
D02*
G37*
G36*
X219429Y277795D02*
X214429D01*
Y274567D01*
X215777D01*
Y269921D01*
X214429D01*
Y269459D01*
X207244D01*
X206803Y269372D01*
X206430Y269122D01*
X204119Y266811D01*
X192677D01*
Y259252D01*
X205748D01*
Y265182D01*
X207721Y267155D01*
X214429D01*
Y266693D01*
X219429D01*
Y269921D01*
X218081D01*
Y274567D01*
X219429D01*
Y277795D01*
D02*
G37*
G36*
X271519Y266136D02*
X270035D01*
Y263766D01*
X271519D01*
Y266136D01*
D02*
G37*
G36*
X269035D02*
X267551D01*
Y263766D01*
X269035D01*
Y266136D01*
D02*
G37*
G36*
X219429Y264803D02*
X214429D01*
Y261575D01*
X215777D01*
Y259926D01*
X214748Y258897D01*
X214567Y258933D01*
X213860Y258792D01*
X213261Y258392D01*
X212861Y257793D01*
X212720Y257087D01*
X212861Y256380D01*
X213261Y255781D01*
X213860Y255381D01*
X214567Y255240D01*
X215273Y255381D01*
X215873Y255781D01*
X216273Y256380D01*
X216413Y257087D01*
X216377Y257268D01*
X217744Y258634D01*
X217993Y259008D01*
X218081Y259449D01*
Y261575D01*
X219429D01*
Y264803D01*
D02*
G37*
G36*
X272854Y256897D02*
X271216D01*
Y253397D01*
X272854D01*
Y256897D01*
D02*
G37*
G36*
X270216D02*
X268578D01*
Y253397D01*
X270216D01*
Y256897D01*
D02*
G37*
G36*
X266031Y269136D02*
X262803D01*
Y264136D01*
X263265D01*
Y261617D01*
X262421Y260773D01*
X262171Y260400D01*
X262084Y259959D01*
Y256116D01*
X261961Y256034D01*
X261571Y255449D01*
X261433Y254759D01*
Y254049D01*
X260377D01*
X259936Y253961D01*
X259562Y253711D01*
X258449Y252598D01*
X258268Y252634D01*
X257561Y252493D01*
X256962Y252093D01*
X256562Y251494D01*
X256421Y250787D01*
X256562Y250081D01*
X256962Y249482D01*
X257561Y249081D01*
X258268Y248941D01*
X258974Y249081D01*
X259573Y249482D01*
X259974Y250081D01*
X260114Y250787D01*
X260078Y250969D01*
X260854Y251745D01*
X261433D01*
Y251034D01*
X261571Y250344D01*
X261961Y249760D01*
X262546Y249369D01*
X263236Y249232D01*
X263925Y249369D01*
X264510Y249760D01*
X264901Y250344D01*
X265038Y251034D01*
Y254759D01*
X264901Y255449D01*
X264510Y256034D01*
X264388Y256116D01*
Y259482D01*
X265231Y260325D01*
X265481Y260699D01*
X265569Y261140D01*
Y264136D01*
X266031D01*
Y269136D01*
D02*
G37*
G36*
X270216Y252397D02*
X268578D01*
X268578Y249291D01*
Y249285D01*
Y249285D01*
X268578Y249208D01*
X268385Y249120D01*
X268078Y248982D01*
X267666Y249258D01*
X266976Y249395D01*
X266286Y249258D01*
X265701Y248867D01*
X265311Y248282D01*
X265174Y247593D01*
Y244392D01*
X263253Y242472D01*
X262896Y241938D01*
X262771Y241308D01*
Y232778D01*
Y227315D01*
X262896Y226686D01*
X263253Y226152D01*
X270096Y219309D01*
X270630Y218952D01*
X271260Y218827D01*
X289035D01*
Y217087D01*
X295807D01*
Y223858D01*
X289035D01*
Y222118D01*
X271942D01*
X266063Y227997D01*
Y232778D01*
Y240626D01*
X267631Y242195D01*
X267666Y242202D01*
X268250Y242593D01*
X268641Y243178D01*
X268778Y243867D01*
Y247593D01*
X268641Y248282D01*
X268560Y248404D01*
X268832Y248896D01*
X268919Y248896D01*
X268919Y248896D01*
X268949Y248896D01*
X270216D01*
Y252397D01*
D02*
G37*
G36*
X272854D02*
X271216D01*
Y248896D01*
X272854D01*
Y252397D01*
D02*
G37*
G36*
X54937Y247752D02*
X53453D01*
Y245382D01*
X54937D01*
Y247752D01*
D02*
G37*
G36*
X52453D02*
X50968D01*
Y245382D01*
X52453D01*
Y247752D01*
D02*
G37*
G36*
X54937Y244382D02*
X53453D01*
Y242012D01*
X54937D01*
Y244382D01*
D02*
G37*
G36*
X52453D02*
X50968D01*
Y242012D01*
X52453D01*
Y244382D01*
D02*
G37*
G36*
X19500Y253246D02*
X18315Y253129D01*
X17176Y252783D01*
X16126Y252222D01*
X15206Y251467D01*
X14451Y250547D01*
X13890Y249497D01*
X13544Y248358D01*
X13428Y247173D01*
X13544Y245988D01*
X13890Y244849D01*
X14451Y243799D01*
X15206Y242879D01*
X16126Y242124D01*
X17176Y241563D01*
X18315Y241217D01*
X19500Y241101D01*
X20685Y241217D01*
X21824Y241563D01*
X22874Y242124D01*
X23794Y242879D01*
X24549Y243799D01*
X25110Y244849D01*
X25456Y245988D01*
X25572Y247173D01*
X25456Y248358D01*
X25110Y249497D01*
X24549Y250547D01*
X23794Y251467D01*
X22874Y252222D01*
X21824Y252783D01*
X20685Y253129D01*
X19500Y253246D01*
D02*
G37*
G36*
X72441Y241217D02*
X71734Y241076D01*
X71135Y240676D01*
X71100Y240622D01*
X41741D01*
X41651Y240682D01*
X40945Y240823D01*
X40238Y240682D01*
X39639Y240282D01*
X39239Y239683D01*
X39098Y238976D01*
X39239Y238270D01*
X39639Y237671D01*
X40238Y237270D01*
X40945Y237130D01*
X41651Y237270D01*
X41741Y237331D01*
X70795D01*
Y226666D01*
X51199Y207069D01*
X50842Y206535D01*
X50716Y205906D01*
Y184655D01*
X50656Y184565D01*
X50516Y183858D01*
X50656Y183152D01*
X51056Y182553D01*
X51656Y182152D01*
X52362Y182012D01*
X53069Y182152D01*
X53668Y182553D01*
X54068Y183152D01*
X54209Y183858D01*
X54068Y184565D01*
X54008Y184655D01*
Y205224D01*
X73605Y224820D01*
X73962Y225354D01*
X74087Y225984D01*
Y238573D01*
X74147Y238664D01*
X74287Y239370D01*
X74147Y240077D01*
X73747Y240676D01*
X73148Y241076D01*
X72441Y241217D01*
D02*
G37*
G36*
X174215Y241378D02*
X172153D01*
Y239968D01*
X175433D01*
Y240159D01*
X175340Y240626D01*
X175076Y241021D01*
X174681Y241285D01*
X174215Y241378D01*
D02*
G37*
G36*
X171153D02*
X169093D01*
X168626Y241285D01*
X168231Y241021D01*
X167967Y240626D01*
X167874Y240159D01*
Y239968D01*
X171153D01*
Y241378D01*
D02*
G37*
G36*
X292421Y243572D02*
X291537Y243456D01*
X290714Y243115D01*
X290006Y242572D01*
X289464Y241865D01*
X289438Y241803D01*
X276029D01*
X275399Y241678D01*
X274865Y241321D01*
X268856Y235312D01*
X268855Y235312D01*
X268822Y235278D01*
X267921D01*
Y233823D01*
X267889Y233664D01*
Y232778D01*
X267921Y232619D01*
Y230278D01*
X271149D01*
Y232619D01*
X271181Y232778D01*
Y232982D01*
X271183Y232984D01*
X271183Y232984D01*
X276710Y238512D01*
X289438D01*
X289464Y238450D01*
X290006Y237743D01*
X290714Y237200D01*
X291537Y236859D01*
X292421Y236742D01*
X293305Y236859D01*
X294129Y237200D01*
X294836Y237743D01*
X295379Y238450D01*
X295720Y239274D01*
X295836Y240158D01*
X295720Y241041D01*
X295379Y241865D01*
X294836Y242572D01*
X294129Y243115D01*
X293305Y243456D01*
X292421Y243572D01*
D02*
G37*
G36*
X54646Y236543D02*
X53161D01*
Y234173D01*
X54646D01*
Y236543D01*
D02*
G37*
G36*
X52161D02*
X50677D01*
Y234173D01*
X52161D01*
Y236543D01*
D02*
G37*
G36*
X54646Y233173D02*
X53161D01*
Y230803D01*
X54646D01*
Y233173D01*
D02*
G37*
G36*
X52161D02*
X50677D01*
Y230803D01*
X52161D01*
Y233173D01*
D02*
G37*
G36*
X107913Y382520D02*
X100748D01*
Y375354D01*
X103179D01*
Y372524D01*
X99523Y368869D01*
X74410D01*
X73969Y368781D01*
X73595Y368531D01*
X70051Y364988D01*
X69802Y364614D01*
X69714Y364173D01*
Y345276D01*
X69802Y344835D01*
X70051Y344461D01*
X76351Y338162D01*
X76724Y337912D01*
X77165Y337824D01*
X106609D01*
X121683Y322751D01*
Y240945D01*
X121770Y240504D01*
X122020Y240130D01*
X131075Y231075D01*
X131361Y230884D01*
X131308Y230464D01*
X131278Y230384D01*
X125674D01*
X91858Y264200D01*
X91484Y264450D01*
X91043Y264538D01*
X71343D01*
X67687Y268194D01*
Y338189D01*
X67600Y338630D01*
X67350Y339004D01*
X58239Y348115D01*
Y348976D01*
X60669D01*
Y356142D01*
X53504D01*
Y348976D01*
X55935D01*
Y347638D01*
X56022Y347197D01*
X56272Y346823D01*
X65383Y337712D01*
Y267717D01*
X65471Y267276D01*
X65721Y266902D01*
X70051Y262571D01*
X70425Y262321D01*
X70866Y262234D01*
X90566D01*
X124382Y228418D01*
X124521Y228325D01*
X124369Y227825D01*
X118292D01*
X87035Y259082D01*
X86661Y259332D01*
X86221Y259420D01*
X67013D01*
X62176Y264257D01*
Y323228D01*
X62088Y323669D01*
X61838Y324043D01*
X42547Y343334D01*
X42173Y343584D01*
X41732Y343672D01*
X25674D01*
X22412Y346934D01*
Y360940D01*
X27249Y365777D01*
X54724D01*
X55165Y365865D01*
X55539Y366114D01*
X57901Y368477D01*
X58151Y368850D01*
X58239Y369291D01*
Y375354D01*
X60669D01*
Y382520D01*
X53504D01*
Y375354D01*
X55935D01*
Y369769D01*
X54247Y368081D01*
X26772D01*
X26331Y367993D01*
X25957Y367744D01*
X20445Y362232D01*
X20196Y361858D01*
X20108Y361417D01*
Y346457D01*
X20196Y346016D01*
X20445Y345642D01*
X24382Y341705D01*
X24756Y341455D01*
X25197Y341368D01*
X41255D01*
X59872Y322751D01*
Y263779D01*
X59959Y263339D01*
X60209Y262965D01*
X65721Y257453D01*
X66095Y257203D01*
X66535Y257116D01*
X85743D01*
X116704Y226155D01*
X116902Y225859D01*
X117276Y225609D01*
X117717Y225521D01*
X144749D01*
X144874Y225376D01*
X145066Y225021D01*
X145023Y224805D01*
Y223423D01*
X145087Y223101D01*
X145265Y222835D01*
X145087Y222568D01*
X145046Y222362D01*
X144819Y222207D01*
X144809Y222202D01*
X144523Y222144D01*
X144253Y222324D01*
X143812Y222412D01*
X140568D01*
Y222835D01*
X140480Y223272D01*
X140233Y223644D01*
X139861Y223892D01*
X139424Y223979D01*
X138439D01*
X138002Y223892D01*
X137630Y223644D01*
X137382Y223272D01*
X137295Y222835D01*
Y220079D01*
X137382Y219641D01*
X137630Y219270D01*
X138002Y219022D01*
X138439Y218935D01*
X139424D01*
X139861Y219022D01*
X140233Y219270D01*
X140480Y219641D01*
X140568Y220079D01*
Y220108D01*
X143208D01*
X143232Y220079D01*
X143373Y219372D01*
X143773Y218773D01*
X144372Y218373D01*
X145079Y218232D01*
X145785Y218373D01*
X146384Y218773D01*
X146785Y219372D01*
X146914Y220023D01*
X150986D01*
X151308Y220087D01*
X151581Y220269D01*
X151763Y220542D01*
X151827Y220864D01*
Y222246D01*
X151763Y222568D01*
X151585Y222835D01*
X151763Y223101D01*
X151827Y223423D01*
Y224805D01*
X151763Y225127D01*
X151585Y225394D01*
X151763Y225660D01*
X151827Y225982D01*
Y227364D01*
X151763Y227686D01*
X151585Y227953D01*
X151763Y228220D01*
X151827Y228541D01*
Y229923D01*
X151763Y230245D01*
X151585Y230512D01*
X151763Y230779D01*
X151827Y231100D01*
Y232482D01*
X151763Y232804D01*
X151585Y233071D01*
X151763Y233338D01*
X151827Y233659D01*
Y235041D01*
X151763Y235363D01*
X151585Y235630D01*
X151763Y235897D01*
X151827Y236219D01*
Y237600D01*
X151763Y237922D01*
X151585Y238189D01*
X151763Y238456D01*
X151827Y238778D01*
Y240159D01*
X151763Y240481D01*
X151581Y240754D01*
X151308Y240936D01*
X150986Y241000D01*
X149577D01*
Y244488D01*
X149490Y244929D01*
X149240Y245303D01*
X146090Y248452D01*
X145717Y248702D01*
X145276Y248790D01*
X137629D01*
X137526Y248943D01*
X136927Y249344D01*
X136221Y249484D01*
X135514Y249344D01*
X134915Y248943D01*
X134514Y248344D01*
X134374Y247638D01*
X134514Y246931D01*
X134915Y246332D01*
X135514Y245932D01*
X136221Y245791D01*
X136927Y245932D01*
X137526Y246332D01*
X137629Y246486D01*
X144798D01*
X147273Y244011D01*
Y241000D01*
X145864D01*
X145542Y240936D01*
X145270Y240754D01*
X145087Y240481D01*
X145023Y240159D01*
Y238778D01*
X145066Y238562D01*
X144874Y238207D01*
X144749Y238061D01*
X143883D01*
X141968Y239976D01*
X142004Y240158D01*
X141863Y240864D01*
X141463Y241463D01*
X140864Y241863D01*
X140157Y242004D01*
X139451Y241863D01*
X138852Y241463D01*
X138452Y240864D01*
X138311Y240158D01*
X138452Y239451D01*
X138852Y238852D01*
X139451Y238452D01*
X140157Y238311D01*
X140339Y238347D01*
X142591Y236095D01*
X142729Y236002D01*
X142578Y235502D01*
X138174D01*
X129892Y243784D01*
Y328150D01*
X129805Y328590D01*
X129555Y328964D01*
X107913Y350606D01*
Y356142D01*
X100748D01*
Y348976D01*
X106284D01*
X127588Y327672D01*
Y243307D01*
X127676Y242866D01*
X127926Y242493D01*
X136876Y233542D01*
X136876Y233516D01*
X136722Y233042D01*
X132367D01*
X123987Y241422D01*
Y323228D01*
X123899Y323669D01*
X123649Y324043D01*
X107901Y339791D01*
X107527Y340041D01*
X107087Y340128D01*
X77643D01*
X72018Y345753D01*
Y363696D01*
X74887Y366564D01*
X100000D01*
X100441Y366652D01*
X100815Y366902D01*
X105145Y371233D01*
X105395Y371606D01*
X105483Y372047D01*
Y375354D01*
X107913D01*
Y382520D01*
D02*
G37*
G36*
X292421Y233730D02*
X291537Y233614D01*
X290714Y233273D01*
X290006Y232730D01*
X289464Y232023D01*
X289123Y231199D01*
X289006Y230315D01*
X289123Y229431D01*
X289464Y228607D01*
X290006Y227900D01*
X290714Y227358D01*
X291537Y227016D01*
X292421Y226900D01*
X293305Y227016D01*
X294129Y227358D01*
X294836Y227900D01*
X295379Y228607D01*
X295720Y229431D01*
X295836Y230315D01*
X295720Y231199D01*
X295379Y232023D01*
X294836Y232730D01*
X294129Y233273D01*
X293305Y233614D01*
X292421Y233730D01*
D02*
G37*
G36*
X18130Y231630D02*
X10870D01*
Y224370D01*
X18130D01*
Y231630D01*
D02*
G37*
G36*
X134313Y224354D02*
Y221957D01*
X135827D01*
Y222835D01*
X135711Y223417D01*
X135381Y223910D01*
X134888Y224240D01*
X134313Y224354D01*
D02*
G37*
G36*
X133313D02*
X132739Y224240D01*
X132245Y223910D01*
X131916Y223417D01*
X131800Y222835D01*
Y221957D01*
X133313D01*
Y224354D01*
D02*
G37*
G36*
X135827Y220957D02*
X134313D01*
Y218559D01*
X134888Y218673D01*
X135381Y219003D01*
X135711Y219496D01*
X135827Y220079D01*
Y220957D01*
D02*
G37*
G36*
X133313D02*
X131800D01*
Y220079D01*
X131916Y219496D01*
X132245Y219003D01*
X132739Y218673D01*
X133313Y218559D01*
Y220957D01*
D02*
G37*
G36*
X147977Y217540D02*
X147270Y217399D01*
X146671Y216999D01*
X146271Y216400D01*
X146130Y215693D01*
X146166Y215512D01*
X145192Y214538D01*
X135123D01*
X133886Y215775D01*
X133512Y216025D01*
X133071Y216113D01*
X70866D01*
X70425Y216025D01*
X70051Y215775D01*
X59422Y205145D01*
X59172Y204772D01*
X59084Y204331D01*
Y171343D01*
X52279Y164538D01*
X35267D01*
X35164Y164691D01*
X34565Y165092D01*
X33858Y165232D01*
X33152Y165092D01*
X32553Y164691D01*
X32152Y164093D01*
X32012Y163386D01*
X32152Y162679D01*
X32553Y162080D01*
X33152Y161680D01*
X33858Y161539D01*
X34565Y161680D01*
X35164Y162080D01*
X35267Y162234D01*
X52756D01*
X53197Y162321D01*
X53570Y162571D01*
X61051Y170052D01*
X61301Y170425D01*
X61388Y170866D01*
Y203854D01*
X71343Y213809D01*
X98242D01*
X98510Y213309D01*
X98294Y212986D01*
X98154Y212280D01*
X98218Y211954D01*
X93883Y207618D01*
X92283D01*
Y202618D01*
X95512D01*
Y205989D01*
X99963Y210440D01*
X100000Y210433D01*
X100707Y210574D01*
X101306Y210974D01*
X101706Y211573D01*
X101847Y212280D01*
X101706Y212986D01*
X101490Y213309D01*
X101758Y213809D01*
X132594D01*
X133831Y212571D01*
X134205Y212321D01*
X134646Y212234D01*
X145669D01*
X146110Y212321D01*
X146484Y212571D01*
X147795Y213883D01*
X147977Y213847D01*
X148683Y213987D01*
X149282Y214387D01*
X149683Y214987D01*
X149823Y215693D01*
X149683Y216400D01*
X149282Y216999D01*
X148683Y217399D01*
X147977Y217540D01*
D02*
G37*
G36*
X216043Y215807D02*
X208760D01*
Y208524D01*
X216043D01*
Y215807D01*
D02*
G37*
G36*
X90394Y207618D02*
X87165D01*
Y206270D01*
X79370D01*
Y207618D01*
X76142D01*
Y202618D01*
X79370D01*
Y203966D01*
X87165D01*
Y202618D01*
X87628D01*
Y195827D01*
X87715Y195386D01*
X87965Y195012D01*
X88307Y194670D01*
Y183228D01*
X95866D01*
Y196299D01*
X89936D01*
X89932Y196304D01*
Y202618D01*
X90394D01*
Y207618D01*
D02*
G37*
G36*
X174215Y206535D02*
X172154D01*
Y205126D01*
X175433D01*
Y205317D01*
X175340Y205783D01*
X175076Y206178D01*
X174681Y206442D01*
X174215Y206535D01*
D02*
G37*
G36*
X171154D02*
X169093D01*
X168626Y206442D01*
X168231Y206178D01*
X167967Y205783D01*
X167874Y205317D01*
Y205126D01*
X171154D01*
Y206535D01*
D02*
G37*
G36*
X180857Y206126D02*
X180150Y205986D01*
X179551Y205586D01*
X179151Y204987D01*
X179011Y204280D01*
X179047Y204099D01*
X178167Y203219D01*
X175729D01*
X175390Y203719D01*
X175433Y203935D01*
Y204126D01*
X171654D01*
X167874D01*
Y203935D01*
X167967Y203469D01*
X168231Y203074D01*
X168305Y203025D01*
X168252Y202758D01*
Y201376D01*
X168316Y201054D01*
X168494Y200787D01*
X168316Y200521D01*
X168252Y200199D01*
Y198817D01*
X168295Y198601D01*
X168102Y198246D01*
X167978Y198101D01*
X163484D01*
X163043Y198013D01*
X162670Y197763D01*
X154304Y189397D01*
X154054Y189024D01*
X153966Y188583D01*
Y184479D01*
X153812Y184377D01*
X153412Y183777D01*
X153272Y183071D01*
X153412Y182364D01*
X153812Y181765D01*
X154411Y181365D01*
X155118Y181224D01*
X155825Y181365D01*
X156424Y181765D01*
X156824Y182364D01*
X156965Y183071D01*
X156824Y183777D01*
X156424Y184377D01*
X156270Y184479D01*
Y188105D01*
X163961Y195797D01*
X167978D01*
X168102Y195651D01*
X168295Y195297D01*
X168252Y195081D01*
Y193699D01*
X168316Y193377D01*
X168494Y193110D01*
X168316Y192843D01*
X168252Y192522D01*
Y191140D01*
X168295Y190924D01*
X168102Y190569D01*
X167978Y190424D01*
X162894D01*
X162453Y190336D01*
X162079Y190086D01*
X160417Y188425D01*
X160236Y188461D01*
X159530Y188320D01*
X158931Y187920D01*
X158530Y187321D01*
X158390Y186614D01*
X158530Y185907D01*
X158931Y185309D01*
X159530Y184908D01*
X160236Y184768D01*
X160943Y184908D01*
X161542Y185309D01*
X161942Y185907D01*
X162083Y186614D01*
X162047Y186795D01*
X163371Y188120D01*
X167978D01*
X168102Y187974D01*
X168295Y187620D01*
X168252Y187404D01*
Y186022D01*
X168316Y185700D01*
X168498Y185427D01*
X168771Y185245D01*
X169093Y185181D01*
X174215D01*
X174536Y185245D01*
X174809Y185427D01*
X174992Y185700D01*
X175056Y186022D01*
Y187404D01*
X174992Y187725D01*
X174813Y187992D01*
X174992Y188259D01*
X175056Y188581D01*
Y189963D01*
X175013Y190179D01*
X175205Y190533D01*
X175329Y190679D01*
X176983D01*
X178769Y188893D01*
Y183154D01*
X178657Y183042D01*
X160236D01*
X159795Y182954D01*
X159422Y182704D01*
X156609Y179892D01*
X147078D01*
X146975Y180046D01*
X146376Y180446D01*
X145669Y180587D01*
X144963Y180446D01*
X144364Y180046D01*
X143963Y179447D01*
X143823Y178740D01*
X143963Y178033D01*
X144364Y177435D01*
X144963Y177034D01*
X145669Y176894D01*
X146376Y177034D01*
X146975Y177435D01*
X147078Y177588D01*
X157087D01*
X157527Y177676D01*
X157901Y177926D01*
X160713Y180738D01*
X179134D01*
X179575Y180825D01*
X179948Y181075D01*
X180736Y181862D01*
X180986Y182236D01*
X181073Y182677D01*
Y189370D01*
X180986Y189811D01*
X180736Y190185D01*
X178275Y192645D01*
X178137Y192738D01*
X178289Y193238D01*
X179543D01*
X183100Y189680D01*
Y181882D01*
X180981Y179763D01*
X180799Y179799D01*
X180093Y179659D01*
X179494Y179258D01*
X179391Y179105D01*
X161024D01*
X160583Y179017D01*
X160209Y178767D01*
X157791Y176349D01*
X135123D01*
X126405Y185067D01*
X126031Y185316D01*
X125591Y185404D01*
X115354D01*
X114913Y185316D01*
X114540Y185067D01*
X105091Y175618D01*
X104841Y175244D01*
X104753Y174803D01*
Y162038D01*
X104600Y161936D01*
X104200Y161337D01*
X104059Y160630D01*
X104200Y159923D01*
X104600Y159324D01*
X105199Y158924D01*
X105905Y158783D01*
X106612Y158924D01*
X107211Y159324D01*
X107611Y159923D01*
X107752Y160630D01*
X107611Y161337D01*
X107211Y161936D01*
X107058Y162038D01*
Y174326D01*
X115831Y183100D01*
X125113D01*
X133831Y174382D01*
X134205Y174133D01*
X134646Y174045D01*
X158268D01*
X158709Y174133D01*
X159082Y174382D01*
X161501Y176801D01*
X179391D01*
X179494Y176647D01*
X180093Y176247D01*
X180799Y176106D01*
X181506Y176247D01*
X182105Y176647D01*
X182505Y177246D01*
X182646Y177953D01*
X182610Y178134D01*
X185067Y180591D01*
X185316Y180964D01*
X185404Y181405D01*
Y190157D01*
X185316Y190598D01*
X185067Y190972D01*
X180834Y195204D01*
X180461Y195454D01*
X180020Y195542D01*
X175329D01*
X175205Y195687D01*
X175013Y196042D01*
X175056Y196258D01*
Y197640D01*
X175013Y197856D01*
X175205Y198211D01*
X175329Y198356D01*
X189779D01*
X201998Y186137D01*
Y56776D01*
X168814Y23593D01*
X98902D01*
X90185Y32311D01*
X89811Y32560D01*
X89370Y32648D01*
X35080D01*
X29229Y38500D01*
X28855Y38749D01*
X28414Y38837D01*
X28051D01*
X28036Y38948D01*
X27671Y39831D01*
X27089Y40589D01*
X26331Y41171D01*
X25448Y41537D01*
X24500Y41661D01*
X23552Y41537D01*
X22669Y41171D01*
X21911Y40589D01*
X21329Y39831D01*
X20964Y38948D01*
X20839Y38000D01*
X20964Y37052D01*
X21329Y36169D01*
X21911Y35411D01*
X22669Y34829D01*
X23552Y34464D01*
X24500Y34339D01*
X25448Y34464D01*
X26331Y34829D01*
X27089Y35411D01*
X27637Y36126D01*
X27715Y36174D01*
X28238Y36232D01*
X33788Y30681D01*
X34162Y30432D01*
X34603Y30344D01*
X88893D01*
X97611Y21626D01*
X97984Y21377D01*
X98425Y21289D01*
X169291D01*
X169732Y21377D01*
X170106Y21626D01*
X203964Y55485D01*
X204214Y55858D01*
X204302Y56299D01*
Y186614D01*
X204214Y187055D01*
X203964Y187429D01*
X191070Y200323D01*
X190697Y200572D01*
X190256Y200660D01*
X179472D01*
X179321Y201160D01*
X179459Y201252D01*
X180676Y202469D01*
X180857Y202433D01*
X181564Y202574D01*
X182163Y202974D01*
X182563Y203573D01*
X182704Y204280D01*
X182563Y204987D01*
X182163Y205586D01*
X181564Y205986D01*
X180857Y206126D01*
D02*
G37*
G36*
X234449Y240224D02*
X233616Y240115D01*
X232841Y239793D01*
X232174Y239282D01*
X231663Y238616D01*
X231342Y237840D01*
X231232Y237008D01*
X231342Y236175D01*
X231663Y235400D01*
X232174Y234734D01*
X232400Y234561D01*
Y217943D01*
X232563Y217121D01*
X233029Y216424D01*
X248777Y200676D01*
X249473Y200211D01*
X250295Y200047D01*
X259436D01*
X259804Y199568D01*
X260565Y198984D01*
X261451Y198617D01*
X262402Y198492D01*
X263352Y198617D01*
X264238Y198984D01*
X264999Y199568D01*
X265583Y200329D01*
X265950Y201215D01*
X266075Y202165D01*
X265950Y203116D01*
X265583Y204002D01*
X264999Y204763D01*
X264238Y205346D01*
X263352Y205713D01*
X262402Y205838D01*
X261451Y205713D01*
X260565Y205346D01*
X259804Y204763D01*
X259482Y204343D01*
X251185D01*
X236695Y218832D01*
Y234712D01*
X236723Y234734D01*
X237234Y235400D01*
X237556Y236175D01*
X237665Y237008D01*
X237556Y237840D01*
X237234Y238616D01*
X236723Y239282D01*
X236057Y239793D01*
X235281Y240115D01*
X234449Y240224D01*
D02*
G37*
G36*
X212402Y205838D02*
X211451Y205713D01*
X210565Y205346D01*
X209804Y204763D01*
X209221Y204002D01*
X208854Y203116D01*
X208728Y202165D01*
X208854Y201215D01*
X209221Y200329D01*
X209804Y199568D01*
X210565Y198984D01*
X211451Y198617D01*
X212402Y198492D01*
X213352Y198617D01*
X214238Y198984D01*
X214999Y199568D01*
X215583Y200329D01*
X215950Y201215D01*
X216075Y202165D01*
X215950Y203116D01*
X215583Y204002D01*
X214999Y204763D01*
X214238Y205346D01*
X213352Y205713D01*
X212402Y205838D01*
D02*
G37*
G36*
X333307Y196201D02*
X330079D01*
Y195848D01*
X323661D01*
Y195905D01*
X319252D01*
Y191496D01*
X323661D01*
Y191553D01*
X330079D01*
Y191201D01*
X333307D01*
Y196201D01*
D02*
G37*
G36*
X24500Y201661D02*
X23552Y201536D01*
X22669Y201171D01*
X21911Y200589D01*
X21329Y199831D01*
X20964Y198948D01*
X20839Y198000D01*
X20964Y197052D01*
X21329Y196169D01*
X21911Y195411D01*
X22669Y194829D01*
X23552Y194464D01*
X24500Y194339D01*
X25448Y194464D01*
X26331Y194829D01*
X27089Y195411D01*
X27671Y196169D01*
X28036Y197052D01*
X28161Y198000D01*
X28036Y198948D01*
X27671Y199831D01*
X27089Y200589D01*
X26331Y201171D01*
X25448Y201536D01*
X24500Y201661D01*
D02*
G37*
G36*
X293307Y197215D02*
X292397Y197095D01*
X291550Y196744D01*
X290822Y196186D01*
X290563Y195848D01*
X279134D01*
X278312Y195685D01*
X277615Y195219D01*
X276670Y194273D01*
X265374D01*
X264999Y194763D01*
X264238Y195346D01*
X263352Y195713D01*
X262402Y195838D01*
X261451Y195713D01*
X260565Y195346D01*
X259804Y194763D01*
X259221Y194002D01*
X258854Y193116D01*
X258728Y192165D01*
X258854Y191215D01*
X259221Y190329D01*
X259804Y189568D01*
X260565Y188984D01*
X261451Y188617D01*
X262402Y188492D01*
X263352Y188617D01*
X264238Y188984D01*
X264999Y189568D01*
X265314Y189978D01*
X277559D01*
X278381Y190142D01*
X279078Y190607D01*
X280023Y191553D01*
X290563D01*
X290822Y191216D01*
X291550Y190657D01*
X292397Y190306D01*
X293307Y190187D01*
X294217Y190306D01*
X295064Y190657D01*
X295792Y191216D01*
X296051Y191553D01*
X314337D01*
X314764Y191468D01*
X316339D01*
X316892Y191578D01*
X317360Y191892D01*
X317674Y192360D01*
X317784Y192913D01*
Y194488D01*
X317674Y195041D01*
X317360Y195510D01*
X316892Y195823D01*
X316339Y195933D01*
X314764D01*
X314337Y195848D01*
X296051D01*
X295792Y196186D01*
X295064Y196744D01*
X294217Y197095D01*
X293307Y197215D01*
D02*
G37*
G36*
X212402Y195838D02*
X211451Y195713D01*
X210565Y195346D01*
X209804Y194763D01*
X209221Y194002D01*
X208854Y193116D01*
X208728Y192165D01*
X208854Y191215D01*
X209221Y190329D01*
X209804Y189568D01*
X210565Y188984D01*
X211451Y188617D01*
X212402Y188492D01*
X213352Y188617D01*
X214238Y188984D01*
X214999Y189568D01*
X215583Y190329D01*
X215950Y191215D01*
X216075Y192165D01*
X215950Y193116D01*
X215583Y194002D01*
X214999Y194763D01*
X214238Y195346D01*
X213352Y195713D01*
X212402Y195838D01*
D02*
G37*
G36*
X333307Y186358D02*
X330079D01*
Y186006D01*
X323661D01*
Y186063D01*
X319252D01*
Y181653D01*
X323661D01*
Y181711D01*
X330079D01*
Y181358D01*
X333307D01*
Y186358D01*
D02*
G37*
G36*
X293307Y187373D02*
X292397Y187253D01*
X291550Y186902D01*
X290822Y186343D01*
X290563Y186006D01*
X282283D01*
X281462Y185842D01*
X280765Y185377D01*
X279819Y184431D01*
X265253D01*
X264999Y184763D01*
X264238Y185346D01*
X263352Y185713D01*
X262402Y185838D01*
X261451Y185713D01*
X260565Y185346D01*
X259804Y184763D01*
X259221Y184002D01*
X258854Y183116D01*
X258728Y182165D01*
X258854Y181215D01*
X259221Y180329D01*
X259804Y179568D01*
X260565Y178984D01*
X261451Y178617D01*
X262402Y178492D01*
X263352Y178617D01*
X264238Y178984D01*
X264999Y179568D01*
X265435Y180136D01*
X280709D01*
X281530Y180299D01*
X282227Y180765D01*
X283173Y181711D01*
X290563D01*
X290822Y181373D01*
X291550Y180815D01*
X292397Y180464D01*
X293307Y180344D01*
X294217Y180464D01*
X295064Y180815D01*
X295792Y181373D01*
X296051Y181711D01*
X314337D01*
X314764Y181626D01*
X316339D01*
X316892Y181736D01*
X317360Y182049D01*
X317674Y182518D01*
X317784Y183071D01*
Y184646D01*
X317674Y185199D01*
X317360Y185668D01*
X316892Y185981D01*
X316339Y186091D01*
X314764D01*
X314337Y186006D01*
X296051D01*
X295792Y186343D01*
X295064Y186902D01*
X294217Y187253D01*
X293307Y187373D01*
D02*
G37*
G36*
X24500Y191661D02*
X23552Y191536D01*
X22669Y191171D01*
X21911Y190589D01*
X21329Y189831D01*
X20964Y188948D01*
X20839Y188000D01*
X20964Y187052D01*
X21329Y186169D01*
X21911Y185411D01*
X22669Y184829D01*
X23552Y184464D01*
X24500Y184339D01*
X25448Y184464D01*
X26331Y184829D01*
X27089Y185411D01*
X27671Y186169D01*
X28036Y187052D01*
X28161Y188000D01*
X28036Y188948D01*
X27671Y189831D01*
X27089Y190589D01*
X26331Y191171D01*
X25448Y191536D01*
X24500Y191661D01*
D02*
G37*
G36*
X14500D02*
X13552Y191536D01*
X12669Y191171D01*
X11911Y190589D01*
X11329Y189831D01*
X10964Y188948D01*
X10839Y188000D01*
X10964Y187052D01*
X11329Y186169D01*
X11911Y185411D01*
X12669Y184829D01*
X13552Y184464D01*
X14500Y184339D01*
X15448Y184464D01*
X16331Y184829D01*
X17089Y185411D01*
X17671Y186169D01*
X18036Y187052D01*
X18161Y188000D01*
X18036Y188948D01*
X17671Y189831D01*
X17089Y190589D01*
X16331Y191171D01*
X15448Y191536D01*
X14500Y191661D01*
D02*
G37*
G36*
X74252Y207618D02*
X71024D01*
Y206494D01*
X70654Y205940D01*
X70490Y205118D01*
Y198150D01*
Y196299D01*
X70276D01*
Y183228D01*
X77835D01*
Y196299D01*
X74785D01*
Y198150D01*
Y205118D01*
X74622Y205940D01*
X74252Y206494D01*
Y207618D01*
D02*
G37*
G36*
X232390Y182546D02*
Y180921D01*
X234014D01*
X233944Y181272D01*
X233462Y181994D01*
X232741Y182476D01*
X232390Y182546D01*
D02*
G37*
G36*
X231390D02*
X231039Y182476D01*
X230317Y181994D01*
X229835Y181272D01*
X229765Y180921D01*
X231390D01*
Y182546D01*
D02*
G37*
G36*
X139173Y182132D02*
X138295D01*
Y180618D01*
X140693D01*
X140579Y181192D01*
X140249Y181686D01*
X139755Y182016D01*
X139173Y182132D01*
D02*
G37*
G36*
X137295D02*
X136417D01*
X135835Y182016D01*
X135342Y181686D01*
X135012Y181192D01*
X134897Y180618D01*
X137295D01*
Y182132D01*
D02*
G37*
G36*
X212402Y185838D02*
X211451Y185713D01*
X210565Y185346D01*
X209804Y184763D01*
X209221Y184002D01*
X208854Y183116D01*
X208728Y182165D01*
X208854Y181215D01*
X209221Y180329D01*
X209804Y179568D01*
X210565Y178984D01*
X211451Y178617D01*
X212402Y178492D01*
X213352Y178617D01*
X214238Y178984D01*
X214999Y179568D01*
X215583Y180329D01*
X215950Y181215D01*
X216075Y182165D01*
X215950Y183116D01*
X215583Y184002D01*
X214999Y184763D01*
X214238Y185346D01*
X213352Y185713D01*
X212402Y185838D01*
D02*
G37*
G36*
X234014Y179921D02*
X232390D01*
Y178297D01*
X232741Y178367D01*
X233462Y178849D01*
X233944Y179570D01*
X234014Y179921D01*
D02*
G37*
G36*
X231390D02*
X229765D01*
X229835Y179570D01*
X230317Y178849D01*
X231039Y178367D01*
X231390Y178297D01*
Y179921D01*
D02*
G37*
G36*
X140693Y179618D02*
X138295D01*
Y178105D01*
X139173D01*
X139755Y178220D01*
X140249Y178550D01*
X140579Y179044D01*
X140693Y179618D01*
D02*
G37*
G36*
X137295D02*
X134897D01*
X135012Y179044D01*
X135342Y178550D01*
X135835Y178220D01*
X136417Y178105D01*
X137295D01*
Y179618D01*
D02*
G37*
G36*
X333307Y176516D02*
X330079D01*
Y176163D01*
X323661D01*
Y176221D01*
X319252D01*
Y171811D01*
X323661D01*
Y171868D01*
X330079D01*
Y171516D01*
X333307D01*
Y176516D01*
D02*
G37*
G36*
X190657Y176534D02*
Y174909D01*
X192282D01*
X192212Y175260D01*
X191730Y175982D01*
X191008Y176464D01*
X190657Y176534D01*
D02*
G37*
G36*
X189657D02*
X189306Y176464D01*
X188585Y175982D01*
X188103Y175260D01*
X188033Y174909D01*
X189657D01*
Y176534D01*
D02*
G37*
G36*
X24500Y181661D02*
X23552Y181536D01*
X22669Y181171D01*
X21911Y180589D01*
X21329Y179831D01*
X20964Y178948D01*
X20839Y178000D01*
X20964Y177052D01*
X21329Y176169D01*
X21911Y175411D01*
X22669Y174829D01*
X23552Y174463D01*
X24500Y174339D01*
X25448Y174463D01*
X26331Y174829D01*
X27089Y175411D01*
X27671Y176169D01*
X28036Y177052D01*
X28161Y178000D01*
X28036Y178948D01*
X27671Y179831D01*
X27089Y180589D01*
X26331Y181171D01*
X25448Y181536D01*
X24500Y181661D01*
D02*
G37*
G36*
X14500D02*
X13552Y181536D01*
X12669Y181171D01*
X11911Y180589D01*
X11329Y179831D01*
X10964Y178948D01*
X10839Y178000D01*
X10964Y177052D01*
X11329Y176169D01*
X11911Y175411D01*
X12669Y174829D01*
X13552Y174463D01*
X14500Y174339D01*
X15448Y174463D01*
X16331Y174829D01*
X17089Y175411D01*
X17671Y176169D01*
X18036Y177052D01*
X18161Y178000D01*
X18036Y178948D01*
X17671Y179831D01*
X17089Y180589D01*
X16331Y181171D01*
X15448Y181536D01*
X14500Y181661D01*
D02*
G37*
G36*
X192282Y173909D02*
X190657D01*
Y172285D01*
X191008Y172355D01*
X191730Y172837D01*
X192212Y173558D01*
X192282Y173909D01*
D02*
G37*
G36*
X189657D02*
X188033D01*
X188103Y173558D01*
X188585Y172837D01*
X189306Y172355D01*
X189657Y172285D01*
Y173909D01*
D02*
G37*
G36*
X293307Y177530D02*
X292397Y177410D01*
X291550Y177059D01*
X290822Y176501D01*
X290264Y175773D01*
X289913Y174925D01*
X289793Y174016D01*
X289913Y173106D01*
X290264Y172259D01*
X290822Y171531D01*
X291550Y170972D01*
X292397Y170621D01*
X293307Y170501D01*
X294217Y170621D01*
X295064Y170972D01*
X295792Y171531D01*
X296051Y171868D01*
X314337D01*
X314764Y171783D01*
X316339D01*
X316892Y171893D01*
X317360Y172206D01*
X317674Y172675D01*
X317784Y173228D01*
Y174803D01*
X317674Y175356D01*
X317360Y175825D01*
X316892Y176138D01*
X316339Y176248D01*
X314764D01*
X314337Y176163D01*
X296051D01*
X295792Y176501D01*
X295064Y177059D01*
X294217Y177410D01*
X293307Y177530D01*
D02*
G37*
G36*
X174215Y171889D02*
X172154D01*
Y170480D01*
X175433D01*
Y170671D01*
X175340Y171137D01*
X175076Y171533D01*
X174681Y171797D01*
X174215Y171889D01*
D02*
G37*
G36*
X171154D02*
X169093D01*
X168626Y171797D01*
X168231Y171533D01*
X167967Y171137D01*
X167874Y170671D01*
Y170480D01*
X171154D01*
Y171889D01*
D02*
G37*
G36*
X212402Y175838D02*
X211451Y175713D01*
X210565Y175346D01*
X209804Y174763D01*
X209221Y174002D01*
X208854Y173116D01*
X208728Y172165D01*
X208854Y171215D01*
X209221Y170329D01*
X209804Y169568D01*
X210565Y168984D01*
X211451Y168617D01*
X212402Y168492D01*
X213352Y168617D01*
X214238Y168984D01*
X214999Y169568D01*
X215583Y170329D01*
X215950Y171215D01*
X216075Y172165D01*
X215950Y173116D01*
X215583Y174002D01*
X214999Y174763D01*
X214238Y175346D01*
X213352Y175713D01*
X212402Y175838D01*
D02*
G37*
G36*
X333307Y166279D02*
X330079D01*
Y165927D01*
X323661D01*
Y165984D01*
X319252D01*
Y161575D01*
X323661D01*
Y161632D01*
X330079D01*
Y161279D01*
X333307D01*
Y166279D01*
D02*
G37*
G36*
X24500Y171661D02*
X23552Y171537D01*
X22669Y171171D01*
X21911Y170589D01*
X21329Y169831D01*
X20964Y168948D01*
X20839Y168000D01*
X20964Y167052D01*
X21329Y166169D01*
X21911Y165411D01*
X22669Y164829D01*
X23552Y164463D01*
X24500Y164339D01*
X25448Y164463D01*
X26331Y164829D01*
X27089Y165411D01*
X27671Y166169D01*
X28036Y167052D01*
X28161Y168000D01*
X28036Y168948D01*
X27671Y169831D01*
X27089Y170589D01*
X26331Y171171D01*
X25448Y171537D01*
X24500Y171661D01*
D02*
G37*
G36*
X14500D02*
X13552Y171537D01*
X12669Y171171D01*
X11911Y170589D01*
X11329Y169831D01*
X10964Y168948D01*
X10839Y168000D01*
X10964Y167052D01*
X11329Y166169D01*
X11911Y165411D01*
X12669Y164829D01*
X13552Y164463D01*
X14500Y164339D01*
X15448Y164463D01*
X16331Y164829D01*
X17089Y165411D01*
X17671Y166169D01*
X18036Y167052D01*
X18161Y168000D01*
X18036Y168948D01*
X17671Y169831D01*
X17089Y170589D01*
X16331Y171171D01*
X15448Y171537D01*
X14500Y171661D01*
D02*
G37*
G36*
X262402Y175838D02*
X261451Y175713D01*
X260565Y175346D01*
X259804Y174763D01*
X259221Y174002D01*
X258854Y173116D01*
X258728Y172165D01*
X258854Y171215D01*
X259221Y170329D01*
X259804Y169568D01*
X260565Y168984D01*
X261451Y168617D01*
X262402Y168492D01*
X263352Y168617D01*
X264238Y168984D01*
X264999Y169568D01*
X265327Y169995D01*
X273818D01*
X281159Y162655D01*
X281855Y162189D01*
X282677Y162026D01*
X289823D01*
Y160689D01*
X296791D01*
Y161632D01*
X314337D01*
X314764Y161547D01*
X316339D01*
X316892Y161657D01*
X317360Y161970D01*
X317674Y162439D01*
X317784Y162992D01*
Y164567D01*
X317674Y165120D01*
X317360Y165589D01*
X316892Y165902D01*
X316339Y166012D01*
X314764D01*
X314337Y165927D01*
X296791D01*
Y167657D01*
X289823D01*
Y166321D01*
X283567D01*
X276226Y173662D01*
X275529Y174127D01*
X274707Y174291D01*
X265361D01*
X264999Y174763D01*
X264238Y175346D01*
X263352Y175713D01*
X262402Y175838D01*
D02*
G37*
G36*
X251417Y240197D02*
X245039D01*
Y233819D01*
X246081D01*
Y226339D01*
X246244Y225517D01*
X246710Y224820D01*
X258802Y212727D01*
X258728Y212165D01*
X258854Y211215D01*
X259221Y210329D01*
X259804Y209568D01*
X260565Y208984D01*
X261451Y208617D01*
X262402Y208492D01*
X263352Y208617D01*
X264238Y208984D01*
X264999Y209568D01*
X265344Y210018D01*
X273166D01*
X280765Y202418D01*
X281462Y201953D01*
X282283Y201789D01*
X331394D01*
X334664Y198520D01*
Y193701D01*
Y183858D01*
Y174016D01*
Y163779D01*
X334827Y162958D01*
X335197Y162404D01*
Y161279D01*
X338425D01*
Y162404D01*
X338795Y162958D01*
X338959Y163779D01*
Y174016D01*
Y183858D01*
Y193701D01*
Y199409D01*
X338795Y200231D01*
X338330Y200928D01*
X333802Y205456D01*
X333105Y205921D01*
X332283Y206085D01*
X283173D01*
X275574Y213684D01*
X274877Y214149D01*
X274055Y214313D01*
X265344D01*
X264999Y214763D01*
X264238Y215346D01*
X263352Y215713D01*
X262402Y215839D01*
X261840Y215764D01*
X250376Y227228D01*
Y233819D01*
X251417D01*
Y240197D01*
D02*
G37*
G36*
X262402Y165839D02*
X261451Y165713D01*
X260565Y165346D01*
X259804Y164763D01*
X259221Y164002D01*
X258854Y163116D01*
X258728Y162165D01*
X258854Y161215D01*
X259221Y160329D01*
X259804Y159568D01*
X260565Y158984D01*
X261451Y158617D01*
X262402Y158492D01*
X263352Y158617D01*
X264238Y158984D01*
X264999Y159568D01*
X265583Y160329D01*
X265950Y161215D01*
X266075Y162165D01*
X265950Y163116D01*
X265583Y164002D01*
X264999Y164763D01*
X264238Y165346D01*
X263352Y165713D01*
X262402Y165839D01*
D02*
G37*
G36*
X212402D02*
X211451Y165713D01*
X210565Y165346D01*
X209804Y164763D01*
X209221Y164002D01*
X208854Y163116D01*
X208728Y162165D01*
X208854Y161215D01*
X209221Y160329D01*
X209804Y159568D01*
X210565Y158984D01*
X211451Y158617D01*
X212402Y158492D01*
X213352Y158617D01*
X214238Y158984D01*
X214999Y159568D01*
X215583Y160329D01*
X215950Y161215D01*
X216075Y162165D01*
X215950Y163116D01*
X215583Y164002D01*
X214999Y164763D01*
X214238Y165346D01*
X213352Y165713D01*
X212402Y165839D01*
D02*
G37*
G36*
X190157Y153815D02*
X189451Y153674D01*
X188852Y153274D01*
X188749Y153121D01*
X187146D01*
Y153583D01*
X182146D01*
Y150354D01*
X187146D01*
Y150816D01*
X188749D01*
X188852Y150663D01*
X189451Y150263D01*
X190157Y150122D01*
X190864Y150263D01*
X191463Y150663D01*
X191863Y151262D01*
X192004Y151969D01*
X191863Y152675D01*
X191463Y153274D01*
X190864Y153674D01*
X190157Y153815D01*
D02*
G37*
G36*
X262901Y156146D02*
Y152665D01*
X266382D01*
X266310Y153213D01*
X265906Y154189D01*
X265263Y155027D01*
X264425Y155670D01*
X263449Y156074D01*
X262901Y156146D01*
D02*
G37*
G36*
X261901Y156146D02*
X261354Y156074D01*
X260378Y155670D01*
X259540Y155027D01*
X258897Y154189D01*
X258493Y153213D01*
X258421Y152665D01*
X261901D01*
Y156146D01*
D02*
G37*
G36*
Y151665D02*
X258421D01*
X258493Y151118D01*
X258897Y150142D01*
X259540Y149304D01*
X260378Y148661D01*
X261354Y148257D01*
X261901Y148185D01*
Y151665D01*
D02*
G37*
G36*
X266382D02*
X262901D01*
Y148185D01*
X263449Y148257D01*
X264425Y148661D01*
X265263Y149304D01*
X265906Y150142D01*
X266310Y151118D01*
X266382Y151665D01*
D02*
G37*
G36*
X153256Y147794D02*
Y146169D01*
X154880D01*
X154811Y146520D01*
X154328Y147242D01*
X153607Y147724D01*
X153256Y147794D01*
D02*
G37*
G36*
X152256D02*
X151905Y147724D01*
X151183Y147242D01*
X150701Y146520D01*
X150631Y146169D01*
X152256D01*
Y147794D01*
D02*
G37*
G36*
X139173Y147486D02*
X138295D01*
Y145973D01*
X140693D01*
X140579Y146547D01*
X140249Y147040D01*
X139755Y147370D01*
X139173Y147486D01*
D02*
G37*
G36*
X137295D02*
X136417D01*
X135835Y147370D01*
X135342Y147040D01*
X135012Y146547D01*
X134897Y145973D01*
X137295D01*
Y147486D01*
D02*
G37*
G36*
X14500Y151661D02*
X13552Y151537D01*
X12669Y151171D01*
X11911Y150589D01*
X11329Y149831D01*
X10964Y148948D01*
X10839Y148000D01*
X10964Y147052D01*
X11329Y146169D01*
X11911Y145411D01*
X12669Y144829D01*
X13552Y144464D01*
X14500Y144339D01*
X15448Y144464D01*
X16331Y144829D01*
X17089Y145411D01*
X17671Y146169D01*
X18036Y147052D01*
X18161Y148000D01*
X18036Y148948D01*
X17671Y149831D01*
X17089Y150589D01*
X16331Y151171D01*
X15448Y151537D01*
X14500Y151661D01*
D02*
G37*
G36*
X154880Y145169D02*
X153256D01*
Y143545D01*
X153607Y143615D01*
X154328Y144097D01*
X154811Y144818D01*
X154880Y145169D01*
D02*
G37*
G36*
X152256D02*
X150631D01*
X150701Y144818D01*
X151183Y144097D01*
X151905Y143615D01*
X152256Y143545D01*
Y145169D01*
D02*
G37*
G36*
X140693Y144973D02*
X138295D01*
Y143459D01*
X139173D01*
X139755Y143575D01*
X140249Y143904D01*
X140579Y144398D01*
X140693Y144973D01*
D02*
G37*
G36*
X137295D02*
X134897D01*
X135012Y144398D01*
X135342Y143904D01*
X135835Y143575D01*
X136417Y143459D01*
X137295D01*
Y144973D01*
D02*
G37*
G36*
X170185Y142675D02*
Y141051D01*
X171809D01*
X171740Y141402D01*
X171257Y142124D01*
X170536Y142606D01*
X170185Y142675D01*
D02*
G37*
G36*
X169185D02*
X168834Y142606D01*
X168113Y142124D01*
X167631Y141402D01*
X167561Y141051D01*
X169185D01*
Y142675D01*
D02*
G37*
G36*
X262402Y145838D02*
X261451Y145713D01*
X260565Y145346D01*
X259804Y144763D01*
X259221Y144002D01*
X258854Y143116D01*
X258728Y142165D01*
X258854Y141215D01*
X259221Y140329D01*
X259804Y139568D01*
X260565Y138984D01*
X261451Y138617D01*
X262402Y138492D01*
X263352Y138617D01*
X264238Y138984D01*
X264999Y139568D01*
X265583Y140329D01*
X265950Y141215D01*
X266075Y142165D01*
X265950Y143116D01*
X265583Y144002D01*
X264999Y144763D01*
X264238Y145346D01*
X263352Y145713D01*
X262402Y145838D01*
D02*
G37*
G36*
X171809Y140051D02*
X170185D01*
Y138427D01*
X170536Y138497D01*
X171257Y138979D01*
X171740Y139700D01*
X171809Y140051D01*
D02*
G37*
G36*
X169185D02*
X167561D01*
X167631Y139700D01*
X168113Y138979D01*
X168834Y138497D01*
X169185Y138427D01*
Y140051D01*
D02*
G37*
G36*
X177165Y149091D02*
X176459Y148950D01*
X175860Y148550D01*
X175459Y147951D01*
X175319Y147244D01*
X175459Y146537D01*
X175860Y145938D01*
X176013Y145836D01*
Y141538D01*
X175671Y141470D01*
X175072Y141069D01*
X174672Y140470D01*
X174531Y139764D01*
X174672Y139057D01*
X175072Y138458D01*
X175671Y138058D01*
X176378Y137917D01*
X177085Y138058D01*
X177684Y138458D01*
X178084Y139057D01*
X178225Y139764D01*
X178116Y140309D01*
X178230Y140479D01*
X178317Y140920D01*
Y145836D01*
X178471Y145938D01*
X178871Y146537D01*
X179012Y147244D01*
X178871Y147951D01*
X178471Y148550D01*
X177872Y148950D01*
X177165Y149091D01*
D02*
G37*
G36*
X174215Y137047D02*
X172154D01*
Y135638D01*
X175433D01*
Y135829D01*
X175340Y136295D01*
X175076Y136690D01*
X174681Y136954D01*
X174215Y137047D01*
D02*
G37*
G36*
X171154D02*
X169093D01*
X168626Y136954D01*
X168231Y136690D01*
X167967Y136295D01*
X167874Y135829D01*
Y135638D01*
X171154D01*
Y137047D01*
D02*
G37*
G36*
X24500Y141661D02*
X23552Y141536D01*
X22669Y141171D01*
X21911Y140589D01*
X21329Y139831D01*
X20964Y138948D01*
X20839Y138000D01*
X20964Y137052D01*
X21329Y136169D01*
X21911Y135411D01*
X22669Y134829D01*
X22926Y134723D01*
X22827Y134223D01*
X19906D01*
X17755Y136374D01*
X18036Y137052D01*
X18161Y138000D01*
X18036Y138948D01*
X17671Y139831D01*
X17089Y140589D01*
X16331Y141171D01*
X15448Y141536D01*
X14500Y141661D01*
X13552Y141536D01*
X12669Y141171D01*
X11911Y140589D01*
X11329Y139831D01*
X10964Y138948D01*
X10839Y138000D01*
X10964Y137052D01*
X11329Y136169D01*
X11911Y135411D01*
X12669Y134829D01*
X13552Y134464D01*
X14500Y134339D01*
X15448Y134464D01*
X16126Y134745D01*
X18614Y132256D01*
X18988Y132007D01*
X19429Y131919D01*
X23169D01*
X23268Y131419D01*
X22669Y131171D01*
X21911Y130589D01*
X21329Y129831D01*
X20964Y128948D01*
X20839Y128000D01*
X20964Y127052D01*
X21329Y126169D01*
X21911Y125411D01*
X22669Y124829D01*
X23552Y124463D01*
X23454Y123987D01*
X20143D01*
X17755Y126374D01*
X18036Y127052D01*
X18161Y128000D01*
X18036Y128948D01*
X17671Y129831D01*
X17089Y130589D01*
X16331Y131171D01*
X15448Y131536D01*
X14500Y131661D01*
X13552Y131536D01*
X12669Y131171D01*
X11911Y130589D01*
X11329Y129831D01*
X10964Y128948D01*
X10839Y128000D01*
X10964Y127052D01*
X11329Y126169D01*
X11911Y125411D01*
X12669Y124829D01*
X13552Y124463D01*
X14500Y124339D01*
X15448Y124463D01*
X16126Y124745D01*
X18851Y122020D01*
X19225Y121770D01*
X19665Y121683D01*
X22599D01*
X22698Y121183D01*
X22669Y121171D01*
X21911Y120589D01*
X21329Y119831D01*
X20964Y118948D01*
X20839Y118000D01*
X20964Y117052D01*
X21329Y116169D01*
X21911Y115411D01*
X22669Y114829D01*
X23116Y114644D01*
X23017Y114144D01*
X20162D01*
X17807Y116499D01*
X18036Y117052D01*
X18161Y118000D01*
X18036Y118948D01*
X17671Y119831D01*
X17089Y120589D01*
X16331Y121171D01*
X15448Y121537D01*
X14500Y121661D01*
X13552Y121537D01*
X12669Y121171D01*
X11911Y120589D01*
X11329Y119831D01*
X10964Y118948D01*
X10839Y118000D01*
X10964Y117052D01*
X11329Y116169D01*
X11911Y115411D01*
X12669Y114829D01*
X13552Y114463D01*
X14500Y114339D01*
X15448Y114463D01*
X16251Y114796D01*
X18870Y112178D01*
X19244Y111928D01*
X19685Y111840D01*
X22979D01*
X23078Y111340D01*
X22669Y111171D01*
X21911Y110589D01*
X21329Y109831D01*
X20964Y108948D01*
X20839Y108000D01*
X20964Y107052D01*
X21329Y106169D01*
X21911Y105411D01*
X22669Y104829D01*
X23552Y104464D01*
X24500Y104339D01*
X25448Y104464D01*
X26331Y104829D01*
X27089Y105411D01*
X27671Y106169D01*
X28036Y107052D01*
X28161Y108000D01*
X28036Y108948D01*
X27671Y109831D01*
X27089Y110589D01*
X26331Y111171D01*
X25922Y111340D01*
X26021Y111840D01*
X32200D01*
X36643Y107397D01*
Y85827D01*
X36731Y85386D01*
X36981Y85012D01*
X51154Y70839D01*
X51528Y70589D01*
X51968Y70502D01*
X57253D01*
X57356Y70348D01*
X57955Y69948D01*
X58661Y69807D01*
X59368Y69948D01*
X59967Y70348D01*
X60367Y70947D01*
X60508Y71653D01*
X60367Y72360D01*
X59967Y72959D01*
X59680Y73151D01*
X59832Y73651D01*
X61575D01*
X61935Y73237D01*
X61933Y73228D01*
X62074Y72522D01*
X62474Y71923D01*
X63073Y71522D01*
X63779Y71382D01*
X64486Y71522D01*
X65085Y71923D01*
X65486Y72522D01*
X65626Y73228D01*
X65486Y73935D01*
X65085Y74534D01*
X64486Y74934D01*
X63779Y75075D01*
X63598Y75039D01*
X63019Y75618D01*
X62646Y75867D01*
X62205Y75955D01*
X59532D01*
X46428Y89060D01*
Y110630D01*
X46340Y111071D01*
X46090Y111445D01*
X33885Y123649D01*
X33512Y123899D01*
X33071Y123987D01*
X25546D01*
X25448Y124463D01*
X26331Y124829D01*
X27089Y125411D01*
X27671Y126169D01*
X27952Y126848D01*
X37664D01*
X48848Y115665D01*
Y91339D01*
X48936Y90898D01*
X49185Y90524D01*
X61390Y78319D01*
X61764Y78070D01*
X62205Y77982D01*
X110236D01*
X110677Y78070D01*
X111051Y78319D01*
X127378Y94646D01*
X127559Y94610D01*
X128266Y94751D01*
X128865Y95151D01*
X129265Y95750D01*
X129406Y96457D01*
X129369Y96638D01*
X131875Y99143D01*
X137066D01*
X137217Y98643D01*
X137079Y98551D01*
X135301Y96773D01*
X135120Y96809D01*
X134414Y96669D01*
X133815Y96268D01*
X133414Y95669D01*
X133274Y94963D01*
X133310Y94782D01*
X114877Y76349D01*
X81102D01*
X80661Y76261D01*
X80288Y76012D01*
X73539Y69262D01*
X51181D01*
X50740Y69175D01*
X50366Y68925D01*
X44798Y63357D01*
X34252D01*
X33811Y63269D01*
X33437Y63019D01*
X29570Y59152D01*
X27952D01*
X27671Y59831D01*
X27089Y60589D01*
X26331Y61171D01*
X25448Y61537D01*
X24500Y61661D01*
X23552Y61537D01*
X22669Y61171D01*
X21911Y60589D01*
X21329Y59831D01*
X20964Y58948D01*
X20839Y58000D01*
X20964Y57052D01*
X21329Y56169D01*
X21911Y55411D01*
X22669Y54829D01*
X22736Y54802D01*
X22637Y54302D01*
X19650D01*
X19209Y54214D01*
X18835Y53964D01*
X16126Y51255D01*
X15448Y51537D01*
X14500Y51661D01*
X13552Y51537D01*
X12669Y51171D01*
X11911Y50589D01*
X11329Y49831D01*
X10964Y48948D01*
X10839Y48000D01*
X10964Y47052D01*
X11329Y46169D01*
X11911Y45411D01*
X12669Y44829D01*
X13552Y44464D01*
X14500Y44339D01*
X15448Y44464D01*
X16331Y44829D01*
X17089Y45411D01*
X17671Y46169D01*
X18036Y47052D01*
X18161Y48000D01*
X18036Y48948D01*
X17755Y49626D01*
X20127Y51998D01*
X23359D01*
X23458Y51498D01*
X22669Y51171D01*
X21911Y50589D01*
X21329Y49831D01*
X20964Y48948D01*
X20839Y48000D01*
X20964Y47052D01*
X21329Y46169D01*
X21911Y45411D01*
X22669Y44829D01*
X23552Y44464D01*
X24500Y44339D01*
X25448Y44464D01*
X26331Y44829D01*
X27089Y45411D01*
X27671Y46169D01*
X27952Y46848D01*
X29082D01*
X39737Y36193D01*
X40110Y35943D01*
X40551Y35856D01*
X93224D01*
X103122Y25957D01*
X103496Y25707D01*
X103937Y25620D01*
X162992D01*
X163433Y25707D01*
X163807Y25957D01*
X198452Y60603D01*
X198702Y60976D01*
X198790Y61417D01*
Y114173D01*
X198702Y114614D01*
X198452Y114988D01*
X193672Y119769D01*
Y125591D01*
X193584Y126031D01*
X193334Y126405D01*
X189004Y130736D01*
X188630Y130986D01*
X188189Y131073D01*
X178073D01*
X178042Y131152D01*
X177990Y131573D01*
X178275Y131764D01*
X182102Y135591D01*
X182283Y135555D01*
X182990Y135696D01*
X183589Y136096D01*
X183989Y136695D01*
X184130Y137402D01*
X183989Y138108D01*
X183589Y138707D01*
X182990Y139108D01*
X182283Y139248D01*
X181577Y139108D01*
X180978Y138707D01*
X180578Y138108D01*
X180437Y137402D01*
X180473Y137220D01*
X176983Y133731D01*
X175729D01*
X175390Y134231D01*
X175433Y134447D01*
Y134638D01*
X171654D01*
X167874D01*
Y134447D01*
X167967Y133981D01*
X168231Y133585D01*
X168305Y133536D01*
X168252Y133270D01*
Y131888D01*
X168316Y131566D01*
X168494Y131299D01*
X168316Y131032D01*
X168252Y130711D01*
Y129329D01*
X168316Y129007D01*
X168494Y128740D01*
X168316Y128473D01*
X168252Y128152D01*
Y126770D01*
X168284Y126609D01*
X167981Y126192D01*
X167546Y126207D01*
X166947Y126608D01*
X166240Y126748D01*
X165533Y126608D01*
X164935Y126207D01*
X164534Y125608D01*
X164394Y124902D01*
X164534Y124195D01*
X164935Y123596D01*
X165533Y123196D01*
X166240Y123055D01*
X166947Y123196D01*
X167546Y123596D01*
X167981Y123611D01*
X168284Y123195D01*
X168252Y123033D01*
Y121652D01*
X168316Y121330D01*
X168494Y121063D01*
X168316Y120796D01*
X168252Y120474D01*
Y119093D01*
X168316Y118771D01*
X168494Y118504D01*
X168316Y118237D01*
X168252Y117915D01*
Y116534D01*
X168316Y116212D01*
X168498Y115939D01*
X168771Y115756D01*
X169093Y115692D01*
X174215D01*
X174536Y115756D01*
X174809Y115939D01*
X174992Y116212D01*
X175056Y116534D01*
Y117915D01*
X175013Y118131D01*
X175205Y118486D01*
X175311Y118610D01*
X175812Y118622D01*
X176452Y117981D01*
Y114300D01*
X175860Y113904D01*
X175459Y113305D01*
X175319Y112598D01*
X175459Y111892D01*
X175860Y111293D01*
X176411Y110924D01*
X176471Y110850D01*
X176609Y110353D01*
X176502Y110207D01*
X169519D01*
X169416Y110361D01*
X168817Y110761D01*
X168110Y110902D01*
X167404Y110761D01*
X166805Y110361D01*
X166404Y109762D01*
X166264Y109055D01*
X166404Y108349D01*
X166805Y107749D01*
X167404Y107349D01*
X168110Y107209D01*
X168817Y107349D01*
X169416Y107749D01*
X169519Y107903D01*
X177414D01*
X177855Y107991D01*
X178228Y108240D01*
X180736Y110748D01*
X180986Y111122D01*
X181073Y111563D01*
Y119291D01*
X180986Y119732D01*
X180736Y120106D01*
X177685Y123157D01*
X177311Y123407D01*
X176870Y123495D01*
X175329D01*
X175205Y123640D01*
X175013Y123995D01*
X175056Y124211D01*
Y125593D01*
X175013Y125809D01*
X175205Y126163D01*
X175329Y126309D01*
X177800D01*
X178133Y125811D01*
X178732Y125410D01*
X179438Y125270D01*
X180145Y125410D01*
X180744Y125811D01*
X181144Y126409D01*
X181285Y127116D01*
X181144Y127823D01*
X180846Y128269D01*
X181056Y128769D01*
X187712D01*
X191368Y125113D01*
Y119291D01*
X191455Y118851D01*
X191705Y118477D01*
X196486Y113696D01*
Y61895D01*
X162515Y27924D01*
X104414D01*
X94515Y37822D01*
X94142Y38072D01*
X93701Y38160D01*
X41028D01*
X30374Y48815D01*
X30000Y49064D01*
X29559Y49152D01*
X27952D01*
X27671Y49831D01*
X27089Y50589D01*
X26331Y51171D01*
X25542Y51498D01*
X25641Y51998D01*
X32283D01*
X32724Y52085D01*
X33098Y52335D01*
X36698Y55935D01*
X47638D01*
X48079Y56022D01*
X48452Y56272D01*
X55202Y63021D01*
X75984D01*
X76425Y63109D01*
X76799Y63359D01*
X83154Y69714D01*
X119685D01*
X120126Y69802D01*
X120500Y70051D01*
X137679Y87231D01*
X138189Y87130D01*
X138896Y87270D01*
X139495Y87671D01*
X139895Y88270D01*
X140035Y88976D01*
X139895Y89683D01*
X139495Y90282D01*
X138896Y90682D01*
X138189Y90823D01*
X137482Y90682D01*
X136883Y90282D01*
X136483Y89683D01*
X136380Y89165D01*
X136375Y89160D01*
X136300Y89110D01*
X119208Y72018D01*
X82677D01*
X82236Y71930D01*
X81862Y71681D01*
X75507Y65325D01*
X54724D01*
X54283Y65238D01*
X53910Y64988D01*
X47161Y58239D01*
X36220D01*
X35780Y58151D01*
X35406Y57901D01*
X31806Y54302D01*
X26364D01*
X26264Y54802D01*
X26331Y54829D01*
X27089Y55411D01*
X27671Y56169D01*
X27952Y56848D01*
X30047D01*
X30488Y56936D01*
X30862Y57185D01*
X34729Y61053D01*
X45276D01*
X45716Y61140D01*
X46090Y61390D01*
X51658Y66958D01*
X74016D01*
X74457Y67046D01*
X74830Y67296D01*
X81580Y74045D01*
X115354D01*
X115795Y74133D01*
X116169Y74382D01*
X134939Y93152D01*
X135120Y93116D01*
X135827Y93257D01*
X136426Y93657D01*
X136826Y94256D01*
X136967Y94963D01*
X136931Y95144D01*
X138371Y96584D01*
X144749D01*
X144874Y96439D01*
X145066Y96084D01*
X145023Y95868D01*
Y94486D01*
X145087Y94164D01*
X145265Y93898D01*
X145087Y93631D01*
X145023Y93309D01*
Y91927D01*
X145087Y91605D01*
X145265Y91339D01*
X145087Y91072D01*
X145023Y90750D01*
Y89368D01*
X145087Y89046D01*
X145265Y88779D01*
X145087Y88513D01*
X145023Y88191D01*
Y86809D01*
X145087Y86487D01*
X145265Y86221D01*
X145087Y85954D01*
X145023Y85632D01*
Y84250D01*
X145087Y83928D01*
X145265Y83661D01*
X145087Y83395D01*
X145023Y83073D01*
Y82741D01*
X144372Y82612D01*
X143773Y82211D01*
X143670Y82058D01*
X140082D01*
X139982Y82207D01*
X139611Y82455D01*
X139173Y82542D01*
X136417D01*
X135979Y82455D01*
X135608Y82207D01*
X135360Y81835D01*
X135273Y81398D01*
Y80413D01*
X135360Y79976D01*
X135608Y79604D01*
X135979Y79356D01*
X136417Y79269D01*
X139173D01*
X139611Y79356D01*
X139982Y79604D01*
X140082Y79753D01*
X143670D01*
X143773Y79600D01*
X144372Y79200D01*
X145079Y79059D01*
X145785Y79200D01*
X146384Y79600D01*
X146785Y80199D01*
X146914Y80850D01*
X150986D01*
X151308Y80914D01*
X151581Y81096D01*
X151763Y81369D01*
X151827Y81691D01*
Y83073D01*
X151763Y83395D01*
X151585Y83661D01*
X151763Y83928D01*
X151827Y84250D01*
Y85632D01*
X151784Y85848D01*
X151977Y86203D01*
X152083Y86327D01*
X152584Y86338D01*
X154360Y84562D01*
Y80936D01*
X154206Y80833D01*
X153806Y80234D01*
X153665Y79528D01*
X153806Y78821D01*
X154206Y78222D01*
X154805Y77822D01*
X155512Y77681D01*
X156218Y77822D01*
X156817Y78222D01*
X157218Y78821D01*
X157358Y79528D01*
X157218Y80234D01*
X156817Y80833D01*
X156664Y80936D01*
Y85039D01*
X156576Y85480D01*
X156326Y85854D01*
X153866Y88315D01*
X153728Y88407D01*
X153879Y88907D01*
X156314D01*
X160451Y84770D01*
X160505Y84238D01*
X160105Y83639D01*
X159965Y82933D01*
X160105Y82226D01*
X160505Y81627D01*
X161104Y81226D01*
X161811Y81086D01*
X162518Y81226D01*
X163117Y81627D01*
X163517Y82226D01*
X163657Y82933D01*
X163517Y83639D01*
X163117Y84238D01*
X162963Y84341D01*
Y85039D01*
X162875Y85480D01*
X162626Y85854D01*
X157606Y90874D01*
X157468Y90966D01*
X157619Y91466D01*
X159599D01*
X160028Y91252D01*
X160169Y90546D01*
X160569Y89947D01*
X161168Y89547D01*
X161875Y89406D01*
X162581Y89547D01*
X163180Y89947D01*
X163581Y90546D01*
X163721Y91252D01*
X163581Y91959D01*
X163180Y92558D01*
X162581Y92958D01*
X161875Y93099D01*
X161548Y93034D01*
X161149Y93433D01*
X160775Y93682D01*
X160335Y93770D01*
X152101D01*
X152098Y93773D01*
X152049Y94270D01*
X152129Y94286D01*
X152503Y94536D01*
X153186Y95219D01*
X160860D01*
X160963Y95065D01*
X161562Y94665D01*
X162268Y94524D01*
X162975Y94665D01*
X163574Y95065D01*
X163974Y95664D01*
X164115Y96371D01*
X163974Y97077D01*
X163574Y97676D01*
X162975Y98077D01*
X162268Y98217D01*
X161562Y98077D01*
X160963Y97676D01*
X160860Y97523D01*
X152708D01*
X152327Y97447D01*
X152198Y97483D01*
X151827Y97742D01*
Y98427D01*
X151763Y98749D01*
X151585Y99016D01*
X151763Y99282D01*
X151827Y99604D01*
Y100986D01*
X151763Y101308D01*
X151581Y101581D01*
X151308Y101763D01*
X150986Y101827D01*
X145864D01*
X145542Y101763D01*
X145270Y101581D01*
X145180Y101447D01*
X131398D01*
X130957Y101360D01*
X130583Y101110D01*
X127740Y98267D01*
X127559Y98303D01*
X126852Y98163D01*
X126253Y97762D01*
X125853Y97163D01*
X125713Y96457D01*
X125749Y96276D01*
X109759Y80286D01*
X62682D01*
X51152Y91816D01*
Y116142D01*
X51064Y116583D01*
X50815Y116956D01*
X38956Y128815D01*
X38583Y129064D01*
X38142Y129152D01*
X27952D01*
X27671Y129831D01*
X27089Y130589D01*
X26331Y131171D01*
X25732Y131419D01*
X25831Y131919D01*
X42042D01*
X53572Y120389D01*
Y93928D01*
X53419Y93825D01*
X53018Y93226D01*
X52878Y92520D01*
X53018Y91813D01*
X53419Y91214D01*
X54018Y90814D01*
X54724Y90673D01*
X55431Y90814D01*
X56030Y91214D01*
X56430Y91813D01*
X56571Y92520D01*
X56430Y93226D01*
X56030Y93825D01*
X55876Y93928D01*
Y120866D01*
X55789Y121307D01*
X55539Y121681D01*
X43334Y133886D01*
X42961Y134135D01*
X42520Y134223D01*
X26173D01*
X26074Y134723D01*
X26331Y134829D01*
X27089Y135411D01*
X27671Y136169D01*
X28036Y137052D01*
X28161Y138000D01*
X28036Y138948D01*
X27671Y139831D01*
X27089Y140589D01*
X26331Y141171D01*
X25448Y141536D01*
X24500Y141661D01*
D02*
G37*
G36*
X118504Y179799D02*
X117797Y179659D01*
X117198Y179258D01*
X116798Y178659D01*
X116657Y177953D01*
X116798Y177246D01*
X117198Y176647D01*
X117352Y176544D01*
Y168110D01*
X117440Y167669D01*
X117689Y167296D01*
X126055Y158930D01*
X126194Y158837D01*
X126042Y158337D01*
X122628D01*
X122526Y158491D01*
X121926Y158891D01*
X121220Y159031D01*
X120513Y158891D01*
X119914Y158491D01*
X119514Y157892D01*
X119373Y157185D01*
X119514Y156478D01*
X119914Y155879D01*
X120513Y155479D01*
X121220Y155339D01*
X121926Y155479D01*
X122526Y155879D01*
X122628Y156033D01*
X144749D01*
X144874Y155888D01*
X145066Y155533D01*
X145023Y155317D01*
Y153935D01*
X145065Y153727D01*
X144864Y153362D01*
X144744Y153227D01*
X143822D01*
X143719Y153381D01*
X143120Y153781D01*
X142413Y153921D01*
X141707Y153781D01*
X141108Y153381D01*
X141005Y153227D01*
X139279D01*
X138839Y153139D01*
X138465Y152889D01*
X137802Y152227D01*
X136417D01*
X135979Y152140D01*
X135608Y151892D01*
X135509Y151743D01*
X122995D01*
X122966Y151888D01*
X122565Y152487D01*
X121967Y152887D01*
X121260Y153028D01*
X120553Y152887D01*
X119954Y152487D01*
X119554Y151888D01*
X119413Y151181D01*
X119554Y150475D01*
X119954Y149875D01*
X120553Y149475D01*
X121260Y149335D01*
X121816Y149445D01*
X121850Y149439D01*
X135509D01*
X135608Y149290D01*
X135979Y149041D01*
X136417Y148954D01*
X139173D01*
X139611Y149041D01*
X139982Y149290D01*
X140230Y149661D01*
X140317Y150098D01*
Y150923D01*
X141005D01*
X141108Y150769D01*
X141707Y150369D01*
X142413Y150228D01*
X143120Y150369D01*
X143719Y150769D01*
X143822Y150923D01*
X145175D01*
X145270Y150781D01*
X145542Y150599D01*
X145864Y150535D01*
X150986D01*
X151308Y150599D01*
X151581Y150781D01*
X151763Y151054D01*
X151827Y151376D01*
Y152758D01*
X151763Y153080D01*
X151585Y153347D01*
X151763Y153613D01*
X151827Y153935D01*
Y155317D01*
X151763Y155639D01*
X151585Y155905D01*
X151763Y156172D01*
X151827Y156494D01*
Y157876D01*
X151763Y158198D01*
X151585Y158465D01*
X151763Y158731D01*
X151827Y159053D01*
Y160435D01*
X151763Y160757D01*
X151585Y161024D01*
X151763Y161290D01*
X151827Y161612D01*
Y162994D01*
X151784Y163210D01*
X151977Y163565D01*
X152101Y163710D01*
X153361D01*
X157387Y159684D01*
Y134224D01*
X157234Y134121D01*
X156834Y133522D01*
X156693Y132816D01*
X156834Y132109D01*
X157234Y131510D01*
X157833Y131110D01*
X158539Y130969D01*
X159246Y131110D01*
X159845Y131510D01*
X160245Y132109D01*
X160386Y132816D01*
X160245Y133522D01*
X159845Y134121D01*
X159692Y134224D01*
Y160161D01*
X159604Y160602D01*
X159354Y160976D01*
X154653Y165677D01*
X154279Y165927D01*
X153839Y166014D01*
X152101D01*
X151977Y166160D01*
X151784Y166514D01*
X151827Y166730D01*
Y168112D01*
X151763Y168434D01*
X151585Y168701D01*
X151763Y168968D01*
X151827Y169289D01*
Y170671D01*
X151763Y170993D01*
X151581Y171266D01*
X151308Y171448D01*
X150986Y171512D01*
X146652D01*
X146484Y171681D01*
X146110Y171931D01*
X145669Y172018D01*
X132904D01*
X132802Y172172D01*
X132203Y172572D01*
X131496Y172713D01*
X130789Y172572D01*
X130190Y172172D01*
X129790Y171573D01*
X129650Y170866D01*
X129790Y170159D01*
X130190Y169561D01*
X130789Y169160D01*
X131496Y169020D01*
X132203Y169160D01*
X132802Y169561D01*
X132904Y169714D01*
X145023D01*
Y169289D01*
X145087Y168968D01*
X144815Y168475D01*
X141566D01*
X141463Y168629D01*
X140864Y169029D01*
X140157Y169169D01*
X139451Y169029D01*
X138852Y168629D01*
X138452Y168029D01*
X138311Y167323D01*
X138452Y166616D01*
X138852Y166017D01*
X139451Y165617D01*
X140157Y165476D01*
X140864Y165617D01*
X141463Y166017D01*
X141566Y166171D01*
X144684D01*
X144769Y166108D01*
X145047Y165671D01*
X145023Y165553D01*
Y164171D01*
X145066Y163955D01*
X144874Y163601D01*
X144749Y163455D01*
X131875D01*
X125826Y169504D01*
X125862Y169685D01*
X125722Y170392D01*
X125321Y170991D01*
X124722Y171391D01*
X124016Y171531D01*
X123309Y171391D01*
X122710Y170991D01*
X122310Y170392D01*
X122169Y169685D01*
X122310Y168978D01*
X122710Y168379D01*
X123309Y167979D01*
X124016Y167839D01*
X124197Y167875D01*
X130583Y161488D01*
X130721Y161396D01*
X130570Y160896D01*
X127347D01*
X119656Y168587D01*
Y176544D01*
X119810Y176647D01*
X120210Y177246D01*
X120350Y177953D01*
X120210Y178659D01*
X119810Y179258D01*
X119211Y179659D01*
X118504Y179799D01*
D02*
G37*
G36*
X298622Y135760D02*
X297651Y135633D01*
X296746Y135258D01*
X295969Y134661D01*
X295372Y133884D01*
X294997Y132979D01*
X294869Y132008D01*
X294997Y131037D01*
X295372Y130132D01*
X295969Y129354D01*
X296746Y128758D01*
X297651Y128383D01*
X298622Y128255D01*
X299593Y128383D01*
X300498Y128758D01*
X301275Y129354D01*
X301872Y130132D01*
X302247Y131037D01*
X302375Y132008D01*
X302247Y132979D01*
X301872Y133884D01*
X301275Y134661D01*
X300498Y135258D01*
X299593Y135633D01*
X298622Y135760D01*
D02*
G37*
G36*
X288622D02*
X287651Y135633D01*
X286746Y135258D01*
X285969Y134661D01*
X285372Y133884D01*
X284997Y132979D01*
X284870Y132008D01*
X284997Y131037D01*
X285372Y130132D01*
X285969Y129354D01*
X286746Y128758D01*
X287651Y128383D01*
X288622Y128255D01*
X289593Y128383D01*
X290498Y128758D01*
X291276Y129354D01*
X291872Y130132D01*
X292247Y131037D01*
X292375Y132008D01*
X292247Y132979D01*
X291872Y133884D01*
X291276Y134661D01*
X290498Y135258D01*
X289593Y135633D01*
X288622Y135760D01*
D02*
G37*
G36*
X74803Y141078D02*
X74097Y140938D01*
X73497Y140537D01*
X73097Y139938D01*
X72957Y139232D01*
X73097Y138525D01*
X73157Y138435D01*
Y135433D01*
X73283Y134803D01*
X73639Y134269D01*
X82131Y125777D01*
X82152Y125671D01*
X82553Y125072D01*
X83152Y124672D01*
X83858Y124531D01*
X84565Y124672D01*
X85164Y125072D01*
X85564Y125671D01*
X85705Y126378D01*
X85564Y127085D01*
X85164Y127684D01*
X84565Y128084D01*
X84459Y128105D01*
X76449Y136115D01*
Y138435D01*
X76509Y138525D01*
X76650Y139232D01*
X76509Y139938D01*
X76109Y140537D01*
X75510Y140938D01*
X74803Y141078D01*
D02*
G37*
G36*
X298622Y125760D02*
X297651Y125633D01*
X296746Y125258D01*
X295969Y124661D01*
X295372Y123884D01*
X294997Y122979D01*
X294869Y122008D01*
X294997Y121037D01*
X295372Y120132D01*
X295969Y119354D01*
X296746Y118758D01*
X297651Y118383D01*
X298622Y118255D01*
X299593Y118383D01*
X300498Y118758D01*
X301275Y119354D01*
X301872Y120132D01*
X302247Y121037D01*
X302375Y122008D01*
X302247Y122979D01*
X301872Y123884D01*
X301275Y124661D01*
X300498Y125258D01*
X299593Y125633D01*
X298622Y125760D01*
D02*
G37*
G36*
X288622D02*
X287651Y125633D01*
X286746Y125258D01*
X285969Y124661D01*
X285372Y123884D01*
X284997Y122979D01*
X284870Y122008D01*
X284997Y121037D01*
X285372Y120132D01*
X285969Y119354D01*
X286746Y118758D01*
X287651Y118383D01*
X288622Y118255D01*
X289593Y118383D01*
X290498Y118758D01*
X291276Y119354D01*
X291872Y120132D01*
X292247Y121037D01*
X292375Y122008D01*
X292247Y122979D01*
X291872Y123884D01*
X291276Y124661D01*
X290498Y125258D01*
X289593Y125633D01*
X288622Y125760D01*
D02*
G37*
G36*
X132193Y118646D02*
Y116248D01*
X133706D01*
Y117126D01*
X133591Y117708D01*
X133261Y118202D01*
X132767Y118532D01*
X132193Y118646D01*
D02*
G37*
G36*
X131193Y118646D02*
X130619Y118532D01*
X130125Y118202D01*
X129795Y117708D01*
X129679Y117126D01*
Y116248D01*
X131193D01*
Y118646D01*
D02*
G37*
G36*
X133706Y115248D02*
X132193D01*
Y112850D01*
X132767Y112964D01*
X133261Y113294D01*
X133591Y113788D01*
X133706Y114370D01*
Y115248D01*
D02*
G37*
G36*
X131193D02*
X129679D01*
Y114370D01*
X129795Y113788D01*
X130125Y113294D01*
X130619Y112964D01*
X131193Y112850D01*
Y115248D01*
D02*
G37*
G36*
X298622Y115760D02*
X297651Y115633D01*
X296746Y115258D01*
X295969Y114661D01*
X295372Y113884D01*
X294997Y112979D01*
X294869Y112008D01*
X294997Y111037D01*
X295372Y110132D01*
X295969Y109354D01*
X296746Y108758D01*
X297651Y108383D01*
X298622Y108255D01*
X299593Y108383D01*
X300498Y108758D01*
X301275Y109354D01*
X301872Y110132D01*
X302247Y111037D01*
X302375Y112008D01*
X302247Y112979D01*
X301872Y113884D01*
X301275Y114661D01*
X300498Y115258D01*
X299593Y115633D01*
X298622Y115760D01*
D02*
G37*
G36*
X175697Y106849D02*
Y105224D01*
X177321D01*
X177251Y105575D01*
X176769Y106297D01*
X176048Y106779D01*
X175697Y106849D01*
D02*
G37*
G36*
X174697D02*
X174346Y106779D01*
X173624Y106297D01*
X173142Y105575D01*
X173073Y105224D01*
X174697D01*
Y106849D01*
D02*
G37*
G36*
X14500Y111661D02*
X13552Y111537D01*
X12669Y111171D01*
X11911Y110589D01*
X11329Y109831D01*
X10964Y108948D01*
X10839Y108000D01*
X10964Y107052D01*
X11329Y106169D01*
X11911Y105411D01*
X12669Y104829D01*
X13552Y104464D01*
X14500Y104339D01*
X15448Y104464D01*
X16331Y104829D01*
X17089Y105411D01*
X17671Y106169D01*
X18036Y107052D01*
X18161Y108000D01*
X18036Y108948D01*
X17671Y109831D01*
X17089Y110589D01*
X16331Y111171D01*
X15448Y111537D01*
X14500Y111661D01*
D02*
G37*
G36*
X177321Y104224D02*
X173068D01*
X172900Y104057D01*
X172650Y103683D01*
X172563Y103242D01*
Y102205D01*
X172154D01*
Y100795D01*
X175433D01*
Y100986D01*
X175340Y101452D01*
X175076Y101848D01*
X175091Y102414D01*
X175197Y102501D01*
X176048Y102670D01*
X176769Y103152D01*
X177251Y103873D01*
X177321Y104224D01*
D02*
G37*
G36*
X171154Y102205D02*
X169093D01*
X168626Y102112D01*
X168231Y101848D01*
X167967Y101452D01*
X167874Y100986D01*
Y100795D01*
X171154D01*
Y102205D01*
D02*
G37*
G36*
X298622Y105760D02*
X297651Y105633D01*
X296746Y105258D01*
X295969Y104661D01*
X295372Y103884D01*
X294997Y102979D01*
X294869Y102008D01*
X294997Y101037D01*
X295372Y100132D01*
X295969Y99354D01*
X296746Y98758D01*
X297651Y98383D01*
X298622Y98255D01*
X299593Y98383D01*
X300498Y98758D01*
X301275Y99354D01*
X301872Y100132D01*
X302247Y101037D01*
X302375Y102008D01*
X302247Y102979D01*
X301872Y103884D01*
X301275Y104661D01*
X300498Y105258D01*
X299593Y105633D01*
X298622Y105760D01*
D02*
G37*
G36*
X288622D02*
X287651Y105633D01*
X286746Y105258D01*
X285969Y104661D01*
X285372Y103884D01*
X284997Y102979D01*
X284870Y102008D01*
X284997Y101037D01*
X285372Y100132D01*
X285969Y99354D01*
X286746Y98758D01*
X287651Y98383D01*
X288622Y98255D01*
X289593Y98383D01*
X290498Y98758D01*
X291276Y99354D01*
X291872Y100132D01*
X292247Y101037D01*
X292375Y102008D01*
X292247Y102979D01*
X291872Y103884D01*
X291276Y104661D01*
X290498Y105258D01*
X289593Y105633D01*
X288622Y105760D01*
D02*
G37*
G36*
X24500Y101661D02*
X23552Y101537D01*
X22669Y101171D01*
X21911Y100589D01*
X21329Y99831D01*
X20964Y98948D01*
X20839Y98000D01*
X20964Y97052D01*
X21329Y96169D01*
X21911Y95411D01*
X22669Y94829D01*
X23552Y94463D01*
X24500Y94339D01*
X25448Y94463D01*
X26331Y94829D01*
X27089Y95411D01*
X27671Y96169D01*
X28036Y97052D01*
X28161Y98000D01*
X28036Y98948D01*
X27671Y99831D01*
X27089Y100589D01*
X26331Y101171D01*
X25448Y101537D01*
X24500Y101661D01*
D02*
G37*
G36*
X14500D02*
X13552Y101537D01*
X12669Y101171D01*
X11911Y100589D01*
X11329Y99831D01*
X10964Y98948D01*
X10839Y98000D01*
X10964Y97052D01*
X11329Y96169D01*
X11911Y95411D01*
X12669Y94829D01*
X13552Y94463D01*
X14500Y94339D01*
X15448Y94463D01*
X16331Y94829D01*
X17089Y95411D01*
X17671Y96169D01*
X18036Y97052D01*
X18161Y98000D01*
X18036Y98948D01*
X17671Y99831D01*
X17089Y100589D01*
X16331Y101171D01*
X15448Y101537D01*
X14500Y101661D01*
D02*
G37*
G36*
X78622Y102402D02*
X69882D01*
Y93661D01*
X78622D01*
Y102402D01*
D02*
G37*
G36*
X95118Y174252D02*
X71024D01*
Y148583D01*
X92836D01*
Y102175D01*
X92048Y101849D01*
X91135Y101148D01*
X90435Y100235D01*
X89994Y99172D01*
X89844Y98032D01*
X89994Y96891D01*
X90435Y95828D01*
X91135Y94915D01*
X92048Y94214D01*
X93111Y93774D01*
X94252Y93624D01*
X95393Y93774D01*
X96456Y94214D01*
X97369Y94915D01*
X98069Y95828D01*
X98510Y96891D01*
X98660Y98032D01*
X98510Y99172D01*
X98069Y100235D01*
X97369Y101148D01*
X96456Y101849D01*
X95393Y102289D01*
X95140Y102322D01*
Y150500D01*
X95118Y150611D01*
Y174252D01*
D02*
G37*
G36*
X288622Y95760D02*
X287651Y95633D01*
X286746Y95258D01*
X285969Y94661D01*
X285372Y93884D01*
X284997Y92979D01*
X284870Y92008D01*
X284997Y91037D01*
X285372Y90132D01*
X285969Y89354D01*
X286746Y88758D01*
X287651Y88383D01*
X288622Y88255D01*
X289593Y88383D01*
X290498Y88758D01*
X291276Y89354D01*
X291872Y90132D01*
X292247Y91037D01*
X292375Y92008D01*
X292247Y92979D01*
X291872Y93884D01*
X291276Y94661D01*
X290498Y95258D01*
X289593Y95633D01*
X288622Y95760D01*
D02*
G37*
G36*
X24500Y91661D02*
X23552Y91536D01*
X22669Y91171D01*
X21911Y90589D01*
X21329Y89831D01*
X20964Y88948D01*
X20839Y88000D01*
X20964Y87052D01*
X21329Y86169D01*
X21911Y85411D01*
X22669Y84829D01*
X23552Y84464D01*
X24500Y84339D01*
X25448Y84464D01*
X26331Y84829D01*
X27089Y85411D01*
X27671Y86169D01*
X28036Y87052D01*
X28161Y88000D01*
X28036Y88948D01*
X27671Y89831D01*
X27089Y90589D01*
X26331Y91171D01*
X25448Y91536D01*
X24500Y91661D01*
D02*
G37*
G36*
X14500D02*
X13552Y91536D01*
X12669Y91171D01*
X11911Y90589D01*
X11329Y89831D01*
X10964Y88948D01*
X10839Y88000D01*
X10964Y87052D01*
X11329Y86169D01*
X11911Y85411D01*
X12669Y84829D01*
X13552Y84464D01*
X14500Y84339D01*
X15448Y84464D01*
X16331Y84829D01*
X17089Y85411D01*
X17671Y86169D01*
X18036Y87052D01*
X18161Y88000D01*
X18036Y88948D01*
X17671Y89831D01*
X17089Y90589D01*
X16331Y91171D01*
X15448Y91536D01*
X14500Y91661D01*
D02*
G37*
G36*
X187146Y81339D02*
X182146D01*
Y80876D01*
X179724D01*
X179690Y80870D01*
X179134Y80980D01*
X178427Y80840D01*
X177828Y80440D01*
X177428Y79840D01*
X177287Y79134D01*
X177428Y78427D01*
X177828Y77828D01*
X178427Y77428D01*
X179134Y77287D01*
X179841Y77428D01*
X180439Y77828D01*
X180840Y78427D01*
X180869Y78572D01*
X182146D01*
Y78110D01*
X187146D01*
Y81339D01*
D02*
G37*
G36*
X150894Y78896D02*
Y77272D01*
X152518D01*
X152448Y77623D01*
X151966Y78344D01*
X151245Y78826D01*
X150894Y78896D01*
D02*
G37*
G36*
X149894D02*
X149543Y78826D01*
X148821Y78344D01*
X148339Y77623D01*
X148269Y77272D01*
X149894D01*
Y78896D01*
D02*
G37*
G36*
X139173Y77801D02*
X138295D01*
Y76287D01*
X140693D01*
X140579Y76862D01*
X140249Y77355D01*
X139755Y77685D01*
X139173Y77801D01*
D02*
G37*
G36*
X137295D02*
X136417D01*
X135835Y77685D01*
X135342Y77355D01*
X135012Y76862D01*
X134897Y76287D01*
X137295D01*
Y77801D01*
D02*
G37*
G36*
X152518Y76272D02*
X150894D01*
Y74647D01*
X151245Y74717D01*
X151966Y75199D01*
X152448Y75921D01*
X152518Y76272D01*
D02*
G37*
G36*
X149894D02*
X148269D01*
X148339Y75921D01*
X148821Y75199D01*
X149543Y74717D01*
X149894Y74647D01*
Y76272D01*
D02*
G37*
G36*
X24500Y81661D02*
X23552Y81537D01*
X22669Y81171D01*
X21911Y80589D01*
X21329Y79831D01*
X20964Y78948D01*
X20839Y78000D01*
X20964Y77052D01*
X21329Y76169D01*
X21911Y75411D01*
X22669Y74829D01*
X23552Y74463D01*
X24500Y74339D01*
X25448Y74463D01*
X26331Y74829D01*
X27089Y75411D01*
X27671Y76169D01*
X28036Y77052D01*
X28161Y78000D01*
X28036Y78948D01*
X27671Y79831D01*
X27089Y80589D01*
X26331Y81171D01*
X25448Y81537D01*
X24500Y81661D01*
D02*
G37*
G36*
X140693Y75287D02*
X138295D01*
Y73774D01*
X139173D01*
X139755Y73890D01*
X140249Y74220D01*
X140579Y74713D01*
X140693Y75287D01*
D02*
G37*
G36*
X137295D02*
X134897D01*
X135012Y74713D01*
X135342Y74220D01*
X135835Y73890D01*
X136417Y73774D01*
X137295D01*
Y75287D01*
D02*
G37*
G36*
X298622Y75760D02*
X297651Y75633D01*
X296746Y75258D01*
X295969Y74661D01*
X295372Y73884D01*
X294997Y72979D01*
X294869Y72008D01*
X294997Y71037D01*
X295372Y70132D01*
X295969Y69354D01*
X296746Y68758D01*
X297651Y68383D01*
X298622Y68255D01*
X299593Y68383D01*
X300498Y68758D01*
X301275Y69354D01*
X301872Y70132D01*
X302247Y71037D01*
X302375Y72008D01*
X302247Y72979D01*
X301872Y73884D01*
X301275Y74661D01*
X300498Y75258D01*
X299593Y75633D01*
X298622Y75760D01*
D02*
G37*
G36*
X24500Y71661D02*
X23552Y71536D01*
X22669Y71171D01*
X21911Y70589D01*
X21329Y69831D01*
X20964Y68948D01*
X20839Y68000D01*
X20964Y67052D01*
X21329Y66169D01*
X21911Y65411D01*
X22669Y64829D01*
X23552Y64464D01*
X24500Y64339D01*
X25448Y64464D01*
X26331Y64829D01*
X27089Y65411D01*
X27671Y66169D01*
X28036Y67052D01*
X28161Y68000D01*
X28036Y68948D01*
X27671Y69831D01*
X27089Y70589D01*
X26331Y71171D01*
X25448Y71536D01*
X24500Y71661D01*
D02*
G37*
G36*
X14500D02*
X13552Y71536D01*
X12669Y71171D01*
X11911Y70589D01*
X11329Y69831D01*
X10964Y68948D01*
X10839Y68000D01*
X10964Y67052D01*
X11329Y66169D01*
X11911Y65411D01*
X12669Y64829D01*
X13552Y64464D01*
X14500Y64339D01*
X15448Y64464D01*
X16331Y64829D01*
X17089Y65411D01*
X17671Y66169D01*
X18036Y67052D01*
X18161Y68000D01*
X18036Y68948D01*
X17671Y69831D01*
X17089Y70589D01*
X16331Y71171D01*
X15448Y71536D01*
X14500Y71661D01*
D02*
G37*
G36*
X244882Y116413D02*
X244175Y116273D01*
X243576Y115873D01*
X243176Y115274D01*
X243035Y114567D01*
X243176Y113860D01*
X243576Y113261D01*
X243730Y113159D01*
Y68504D01*
X243817Y68063D01*
X244067Y67689D01*
X250668Y61089D01*
X251042Y60839D01*
X251483Y60751D01*
X260495D01*
X260598Y60598D01*
X261197Y60197D01*
X261903Y60057D01*
X262610Y60197D01*
X263209Y60598D01*
X263609Y61197D01*
X263750Y61903D01*
X263609Y62610D01*
X263209Y63209D01*
X262610Y63609D01*
X261903Y63750D01*
X261197Y63609D01*
X260598Y63209D01*
X260495Y63055D01*
X251960D01*
X246034Y68981D01*
Y113159D01*
X246188Y113261D01*
X246588Y113860D01*
X246728Y114567D01*
X246588Y115274D01*
X246188Y115873D01*
X245588Y116273D01*
X244882Y116413D01*
D02*
G37*
G36*
X298622Y65760D02*
X297651Y65633D01*
X296746Y65258D01*
X295969Y64661D01*
X295372Y63884D01*
X294997Y62979D01*
X294869Y62008D01*
X294997Y61037D01*
X295372Y60132D01*
X295969Y59354D01*
X296746Y58758D01*
X297651Y58383D01*
X298622Y58255D01*
X299593Y58383D01*
X300498Y58758D01*
X301275Y59354D01*
X301872Y60132D01*
X302247Y61037D01*
X302375Y62008D01*
X302247Y62979D01*
X301872Y63884D01*
X301275Y64661D01*
X300498Y65258D01*
X299593Y65633D01*
X298622Y65760D01*
D02*
G37*
G36*
X288622D02*
X287651Y65633D01*
X286746Y65258D01*
X285969Y64661D01*
X285372Y63884D01*
X284997Y62979D01*
X284870Y62008D01*
X284997Y61037D01*
X285372Y60132D01*
X285969Y59354D01*
X286746Y58758D01*
X287651Y58383D01*
X288622Y58255D01*
X289593Y58383D01*
X290498Y58758D01*
X291276Y59354D01*
X291872Y60132D01*
X292247Y61037D01*
X292375Y62008D01*
X292247Y62979D01*
X291872Y63884D01*
X291276Y64661D01*
X290498Y65258D01*
X289593Y65633D01*
X288622Y65760D01*
D02*
G37*
G36*
X164724Y56161D02*
X157165D01*
Y48602D01*
X164724D01*
Y56161D01*
D02*
G37*
G36*
X85433Y66807D02*
X84726Y66667D01*
X84127Y66266D01*
X83727Y65667D01*
X83587Y64961D01*
X83727Y64254D01*
X84127Y63655D01*
X84726Y63255D01*
X85433Y63114D01*
X86140Y63255D01*
X86739Y63655D01*
X86841Y63809D01*
X145192D01*
X149793Y59208D01*
Y55996D01*
X149039Y55683D01*
X148249Y55077D01*
X147643Y54288D01*
X147263Y53369D01*
X147133Y52382D01*
X147263Y51395D01*
X147643Y50476D01*
X148249Y49686D01*
X149039Y49081D01*
X149958Y48700D01*
X150945Y48570D01*
X151932Y48700D01*
X152851Y49081D01*
X153640Y49686D01*
X154246Y50476D01*
X154627Y51395D01*
X154757Y52382D01*
X154627Y53369D01*
X154246Y54288D01*
X153640Y55077D01*
X152851Y55683D01*
X152097Y55996D01*
Y59685D01*
X152009Y60126D01*
X151760Y60500D01*
X146484Y65775D01*
X146110Y66025D01*
X145669Y66113D01*
X86841D01*
X86739Y66266D01*
X86140Y66667D01*
X85433Y66807D01*
D02*
G37*
G36*
X138507Y61133D02*
X57087D01*
X56646Y61045D01*
X56272Y60795D01*
X46628Y51152D01*
X41034D01*
X40931Y51306D01*
X40332Y51706D01*
X39625Y51846D01*
X38919Y51706D01*
X38320Y51306D01*
X37920Y50707D01*
X37779Y50000D01*
X37920Y49293D01*
X38320Y48694D01*
X38919Y48294D01*
X39625Y48153D01*
X40332Y48294D01*
X40931Y48694D01*
X41034Y48848D01*
X47106D01*
X47547Y48936D01*
X47920Y49185D01*
X57564Y58829D01*
X138030D01*
X139793Y57066D01*
Y55996D01*
X139039Y55683D01*
X138249Y55077D01*
X137644Y54288D01*
X137263Y53369D01*
X137133Y52382D01*
X137263Y51395D01*
X137644Y50476D01*
X138249Y49686D01*
X139039Y49081D01*
X139958Y48700D01*
X140945Y48570D01*
X141931Y48700D01*
X142851Y49081D01*
X143640Y49686D01*
X144246Y50476D01*
X144627Y51395D01*
X144757Y52382D01*
X144627Y53369D01*
X144246Y54288D01*
X143640Y55077D01*
X142851Y55683D01*
X142097Y55996D01*
Y57543D01*
X142009Y57984D01*
X141760Y58358D01*
X139322Y60795D01*
X138948Y61045D01*
X138507Y61133D01*
D02*
G37*
G36*
X130945Y56194D02*
X129958Y56064D01*
X129039Y55683D01*
X128249Y55077D01*
X127644Y54288D01*
X127263Y53369D01*
X127133Y52382D01*
X127263Y51395D01*
X127644Y50476D01*
X128249Y49686D01*
X129039Y49081D01*
X129958Y48700D01*
X130945Y48570D01*
X131931Y48700D01*
X132851Y49081D01*
X133641Y49686D01*
X134246Y50476D01*
X134627Y51395D01*
X134757Y52382D01*
X134627Y53369D01*
X134246Y54288D01*
X133641Y55077D01*
X132851Y55683D01*
X131931Y56064D01*
X130945Y56194D01*
D02*
G37*
G36*
X120945D02*
X119958Y56064D01*
X119039Y55683D01*
X118249Y55077D01*
X117643Y54288D01*
X117263Y53369D01*
X117133Y52382D01*
X117263Y51395D01*
X117643Y50476D01*
X118249Y49686D01*
X119039Y49081D01*
X119958Y48700D01*
X120945Y48570D01*
X121932Y48700D01*
X122851Y49081D01*
X123641Y49686D01*
X124246Y50476D01*
X124627Y51395D01*
X124757Y52382D01*
X124627Y53369D01*
X124246Y54288D01*
X123641Y55077D01*
X122851Y55683D01*
X121932Y56064D01*
X120945Y56194D01*
D02*
G37*
G36*
X298622Y55760D02*
X297651Y55633D01*
X296746Y55258D01*
X295969Y54661D01*
X295372Y53884D01*
X294997Y52979D01*
X294869Y52008D01*
X294997Y51037D01*
X295372Y50132D01*
X295969Y49354D01*
X296746Y48758D01*
X297651Y48383D01*
X298622Y48255D01*
X299593Y48383D01*
X300498Y48758D01*
X301275Y49354D01*
X301872Y50132D01*
X302247Y51037D01*
X302375Y52008D01*
X302247Y52979D01*
X301872Y53884D01*
X301275Y54661D01*
X300498Y55258D01*
X299593Y55633D01*
X298622Y55760D01*
D02*
G37*
G36*
X288622D02*
X287651Y55633D01*
X286746Y55258D01*
X285969Y54661D01*
X285372Y53884D01*
X284997Y52979D01*
X284870Y52008D01*
X284997Y51037D01*
X285372Y50132D01*
X285969Y49354D01*
X286746Y48758D01*
X287651Y48383D01*
X288622Y48255D01*
X289593Y48383D01*
X290498Y48758D01*
X291276Y49354D01*
X291872Y50132D01*
X292247Y51037D01*
X292375Y52008D01*
X292247Y52979D01*
X291872Y53884D01*
X291276Y54661D01*
X290498Y55258D01*
X289593Y55633D01*
X288622Y55760D01*
D02*
G37*
G36*
X161445Y46501D02*
Y42882D01*
X165065D01*
X164988Y43465D01*
X164570Y44475D01*
X163904Y45341D01*
X163038Y46007D01*
X162028Y46425D01*
X161445Y46501D01*
D02*
G37*
G36*
X160445D02*
X159862Y46425D01*
X158852Y46007D01*
X157985Y45341D01*
X157320Y44475D01*
X156902Y43465D01*
X156825Y42882D01*
X160445D01*
Y46501D01*
D02*
G37*
G36*
X292713Y46098D02*
X289122D01*
Y42508D01*
X292713D01*
Y46098D01*
D02*
G37*
G36*
X288122D02*
X284531D01*
Y42508D01*
X288122D01*
Y46098D01*
D02*
G37*
G36*
X130945Y46194D02*
X129958Y46064D01*
X129039Y45683D01*
X128249Y45077D01*
X127644Y44288D01*
X127263Y43369D01*
X127133Y42382D01*
X127263Y41395D01*
X127644Y40476D01*
X128249Y39686D01*
X129039Y39081D01*
X129958Y38700D01*
X130945Y38570D01*
X131931Y38700D01*
X132851Y39081D01*
X133641Y39686D01*
X134246Y40476D01*
X134627Y41395D01*
X134757Y42382D01*
X134627Y43369D01*
X134246Y44288D01*
X133641Y45077D01*
X132851Y45683D01*
X131931Y46064D01*
X130945Y46194D01*
D02*
G37*
G36*
X120945D02*
X119958Y46064D01*
X119039Y45683D01*
X118249Y45077D01*
X117643Y44288D01*
X117263Y43369D01*
X117133Y42382D01*
X117263Y41395D01*
X117643Y40476D01*
X118249Y39686D01*
X119039Y39081D01*
X119958Y38700D01*
X120945Y38570D01*
X121932Y38700D01*
X122851Y39081D01*
X123641Y39686D01*
X124246Y40476D01*
X124627Y41395D01*
X124757Y42382D01*
X124627Y43369D01*
X124246Y44288D01*
X123641Y45077D01*
X122851Y45683D01*
X121932Y46064D01*
X120945Y46194D01*
D02*
G37*
G36*
X165065Y41882D02*
X161445D01*
Y38262D01*
X162028Y38339D01*
X163038Y38757D01*
X163904Y39422D01*
X164570Y40289D01*
X164988Y41299D01*
X165065Y41882D01*
D02*
G37*
G36*
X160445D02*
X156825D01*
X156902Y41299D01*
X157320Y40289D01*
X157985Y39422D01*
X158852Y38757D01*
X159862Y38339D01*
X160445Y38262D01*
Y41882D01*
D02*
G37*
G36*
X298622Y45760D02*
X297651Y45633D01*
X296746Y45258D01*
X295969Y44661D01*
X295372Y43884D01*
X294997Y42979D01*
X294869Y42008D01*
X294997Y41037D01*
X295372Y40132D01*
X295969Y39354D01*
X296746Y38758D01*
X297651Y38383D01*
X298622Y38255D01*
X299593Y38383D01*
X300498Y38758D01*
X301275Y39354D01*
X301872Y40132D01*
X302247Y41037D01*
X302375Y42008D01*
X302247Y42979D01*
X301872Y43884D01*
X301275Y44661D01*
X300498Y45258D01*
X299593Y45633D01*
X298622Y45760D01*
D02*
G37*
G36*
X292713Y41508D02*
X289122D01*
Y37917D01*
X292713D01*
Y41508D01*
D02*
G37*
G36*
X288122D02*
X284531D01*
Y37917D01*
X288122D01*
Y41508D01*
D02*
G37*
G36*
X94488Y55876D02*
X62598D01*
X62158Y55789D01*
X61784Y55539D01*
X51885Y45640D01*
X42426D01*
X42323Y45794D01*
X41724Y46194D01*
X41018Y46335D01*
X40311Y46194D01*
X39712Y45794D01*
X39312Y45195D01*
X39171Y44488D01*
X39312Y43782D01*
X39712Y43183D01*
X40311Y42782D01*
X41018Y42642D01*
X41724Y42782D01*
X42323Y43183D01*
X42426Y43336D01*
X52362D01*
X52803Y43424D01*
X53177Y43674D01*
X63076Y53572D01*
X94011D01*
X112178Y35406D01*
X112551Y35156D01*
X112992Y35068D01*
X138976D01*
X139417Y35156D01*
X139791Y35406D01*
X141760Y37374D01*
X142009Y37748D01*
X142097Y38189D01*
Y38768D01*
X142851Y39081D01*
X143640Y39686D01*
X144246Y40476D01*
X144627Y41395D01*
X144757Y42382D01*
X144627Y43369D01*
X144246Y44288D01*
X143640Y45077D01*
X142851Y45683D01*
X141931Y46064D01*
X140945Y46194D01*
X139958Y46064D01*
X139039Y45683D01*
X138249Y45077D01*
X137644Y44288D01*
X137263Y43369D01*
X137133Y42382D01*
X137263Y41395D01*
X137644Y40476D01*
X138249Y39686D01*
X139039Y39081D01*
X139365Y38945D01*
X139482Y38356D01*
X138499Y37372D01*
X113469D01*
X95303Y55539D01*
X94929Y55789D01*
X94488Y55876D01*
D02*
G37*
G36*
X14500Y41661D02*
X13552Y41537D01*
X12669Y41171D01*
X11911Y40589D01*
X11329Y39831D01*
X10964Y38948D01*
X10839Y38000D01*
X10964Y37052D01*
X11329Y36169D01*
X11911Y35411D01*
X12669Y34829D01*
X13552Y34464D01*
X14500Y34339D01*
X15448Y34464D01*
X16331Y34829D01*
X17089Y35411D01*
X17671Y36169D01*
X18036Y37052D01*
X18161Y38000D01*
X18036Y38948D01*
X17671Y39831D01*
X17089Y40589D01*
X16331Y41171D01*
X15448Y41537D01*
X14500Y41661D01*
D02*
G37*
G36*
X69291Y50665D02*
X68585Y50525D01*
X67986Y50125D01*
X67585Y49525D01*
X67445Y48819D01*
X67585Y48112D01*
X67986Y47513D01*
X68585Y47113D01*
X69291Y46972D01*
X69998Y47113D01*
X70597Y47513D01*
X70700Y47667D01*
X91255D01*
X108240Y30681D01*
X108614Y30432D01*
X109055Y30344D01*
X145477D01*
X145918Y30432D01*
X146292Y30681D01*
X151760Y36149D01*
X152009Y36523D01*
X152097Y36964D01*
Y38768D01*
X152851Y39081D01*
X153640Y39686D01*
X154246Y40476D01*
X154627Y41395D01*
X154757Y42382D01*
X154627Y43369D01*
X154246Y44288D01*
X153640Y45077D01*
X152851Y45683D01*
X151932Y46064D01*
X150945Y46194D01*
X149958Y46064D01*
X149039Y45683D01*
X148249Y45077D01*
X147643Y44288D01*
X147263Y43369D01*
X147133Y42382D01*
X147263Y41395D01*
X147643Y40476D01*
X148249Y39686D01*
X149039Y39081D01*
X149793Y38768D01*
Y37441D01*
X145000Y32648D01*
X109532D01*
X92547Y49633D01*
X92173Y49883D01*
X91732Y49971D01*
X70700D01*
X70597Y50125D01*
X69998Y50525D01*
X69291Y50665D01*
D02*
G37*
G36*
X215394Y33110D02*
X209016D01*
Y26732D01*
X215394D01*
Y33110D01*
D02*
G37*
G36*
X251575Y33138D02*
X250742Y33028D01*
X249967Y32707D01*
X249300Y32196D01*
X248789Y31530D01*
X248468Y30754D01*
X248358Y29921D01*
X248468Y29089D01*
X248789Y28313D01*
X249300Y27647D01*
X249967Y27136D01*
X250742Y26814D01*
X251575Y26705D01*
X252407Y26814D01*
X253183Y27136D01*
X253849Y27647D01*
X254360Y28313D01*
X254682Y29089D01*
X254791Y29921D01*
X254682Y30754D01*
X254360Y31530D01*
X253849Y32196D01*
X253183Y32707D01*
X252407Y33028D01*
X251575Y33138D01*
D02*
G37*
G36*
X243701D02*
X242868Y33028D01*
X242092Y32707D01*
X241426Y32196D01*
X240915Y31530D01*
X240594Y30754D01*
X240484Y29921D01*
X240594Y29089D01*
X240915Y28313D01*
X241426Y27647D01*
X242092Y27136D01*
X242868Y26814D01*
X243701Y26705D01*
X244533Y26814D01*
X245309Y27136D01*
X245975Y27647D01*
X246486Y28313D01*
X246808Y29089D01*
X246917Y29921D01*
X246808Y30754D01*
X246486Y31530D01*
X245975Y32196D01*
X245309Y32707D01*
X244533Y33028D01*
X243701Y33138D01*
D02*
G37*
G36*
X235827Y130193D02*
X235120Y130052D01*
X234521Y129652D01*
X234121Y129053D01*
X233980Y128347D01*
X234121Y127640D01*
X234521Y127041D01*
X234675Y126938D01*
Y32896D01*
X234219Y32707D01*
X233552Y32196D01*
X233041Y31530D01*
X232720Y30754D01*
X232610Y29921D01*
X232720Y29089D01*
X233041Y28313D01*
X233552Y27647D01*
X234219Y27136D01*
X234994Y26814D01*
X235827Y26705D01*
X236659Y26814D01*
X237435Y27136D01*
X238101Y27647D01*
X238612Y28313D01*
X238934Y29089D01*
X239043Y29921D01*
X238934Y30754D01*
X238612Y31530D01*
X238101Y32196D01*
X237435Y32707D01*
X236979Y32896D01*
Y126938D01*
X237132Y127041D01*
X237533Y127640D01*
X237673Y128347D01*
X237533Y129053D01*
X237132Y129652D01*
X236533Y130052D01*
X235827Y130193D01*
D02*
G37*
G36*
X227953Y117988D02*
X227246Y117848D01*
X226647Y117447D01*
X226247Y116848D01*
X226106Y116142D01*
X226247Y115435D01*
X226647Y114836D01*
X226801Y114733D01*
Y32896D01*
X226344Y32707D01*
X225678Y32196D01*
X225167Y31530D01*
X224846Y30754D01*
X224736Y29921D01*
X224846Y29089D01*
X225167Y28313D01*
X225678Y27647D01*
X226344Y27136D01*
X227120Y26814D01*
X227953Y26705D01*
X228785Y26814D01*
X229561Y27136D01*
X230227Y27647D01*
X230738Y28313D01*
X231060Y29089D01*
X231169Y29921D01*
X231060Y30754D01*
X230738Y31530D01*
X230227Y32196D01*
X229561Y32707D01*
X229105Y32896D01*
Y114733D01*
X229258Y114836D01*
X229659Y115435D01*
X229799Y116142D01*
X229659Y116848D01*
X229258Y117447D01*
X228659Y117848D01*
X227953Y117988D01*
D02*
G37*
G36*
X220079Y33138D02*
X219246Y33028D01*
X218471Y32707D01*
X217804Y32196D01*
X217293Y31530D01*
X216972Y30754D01*
X216862Y29921D01*
X216972Y29089D01*
X217293Y28313D01*
X217804Y27647D01*
X218471Y27136D01*
X219246Y26814D01*
X220079Y26705D01*
X220911Y26814D01*
X221687Y27136D01*
X222353Y27647D01*
X222864Y28313D01*
X223186Y29089D01*
X223295Y29921D01*
X223186Y30754D01*
X222864Y31530D01*
X222353Y32196D01*
X221687Y32707D01*
X220911Y33028D01*
X220079Y33138D01*
D02*
G37*
G36*
X58701Y27992D02*
X51535D01*
Y20827D01*
X58701D01*
Y27992D01*
D02*
G37*
G36*
X78740Y28023D02*
X77805Y27900D01*
X76933Y27539D01*
X76185Y26965D01*
X75611Y26216D01*
X75250Y25345D01*
X75127Y24409D01*
X75250Y23474D01*
X75611Y22603D01*
X76185Y21854D01*
X76933Y21280D01*
X77805Y20919D01*
X78740Y20796D01*
X79675Y20919D01*
X80547Y21280D01*
X81295Y21854D01*
X81870Y22603D01*
X82231Y23474D01*
X82354Y24409D01*
X82231Y25345D01*
X81870Y26216D01*
X81295Y26965D01*
X80547Y27539D01*
X79675Y27900D01*
X78740Y28023D01*
D02*
G37*
G36*
X70866D02*
X69931Y27900D01*
X69059Y27539D01*
X68311Y26965D01*
X67737Y26216D01*
X67376Y25345D01*
X67253Y24409D01*
X67376Y23474D01*
X67737Y22603D01*
X68311Y21854D01*
X69059Y21280D01*
X69931Y20919D01*
X70866Y20796D01*
X71801Y20919D01*
X72673Y21280D01*
X73421Y21854D01*
X73996Y22603D01*
X74357Y23474D01*
X74480Y24409D01*
X74357Y25345D01*
X73996Y26216D01*
X73421Y26965D01*
X72673Y27539D01*
X71801Y27900D01*
X70866Y28023D01*
D02*
G37*
G36*
X62992D02*
X62057Y27900D01*
X61185Y27539D01*
X60437Y26965D01*
X59863Y26216D01*
X59502Y25345D01*
X59378Y24409D01*
X59502Y23474D01*
X59863Y22603D01*
X60437Y21854D01*
X61185Y21280D01*
X62057Y20919D01*
X62992Y20796D01*
X63927Y20919D01*
X64799Y21280D01*
X65547Y21854D01*
X66122Y22603D01*
X66483Y23474D01*
X66606Y24409D01*
X66483Y25345D01*
X66122Y26216D01*
X65547Y26965D01*
X64799Y27539D01*
X63927Y27900D01*
X62992Y28023D01*
D02*
G37*
G36*
X19500Y24899D02*
X18315Y24783D01*
X17176Y24437D01*
X16126Y23876D01*
X15206Y23121D01*
X14451Y22200D01*
X13890Y21151D01*
X13544Y20011D01*
X13428Y18827D01*
X13544Y17642D01*
X13890Y16503D01*
X14451Y15453D01*
X15206Y14533D01*
X16126Y13778D01*
X17176Y13216D01*
X18315Y12871D01*
X19500Y12754D01*
X20685Y12871D01*
X21824Y13216D01*
X22874Y13778D01*
X23794Y14533D01*
X24549Y15453D01*
X25110Y16503D01*
X25456Y17642D01*
X25572Y18827D01*
X25456Y20011D01*
X25110Y21151D01*
X24549Y22200D01*
X23794Y23121D01*
X22874Y23876D01*
X21824Y24437D01*
X20685Y24783D01*
X19500Y24899D01*
D02*
G37*
%LPD*%
G36*
X44124Y110153D02*
Y88583D01*
X44211Y88142D01*
X44461Y87768D01*
X58240Y73988D01*
X58312Y73940D01*
X58207Y73410D01*
X57955Y73360D01*
X57356Y72959D01*
X57253Y72806D01*
X52446D01*
X38947Y86304D01*
Y107874D01*
X38860Y108315D01*
X38610Y108689D01*
X33492Y113807D01*
X33118Y114057D01*
X32677Y114144D01*
X25983D01*
X25884Y114644D01*
X26331Y114829D01*
X27089Y115411D01*
X27671Y116169D01*
X28036Y117052D01*
X28161Y118000D01*
X28036Y118948D01*
X27671Y119831D01*
X27089Y120589D01*
X26331Y121171D01*
X26302Y121183D01*
X26401Y121683D01*
X32594D01*
X44124Y110153D01*
D02*
G37*
D10*
X74803Y135433D02*
Y139232D01*
Y135433D02*
X83858Y126378D01*
X52362Y183858D02*
Y205906D01*
X72441Y225984D01*
X219488Y317717D02*
Y322244D01*
X220866Y323622D02*
X235433D01*
X219488Y322244D02*
X220866Y323622D01*
X40945Y238976D02*
X72047D01*
X72441Y239370D01*
Y225984D02*
Y239370D01*
X270019Y234148D02*
X270019D01*
X276029Y240158D02*
X292421D01*
X270019Y234148D02*
X276029Y240158D01*
X264417Y227315D02*
Y232778D01*
X271260Y220472D02*
X292421D01*
X264417Y227315D02*
X271260Y220472D01*
X269535Y232778D02*
Y233664D01*
X270019Y234148D01*
X184415Y318110D02*
X187089Y315436D01*
X151969Y318110D02*
X184415D01*
X149213Y315354D02*
X151969Y318110D01*
X264417Y232778D02*
Y241308D01*
X266976Y243867D01*
X88976Y290551D02*
Y309842D01*
X84646Y286221D02*
X88976Y290551D01*
X86024Y312795D02*
X88976Y309842D01*
X78937Y312795D02*
X86024D01*
X79528Y286221D02*
X84646D01*
X144882Y278740D02*
Y303740D01*
X149016Y307874D01*
Y308661D01*
X149213Y308858D01*
Y315354D01*
X219094Y318110D02*
X219488Y317717D01*
X189764Y318110D02*
X219094D01*
X187089Y308661D02*
Y315436D01*
X189764Y318110D01*
D20*
X148425Y239469D02*
D03*
Y236909D02*
D03*
Y234350D02*
D03*
Y231791D02*
D03*
Y229232D02*
D03*
Y226673D02*
D03*
Y224114D02*
D03*
Y221555D02*
D03*
X171653Y239469D02*
D03*
Y236909D02*
D03*
Y234350D02*
D03*
Y231791D02*
D03*
Y229232D02*
D03*
Y226673D02*
D03*
Y224114D02*
D03*
Y221555D02*
D03*
X148425Y169980D02*
D03*
Y167421D02*
D03*
Y164862D02*
D03*
Y162303D02*
D03*
Y159744D02*
D03*
Y157185D02*
D03*
Y154626D02*
D03*
Y152067D02*
D03*
X171653Y169980D02*
D03*
Y167421D02*
D03*
Y164862D02*
D03*
Y162303D02*
D03*
Y159744D02*
D03*
Y157185D02*
D03*
Y154626D02*
D03*
Y152067D02*
D03*
X148425Y204626D02*
D03*
Y202067D02*
D03*
Y199508D02*
D03*
Y196949D02*
D03*
Y194390D02*
D03*
Y191831D02*
D03*
Y189272D02*
D03*
Y186713D02*
D03*
X171653Y204626D02*
D03*
Y202067D02*
D03*
Y199508D02*
D03*
Y196949D02*
D03*
Y194390D02*
D03*
Y191831D02*
D03*
Y189272D02*
D03*
Y186713D02*
D03*
X148425Y135138D02*
D03*
Y132579D02*
D03*
Y130020D02*
D03*
Y127461D02*
D03*
Y124902D02*
D03*
Y122343D02*
D03*
Y119783D02*
D03*
Y117224D02*
D03*
X171653Y135138D02*
D03*
Y132579D02*
D03*
Y130020D02*
D03*
Y127461D02*
D03*
Y124902D02*
D03*
Y122343D02*
D03*
Y119783D02*
D03*
Y117224D02*
D03*
Y82382D02*
D03*
Y84941D02*
D03*
Y87500D02*
D03*
Y90059D02*
D03*
Y92618D02*
D03*
Y95177D02*
D03*
Y97736D02*
D03*
Y100295D02*
D03*
X148425Y82382D02*
D03*
Y84941D02*
D03*
Y87500D02*
D03*
Y90059D02*
D03*
Y92618D02*
D03*
Y95177D02*
D03*
Y97736D02*
D03*
Y100295D02*
D03*
D21*
X133813Y221457D02*
D03*
X138931D02*
D03*
X131693Y115748D02*
D03*
X136811D02*
D03*
D22*
X79429Y286221D02*
D03*
X74311D02*
D03*
X46555D02*
D03*
X41437D02*
D03*
X47835Y244882D02*
D03*
X52953D02*
D03*
X47543Y233673D02*
D03*
X52661D02*
D03*
X77756Y205118D02*
D03*
X72638D02*
D03*
X93898D02*
D03*
X88779D02*
D03*
X219488Y317717D02*
D03*
X224606D02*
D03*
X264417Y266636D02*
D03*
X269535D02*
D03*
Y232778D02*
D03*
X264417D02*
D03*
X112303Y286221D02*
D03*
X107185D02*
D03*
X336811Y193701D02*
D03*
X331693D02*
D03*
X336811Y183858D02*
D03*
X331693D02*
D03*
X336811Y174016D02*
D03*
X331693D02*
D03*
X336811Y163779D02*
D03*
X331693D02*
D03*
D23*
X74311Y275984D02*
D03*
X41437D02*
D03*
X225787Y305906D02*
D03*
X107185Y275984D02*
D03*
X321457Y193701D02*
D03*
Y183858D02*
D03*
Y174016D02*
D03*
Y163779D02*
D03*
D24*
X80216Y275984D02*
D03*
X47343D02*
D03*
X219882Y305906D02*
D03*
X113091Y275984D02*
D03*
X315551Y193701D02*
D03*
Y183858D02*
D03*
Y174016D02*
D03*
Y163779D02*
D03*
D25*
X92087Y189764D02*
D03*
X74055D02*
D03*
D26*
X83071Y161417D02*
D03*
D27*
X137795Y180118D02*
D03*
Y185236D02*
D03*
Y80905D02*
D03*
Y75787D02*
D03*
X137795Y145472D02*
D03*
Y150591D02*
D03*
D28*
X184646Y151969D02*
D03*
Y157087D02*
D03*
Y79724D02*
D03*
Y84842D02*
D03*
X216929Y263189D02*
D03*
Y268307D02*
D03*
X273228Y288386D02*
D03*
Y283268D02*
D03*
X216929Y276181D02*
D03*
Y281299D02*
D03*
D29*
X266976Y245730D02*
D03*
X263236Y252897D02*
D03*
D30*
X270716D02*
D03*
D31*
X199213Y263032D02*
D03*
Y281063D02*
D03*
D32*
X170866Y272047D02*
D03*
D33*
X144882Y262992D02*
D03*
Y278740D02*
D03*
D52*
X234449Y237008D02*
D03*
X251575Y29921D02*
D03*
X243701D02*
D03*
X235827D02*
D03*
X227953D02*
D03*
X220079D02*
D03*
D53*
X248228Y237008D02*
D03*
X212205Y29921D02*
D03*
D62*
X293996Y300787D02*
D03*
Y290945D02*
D03*
X292421Y240158D02*
D03*
Y230315D02*
D03*
D63*
X293996Y281102D02*
D03*
X292421Y220472D02*
D03*
D64*
X298622Y132008D02*
D03*
Y122008D02*
D03*
Y112008D02*
D03*
Y102008D02*
D03*
Y92008D02*
D03*
Y82008D02*
D03*
Y72008D02*
D03*
Y62008D02*
D03*
Y52008D02*
D03*
Y42008D02*
D03*
X288622Y132008D02*
D03*
Y122008D02*
D03*
Y112008D02*
D03*
Y102008D02*
D03*
Y92008D02*
D03*
Y82008D02*
D03*
Y72008D02*
D03*
Y62008D02*
D03*
Y52008D02*
D03*
D65*
Y42008D02*
D03*
D70*
X111417Y125197D02*
X118504D01*
X123327Y130020D02*
X148425D01*
X118504Y125197D02*
X123327Y130020D01*
X187598Y118701D02*
Y124963D01*
Y118701D02*
X194095Y112205D01*
X153839Y164862D02*
X158539Y160161D01*
Y132816D02*
Y160161D01*
X134179Y121653D02*
X136811Y119021D01*
X122835Y121653D02*
X134179D01*
X112598Y101575D02*
X112843D01*
X121110Y109843D01*
X121260Y151181D02*
X121850Y150591D01*
X72638Y191181D02*
X74055Y189764D01*
X137795Y80905D02*
X145079D01*
X136811Y115748D02*
Y119021D01*
Y115748D02*
X145079D01*
X121850Y150591D02*
X137795D01*
X139279Y152075D01*
X142413D01*
X137795Y185236D02*
X145079D01*
X139219Y221457D02*
X139416Y221260D01*
X138931Y221457D02*
X139219D01*
X139416Y221260D02*
X143812D01*
X113091Y275984D02*
X113386Y275689D01*
X145079Y80905D02*
X146555Y82382D01*
X145079Y115748D02*
X146555Y117224D01*
Y82382D02*
X148425D01*
X142413Y152075D02*
X148241D01*
X145079Y185236D02*
X146555Y186713D01*
Y117224D02*
X148425D01*
X148241Y152075D02*
X148329Y152163D01*
X148425Y152067D01*
X179134Y79134D02*
X179724Y79724D01*
X184646D01*
Y151969D02*
X190157D01*
X143812Y221260D02*
X144993Y220079D01*
X145079D01*
X146555Y186713D02*
X148425D01*
X145079Y220079D02*
X146555Y221555D01*
X148425D01*
X199213Y281063D02*
X199449Y281299D01*
X61024Y263779D02*
Y323228D01*
Y263779D02*
X66535Y258268D01*
X41732Y342520D02*
X61024Y323228D01*
X104724Y137402D02*
X144291D01*
X146555Y135138D01*
X141932Y109843D02*
X143506Y111417D01*
X121110Y109843D02*
X141932D01*
X99213Y9843D02*
X190551D01*
X96063Y6693D02*
X99213Y9843D01*
X202276Y6213D02*
X209449Y13386D01*
X121196Y6213D02*
X202276D01*
X180548Y13940D02*
X221654Y55046D01*
X87008Y12598D02*
X92520Y18110D01*
X14567Y6693D02*
X88189D01*
X42126Y12598D02*
X87008D01*
X88189Y6693D02*
X95436Y13940D01*
X180548D01*
X92520Y18110D02*
X174409D01*
X212205Y55905D01*
X45276Y88583D02*
Y110630D01*
X62205Y74803D02*
X63779Y73228D01*
X45276Y88583D02*
X59055Y74803D01*
X62205D01*
X51968Y71653D02*
X58661D01*
X199213Y18504D02*
X257480D01*
X268110Y29134D01*
X190551Y9843D02*
X199213Y18504D01*
X260236Y13386D02*
X272835Y25984D01*
X209449Y13386D02*
X260236D01*
X268110Y29134D02*
Y97244D01*
X272835Y25984D02*
Y74803D01*
X263386Y8661D02*
X279134Y24409D01*
X216142Y8661D02*
X263386D01*
X279134Y24409D02*
Y68504D01*
X210630Y3150D02*
X216142Y8661D01*
X222441Y3543D02*
X267323D01*
X288583Y24803D02*
X315354D01*
X267323Y3543D02*
X288583Y24803D01*
X321654Y17717D02*
X329528Y25591D01*
X293307Y17717D02*
X321654D01*
X282874Y112008D02*
X288622D01*
X268110Y97244D02*
X282874Y112008D01*
X272835Y74803D02*
X280039Y82008D01*
X288622D01*
X37795Y85827D02*
Y107874D01*
Y85827D02*
X51968Y71653D01*
X32677Y112992D02*
X37795Y107874D01*
X41018Y44488D02*
X52362D01*
X62598Y54724D01*
X69291Y48819D02*
X91732D01*
X109055Y31496D01*
X54724Y92520D02*
Y120866D01*
X42520Y133071D02*
X54724Y120866D01*
X14500Y138000D02*
X19429Y133071D01*
X42520D01*
X25984Y28740D02*
X42126Y12598D01*
X89370Y31496D02*
X98425Y22441D01*
X169291D01*
X203150Y56299D01*
X93701Y37008D02*
X103937Y26772D01*
X162992D01*
X197638Y61417D01*
X34603Y31496D02*
X89370D01*
X145477D02*
X150945Y36964D01*
X109055Y31496D02*
X145477D01*
X112992Y36220D02*
X138976D01*
X140945Y38189D02*
Y42382D01*
X138976Y36220D02*
X140945Y38189D01*
X94488Y54724D02*
X112992Y36220D01*
X136221Y3150D02*
X210630D01*
X33071Y122835D02*
X45276Y110630D01*
X19665Y122835D02*
X33071D01*
X14500Y128000D02*
X19665Y122835D01*
X81102Y75197D02*
X115354D01*
X30047Y58000D02*
X34252Y62205D01*
X74016Y68110D02*
X81102Y75197D01*
X51181Y68110D02*
X74016D01*
X34252Y62205D02*
X45276D01*
X51181Y68110D01*
X24500Y58000D02*
X30047D01*
X82677Y70866D02*
X119685D01*
X32283Y53150D02*
X36220Y57087D01*
X54724Y64173D02*
X75984D01*
X82677Y70866D01*
X36220Y57087D02*
X47638D01*
X54724Y64173D01*
X24500Y48000D02*
X29559D01*
X40551Y37008D02*
X93701D01*
X29559Y48000D02*
X40551Y37008D01*
X28414Y37685D02*
X34603Y31496D01*
X24500Y38000D02*
X24815Y37685D01*
X28414D01*
X85433Y64961D02*
X145669D01*
X150945Y59685D01*
X62598Y54724D02*
X94488D01*
X47106Y50000D02*
X57087Y59981D01*
X39625Y50000D02*
X47106D01*
X57087Y59981D02*
X138507D01*
X140945Y57543D01*
X194095Y93307D02*
Y112205D01*
X192520Y73622D02*
Y91732D01*
X188583Y69685D02*
X192520Y73622D01*
Y91732D02*
X194095Y93307D01*
X115354Y75197D02*
X137894Y97736D01*
X24500Y128000D02*
X38142D01*
X50000Y116142D01*
Y91339D02*
Y116142D01*
X110236Y79134D02*
X131398Y100295D01*
X279134Y68504D02*
X282638Y72008D01*
X288622D01*
X251483Y61903D02*
X261903D01*
X244882Y68504D02*
X251483Y61903D01*
X160630Y126378D02*
X164567Y130315D01*
Y167323D01*
X165207Y167595D02*
X171480D01*
X164936Y167323D02*
X165207Y167595D01*
X164567Y167323D02*
X164936D01*
X19685Y112992D02*
X32677D01*
X14500Y118000D02*
X14677D01*
X19685Y112992D01*
X184941Y226673D02*
X190157Y231890D01*
Y235433D01*
X156988Y234350D02*
X171653D01*
X164567Y238976D02*
Y243307D01*
X160531Y221555D02*
X171653D01*
X153543Y214567D02*
X160531Y221555D01*
X151181Y252756D02*
X172835D01*
X179528Y234850D02*
Y246063D01*
X172835Y252756D02*
X179528Y246063D01*
X134646Y213386D02*
X145669D01*
X147977Y215693D01*
X171654Y231791D02*
X176469D01*
X179528Y234850D01*
X171653Y231791D02*
X171654Y231791D01*
X60236Y204331D02*
X70866Y214961D01*
X133071D02*
X134646Y213386D01*
X70866Y214961D02*
X133071D01*
X100000Y212106D02*
Y212280D01*
X108071Y203346D02*
X115748Y211024D01*
X131890D02*
X133465Y209449D01*
X115748Y211024D02*
X131890D01*
X129528Y208268D02*
X133169Y204626D01*
X119291Y208268D02*
X129528D01*
X114567Y203543D02*
X119291Y208268D01*
X128208Y204469D02*
X138287Y194390D01*
X124016Y204469D02*
X128208D01*
X133465Y209449D02*
X148425D01*
X153543Y214567D02*
Y214567D01*
X148425Y209449D02*
X153543Y214567D01*
X133169Y204626D02*
X148425D01*
X178644Y202067D02*
X180857Y204280D01*
X171653Y202067D02*
X178644D01*
X60236Y170866D02*
Y204331D01*
X52756Y163386D02*
X60236Y170866D01*
X33858Y163386D02*
X52756D01*
X30709Y212992D02*
X39370Y204331D01*
Y172441D02*
Y204331D01*
X44743Y169291D02*
Y226426D01*
X42520Y228650D02*
X44743Y226426D01*
X258268Y250787D02*
X260377Y252897D01*
X263236D01*
X134646Y287402D02*
Y331890D01*
X146850Y344094D01*
X140551Y315748D02*
X149213Y324410D01*
X140551Y293753D02*
Y315748D01*
X149213Y324410D02*
X166142D01*
X140551Y322441D02*
Y325197D01*
X154724Y339370D01*
X280315D01*
X153543Y329528D02*
X158661D01*
X164173Y335039D01*
X166142Y324410D02*
X171260Y329528D01*
X275590D02*
X282283Y322835D01*
X171260Y329528D02*
X275590D01*
X279921Y281102D02*
X293996D01*
X276279D02*
X279921D01*
X324016Y335039D02*
X332677Y343701D01*
X164173Y335039D02*
X324016D01*
X282283Y283465D02*
Y322835D01*
X279921Y281102D02*
X282283Y283465D01*
X332677Y343701D02*
Y352165D01*
X285433Y344488D02*
Y352165D01*
X280315Y339370D02*
X285433Y344488D01*
X146850Y344094D02*
X234721D01*
X238189Y347562D02*
Y352165D01*
X234721Y344094D02*
X238189Y347562D01*
X83465Y248425D02*
X92126Y239764D01*
X64567Y248425D02*
X83465D01*
X12598Y261811D02*
X51181D01*
X64567Y248425D01*
X117717Y226673D02*
X148425D01*
X86221Y258268D02*
X117717Y226772D01*
Y226673D02*
Y226772D01*
X66535Y258268D02*
X86221D01*
X66535Y267717D02*
X70866Y263386D01*
X91043D02*
X125197Y229232D01*
X70866Y263386D02*
X91043D01*
X66535Y267717D02*
Y338189D01*
X125197Y229232D02*
X148425D01*
X3543Y252756D02*
X12598Y261811D01*
X25984Y237008D02*
X33858Y244882D01*
X10630Y237008D02*
X25984D01*
X7874Y234252D02*
X10630Y237008D01*
X7874Y210630D02*
Y234252D01*
X3543Y202362D02*
Y252756D01*
X7905Y198000D02*
X14500D01*
X3543Y202362D02*
X7905Y198000D01*
X10000Y208504D02*
X15004D01*
X33858Y244882D02*
X47835D01*
X7874Y210630D02*
X10000Y208504D01*
X20079Y222835D02*
X36705D01*
X42520Y228650D01*
X14500Y218000D02*
X15244D01*
X20079Y222835D01*
X315354Y24803D02*
X320472Y29921D01*
X329528Y107480D02*
X346457Y124409D01*
X313779Y91732D02*
X329528Y107480D01*
X320472Y29921D02*
Y70866D01*
X329528Y25591D02*
Y107480D01*
X160472Y103308D02*
X160630Y103466D01*
Y126378D01*
X160472Y103308D02*
X166043Y97736D01*
X156299Y107480D02*
X160472Y103308D01*
X24500Y158000D02*
X59181D01*
X66535Y165354D02*
Y176772D01*
X59181Y158000D02*
X66535Y165354D01*
Y176772D02*
X68898Y179134D01*
X101575D01*
X42520Y228650D02*
X47543Y233673D01*
X15004Y208504D02*
X19492Y212992D01*
X30709D01*
X114567Y192126D02*
Y203543D01*
X124065Y189321D02*
X148376D01*
X124016Y189370D02*
X124065Y189321D01*
X108071Y185630D02*
Y203346D01*
X148425Y202067D02*
X154035D01*
X155512Y203543D02*
Y209842D01*
X154035Y202067D02*
X155512Y203543D01*
X159843Y205906D02*
X166142Y212205D01*
X157480Y199606D02*
X159843Y201969D01*
Y205906D01*
X162598Y204331D02*
X166929Y208661D01*
X162598Y200394D02*
Y204331D01*
X159153Y196949D02*
X162598Y200394D01*
X148425Y196949D02*
X159153D01*
X166929Y208661D02*
X195669D01*
X155118Y183071D02*
Y188583D01*
X163484Y196949D02*
X171653D01*
X155118Y188583D02*
X163484Y196949D01*
X177165Y140920D02*
Y147244D01*
X176378Y140132D02*
X177165Y140920D01*
X176378Y139764D02*
Y140132D01*
X179094Y127461D02*
X179438Y127116D01*
X171752Y129921D02*
X188189D01*
X192520Y125591D01*
X235827Y30709D02*
Y128347D01*
Y30709D02*
X236221Y30315D01*
X235827Y29921D02*
X236221Y30315D01*
X235827Y29921D02*
X235827Y29921D01*
X197244Y128347D02*
Y158467D01*
X190849Y164862D02*
X197244Y158467D01*
X192913Y131496D02*
Y137008D01*
X175295Y154626D02*
X192913Y137008D01*
X171653Y132579D02*
X177461D01*
X182283Y137402D01*
X192520Y119291D02*
Y125591D01*
X171653Y154626D02*
X175295D01*
X244882Y68504D02*
Y114567D01*
X148425Y164862D02*
X153839D01*
X148425Y127461D02*
X154823D01*
X166043Y97736D02*
X171653D01*
X152708Y96371D02*
X162268D01*
X151688Y95350D02*
X152708Y96371D01*
X161700Y91252D02*
X161875D01*
X160335Y92618D02*
X161700Y91252D01*
X148425Y92618D02*
X160335D01*
X171653Y100295D02*
X173329D01*
X173715Y100681D01*
Y103242D01*
X175197Y104724D01*
X190157Y94882D02*
Y104331D01*
X171653Y130020D02*
X171752Y129921D01*
X171653Y127461D02*
X179094D01*
X177414Y109055D02*
X179921Y111563D01*
Y119291D01*
X176870Y122343D02*
X179921Y119291D01*
X185433Y98425D02*
Y109055D01*
X166240Y124902D02*
X171653D01*
Y122343D02*
X176870D01*
X176279Y119783D02*
X177604Y118458D01*
X177165Y112598D02*
X177426Y112859D01*
Y113687D02*
X177604Y113865D01*
X177426Y112859D02*
Y113687D01*
X177604Y113865D02*
Y118458D01*
X171653Y119783D02*
X176279D01*
X192520Y119291D02*
X197638Y114173D01*
Y61417D02*
Y114173D01*
X168110Y109055D02*
X177414D01*
X143023Y126378D02*
X144549Y124852D01*
X131102Y126378D02*
X143023D01*
X144549Y124852D02*
X148376D01*
X143169Y122441D02*
X148327D01*
X162894Y189272D02*
X171653D01*
X160236Y186614D02*
X162894Y189272D01*
X171761Y152067D02*
X172147Y151681D01*
Y149606D02*
Y151681D01*
X171653Y152067D02*
X171761D01*
X177953Y69685D02*
X188583D01*
X171653Y75984D02*
X177953Y69685D01*
X171653Y75984D02*
Y82382D01*
X93898Y205118D02*
Y206004D01*
X100000Y212106D01*
X178248Y224114D02*
X179921Y222441D01*
X171653Y224114D02*
X178248D01*
X179626Y92618D02*
X185433Y98425D01*
X145669Y178740D02*
X157087D01*
X160236Y181890D01*
X179134D01*
X179921Y182677D01*
Y189370D01*
X177461Y191831D02*
X179921Y189370D01*
X171653Y191831D02*
X177461D01*
X134646Y175197D02*
X158268D01*
X161024Y177953D02*
X180799D01*
X158268Y175197D02*
X161024Y177953D01*
X148327Y122441D02*
X148425Y122343D01*
X150394Y141339D02*
X150787D01*
X149606Y140551D02*
X150394Y141339D01*
X131496Y140551D02*
X149606D01*
X127165Y144882D02*
X131496Y140551D01*
X19650Y53150D02*
X32283D01*
X14500Y48000D02*
X19650Y53150D01*
X140945Y52382D02*
Y57543D01*
X50000Y91339D02*
X62205Y79134D01*
X110236D01*
X137820Y88976D02*
X138189D01*
X137139Y88295D02*
X137820Y88976D01*
X137114Y88295D02*
X137139D01*
X119685Y70866D02*
X137114Y88295D01*
X156791Y90059D02*
X161811Y85039D01*
X148425Y90059D02*
X156791D01*
X161811Y82933D02*
Y85039D01*
X148659Y95350D02*
X151688D01*
X153051Y87500D02*
X155512Y85039D01*
X148425Y87500D02*
X153051D01*
X148425Y95116D02*
X148659Y95350D01*
X175888Y95177D02*
X179134Y98423D01*
Y100000D01*
X137894Y97736D02*
X148425D01*
X131398Y100295D02*
X148425D01*
X19350Y153150D02*
X45276D01*
X84646Y93307D02*
Y113779D01*
X45276Y153150D02*
X84646Y113779D01*
X105512Y144882D02*
X127165D01*
X100000Y139370D02*
X105512Y144882D01*
X105315Y132480D02*
X105364Y132529D01*
X148376D01*
X100000Y124016D02*
Y139370D01*
Y124016D02*
X104724Y119291D01*
X148376Y132529D02*
X148425Y132579D01*
X104724Y93701D02*
Y119291D01*
X100000Y88976D02*
X104724Y93701D01*
X84646Y93307D02*
X88976Y88976D01*
X100000D01*
X14500Y158000D02*
X19350Y153150D01*
X180799Y177953D02*
X184252Y181405D01*
Y190157D01*
X105905Y160630D02*
Y174803D01*
X115354Y184252D01*
X101575Y179134D02*
X108071Y185630D01*
X121220Y157185D02*
X148228D01*
X148327Y157087D01*
X148425Y157185D01*
X115354Y184252D02*
X125591D01*
X134646Y175197D01*
X180020Y194390D02*
X184252Y190157D01*
X171653Y194390D02*
X180020D01*
X150945Y52382D02*
Y59685D01*
X152756Y111417D02*
X156299Y114961D01*
X143506Y111417D02*
X152756D01*
X156299Y114961D02*
Y118504D01*
X155020Y119783D02*
X156299Y118504D01*
X148425Y119783D02*
X155020D01*
X146555Y135138D02*
X148425D01*
X221654Y55046D02*
Y147638D01*
X212205Y55905D02*
Y142165D01*
X298622Y82008D02*
X309331D01*
X320472Y70866D01*
X148376Y124852D02*
X148425Y124902D01*
X150945Y36964D02*
Y42382D01*
X203150Y56299D02*
Y186614D01*
X216929Y259449D02*
Y263189D01*
X214567Y257087D02*
X216929Y259449D01*
X171653Y164862D02*
X190849D01*
X190256Y199508D02*
X203150Y186614D01*
X298898Y91732D02*
X313779D01*
X346457Y124409D02*
Y224016D01*
X227953Y29921D02*
Y116142D01*
X185335Y90059D02*
X190157Y94882D01*
X171653Y90059D02*
X185335D01*
X171653Y95177D02*
X175888D01*
X217126Y152165D02*
X221654Y147638D01*
X212402Y152165D02*
X217126D01*
X262402Y172165D02*
X262424Y172143D01*
X171653Y92618D02*
X179626D01*
X155512Y79528D02*
Y85039D01*
X126870Y159744D02*
X148425D01*
X118504Y168110D02*
X126870Y159744D01*
X118504Y168110D02*
Y177953D01*
X57087Y347638D02*
Y352559D01*
Y347638D02*
X66535Y338189D01*
X25197Y342520D02*
X41732D01*
X116535Y359449D02*
X126378Y369291D01*
X281587D02*
X285433Y373137D01*
X126378Y369291D02*
X281587D01*
X285433Y373137D02*
Y378937D01*
X131398Y162303D02*
X148425D01*
X124016Y169685D02*
X131398Y162303D01*
X140157Y167323D02*
X148327D01*
X131496Y170866D02*
X145669D01*
X148031Y363779D02*
X325197D01*
X332677Y371260D02*
Y378937D01*
X325197Y363779D02*
X332677Y371260D01*
X244488Y277953D02*
Y311811D01*
X182283Y215748D02*
X244488Y277953D01*
X161417Y215748D02*
X182283D01*
X138287Y194390D02*
X148425D01*
X131004Y191831D02*
X148425D01*
X123622Y199213D02*
X131004Y191831D01*
X148376Y189321D02*
X148425Y189272D01*
X171653Y226673D02*
X184941D01*
X183858Y232283D02*
Y248031D01*
X180807Y229232D02*
X183858Y232283D01*
Y248031D02*
X187795Y251969D01*
X171653Y229232D02*
X180807D01*
X187795Y251969D02*
X203543D01*
X146063Y107480D02*
X156299D01*
X171480Y167595D02*
X171653Y167421D01*
X166634Y236909D02*
X171653D01*
X164567Y238976D02*
X166634Y236909D01*
X146555Y169980D02*
X148425D01*
X145669Y170866D02*
X146555Y169980D01*
X148327Y167323D02*
X148425Y167421D01*
X140157Y240158D02*
X143405Y236909D01*
X148425D01*
X136221Y247638D02*
X145276D01*
X104331Y352559D02*
X128740Y328150D01*
Y243307D02*
X137697Y234350D01*
X128740Y243307D02*
Y328150D01*
X148425Y239469D02*
Y244488D01*
X145276Y247638D02*
X148425Y244488D01*
X105118Y83465D02*
X126772Y105118D01*
X143701D01*
X67716Y83465D02*
X105118D01*
X148524Y199606D02*
X157480D01*
X166142Y212205D02*
X188976D01*
X155512Y209842D02*
X161417Y215748D01*
X195669Y208661D02*
X260236Y273228D01*
X195669Y208661D02*
X195669Y208661D01*
X252362Y275591D02*
Y311811D01*
X188976Y212205D02*
X252362Y275591D01*
X260236Y273228D02*
Y311811D01*
X148425Y199508D02*
X148524Y199606D01*
X2756Y18504D02*
X14567Y6693D01*
X2756Y73228D02*
X7528Y78000D01*
X2756Y18504D02*
Y73228D01*
X10037Y28740D02*
X25984D01*
X6299Y32478D02*
Y55905D01*
Y32478D02*
X10037Y28740D01*
X6299Y55905D02*
X8394Y58000D01*
X7528Y78000D02*
X14500D01*
X8394Y58000D02*
X14500D01*
X143701Y105118D02*
X146063Y107480D01*
X171653Y199508D02*
X190256D01*
X61024Y90158D02*
X67716Y83465D01*
X61024Y90158D02*
Y122835D01*
X24500Y148000D02*
X35858D01*
X61024Y122835D01*
X14390Y68110D02*
X14500Y68000D01*
X148327Y231890D02*
X148425Y231791D01*
X131890Y231890D02*
X148327D01*
X122835Y240945D02*
Y323228D01*
Y240945D02*
X131890Y231890D01*
X107087Y338976D02*
X122835Y323228D01*
X77165Y338976D02*
X107087D01*
X70866Y345276D02*
X77165Y338976D01*
X70866Y345276D02*
Y364173D01*
X74410Y367717D01*
X100000D01*
X104331Y372047D01*
Y378937D01*
X137697Y234350D02*
X148425D01*
X21260Y346457D02*
Y361417D01*
Y346457D02*
X25197Y342520D01*
X21260Y361417D02*
X26772Y366929D01*
X54724D01*
X57087Y369291D02*
Y378937D01*
X54724Y366929D02*
X57087Y369291D01*
X107185Y275984D02*
Y286221D01*
X107185Y286221D01*
X74311Y286122D02*
X74410Y286221D01*
X74311Y275984D02*
Y286122D01*
X41437Y275984D02*
Y286221D01*
X41437Y275984D02*
X41437Y275984D01*
X338189Y232283D02*
X346457Y224016D01*
X298622Y92008D02*
X298898Y91732D01*
X338189Y232283D02*
Y255906D01*
X293996Y281102D02*
X319193Y255906D01*
X338189D01*
X273228Y283268D02*
X274114D01*
X276279Y281102D01*
X171653Y159744D02*
Y162303D01*
Y157185D02*
Y159744D01*
Y84941D02*
Y87500D01*
X184597Y84892D02*
X184646Y84842D01*
X171703Y84892D02*
X184597D01*
X171653Y84941D02*
X171703Y84892D01*
X171653Y157185D02*
X171703Y157136D01*
X184597D01*
X184646Y157087D01*
X266976Y243867D02*
Y245730D01*
X264417Y261140D02*
Y266636D01*
X263236Y259959D02*
X264417Y261140D01*
X263236Y252897D02*
Y259959D01*
X225787Y305906D02*
Y315650D01*
X224606Y316831D02*
X225787Y315650D01*
X224606Y316831D02*
Y317717D01*
X170866Y288189D02*
Y295866D01*
Y272047D02*
Y288189D01*
X178347Y295669D02*
X192913D01*
X170866Y288189D02*
X178347Y295669D01*
X196932Y299688D02*
Y308661D01*
X192913Y295669D02*
X196932Y299688D01*
Y308661D02*
X206826D01*
X209582Y305906D01*
X219882D01*
X158858Y307874D02*
Y308661D01*
Y307874D02*
X170866Y295866D01*
X161811Y262992D02*
X170866Y272047D01*
X144882Y262992D02*
X161811D01*
X207244Y268307D02*
X216929D01*
X201969Y263032D02*
X207244Y268307D01*
X199213Y263032D02*
X201969D01*
X216929Y268307D02*
Y276181D01*
X293307Y164173D02*
X293701Y163779D01*
X83071Y161417D02*
X93988Y150500D01*
Y98295D02*
Y150500D01*
Y98295D02*
X94252Y98032D01*
X88779Y195827D02*
Y205118D01*
Y195827D02*
X92087Y192520D01*
Y189764D02*
Y192520D01*
X77756Y205118D02*
X88779D01*
D71*
X72638Y191181D02*
Y198150D01*
Y205118D01*
X80216Y272539D02*
X82677Y270079D01*
X80216Y272539D02*
Y275984D01*
X82677Y270079D02*
X96653D01*
X110630D01*
X113386Y272835D01*
Y275689D01*
X199449Y281299D02*
X216929D01*
X15453Y376408D02*
X27657Y388612D01*
X253642D01*
X256791Y385463D01*
X234449Y237008D02*
X234547Y236910D01*
X34112Y268927D02*
X44587D01*
X32382Y270657D02*
X34112Y268927D01*
X28051Y337431D02*
X32382Y333101D01*
X15453Y344518D02*
Y376408D01*
X32382Y270657D02*
Y297274D01*
X250295Y202195D02*
X262372D01*
X234547Y217943D02*
X250295Y202195D01*
X44587Y268927D02*
X47343Y271683D01*
X46033Y302982D02*
X46063Y302953D01*
X38091Y302982D02*
X46033D01*
X261388Y385463D02*
X261417Y385433D01*
X47343Y271683D02*
Y275984D01*
X234547Y217943D02*
Y236910D01*
X256791Y385463D02*
X261388D01*
X262372Y202195D02*
X262402Y202165D01*
X22539Y337431D02*
X28051D01*
X32382Y297274D02*
X38091Y302982D01*
X32382Y297274D02*
Y333101D01*
X15453Y344518D02*
X22539Y337431D01*
X47096Y286762D02*
X54724Y294390D01*
Y310630D01*
X274055Y212165D02*
X282283Y203937D01*
X332283D01*
X262402Y212165D02*
X274055D01*
X248228Y226339D02*
X262402Y212165D01*
X248228Y226339D02*
Y237008D01*
X262424Y172143D02*
X274707D01*
X282677Y164173D02*
X293307D01*
X274707Y172143D02*
X282677Y164173D01*
X262402Y182283D02*
X280709D01*
X282283Y183858D01*
X262402Y192126D02*
X277559D01*
X279134Y193701D01*
X332283Y203937D02*
X336811Y199409D01*
Y193701D02*
Y199409D01*
X46063Y312795D02*
X52559D01*
X54724Y310630D01*
X282283Y183858D02*
X293307D01*
X279134Y193701D02*
X293307D01*
X336811Y183858D02*
Y193701D01*
Y174016D02*
Y183858D01*
Y163779D02*
Y174016D01*
X321457Y163779D02*
X330709D01*
X321457Y174016D02*
X330709D01*
X321457Y183858D02*
X330709D01*
X321457Y193701D02*
X331102D01*
X293307D02*
X315551D01*
X293307Y183858D02*
X315551D01*
X293307Y174016D02*
X315551D01*
X293701Y163779D02*
X315551D01*
D72*
X160945Y52382D02*
D03*
D73*
Y42382D02*
D03*
X150945Y52382D02*
D03*
Y42382D02*
D03*
X140945D02*
D03*
Y52382D02*
D03*
X130945Y42382D02*
D03*
X120945D02*
D03*
X130945Y52382D02*
D03*
X120945D02*
D03*
D74*
X74252Y98032D02*
D03*
D75*
X94252D02*
D03*
D76*
X212402Y212165D02*
D03*
D77*
Y202165D02*
D03*
Y192165D02*
D03*
Y182165D02*
D03*
Y172165D02*
D03*
Y162165D02*
D03*
Y152165D02*
D03*
Y142165D02*
D03*
X262402D02*
D03*
Y152165D02*
D03*
Y162165D02*
D03*
Y172165D02*
D03*
Y182165D02*
D03*
Y192165D02*
D03*
Y202165D02*
D03*
Y212165D02*
D03*
D78*
X19500Y18827D02*
D03*
Y247173D02*
D03*
D79*
X14500Y228000D02*
D03*
D80*
Y218000D02*
D03*
Y208000D02*
D03*
Y198000D02*
D03*
Y188000D02*
D03*
Y178000D02*
D03*
X24500Y228000D02*
D03*
Y218000D02*
D03*
Y208000D02*
D03*
Y198000D02*
D03*
Y188000D02*
D03*
Y178000D02*
D03*
X14500Y168000D02*
D03*
X24500D02*
D03*
X14500Y158000D02*
D03*
Y148000D02*
D03*
Y138000D02*
D03*
Y128000D02*
D03*
Y118000D02*
D03*
Y108000D02*
D03*
X24500Y158000D02*
D03*
Y148000D02*
D03*
Y138000D02*
D03*
Y128000D02*
D03*
Y118000D02*
D03*
Y108000D02*
D03*
X14500Y98000D02*
D03*
X24500D02*
D03*
X14500Y88000D02*
D03*
Y78000D02*
D03*
Y68000D02*
D03*
Y58000D02*
D03*
Y48000D02*
D03*
Y38000D02*
D03*
X24500Y88000D02*
D03*
Y78000D02*
D03*
Y68000D02*
D03*
Y58000D02*
D03*
Y48000D02*
D03*
Y38000D02*
D03*
D81*
X46063Y302953D02*
D03*
X244488Y311811D02*
D03*
X260236D02*
D03*
X252362D02*
D03*
X111811Y302953D02*
D03*
X316929Y352165D02*
D03*
X332677D02*
D03*
X324803D02*
D03*
X269685D02*
D03*
X285433D02*
D03*
X277559D02*
D03*
X222441D02*
D03*
X238189D02*
D03*
X230315D02*
D03*
X78937Y302953D02*
D03*
X80709Y352559D02*
D03*
X96457D02*
D03*
X88583D02*
D03*
X80709Y378937D02*
D03*
X96457D02*
D03*
X88583D02*
D03*
X33465Y352559D02*
D03*
X49213D02*
D03*
X41339D02*
D03*
X33465Y378937D02*
D03*
X49213D02*
D03*
X41339D02*
D03*
X175197Y352559D02*
D03*
X190945D02*
D03*
X183071D02*
D03*
X175197Y378937D02*
D03*
X190945D02*
D03*
X183071D02*
D03*
X127953Y352559D02*
D03*
X143701D02*
D03*
X135827D02*
D03*
X127953Y378937D02*
D03*
X143701D02*
D03*
X135827D02*
D03*
X316929D02*
D03*
X332677D02*
D03*
X324803D02*
D03*
X269685D02*
D03*
X285433D02*
D03*
X277559D02*
D03*
X222441D02*
D03*
X238189D02*
D03*
X230315D02*
D03*
X78740Y24409D02*
D03*
X62992D02*
D03*
X70866D02*
D03*
D82*
X46063Y312795D02*
D03*
X268110Y311811D02*
D03*
X111811Y312795D02*
D03*
X340551Y352165D02*
D03*
X293307D02*
D03*
X246063D02*
D03*
X78937Y312795D02*
D03*
X104331Y352559D02*
D03*
Y378937D02*
D03*
X57087Y352559D02*
D03*
Y378937D02*
D03*
X198819Y352559D02*
D03*
Y378937D02*
D03*
X151575Y352559D02*
D03*
Y378937D02*
D03*
X340551D02*
D03*
X293307D02*
D03*
X246063D02*
D03*
X55118Y24409D02*
D03*
D83*
X196932Y308661D02*
D03*
X158858D02*
D03*
D84*
X187089D02*
D03*
X149016D02*
D03*
D85*
X16535Y328346D02*
D03*
X344488Y11811D02*
D03*
Y327953D02*
D03*
D86*
X338189Y295905D02*
D03*
Y275905D02*
D03*
D87*
Y255906D02*
D03*
D88*
X293307Y164173D02*
D03*
D89*
Y174016D02*
D03*
Y183858D02*
D03*
Y193701D02*
D03*
D90*
X187598Y124963D02*
D03*
X158539Y132816D02*
D03*
X122835Y121653D02*
D03*
X112598Y101575D02*
D03*
X135120Y94963D02*
D03*
X104724Y137402D02*
D03*
X121260Y151181D02*
D03*
X121196Y6213D02*
D03*
X96063Y6693D02*
D03*
X58661Y71653D02*
D03*
X293307Y17717D02*
D03*
X69291Y48819D02*
D03*
X41018Y44488D02*
D03*
X54724Y92520D02*
D03*
X222441Y3543D02*
D03*
X63779Y73228D02*
D03*
X85433Y64961D02*
D03*
X136221Y3150D02*
D03*
X261903Y61903D02*
D03*
X74803Y139232D02*
D03*
X164567Y167323D02*
D03*
X39625Y50000D02*
D03*
X190157Y235433D02*
D03*
X156988Y234350D02*
D03*
X164567Y243307D02*
D03*
X151181Y252756D02*
D03*
X147977Y215693D02*
D03*
X100000Y212280D02*
D03*
X124016Y204469D02*
D03*
X145079Y220079D02*
D03*
X180857Y204280D02*
D03*
X52362Y183858D02*
D03*
X33858Y163386D02*
D03*
X39370Y172441D02*
D03*
X44743Y169291D02*
D03*
X258268Y250787D02*
D03*
X134646Y287402D02*
D03*
X140551Y293753D02*
D03*
Y322441D02*
D03*
X153543Y329528D02*
D03*
X235433Y323622D02*
D03*
X92126Y239764D02*
D03*
X40945Y238976D02*
D03*
X261417Y385433D02*
D03*
X83858Y126378D02*
D03*
X72441Y239370D02*
D03*
X114567Y192126D02*
D03*
X124016Y189370D02*
D03*
X127559Y96457D02*
D03*
X177165Y147244D02*
D03*
X176378Y139764D02*
D03*
X180799Y177953D02*
D03*
X179438Y127116D02*
D03*
X235827Y128347D02*
D03*
X197244D02*
D03*
X192913Y131496D02*
D03*
X182283Y137402D02*
D03*
X244882Y114567D02*
D03*
X166240Y124902D02*
D03*
X154823Y127461D02*
D03*
X152756Y145669D02*
D03*
X169685Y140551D02*
D03*
X150394Y76772D02*
D03*
X162268Y96371D02*
D03*
X161875Y91252D02*
D03*
X175197Y104724D02*
D03*
X190157Y104331D02*
D03*
X185433Y109055D02*
D03*
X179134Y79134D02*
D03*
X142126Y140551D02*
D03*
X142413Y152075D02*
D03*
X155118Y183071D02*
D03*
X168110Y109055D02*
D03*
X143169Y122441D02*
D03*
X160236Y186614D02*
D03*
X172147Y149606D02*
D03*
X179921Y222441D02*
D03*
X177165Y112598D02*
D03*
X145669Y178740D02*
D03*
X150787Y141339D02*
D03*
X138189Y88976D02*
D03*
X179134Y100000D02*
D03*
X105315Y132480D02*
D03*
X105905Y160630D02*
D03*
X121220Y157185D02*
D03*
X72638Y198150D02*
D03*
X131102Y126378D02*
D03*
X111417Y125197D02*
D03*
X214567Y257087D02*
D03*
X227953Y116142D02*
D03*
X190157Y151969D02*
D03*
X161811Y82933D02*
D03*
X155512Y79528D02*
D03*
X145079Y80905D02*
D03*
X116535Y359449D02*
D03*
X118504Y177953D02*
D03*
X124016Y169685D02*
D03*
X140157Y167323D02*
D03*
X131496Y170866D02*
D03*
X148031Y363779D02*
D03*
X123622Y199213D02*
D03*
X209842Y281102D02*
D03*
X203543Y251969D02*
D03*
X140157Y240158D02*
D03*
X136221Y247638D02*
D03*
X145079Y115748D02*
D03*
Y185236D02*
D03*
X190157Y174409D02*
D03*
X231890Y180421D02*
D03*
X96653Y270079D02*
D03*
M02*
