G04*
G04 #@! TF.GenerationSoftware,Altium Limited,Altium Designer,20.1.8 (145)*
G04*
G04 Layer_Color=65535*
%FSLAX25Y25*%
%MOIN*%
G70*
G04*
G04 #@! TF.SameCoordinates,8A5546FC-2E64-4ACD-A3F0-66F597033F2E*
G04*
G04*
G04 #@! TF.FilePolarity,Positive*
G04*
G01*
G75*
%ADD10C,0.01968*%
%ADD11C,0.00787*%
%ADD12C,0.00984*%
%ADD13C,0.02362*%
%ADD14C,0.00591*%
%ADD15C,0.00500*%
%ADD16C,0.00394*%
%ADD17C,0.00600*%
%ADD18R,0.01181X0.07480*%
%ADD19R,0.12299X0.01968*%
G36*
X138882Y286366D02*
D01*
D02*
G37*
G36*
X322441Y244016D02*
D01*
D02*
G37*
D10*
X56622Y98032D02*
G03*
X56622Y98032I-787J0D01*
G01*
D11*
X204724Y214370D02*
G03*
X204724Y214370I-394J0D01*
G01*
X32035Y18827D02*
G03*
X32035Y18827I-12535J0D01*
G01*
Y247173D02*
G03*
X32035Y247173I-12535J0D01*
G01*
X293701Y156693D02*
G03*
X293701Y156693I-394J0D01*
G01*
X100571Y0D02*
X181319D01*
Y35433D01*
X100571Y0D02*
Y35433D01*
X181319D01*
X60315Y83071D02*
Y116929D01*
X108189Y83071D02*
Y116929D01*
X60315D02*
X108189D01*
X60315Y83071D02*
X108189D01*
X254429Y227067D02*
Y246752D01*
X152756Y220472D02*
Y240551D01*
X167323Y220472D02*
Y240551D01*
X152756D02*
X167323D01*
X152756Y220472D02*
X167323D01*
X141884Y217913D02*
Y225000D01*
X130860Y217913D02*
X141884D01*
X130860D02*
Y225000D01*
X141884D01*
X32677Y293307D02*
X55315D01*
X32677D02*
Y322441D01*
X55315Y293307D02*
Y322441D01*
X32677D02*
X55315D01*
X71752Y282677D02*
Y289764D01*
X81988D01*
Y282677D02*
Y289764D01*
X71752Y282677D02*
X81988D01*
X38878D02*
Y289764D01*
X49114D01*
Y282677D02*
Y289764D01*
X38878Y282677D02*
X49114D01*
X70965Y279528D02*
X84350D01*
Y272441D02*
Y279528D01*
X70965Y272441D02*
X84350D01*
X70965D02*
Y279528D01*
X84350D01*
Y272441D02*
Y279528D01*
X70965Y272441D02*
X84350D01*
X70965D02*
Y279528D01*
X38091D02*
X51476D01*
Y272441D02*
Y279528D01*
X38091Y272441D02*
X51476D01*
X38091D02*
Y279528D01*
X51476D01*
Y272441D02*
Y279528D01*
X38091Y272441D02*
X51476D01*
X38091D02*
Y279528D01*
X45276Y241339D02*
X55512D01*
Y248382D01*
X45276Y241339D02*
Y248382D01*
X55512D01*
X44984Y230130D02*
X55221D01*
Y237173D01*
X44984Y230130D02*
Y237173D01*
X55221D01*
X70079Y208661D02*
X80315D01*
X70079Y201618D02*
Y208661D01*
X80315Y201618D02*
Y208661D01*
X70079Y201618D02*
X80315D01*
X86221Y208661D02*
X96457D01*
X86221Y201618D02*
Y208661D01*
X96457Y201618D02*
Y208661D01*
X86221Y201618D02*
X96457D01*
X95945Y174224D02*
Y178740D01*
X70197D02*
X95945D01*
X70197Y174224D02*
Y178740D01*
X152756Y150984D02*
Y171063D01*
X167323Y150984D02*
Y171063D01*
X152756D02*
X167323D01*
X152756Y150984D02*
X167323D01*
X152756Y185630D02*
Y205709D01*
X167323Y185630D02*
Y205709D01*
X152756D02*
X167323D01*
X152756Y185630D02*
X167323D01*
X134252Y188189D02*
X141339D01*
Y177165D02*
Y188189D01*
X134252Y177165D02*
X141339D01*
X134252D02*
Y188189D01*
X236811Y322835D02*
X275787D01*
Y305118D02*
Y322835D01*
X236811Y305118D02*
Y322835D01*
Y305118D02*
X275787D01*
X215748Y302362D02*
X229134D01*
X215748D02*
Y309449D01*
X229134D01*
Y302362D02*
Y309449D01*
X215748Y302362D02*
X229134D01*
X215748D02*
Y309449D01*
X229134D01*
Y302362D02*
Y309449D01*
X227165Y314173D02*
Y321260D01*
X216929Y314173D02*
X227165D01*
X216929D02*
Y321260D01*
X227165D01*
X139764Y112205D02*
Y119291D01*
X128740Y112205D02*
X139764D01*
X128740D02*
Y119291D01*
X139764D01*
X152756Y116142D02*
Y136221D01*
X167323Y116142D02*
Y136221D01*
X152756D02*
X167323D01*
X152756Y116142D02*
X167323D01*
X152756Y81299D02*
X167323D01*
X152756Y101378D02*
X167323D01*
Y81299D02*
Y101378D01*
X152756Y81299D02*
Y101378D01*
X134252Y72835D02*
Y83858D01*
Y72835D02*
X141339D01*
Y83858D01*
X134252D02*
X141339D01*
X188189Y149409D02*
Y159646D01*
X181146D02*
X188189D01*
X181146Y149409D02*
X188189D01*
X181146D02*
Y159646D01*
X261858Y263093D02*
X272094D01*
Y270179D01*
X261858D02*
X272094D01*
X261858Y263093D02*
Y270179D01*
X265850Y251872D02*
X268102D01*
X261267Y246754D02*
Y248420D01*
X269590Y246754D02*
X272685D01*
X261267D02*
X264362D01*
X272685D02*
Y248420D01*
X261858Y229235D02*
Y236321D01*
X272094D01*
Y229235D02*
Y236321D01*
X261858Y229235D02*
X272094D01*
X98425Y293307D02*
X121063D01*
X98425D02*
Y322441D01*
X121063Y293307D02*
Y322441D01*
X98425D02*
X121063D01*
X309252Y363189D02*
X348228D01*
Y345472D02*
Y363189D01*
X309252Y345472D02*
Y363189D01*
Y345472D02*
X348228D01*
X262008Y363189D02*
X300984D01*
Y345472D02*
Y363189D01*
X262008Y345472D02*
Y363189D01*
Y345472D02*
X300984D01*
X214764Y363189D02*
X253740D01*
Y345472D02*
Y363189D01*
X214764Y345472D02*
Y363189D01*
Y345472D02*
X253740D01*
X65551Y293307D02*
X88189D01*
X65551D02*
Y322441D01*
X88189Y293307D02*
Y322441D01*
X65551D02*
X88189D01*
X73032Y363583D02*
X112008D01*
Y345866D02*
Y363583D01*
X73032Y345866D02*
Y363583D01*
Y345866D02*
X112008D01*
X73032Y389961D02*
X112008D01*
Y372244D02*
Y389961D01*
X73032Y372244D02*
Y389961D01*
Y372244D02*
X112008D01*
X25787Y363583D02*
X64764D01*
Y345866D02*
Y363583D01*
X25787Y345866D02*
Y363583D01*
Y345866D02*
X64764D01*
X25787Y389961D02*
X64764D01*
Y372244D02*
Y389961D01*
X25787Y372244D02*
Y389961D01*
Y372244D02*
X64764D01*
X167520Y363583D02*
X206496D01*
Y345866D02*
Y363583D01*
X167520Y345866D02*
Y363583D01*
Y345866D02*
X206496D01*
X167520Y389961D02*
X206496D01*
Y372244D02*
Y389961D01*
X167520Y372244D02*
Y389961D01*
Y372244D02*
X206496D01*
X120276Y363583D02*
X159252D01*
Y345866D02*
Y363583D01*
X120276Y345866D02*
Y363583D01*
Y345866D02*
X159252D01*
X120276Y389961D02*
X159252D01*
Y372244D02*
Y389961D01*
X120276Y372244D02*
Y389961D01*
Y372244D02*
X159252D01*
X309252Y389961D02*
X348228D01*
Y372244D02*
Y389961D01*
X309252Y372244D02*
Y389961D01*
Y372244D02*
X348228D01*
X262008Y389961D02*
X300984D01*
Y372244D02*
Y389961D01*
X262008Y372244D02*
Y389961D01*
Y372244D02*
X300984D01*
X214764Y389961D02*
X253740D01*
Y372244D02*
Y389961D01*
X214764Y372244D02*
Y389961D01*
Y372244D02*
X253740D01*
X284744Y271457D02*
X307382D01*
Y310433D01*
X284744D02*
X307382D01*
X284744Y271457D02*
Y310433D01*
X283169Y210827D02*
X305807D01*
Y249803D01*
X283169D02*
X305807D01*
X283169Y210827D02*
Y249803D01*
X183673Y259173D02*
X188189D01*
Y284921D01*
X183673D02*
X188189D01*
X260039Y18386D02*
Y41221D01*
X203740D02*
X260039D01*
X203740Y18386D02*
Y41221D01*
Y18386D02*
X260039D01*
X47441Y13386D02*
X86417D01*
X47441D02*
Y31102D01*
X86417Y13386D02*
Y31102D01*
X47441D02*
X86417D01*
X304921Y27008D02*
X339173D01*
Y147008D01*
X304921D02*
X339173D01*
X304921Y27008D02*
Y147008D01*
X104626Y282677D02*
Y289764D01*
X114862D01*
Y282677D02*
Y289764D01*
X104626Y282677D02*
X114862D01*
X103839Y279528D02*
X117224D01*
Y272441D02*
Y279528D01*
X103839Y272441D02*
X117224D01*
X103839D02*
Y279528D01*
X117224D01*
Y272441D02*
Y279528D01*
X103839Y272441D02*
X117224D01*
X103839D02*
Y279528D01*
X188189Y77165D02*
Y87402D01*
X181146D02*
X188189D01*
X181146Y77165D02*
X188189D01*
X181146D02*
Y87402D01*
X134252Y153543D02*
X141339D01*
Y142520D02*
Y153543D01*
X134252Y142520D02*
X141339D01*
X134252D02*
Y153543D01*
X138882Y255906D02*
X150882D01*
Y287402D01*
X138882D02*
X150882D01*
X138882Y255906D02*
Y287402D01*
X220472Y260630D02*
Y270866D01*
X213429D02*
X220472D01*
X213429Y260630D02*
X220472D01*
X213429D02*
Y270866D01*
X269685Y280709D02*
Y290945D01*
Y280709D02*
X276728D01*
X269685Y290945D02*
X276728D01*
Y280709D02*
Y290945D01*
X220472Y273622D02*
Y283858D01*
X213429D02*
X220472D01*
X213429Y273622D02*
X220472D01*
X213429D02*
Y283858D01*
X329134Y190157D02*
Y197244D01*
X339370D01*
Y190157D02*
Y197244D01*
X329134Y190157D02*
X339370D01*
X329134Y180315D02*
Y187402D01*
X339370D01*
Y180315D02*
Y187402D01*
X329134Y180315D02*
X339370D01*
X329134Y170472D02*
Y177559D01*
X339370D01*
Y170472D02*
Y177559D01*
X329134Y170472D02*
X339370D01*
X329134Y160236D02*
Y167323D01*
X339370D01*
Y160236D02*
Y167323D01*
X329134Y160236D02*
X339370D01*
X311417Y190157D02*
X324803D01*
X311417D02*
Y197244D01*
X324803D01*
Y190157D02*
Y197244D01*
X311417Y190157D02*
X324803D01*
X311417D02*
Y197244D01*
X324803D01*
Y190157D02*
Y197244D01*
X311417Y180315D02*
X324803D01*
X311417D02*
Y187402D01*
X324803D01*
Y180315D02*
Y187402D01*
X311417Y180315D02*
X324803D01*
X311417D02*
Y187402D01*
X324803D01*
Y180315D02*
Y187402D01*
X311417Y170472D02*
X324803D01*
X311417D02*
Y177559D01*
X324803D01*
Y170472D02*
Y177559D01*
X311417Y170472D02*
X324803D01*
X311417D02*
Y177559D01*
X324803D01*
Y170472D02*
Y177559D01*
X311417Y160236D02*
X324803D01*
X311417D02*
Y167323D01*
X324803D01*
Y160236D02*
Y167323D01*
X311417Y160236D02*
X324803D01*
X311417D02*
Y167323D01*
X324803D01*
Y160236D02*
Y167323D01*
X278610Y72702D02*
X277954Y72047D01*
Y70735D01*
X278610Y70079D01*
X279266D01*
X279922Y70735D01*
Y72047D01*
X280578Y72702D01*
X281234D01*
X281890Y72047D01*
Y70735D01*
X281234Y70079D01*
X277954Y76638D02*
Y74015D01*
X281890D01*
Y76638D01*
X279922Y74015D02*
Y75326D01*
X278610Y80574D02*
X277954Y79918D01*
Y78606D01*
X278610Y77950D01*
X281234D01*
X281890Y78606D01*
Y79918D01*
X281234Y80574D01*
X277954Y81886D02*
Y84510D01*
Y83198D01*
X281890D01*
X277954Y85822D02*
Y87134D01*
Y86478D01*
X281890D01*
Y85822D01*
Y87134D01*
X277954Y91069D02*
Y89757D01*
X278610Y89101D01*
X281234D01*
X281890Y89757D01*
Y91069D01*
X281234Y91725D01*
X278610D01*
X277954Y91069D01*
X281890Y93037D02*
X277954D01*
X281890Y95661D01*
X277954D01*
X279922Y96973D02*
Y99597D01*
X277954Y103533D02*
Y100909D01*
X281890D01*
Y103533D01*
X279922Y100909D02*
Y102221D01*
X196325Y47768D02*
X195669Y48424D01*
X194357D01*
X193701Y47768D01*
Y45144D01*
X194357Y44488D01*
X195669D01*
X196325Y45144D01*
X199604Y48424D02*
X198293D01*
X197636Y47768D01*
Y45144D01*
X198293Y44488D01*
X199604D01*
X200260Y45144D01*
Y47768D01*
X199604Y48424D01*
X201572Y44488D02*
Y48424D01*
X204196Y44488D01*
Y48424D01*
X205508Y44488D02*
Y48424D01*
X208132Y44488D01*
Y48424D01*
X212068D02*
X209444D01*
Y44488D01*
X212068D01*
X209444Y46456D02*
X210756D01*
X216003Y47768D02*
X215347Y48424D01*
X214035D01*
X213380Y47768D01*
Y45144D01*
X214035Y44488D01*
X215347D01*
X216003Y45144D01*
X217315Y48424D02*
X219939D01*
X218627D01*
Y44488D01*
X221251Y48424D02*
X222563D01*
X221907D01*
Y44488D01*
X221251D01*
X222563D01*
X224531D02*
Y48424D01*
X227155Y44488D01*
Y48424D01*
X231090Y47768D02*
X230434Y48424D01*
X229122D01*
X228467Y47768D01*
Y45144D01*
X229122Y44488D01*
X230434D01*
X231090Y45144D01*
Y46456D01*
X229778D01*
X238962Y47768D02*
X238306Y48424D01*
X236994D01*
X236338Y47768D01*
Y45144D01*
X236994Y44488D01*
X238306D01*
X238962Y45144D01*
X240274Y44488D02*
Y47112D01*
X241586Y48424D01*
X242898Y47112D01*
Y44488D01*
Y46456D01*
X240274D01*
X244210Y44488D02*
Y48424D01*
X246177D01*
X246833Y47768D01*
Y46456D01*
X246177Y45800D01*
X244210D01*
X245521D02*
X246833Y44488D01*
X248145Y48424D02*
X250769D01*
X249457D01*
Y44488D01*
X252081D02*
Y48424D01*
X254049D01*
X254705Y47768D01*
Y46456D01*
X254049Y45800D01*
X252081D01*
X253393D02*
X254705Y44488D01*
X256017Y48424D02*
X257329D01*
X256673D01*
Y44488D01*
X256017D01*
X257329D01*
X259296Y48424D02*
Y44488D01*
X261264D01*
X261920Y45144D01*
Y47768D01*
X261264Y48424D01*
X259296D01*
X265856Y47768D02*
X265200Y48424D01*
X263888D01*
X263232Y47768D01*
Y45144D01*
X263888Y44488D01*
X265200D01*
X265856Y45144D01*
Y46456D01*
X264544D01*
X269792Y48424D02*
X267168D01*
Y44488D01*
X269792D01*
X267168Y46456D02*
X268480D01*
X105118Y269422D02*
X105774Y270077D01*
X107086D01*
X107742Y269422D01*
Y268765D01*
X107086Y268110D01*
X106430D01*
X107086D01*
X107742Y267454D01*
Y266798D01*
X107086Y266142D01*
X105774D01*
X105118Y266798D01*
X109054Y270077D02*
Y267454D01*
X110366Y266142D01*
X111678Y267454D01*
Y270077D01*
X112990Y269422D02*
X113646Y270077D01*
X114957D01*
X115613Y269422D01*
Y268765D01*
X114957Y268110D01*
X114302D01*
X114957D01*
X115613Y267454D01*
Y266798D01*
X114957Y266142D01*
X113646D01*
X112990Y266798D01*
X76246Y269684D02*
X73622D01*
Y267716D01*
X74934Y268372D01*
X75590D01*
X76246Y267716D01*
Y266404D01*
X75590Y265748D01*
X74278D01*
X73622Y266404D01*
X77558Y269684D02*
Y267060D01*
X78870Y265748D01*
X80182Y267060D01*
Y269684D01*
X38976Y265748D02*
X40288D01*
X39632D01*
Y269684D01*
X38976Y269028D01*
X44880Y265748D02*
X42256D01*
X44880Y268372D01*
Y269028D01*
X44224Y269684D01*
X42912D01*
X42256Y269028D01*
X46192Y269684D02*
Y267060D01*
X47504Y265748D01*
X48816Y267060D01*
Y269684D01*
X150787Y293700D02*
Y289764D01*
X152755D01*
X153411Y290420D01*
Y293044D01*
X152755Y293700D01*
X150787D01*
X154723D02*
X156035D01*
X155379D01*
Y289764D01*
X154723D01*
X156035D01*
X160627Y293044D02*
X159971Y293700D01*
X158659D01*
X158003Y293044D01*
Y292388D01*
X158659Y291732D01*
X159971D01*
X160627Y291076D01*
Y290420D01*
X159971Y289764D01*
X158659D01*
X158003Y290420D01*
X161939Y289764D02*
Y293700D01*
X163907D01*
X164562Y293044D01*
Y291732D01*
X163907Y291076D01*
X161939D01*
X165874Y293700D02*
Y289764D01*
X168498D01*
X169810D02*
Y292388D01*
X171122Y293700D01*
X172434Y292388D01*
Y289764D01*
Y291732D01*
X169810D01*
X173746Y293700D02*
Y293044D01*
X175058Y291732D01*
X176370Y293044D01*
Y293700D01*
X175058Y291732D02*
Y289764D01*
X184241Y293700D02*
X181617D01*
Y291732D01*
X182929D01*
X181617D01*
Y289764D01*
X185553D02*
Y292388D01*
X186865Y293700D01*
X188177Y292388D01*
Y289764D01*
Y291732D01*
X185553D01*
X189489Y289764D02*
Y293700D01*
X192113Y289764D01*
Y293700D01*
X196048Y293044D02*
X195393Y293700D01*
X194080D01*
X193425Y293044D01*
Y292388D01*
X194080Y291732D01*
X195393D01*
X196048Y291076D01*
Y290420D01*
X195393Y289764D01*
X194080D01*
X193425Y290420D01*
X276379Y212073D02*
Y209449D01*
X278347D01*
Y210761D01*
Y209449D01*
X280315D01*
X276379Y213385D02*
X280315D01*
Y216008D01*
X276379Y219288D02*
Y217976D01*
X277035Y217320D01*
X279659D01*
X280315Y217976D01*
Y219288D01*
X279659Y219944D01*
X277035D01*
X276379Y219288D01*
Y221256D02*
X280315D01*
X279003Y222568D01*
X280315Y223880D01*
X276379D01*
X277035Y231751D02*
X276379Y231095D01*
Y229784D01*
X277035Y229128D01*
X277691D01*
X278347Y229784D01*
Y231095D01*
X279003Y231751D01*
X279659D01*
X280315Y231095D01*
Y229784D01*
X279659Y229128D01*
X276379Y235687D02*
Y233063D01*
X280315D01*
Y235687D01*
X278347Y233063D02*
Y234375D01*
X280315Y236999D02*
X276379D01*
X280315Y239623D01*
X276379D01*
X277035Y243559D02*
X276379Y242903D01*
Y241591D01*
X277035Y240935D01*
X277691D01*
X278347Y241591D01*
Y242903D01*
X279003Y243559D01*
X279659D01*
X280315Y242903D01*
Y241591D01*
X279659Y240935D01*
X276379Y246838D02*
Y245526D01*
X277035Y244870D01*
X279659D01*
X280315Y245526D01*
Y246838D01*
X279659Y247494D01*
X277035D01*
X276379Y246838D01*
X280315Y248806D02*
X276379D01*
Y250774D01*
X277035Y251430D01*
X278347D01*
X279003Y250774D01*
Y248806D01*
Y250118D02*
X280315Y251430D01*
X118504Y59449D02*
Y63385D01*
X119816Y62073D01*
X121128Y63385D01*
Y59449D01*
X124407Y63385D02*
X123096D01*
X122440Y62729D01*
Y60105D01*
X123096Y59449D01*
X124407D01*
X125064Y60105D01*
Y62729D01*
X124407Y63385D01*
X126375D02*
X128999D01*
X127687D01*
Y59449D01*
X132279Y63385D02*
X130967D01*
X130311Y62729D01*
Y60105D01*
X130967Y59449D01*
X132279D01*
X132935Y60105D01*
Y62729D01*
X132279Y63385D01*
X134247Y59449D02*
Y63385D01*
X136215D01*
X136871Y62729D01*
Y61417D01*
X136215Y60761D01*
X134247D01*
X135559D02*
X136871Y59449D01*
X142118D02*
Y63385D01*
X143430Y62073D01*
X144742Y63385D01*
Y59449D01*
X148022Y63385D02*
X146710D01*
X146054Y62729D01*
Y60105D01*
X146710Y59449D01*
X148022D01*
X148678Y60105D01*
Y62729D01*
X148022Y63385D01*
X149990D02*
Y59449D01*
X151958D01*
X152614Y60105D01*
Y62729D01*
X151958Y63385D01*
X149990D01*
X153926D02*
Y60105D01*
X154582Y59449D01*
X155894D01*
X156549Y60105D01*
Y63385D01*
X157861D02*
Y59449D01*
X160485D01*
X164421Y63385D02*
X161797D01*
Y59449D01*
X164421D01*
X161797Y61417D02*
X163109D01*
X53017Y37532D02*
X52362Y38188D01*
X51050D01*
X50394Y37532D01*
Y36876D01*
X51050Y36220D01*
X52362D01*
X53017Y35564D01*
Y34908D01*
X52362Y34252D01*
X51050D01*
X50394Y34908D01*
X56953Y38188D02*
X54329D01*
Y34252D01*
X56953D01*
X54329Y36220D02*
X55641D01*
X60889Y37532D02*
X60233Y38188D01*
X58921D01*
X58265Y37532D01*
Y34908D01*
X58921Y34252D01*
X60233D01*
X60889Y34908D01*
X62201Y38188D02*
X64825D01*
X63513D01*
Y34252D01*
X66137Y38188D02*
X67449D01*
X66793D01*
Y34252D01*
X66137D01*
X67449D01*
X71384Y38188D02*
X70072D01*
X69416Y37532D01*
Y34908D01*
X70072Y34252D01*
X71384D01*
X72040Y34908D01*
Y37532D01*
X71384Y38188D01*
X73352Y34252D02*
Y38188D01*
X75976Y34252D01*
Y38188D01*
X77288Y36220D02*
X79912D01*
X83847Y37532D02*
X83192Y38188D01*
X81880D01*
X81224Y37532D01*
Y34908D01*
X81880Y34252D01*
X83192D01*
X83847Y34908D01*
X243307Y299081D02*
Y303017D01*
X245275D01*
X245931Y302361D01*
Y301049D01*
X245275Y300393D01*
X243307D01*
X244619D02*
X245931Y299081D01*
X249867Y302361D02*
X249211Y303017D01*
X247899D01*
X247243Y302361D01*
Y299737D01*
X247899Y299081D01*
X249211D01*
X249867Y299737D01*
Y301049D01*
X248555D01*
X251179Y303017D02*
Y299081D01*
X253146D01*
X253802Y299737D01*
Y300393D01*
X253146Y301049D01*
X251179D01*
X253146D01*
X253802Y301705D01*
Y302361D01*
X253146Y303017D01*
X251179D01*
X255114Y298425D02*
X257738D01*
X259050Y303017D02*
Y299081D01*
X261674D01*
X265610Y303017D02*
X262986D01*
Y299081D01*
X265610D01*
X262986Y301049D02*
X264298D01*
X266921Y303017D02*
Y299081D01*
X268889D01*
X269545Y299737D01*
Y302361D01*
X268889Y303017D01*
X266921D01*
X276379Y160236D02*
X280315D01*
Y162860D01*
X276379Y164172D02*
Y165484D01*
Y164828D01*
X280315D01*
Y164172D01*
Y165484D01*
X276379Y170076D02*
Y167452D01*
X278347D01*
Y168764D01*
Y167452D01*
X280315D01*
X276379Y171388D02*
Y174011D01*
Y172699D01*
X280315D01*
Y179259D02*
X276379D01*
X277691Y180571D01*
X276379Y181883D01*
X280315D01*
X276379Y185163D02*
Y183851D01*
X277035Y183195D01*
X279659D01*
X280315Y183851D01*
Y185163D01*
X279659Y185819D01*
X277035D01*
X276379Y185163D01*
Y187130D02*
Y189754D01*
Y188442D01*
X280315D01*
X276379Y193034D02*
Y191722D01*
X277035Y191066D01*
X279659D01*
X280315Y191722D01*
Y193034D01*
X279659Y193690D01*
X277035D01*
X276379Y193034D01*
X280315Y195002D02*
X276379D01*
Y196970D01*
X277035Y197626D01*
X278347D01*
X279003Y196970D01*
Y195002D01*
Y196314D02*
X280315Y197626D01*
X287008Y316534D02*
X289632D01*
X288320D01*
Y312598D01*
X293567Y316534D02*
X290944D01*
Y312598D01*
X293567D01*
X290944Y314566D02*
X292255D01*
X294879Y312598D02*
Y316534D01*
X296191Y315222D01*
X297503Y316534D01*
Y312598D01*
X298815D02*
Y316534D01*
X300783D01*
X301439Y315878D01*
Y314566D01*
X300783Y313910D01*
X298815D01*
X309310Y315878D02*
X308654Y316534D01*
X307343D01*
X306687Y315878D01*
Y315222D01*
X307343Y314566D01*
X308654D01*
X309310Y313910D01*
Y313254D01*
X308654Y312598D01*
X307343D01*
X306687Y313254D01*
X313246Y316534D02*
X310622D01*
Y312598D01*
X313246D01*
X310622Y314566D02*
X311934D01*
X314558Y312598D02*
Y316534D01*
X317182Y312598D01*
Y316534D01*
X321118Y315878D02*
X320462Y316534D01*
X319150D01*
X318494Y315878D01*
Y315222D01*
X319150Y314566D01*
X320462D01*
X321118Y313910D01*
Y313254D01*
X320462Y312598D01*
X319150D01*
X318494Y313254D01*
X324397Y316534D02*
X323085D01*
X322429Y315878D01*
Y313254D01*
X323085Y312598D01*
X324397D01*
X325053Y313254D01*
Y315878D01*
X324397Y316534D01*
X326365Y312598D02*
Y316534D01*
X328333D01*
X328989Y315878D01*
Y314566D01*
X328333Y313910D01*
X326365D01*
X327677D02*
X328989Y312598D01*
X320472Y343568D02*
Y339632D01*
X323096D01*
X327032Y343568D02*
X324408D01*
Y339632D01*
X327032D01*
X324408Y341600D02*
X325720D01*
X328344Y343568D02*
Y339632D01*
X330312D01*
X330968Y340288D01*
Y342912D01*
X330312Y343568D01*
X328344D01*
X332280Y338976D02*
X334904D01*
X336215Y342912D02*
X336871Y343568D01*
X338183D01*
X338839Y342912D01*
Y342256D01*
X338183Y341600D01*
X337527D01*
X338183D01*
X338839Y340944D01*
Y340288D01*
X338183Y339632D01*
X336871D01*
X336215Y340288D01*
X272835Y343568D02*
Y339632D01*
X275459D01*
X279394Y343568D02*
X276770D01*
Y339632D01*
X279394D01*
X276770Y341600D02*
X278082D01*
X280706Y343568D02*
Y339632D01*
X282674D01*
X283330Y340288D01*
Y342912D01*
X282674Y343568D01*
X280706D01*
X284642Y338976D02*
X287266D01*
X291201Y339632D02*
X288578D01*
X291201Y342256D01*
Y342912D01*
X290546Y343568D01*
X289234D01*
X288578Y342912D01*
X225590Y343568D02*
Y339632D01*
X228214D01*
X232150Y343568D02*
X229526D01*
Y339632D01*
X232150D01*
X229526Y341600D02*
X230838D01*
X233462Y343568D02*
Y339632D01*
X235430D01*
X236086Y340288D01*
Y342912D01*
X235430Y343568D01*
X233462D01*
X237398Y338976D02*
X240022D01*
X241334Y339632D02*
X242645D01*
X241989D01*
Y343568D01*
X241334Y342912D01*
X317323Y370340D02*
Y366404D01*
X319947D01*
X321259D02*
X322570D01*
X321915D01*
Y369028D01*
X321259D01*
X324538Y366404D02*
Y369028D01*
X325194D01*
X325850Y368372D01*
Y366404D01*
Y368372D01*
X326506Y369028D01*
X327162Y368372D01*
Y366404D01*
X328474D02*
X329786D01*
X329130D01*
Y369028D01*
X328474D01*
X332410Y369684D02*
Y369028D01*
X331754D01*
X333066D01*
X332410D01*
Y367060D01*
X333066Y366404D01*
X335034Y365748D02*
X337657D01*
X338969Y369684D02*
X339625Y370340D01*
X340937D01*
X341593Y369684D01*
Y369028D01*
X340937Y368372D01*
X340281D01*
X340937D01*
X341593Y367716D01*
Y367060D01*
X340937Y366404D01*
X339625D01*
X338969Y367060D01*
X270079Y370340D02*
Y366404D01*
X272703D01*
X274014D02*
X275326D01*
X274670D01*
Y369028D01*
X274014D01*
X277294Y366404D02*
Y369028D01*
X277950D01*
X278606Y368372D01*
Y366404D01*
Y368372D01*
X279262Y369028D01*
X279918Y368372D01*
Y366404D01*
X281230D02*
X282542D01*
X281886D01*
Y369028D01*
X281230D01*
X285166Y369684D02*
Y369028D01*
X284510D01*
X285822D01*
X285166D01*
Y367060D01*
X285822Y366404D01*
X287790Y365748D02*
X290413D01*
X294349Y366404D02*
X291725D01*
X294349Y369028D01*
Y369684D01*
X293693Y370340D01*
X292381D01*
X291725Y369684D01*
X223228Y370340D02*
Y366404D01*
X225852D01*
X227164D02*
X228476D01*
X227820D01*
Y369028D01*
X227164D01*
X230444Y366404D02*
Y369028D01*
X231100D01*
X231756Y368372D01*
Y366404D01*
Y368372D01*
X232412Y369028D01*
X233068Y368372D01*
Y366404D01*
X234380D02*
X235691D01*
X235036D01*
Y369028D01*
X234380D01*
X238315Y369684D02*
Y369028D01*
X237659D01*
X238971D01*
X238315D01*
Y367060D01*
X238971Y366404D01*
X240939Y365748D02*
X243563D01*
X244875Y366404D02*
X246187D01*
X245531D01*
Y370340D01*
X244875Y369684D01*
X174016Y343568D02*
X176640D01*
X175328D01*
Y339632D01*
X178607D02*
X179919D01*
X180575Y340288D01*
Y341600D01*
X179919Y342256D01*
X178607D01*
X177952Y341600D01*
Y340288D01*
X178607Y339632D01*
X181887Y342256D02*
Y340288D01*
X182543Y339632D01*
X184511D01*
Y342256D01*
X188447D02*
X186479D01*
X185823Y341600D01*
Y340288D01*
X186479Y339632D01*
X188447D01*
X189759Y343568D02*
Y339632D01*
Y341600D01*
X190415Y342256D01*
X191727D01*
X192383Y341600D01*
Y339632D01*
X193694Y338976D02*
X196318D01*
X197630Y342912D02*
X198286Y343568D01*
X199598D01*
X200254Y342912D01*
Y342256D01*
X199598Y341600D01*
X200254Y340944D01*
Y340288D01*
X199598Y339632D01*
X198286D01*
X197630Y340288D01*
Y340944D01*
X198286Y341600D01*
X197630Y342256D01*
Y342912D01*
X198286Y341600D02*
X199598D01*
X174016Y370340D02*
X176640D01*
X175328D01*
Y366404D01*
X178607D02*
X179919D01*
X180575Y367060D01*
Y368372D01*
X179919Y369028D01*
X178607D01*
X177952Y368372D01*
Y367060D01*
X178607Y366404D01*
X181887Y369028D02*
Y367060D01*
X182543Y366404D01*
X184511D01*
Y369028D01*
X188447D02*
X186479D01*
X185823Y368372D01*
Y367060D01*
X186479Y366404D01*
X188447D01*
X189759Y370340D02*
Y366404D01*
Y368372D01*
X190415Y369028D01*
X191727D01*
X192383Y368372D01*
Y366404D01*
X193694Y365748D02*
X196318D01*
X197630Y370340D02*
X200254D01*
Y369684D01*
X197630Y367060D01*
Y366404D01*
X127165Y343568D02*
X129789D01*
X128477D01*
Y339632D01*
X131757D02*
X133069D01*
X133725Y340288D01*
Y341600D01*
X133069Y342256D01*
X131757D01*
X131101Y341600D01*
Y340288D01*
X131757Y339632D01*
X135037Y342256D02*
Y340288D01*
X135693Y339632D01*
X137661D01*
Y342256D01*
X141596D02*
X139629D01*
X138973Y341600D01*
Y340288D01*
X139629Y339632D01*
X141596D01*
X142908Y343568D02*
Y339632D01*
Y341600D01*
X143564Y342256D01*
X144876D01*
X145532Y341600D01*
Y339632D01*
X146844Y338976D02*
X149468D01*
X153404Y343568D02*
X152092Y342912D01*
X150780Y341600D01*
Y340288D01*
X151436Y339632D01*
X152748D01*
X153404Y340288D01*
Y340944D01*
X152748Y341600D01*
X150780D01*
X126772Y370340D02*
X129395D01*
X128084D01*
Y366404D01*
X131363D02*
X132675D01*
X133331Y367060D01*
Y368372D01*
X132675Y369028D01*
X131363D01*
X130707Y368372D01*
Y367060D01*
X131363Y366404D01*
X134643Y369028D02*
Y367060D01*
X135299Y366404D01*
X137267D01*
Y369028D01*
X141203D02*
X139235D01*
X138579Y368372D01*
Y367060D01*
X139235Y366404D01*
X141203D01*
X142515Y370340D02*
Y366404D01*
Y368372D01*
X143171Y369028D01*
X144483D01*
X145138Y368372D01*
Y366404D01*
X146450Y365748D02*
X149074D01*
X153010Y370340D02*
X150386D01*
Y368372D01*
X151698Y369028D01*
X152354D01*
X153010Y368372D01*
Y367060D01*
X152354Y366404D01*
X151042D01*
X150386Y367060D01*
X79921Y343568D02*
X82545D01*
X81233D01*
Y339632D01*
X84513D02*
X85825D01*
X86481Y340288D01*
Y341600D01*
X85825Y342256D01*
X84513D01*
X83857Y341600D01*
Y340288D01*
X84513Y339632D01*
X87793Y342256D02*
Y340288D01*
X88449Y339632D01*
X90417D01*
Y342256D01*
X94352D02*
X92384D01*
X91729Y341600D01*
Y340288D01*
X92384Y339632D01*
X94352D01*
X95664Y343568D02*
Y339632D01*
Y341600D01*
X96320Y342256D01*
X97632D01*
X98288Y341600D01*
Y339632D01*
X99600Y338976D02*
X102224D01*
X105504Y339632D02*
Y343568D01*
X103536Y341600D01*
X106159D01*
X79921Y370340D02*
X82545D01*
X81233D01*
Y366404D01*
X84513D02*
X85825D01*
X86481Y367060D01*
Y368372D01*
X85825Y369028D01*
X84513D01*
X83857Y368372D01*
Y367060D01*
X84513Y366404D01*
X87793Y369028D02*
Y367060D01*
X88449Y366404D01*
X90417D01*
Y369028D01*
X94352D02*
X92384D01*
X91729Y368372D01*
Y367060D01*
X92384Y366404D01*
X94352D01*
X95664Y370340D02*
Y366404D01*
Y368372D01*
X96320Y369028D01*
X97632D01*
X98288Y368372D01*
Y366404D01*
X99600Y365748D02*
X102224D01*
X103536Y369684D02*
X104192Y370340D01*
X105504D01*
X106159Y369684D01*
Y369028D01*
X105504Y368372D01*
X104848D01*
X105504D01*
X106159Y367716D01*
Y367060D01*
X105504Y366404D01*
X104192D01*
X103536Y367060D01*
X32677Y343568D02*
X35301D01*
X33989D01*
Y339632D01*
X37269D02*
X38581D01*
X39237Y340288D01*
Y341600D01*
X38581Y342256D01*
X37269D01*
X36613Y341600D01*
Y340288D01*
X37269Y339632D01*
X40549Y342256D02*
Y340288D01*
X41205Y339632D01*
X43172D01*
Y342256D01*
X47108D02*
X45140D01*
X44484Y341600D01*
Y340288D01*
X45140Y339632D01*
X47108D01*
X48420Y343568D02*
Y339632D01*
Y341600D01*
X49076Y342256D01*
X50388D01*
X51044Y341600D01*
Y339632D01*
X52356Y338976D02*
X54980D01*
X58915Y339632D02*
X56292D01*
X58915Y342256D01*
Y342912D01*
X58259Y343568D01*
X56948D01*
X56292Y342912D01*
X33071Y370340D02*
X35695D01*
X34383D01*
Y366404D01*
X37663D02*
X38974D01*
X39630Y367060D01*
Y368372D01*
X38974Y369028D01*
X37663D01*
X37007Y368372D01*
Y367060D01*
X37663Y366404D01*
X40942Y369028D02*
Y367060D01*
X41598Y366404D01*
X43566D01*
Y369028D01*
X47502D02*
X45534D01*
X44878Y368372D01*
Y367060D01*
X45534Y366404D01*
X47502D01*
X48814Y370340D02*
Y366404D01*
Y368372D01*
X49470Y369028D01*
X50782D01*
X51438Y368372D01*
Y366404D01*
X52750Y365748D02*
X55373D01*
X56685Y366404D02*
X57997D01*
X57341D01*
Y370340D01*
X56685Y369684D01*
D12*
X148917Y242520D02*
G03*
X148917Y242520I-492J0D01*
G01*
Y207677D02*
G03*
X148917Y207677I-492J0D01*
G01*
Y138189D02*
G03*
X148917Y138189I-492J0D01*
G01*
X112303Y325000D02*
G03*
X112303Y325000I-492J0D01*
G01*
X46555D02*
G03*
X46555Y325000I-492J0D01*
G01*
X79429D02*
G03*
X79429Y325000I-492J0D01*
G01*
X148917Y103347D02*
G03*
X148917Y103347I-492J0D01*
G01*
Y173031D02*
G03*
X148917Y173031I-492J0D01*
G01*
X294547Y269350D02*
G03*
X294547Y269350I-492J0D01*
G01*
X292972Y208720D02*
G03*
X292972Y208720I-492J0D01*
G01*
X97894Y189764D02*
G03*
X97894Y189764I-492J0D01*
G01*
X199705Y257716D02*
G03*
X199705Y257716I-492J0D01*
G01*
X201870Y29921D02*
G03*
X201870Y29921I-492J0D01*
G01*
X283563Y42008D02*
G03*
X283563Y42008I-492J0D01*
G01*
D13*
X157874Y236614D02*
G03*
X157874Y236614I-1181J0D01*
G01*
Y201772D02*
G03*
X157874Y201772I-1181J0D01*
G01*
Y132283D02*
G03*
X157874Y132283I-1181J0D01*
G01*
Y97441D02*
G03*
X157874Y97441I-1181J0D01*
G01*
Y167126D02*
G03*
X157874Y167126I-1181J0D01*
G01*
D14*
X258071Y237008D02*
G03*
X258071Y237008I-16732J0D01*
G01*
D15*
X207402Y217165D02*
X267402D01*
Y137165D02*
Y217165D01*
X207402Y137165D02*
X267402D01*
X207402D02*
Y217165D01*
X283858Y198622D02*
X304724D01*
X283858Y159252D02*
X304724D01*
Y198622D01*
X283858Y159252D02*
Y198622D01*
D16*
X207758Y296457D02*
Y322835D01*
X195948Y296457D02*
Y300394D01*
X187286Y296457D02*
Y300394D01*
X195948D01*
X176262Y296457D02*
X207758D01*
X176262D02*
Y322835D01*
X207758D01*
X169685Y296457D02*
Y322835D01*
X157874Y296457D02*
Y300394D01*
X149213Y296457D02*
Y300394D01*
X157874D01*
X138189Y296457D02*
X169685D01*
X138189D02*
Y322835D01*
X169685D01*
X351575Y299921D02*
X353937D01*
X351575Y292047D02*
X353937D01*
X351575D02*
Y299921D01*
X323622Y307992D02*
X323622Y243819D01*
X322441Y308189D02*
X322441Y244016D01*
X350000Y308189D02*
X350000Y244016D01*
X351575Y279842D02*
X353937D01*
X351575Y271969D02*
Y279842D01*
Y271969D02*
X353937D01*
X351575Y259764D02*
X353937D01*
X351575Y251890D02*
Y259764D01*
Y251890D02*
X353937D01*
X353937Y243701D02*
Y308268D01*
X320866Y243701D02*
Y308268D01*
X353937D01*
X320866Y243701D02*
X353937D01*
D17*
X113228Y51218D02*
X113895Y50551D01*
X115228D01*
X115894Y51218D01*
Y53883D01*
X115228Y54550D01*
X113895D01*
X113228Y53883D01*
Y53217D01*
X113895Y52551D01*
X115894D01*
X109449Y40551D02*
X110782D01*
X110115D01*
Y44550D01*
X109449Y43883D01*
X112781D02*
X113447Y44550D01*
X114780D01*
X115447Y43883D01*
Y41218D01*
X114780Y40551D01*
X113447D01*
X112781Y41218D01*
Y43883D01*
X168965Y40551D02*
X166299D01*
X168965Y43217D01*
Y43883D01*
X168299Y44550D01*
X166966D01*
X166299Y43883D01*
X166693Y50551D02*
X168026D01*
X167359D01*
Y54550D01*
X166693Y53883D01*
D18*
X216339Y306102D02*
D03*
D03*
X116634Y275787D02*
D03*
D03*
X83760D02*
D03*
D03*
X50886Y275787D02*
D03*
D03*
X312008Y193898D02*
D03*
D03*
Y184055D02*
D03*
D03*
Y174213D02*
D03*
D03*
Y163976D02*
D03*
D03*
D19*
X145031Y286417D02*
D03*
M02*
