M48
;Layer_Color=9474304
;FILE_FORMAT=2:5
INCH,LZ
;TYPE=PLATED
T1F00S00C0.01181
T2F00S00C0.03150
T3F00S00C0.03543
T4F00S00C0.03937
T5F00S00C0.04000
T6F00S00C0.04016
T7F00S00C0.04331
T8F00S00C0.04724
T9F00S00C0.05118
T10F00S00C0.05512
;TYPE=NON_PLATED
T11F00S00C0.10827
T12F00S00C0.11811
%
T01
X0041018Y0044488
X0039625Y005
X0069291Y0048819
X0096063Y0006693
X0121196Y0006213
X0136221Y000315
X0222441Y0003543
X0293307Y0017717
X0261903Y0061903
X0244882Y0114567
X0227953Y0116142
X0235827Y0128347
X023189Y0180421
X0190157Y0174409
X0180799Y0177953
X0180857Y020428
X0160236Y0186614
X0155118Y0183071
X0145079Y0185236
X0145669Y017874
X0140157Y0167323
X0131496Y0170866
X0124016Y0169685
X0118504Y0177953
X0124016Y018937
X0123622Y0199213
X0124016Y0204469
X0114567Y0192126
X01Y021228
X0072638Y019815
X0074803Y0139232
X0083858Y0126378
X0105315Y013248
X0104724Y0137402
X0111417Y0125197
X0122835Y0121653
X0131102Y0126378
X0143169Y0122441
X0145079Y0115748
X0154823Y0127461
X0158539Y0132816
X016624Y0124902
X0179438Y0127116
X0187598Y0124963
X0192913Y0131496
X0197244Y0128347
X0182283Y0137402
X0176378Y0139764
X0169685Y0140551
X0172147Y0149606
X0177165Y0147244
X0190157Y0151969
X0164567Y0167323
X0152756Y0145669
X0150787Y0141339
X0142126Y0140551
X0142413Y0152075
X012126Y0151181
X012122Y0157185
X0105905Y016063
X0112598Y0101575
X0127559Y0096457
X013512Y0094963
X0138189Y0088976
X0145079Y0080905
X0150394Y0076772
X0155512Y0079528
X0161811Y0082933
X0161875Y0091252
X0162268Y0096371
X016811Y0109055
X0175197Y0104724
X0179134Y01
X0177165Y0112598
X0185433Y0109055
X0190157Y0104331
X0179134Y0079134
X0085433Y0064961
X0063779Y0073228
X0058661Y0071653
X0054724Y009252
X0044743Y0169291
X003937Y0172441
X0033858Y0163386
X0052362Y0183858
X0040945Y0238976
X0072441Y023937
X0092126Y0239764
X0096653Y0270079
X0134646Y0287402
X0140551Y0293753
Y0322441
X0153543Y0329528
X0148031Y0363779
X0116535Y0359449
X0136221Y0247638
X0140157Y0240158
X0156988Y023435
X0164567Y0243307
X0151181Y0252756
X0145079Y0220079
X0147977Y0215693
X0179921Y0222441
X0190157Y0235433
X0203543Y0251969
X0209842Y0281102
X0214567Y0257087
X0258268Y0250787
X0235433Y0323622
X0261417Y0385433
T02
X0212205Y0029921
X0220079
X0227953
X0235827
X0243701
X0251575
X0248228Y0237008
X0234449
T03
X0292421Y0220472
Y0230315
Y0240158
X0293996Y0281102
Y0290945
Y0300787
T04
X0055118Y0024409
X0062992
X0070866
X007874
X0046063Y0302953
Y0312795
X0049213Y0352559
X0041339
X0033465
X0057087
X0080709
X0088583
X0096457
X0104331
X0127953
X0135827
X0143701
X0151575
X0175197
X0183071
X0190945
X0198819
X0111811Y0312795
Y0302953
X0078937
Y0312795
X0244488Y0311811
X0252362
X0260236
X026811
X0269685Y0352165
X0277559
X0285433
X0293307
X0316929
X0324803
X0332677
X0340551
X0246063
X0238189
X0230315
X0222441
Y0378937
X0230315
X0238189
X0246063
X0269685
X0277559
X0285433
X0293307
X0316929
X0324803
X0332677
X0340551
X0198819
X0190945
X0183071
X0175197
X0151575
X0143701
X0135827
X0127953
X0104331
X0096457
X0088583
X0080709
X0057087
X0049213
X0041339
X0033465
T05
X00145Y0038
Y0048
X00245
Y0038
Y0058
X00145
Y0068
Y0078
Y0088
Y0098
Y0108
Y0118
Y0128
Y0138
Y0148
Y0158
Y0168
Y0178
Y0188
Y0198
Y0208
X00245
Y0198
Y0188
Y0178
Y0168
Y0158
Y0148
Y0138
Y0128
Y0118
Y0108
Y0098
Y0088
Y0078
Y0068
Y0218
X00145
Y0228
X00245
T06
X0288622Y0042008
X0298622
Y0052008
X0288622
Y0062008
X0298622
Y0072008
Y0082008
Y0092008
Y0102008
Y0112008
Y0122008
Y0132008
X0288622
Y0122008
Y0112008
Y0102008
Y0092008
Y0082008
Y0072008
X0262402Y0142165
Y0152165
Y0162165
Y0172165
Y0182165
Y0192165
Y0202165
Y0212165
X0212402
Y0202165
Y0192165
Y0182165
Y0172165
Y0162165
Y0152165
Y0142165
T07
X0120945Y0042382
X0130945
X0140945
X0150945
X0160945
Y0052382
X0150945
X0140945
X0130945
X0120945
X0293307Y0164173
Y0174016
Y0183858
Y0193701
T08
X0149016Y0308661
X0158858
X0187089
X0196932
T09
X0338189Y0255906
Y0275905
Y0295905
T10
X0074252Y0098032
X0094252
T11
X00195Y0018827
Y0247173
T12
X0344488Y0011811
X0016535Y0328346
X0344488Y0327953
M30
